<?xml version="1.0" encoding="UTF-8" standalone="no"?>
<!-- Created with Inkscape (http://www.inkscape.org/) -->

<svg
   width="296.99997mm"
   height="210mm"
   viewBox="0 0 1122.5196 793.70081"
   version="1.1"
   id="svg1"
   xmlns="http://www.w3.org/2000/svg"
   xmlns:svg="http://www.w3.org/2000/svg">
  <defs
     id="defs1" />
  <g
     id="layer1">
    <path
       style="fill:#d45500"
       d="m -2.7818153,506.29037 c 67.8445833,-1.56249 135.4709253,3.42897 203.0725053,8.34544 114.08516,8.29711 -30.69154,-1.39457 73.71811,2.78182 11.61864,0.46475 23.16838,2.04111 34.77269,2.78182 53.5898,3.42062 8.41301,0.0417 55.63631,1.3909 23.8982,0.68281 47.17738,4.97463 70.93628,6.95454 26.37516,2.19793 52.85128,1.39091 79.28173,1.39091 26.41306,0 52.87314,0.45532 79.28174,0 33.44614,-0.57666 68.04648,-1.03306 101.53626,-4.17272 6.52818,-0.61202 12.93144,-2.3307 19.47271,-2.78182 6.93805,-0.47849 13.9132,0.23967 20.86361,0 24.62112,-0.849 49.12291,-4.53883 73.7181,-5.56363 11.58085,-0.48254 23.1818,0 34.77269,0 10.66363,0 21.36734,0.92379 31.99088,0 5.61917,-0.48862 11.07172,-2.29319 16.69089,-2.78182 5.08082,-0.44181 10.2048,0.22153 15.29998,0 17.18237,-0.74705 34.27238,-3.48507 51.46358,-4.17272 14.3722,-0.57489 28.76432,-0.54656 43.11815,-1.39091 25.6982,-1.51165 -2.4996,-1.11301 20.8636,-2.78181 9.0261,-0.64472 18.8979,1.4867 27.8181,0 2.8924,-0.48207 5.5007,-2.07063 8.3455,-2.78182 3.4555,-0.86389 7.5973,0.50429 11.1272,0 1.8924,-0.27034 3.6637,-1.1798 5.5637,-1.3909 7.4489,-0.82766 14.9679,1.34157 22.2545,-1.39091 1.5652,-0.58696 2.6075,-2.19486 4.1727,-2.78182 6.0555,-2.27082 13.1582,-1.3909 19.4727,-1.3909 0.8188,0 13.6689,1.15075 11.1273,-1.39091 -0.7331,-0.73307 -1.8546,-0.92727 -2.7818,-1.39091 -1.3909,-0.92727 -2.9907,-1.59977 -4.1728,-2.78181 -1.6392,-1.6392 -2.4496,-4.01285 -4.1727,-5.56363 -17.9582,-16.16238 -1.7525,3.39193 -19.4727,-16.6909 -3.9283,-4.45211 -7.1553,-9.49581 -11.1272,-13.90907 -21.4927,-23.88071 -45.0144,-46.10582 -69.5454,-66.76356 -9.9624,-8.38933 -19.5657,-19.33379 -30.59997,-26.42725 -3.48828,-2.24246 -7.57134,-3.43007 -11.12727,-5.56363 -3.41997,-2.05199 -6.2602,-4.99921 -9.73635,-6.95454 -3.97986,-2.23867 -8.48254,-3.42712 -12.51817,-5.56363 -3.86563,-2.04651 -7.31505,-4.81017 -11.12726,-6.95454 -13.5976,-7.64865 -29.03041,-13.02047 -41.72722,-22.25452 -2.12109,-1.54261 -3.57232,-3.85678 -5.56364,-5.56363 -2.53844,-2.1758 -5.67078,-3.55763 -8.34544,-5.56363 -1.5098,-1.13235 -1.9817,-3.3726 -2.78182,-4.17272 -0.7327,-0.73271 -7.99283,0 -9.73635,0 -20.86361,0 -41.72723,0 -62.59084,0 -31.96001,0 -64.03371,0.59146 -95.97262,0 -51.87998,-0.96074 1.81562,-1.36795 -50.07268,-4.17272 -8.79624,-0.47548 -17.61816,0 -26.42724,0 -8.80909,-0.46364 -17.61956,-0.90159 -26.42725,-1.39091 -30.65625,-1.70313 -61.08252,-5.96365 -91.7999,-6.95454 -13.74095,-0.44325 -26.65079,0.36015 -40.33632,0 -21.43574,-0.5641 -42.64485,-1.76577 -63.98175,-2.78181 -20.74676,-0.98794 -41.81871,0 -62.59084,0 -27.35452,0 -54.70904,0 -82.06355,0 -9.61011,0 -27.3538,1.70011 -37.55451,0 -1.02261,-0.17044 -1.77604,-1.13947 -2.78181,-1.39091 -3.02988,-0.75747 -6.65584,0.51342 -9.73635,0 -14.94209,-2.49035 -28.87419,-1.45789 -43.11815,1.39091 -1.4766,0.29532 -8.56067,-1.17568 -9.73635,0 -0.32784,0.32784 0.20734,0.97622 0,1.3909 -0.87969,1.75938 -3.08161,2.53605 -4.17273,4.17273 -1.15013,1.72521 -1.57665,3.8764 -2.78181,5.56363 -4.73997,6.63596 -11.36892,13.26374 -16.69089,19.4727 -18.41316,21.48203 -0.69286,0.8231 -20.86361,22.25452 -12.20046,12.96299 -23.26481,26.79764 -34.772693,40.33632 -11.922933,14.02699 -25.23732,27.99904 -38.945413,40.33632 -21.4727,17.17816 4.749949,-4.74994 -11.12726,11.12726 -1.182045,1.18205 -3.102551,1.49761 -4.172723,2.78182 -5.814109,6.97693 -0.445615,3.52451 -4.172723,9.73635 -1.896091,3.16016 -6.328948,5.3207 -8.345445,8.34545 -5.610228,8.41534 2.016464,0.55683 -2.781816,6.95454 -4.339787,5.78638 -8.795482,12.9682 -13.909076,18.0818 -0.733073,0.73307 -2.1341807,0.58136 -2.7818153,1.3909 -2.2418264,2.80229 -2.9448374,8.50847 -5.5636304,11.12726 -0.8520341,0.85204 -3.64015213,1.18411 -4.1727229,2.78182 -0.293229,0.87969 0.2932291,1.90213 0,2.78181 -0.4146885,1.24407 -2.1953571,1.6089 -2.7818152,2.78182 -0.2073443,0.41469 0.32784,1.06307 0,1.39091 -0.3278401,0.32784 -1.4564756,-0.45898 -1.3909076,0 0.4773423,3.34139 4.80700723,7.03609 2.7818151,9.73635 -0.3828791,0.5105 -13.9090757,-0.0374 -13.9090757,4.17272 0,0.46364 -0.32784,1.06307 0,1.39091 2.230968,2.23097 10.7796852,-3.77541 13.9090757,-5.56363 z"
       id="path73" />
    <path
       style="fill:#00ffff"
       d="m 310.1724,72.327196 c -0.8192,7.372802 0.8192,14.881719 0,22.254521 -1.50398,13.535853 -4.84115,26.609253 -5.56363,40.336323 -0.68141,12.9468 0.61669,25.99494 0,38.94541 -0.90504,19.00582 -2.78181,37.99882 -2.78181,57.02722 0,9.73038 1.43823,18.41307 2.78181,27.81815 0.45898,3.21283 -2.29488,7.44147 0,9.73635 1.85847,1.85847 4.00319,-4.08795 4.17272,-4.17272 2.48813,-1.24407 5.59159,0.39341 8.34545,0 1.89241,-0.27034 3.6615,-1.20069 5.56363,-1.39091 13.14782,-1.31478 31.38251,-0.69087 44.50904,0 28.82446,1.51708 -2.85811,1.12535 23.64543,2.78182 22.31592,1.39474 1.10571,-1.67026 19.47271,1.39091 23.43811,3.90635 -6.65543,-0.63921 16.69089,1.3909 11.1717,0.97146 22.18191,3.61273 33.38178,4.17273 6.01975,0.30098 12.06493,-0.35394 18.0818,0 1.25755,0.074 9.42852,3.08964 11.12726,1.3909 0.0619,-0.0619 0.0653,-24.187 0,-25.03633 -1.06988,-13.90838 -1.95303,-5.94552 -2.78182,-20.86362 -0.97108,-17.47947 0,-35.34475 0,-52.85449 0,-29.92538 1.90583,-60.73838 -1.3909,-90.408996 -1.9062,-17.155741 2.09343,4.201023 -1.39091,-9.736353 -0.26546,-1.06182 0.72526,-4.838363 0,-5.56363 -1.10715,-1.107153 -5.14718,1.224325 -5.56363,1.390908 -7.45603,2.982412 -10.95435,1.356324 -18.0818,2.781815 -21.16613,4.233225 16.38795,2.781815 -15.29998,2.781815 -23.92725,0 7.33616,-0.457328 -16.6909,1.390908 -8.75381,0.67337 -17.67826,-0.729082 -26.42724,0 -11.02811,0.919009 -22.21253,2.406293 -33.38178,1.390907 -8.91326,-0.810296 -17.59623,-3.068846 -26.42725,-4.172723 -3.22038,-0.402548 -6.53506,0.533549 -9.73635,0 -3.4447,-0.574116 -6.48169,-1.96815 -9.73635,-2.781815 -4.04814,-1.012034 -8.34545,0 -12.51817,0 z"
       id="path74" />
    <path
       style="fill:#00ffff"
       d="m 499.33583,76.499919 c -0.15417,13.486736 -0.0921,26.989571 1.39091,40.336321 0.2111,1.89992 1.21784,3.65986 1.39091,5.56363 0.5037,5.54078 -0.55361,11.15487 0,16.69089 0.65311,6.53117 2.06226,12.99674 2.78181,19.4727 0.4608,4.14721 -0.4608,8.37097 0,12.51817 0.88339,7.95053 3.04787,15.77146 4.17272,23.64543 1.3213,9.24907 0,19.83506 0,29.20907 0,8.17831 1.74555,25.00869 0,31.99087 -0.63294,2.53179 -4.17272,13.69098 -4.17272,15.29999 0,0.46363 0.92727,0 1.39091,0 2.78181,0 5.56363,0 8.34544,0 18.54544,0 37.09087,0 55.63631,0 23.65637,0 47.48418,-0.7411 70.93629,1.39091 2.35438,0.21403 4.60871,1.09767 6.95454,1.3909 2.76034,0.34505 5.59159,-0.3934 8.34545,0 6.0728,0.86755 10.23517,4.07296 16.69089,2.78182 0.45463,-0.0909 0,-0.92727 0,-1.39091 0,-2.31818 0,-4.63636 0,-6.95454 0,-4.63636 0,-9.27271 0,-13.90907 0,-14.819 -3.00112,-28.59722 -5.56363,-43.11815 -5.19375,-29.43125 1.56137,5.70694 -1.39091,-20.86361 -0.57243,-5.1519 -2.01288,-10.17373 -2.78181,-15.29998 -0.6228,-4.15196 -0.73612,-8.37115 -1.39091,-12.51817 -2.2666,-14.35515 -4.42638,-28.79191 -6.95454,-43.11814 -1.2203,-6.91503 -3.39759,-13.88742 -4.17272,-20.86361 -0.64755,-5.827901 0.43287,-11.219541 -1.39091,-16.690891 -0.52863,-1.585878 -2.25319,-2.586844 -2.78181,-4.172722 -0.43985,-1.319531 0.98352,-3.189203 0,-4.172723 -1.13736,-1.137354 -15.68635,0 -18.08181,0 -20.53187,0 -40.65903,1.390907 -61.19994,1.390907 -22.63951,0 -45.67995,-1.418406 -68.15447,1.390908 z"
       id="path75" />
    <path
       style="fill:#000000"
       id="path76"
       d="m 5.977514,508.90073 c 10.953654,1.95133 22.078006,2.63489 33.17066,3.25114 13.955293,1.07606 27.942881,1.53658 41.932428,1.85557 13.176686,0.32225 26.360268,0.0651 39.535088,0.41977 14.48328,0.39997 28.94565,1.2981 43.38716,2.44492 15.67246,1.25814 31.36301,2.30581 47.02669,3.67032 12.27879,1.19368 24.55163,2.30636 36.8758,2.9056 11.45691,0.48248 22.92544,0.52527 34.39048,0.55289 14.62569,-0.40632 29.24777,-0.88629 43.87721,-1.15 16.24996,-0.24737 32.50226,-0.25116 48.75368,-0.26649 17.63086,-0.009 35.26172,-0.002 52.89257,0.001 16.06893,0.003 32.13785,0.004 48.20677,0.004 13.88691,3.1e-4 27.77382,2.7e-4 41.66073,2.5e-4 13.5916,-0.10687 27.17521,0.0377 40.76177,0.39469 17.41367,0.28063 34.80731,1.15683 52.2115,1.74188 16.31094,0.505 32.63071,0.58047 48.94806,0.63657 18.09893,0.45365 36.1504,-0.42792 54.17099,-2.02682 19.40353,-2.13025 38.90577,-2.7126 58.3972,-3.38522 23.96637,-0.92223 47.88238,-2.71261 71.7878,-4.59745 16.55636,-1.44842 33.05477,-3.42311 49.63965,-4.53913 10.30725,-0.60161 20.58748,-1.44816 30.90896,-1.78796 14.45515,-0.13845 28.89661,-0.77749 43.34492,-1.19658 13.83125,-0.13683 27.64284,-0.86691 41.46287,-1.36804 12.5795,-0.3004 25.1597,-0.71635 37.7152,-1.56498 11.6281,-0.74485 23.2402,-1.42207 34.8281,-2.66027 7.9618,-0.74421 15.911,-1.48645 23.7508,-3.09397 3.8544,-0.94975 7.7896,-1.33303 11.7433,-1.50699 3.8956,-0.13604 9.2239,0.65562 10.1622,-4.76672 0.2257,-1.30448 -0.7303,-2.545 -1.0955,-3.81751 -0.7035,-0.87387 -1.3457,-1.80089 -2.1106,-2.62162 -1.074,-1.1525 -4.9516,-4.58346 -6.0331,-5.51601 -4.0084,-3.45625 -8.1593,-6.6868 -12.3949,-9.85728 -8.9468,-6.13854 -17.9557,-12.18124 -26.6907,-18.62056 -8.8989,-6.74555 -17.6871,-13.6198 -26.1495,-20.9062 -7.5232,-6.66605 -14.9864,-13.40659 -22.0089,-20.60136 -5.7256,-5.97825 -11.4954,-11.93147 -17.0681,-18.05237 -5.294,-5.43488 -9.9941,-11.39327 -14.89394,-17.17321 -5.08635,-6.79759 -10.51871,-13.31596 -15.80891,-19.95455 -5.73034,-7.72328 -13.07294,-13.85938 -20.59986,-19.73144 -8.27419,-6.01627 -17.29635,-10.82154 -26.40253,-15.42351 -6.92814,-3.30067 -13.8441,-6.61678 -20.85619,-9.73702 -5.82833,-2.71205 -11.47825,-5.83323 -16.93623,-9.22871 -3.29386,-2.07969 -6.36901,-4.33173 -10.09106,-5.57846 -9.29637,-1.29401 -18.81083,-0.82806 -28.18103,-0.83779 -26.87941,0.16533 -53.7393,-0.83977 -80.58785,-1.99086 -24.28531,-1.10732 -48.59109,-1.58842 -72.88706,-2.38514 -21.17026,-0.71811 -42.35209,-0.93771 -63.53264,-1.06975 -19.2085,-0.0916 -38.41728,-0.0822 -57.62593,-0.0791 -18.25904,0.005 -36.51809,0.009 -54.77713,0.0117 -19.72753,0.26108 -39.44032,-0.37954 -59.14544,-1.22839 -17.72435,-0.84271 -35.36755,-2.78212 -53.04815,-4.20753 -14.76415,-1.24974 -29.52319,-2.55303 -44.28327,-3.8496 -13.8574,-1.2147 -27.71808,-2.23229 -41.61924,-2.76433 -14.38229,-0.42087 -28.75257,-1.12495 -43.13707,-1.49408 -13.78637,-0.30344 -27.57671,-0.34098 -41.36582,-0.36934 -8.18313,-0.0126 -16.36627,-0.005 -24.54941,4e-5 -9.52383,0.0523 -19.04957,-0.13372 -28.56941,0.17415 -6.04209,0.4685 -13.24224,-0.0835 -18.25996,4.01881 -0.82208,0.6721 -1.46216,1.5402 -2.19324,2.3103 -5.42126,8.39925 -12.66595,15.34102 -19.44176,22.61536 -11.44331,11.73717 -22.70956,23.63754 -33.8445,35.66689 -9.88964,10.34338 -18.9453,21.42366 -28.563655,32.01355 -7.952486,8.71839 -16.18151,17.17764 -24.10632,25.92132 -6.722159,7.44564 -13.66608,14.72889 -20.05517,22.46535 -5.676512,6.90409 -10.802767,14.23566 -16.252351,21.3216 -5.829106,7.98759 -11.886703,15.8174 -18.17148,23.45244 -6.0252997,7.50566 -12.5071698,14.61464 -18.5882971,22.07308 -3.8537102,4.73289 -7.8199209,9.44717 -10.3953669,15.01895 -2.20614,4.87146 4.683154,7.99142 6.8892931,3.11995 v 0 c 2.2019764,-5.01407 6.0497531,-9.07551 9.3678345,-13.36017 6.0728426,-7.45007 12.5520404,-14.54633 18.5662414,-22.04616 6.335658,-7.70093 12.44945,-15.59256 18.327,-23.64791 5.397393,-7.0198 10.477535,-14.28067 16.094867,-21.12374 6.291237,-7.66134 13.196897,-14.82394 19.821603,-22.19503 7.921246,-8.74313 16.152787,-17.19643 24.100762,-25.9152 9.601289,-10.57319 18.645169,-21.63167 28.515119,-31.96061 11.12967,-12.02365 22.3921,-23.91684 33.82861,-35.64978 6.80759,-7.30956 14.14042,-14.27751 19.5548,-22.73945 0.38716,-0.50089 1.15124,-1.62557 1.77934,-1.96204 3.93902,-2.11013 9.05626,-1.2695 13.27399,-1.83872 9.43865,-0.31271 18.88408,-0.11048 28.3268,-0.17011 8.17637,-0.005 16.35275,-0.0126 24.52911,-5e-5 13.72966,0.0282 27.46052,0.0653 41.18745,0.36687 14.35285,0.36793 28.69146,1.07169 43.04211,1.49104 13.77677,0.52593 27.51297,1.53767 41.24635,2.74084 14.77816,1.29807 29.55527,2.603 44.3375,3.85417 17.77456,1.43198 35.51135,3.38361 53.33023,4.22497 19.81385,0.85341 39.63551,1.49622 59.47185,1.2354 18.25912,-0.002 36.51825,-0.006 54.77737,-0.0117 19.19255,-0.003 38.38522,-0.0124 57.57761,0.079 21.11362,0.13154 42.22853,0.34999 63.3319,1.06583 24.27061,0.79588 48.55102,1.27652 72.811,2.38227 26.95385,1.15553 53.91914,2.16285 80.90395,1.99779 8.61813,0.009 17.28338,-0.22747 25.87798,0.4761 3.15849,0.9313 5.55364,3.25353 8.41193,4.80198 5.75686,3.56968 11.70387,6.86795 17.8522,9.71394 6.89918,3.06853 13.7024,6.33166 20.51914,9.57702 8.66933,4.38099 17.26701,8.93616 25.16299,14.63753 7.06119,5.50376 13.9757,11.22217 19.33596,18.48078 5.33855,6.69915 10.81569,13.28001 15.9562,20.13369 4.96213,5.84523 9.71458,11.87802 15.07278,17.37653 5.641,6.1777 11.4557,12.2076 17.2486,18.2435 7.1849,7.33866 14.787,14.24683 22.4824,21.04586 8.6077,7.41004 17.5445,14.40448 26.5972,21.263 8.7224,6.42629 17.7058,12.47499 26.6481,18.58894 6.3847,4.77012 12.666,9.73246 18.3241,15.36141 0.703,-1.62609 0.3017,-1.03953 2.4671,-2.76803 0.043,-0.0345 0.1635,0.11088 0.1099,0.1242 -0.4071,0.10111 -0.8296,0.13339 -1.2483,0.15857 -0.6429,0.0387 -1.288,0.0179 -1.9319,0.0326 -0.6856,0.0157 -1.3711,0.039 -2.0566,0.0585 -4.3512,0.19634 -8.6842,0.6234 -12.9285,1.65423 -7.6008,1.56508 -15.3139,2.24661 -23.0324,2.98205 -11.4906,1.22842 -23.0053,1.89396 -34.5357,2.63475 -12.4763,0.84772 -24.9779,1.25034 -37.478,1.55265 -13.80181,0.50075 -27.5951,1.22999 -41.4081,1.36624 -14.45841,0.41957 -28.90993,1.05841 -43.37518,1.19753 -10.40773,0.34468 -20.77439,1.19089 -31.16761,1.80093 -16.61351,1.12003 -33.14146,3.08699 -49.72587,4.54544 -23.79437,1.87609 -47.59916,3.65967 -71.45417,4.57854 -19.62769,0.67736 -39.26607,1.26844 -58.80541,3.41038 -17.78942,1.58149 -35.60892,2.44846 -53.47595,1.99721 -16.24133,-0.0558 -32.48506,-0.13033 -48.72003,-0.63235 -17.42267,-0.58543 -34.83479,-1.46263 -52.26695,-1.74354 -13.65273,-0.35852 -27.30259,-0.50436 -40.96036,-0.39729 -13.88683,2e-5 -27.77365,5e-5 -41.66048,-2.5e-4 -16.06854,-5.1e-4 -32.13709,-10e-4 -48.20564,-0.004 -17.63369,-0.003 -35.26738,-0.01 -52.90107,-0.001 -16.2945,0.0154 -32.58988,0.0193 -48.8829,0.26772 -14.57792,0.26295 -29.14868,0.73616 -43.72267,1.14878 -11.34881,-0.0273 -22.70107,-0.0684 -34.04191,-0.544 -12.22783,-0.5928 -24.40385,-1.7037 -36.58673,-2.88601 -15.68303,-1.36411 -31.39238,-2.41735 -47.08418,-3.67511 -14.57347,-1.15592 -29.16781,-2.06313 -43.78337,-2.46592 -13.18497,-0.35011 -26.3781,-0.10504 -39.564903,-0.42051 -13.90733,-0.3168 -27.812582,-0.7751 -41.685787,-1.84592 -10.617981,-0.58831 -21.258379,-1.24934 -31.755359,-3.03695 -5.1880619,-1.29701 -7.0223188,6.04001 -1.834257,7.33703 z" />
    <path
       style="fill:#000000"
       id="path77"
       d="m 309.1728,79.055462 c -1.78674,12.934742 -3.18123,25.923838 -4.50016,38.914328 -1.94478,17.99494 -2.91062,36.06539 -3.49193,54.14871 -0.28607,11.85205 -1.57297,23.63753 -2.35925,35.45823 -0.44828,8.57372 -0.88294,17.16231 -0.6026,25.7472 0.64843,7.48949 2.30968,14.82729 3.22443,22.28781 0.52576,3.92128 1.37009,7.83032 4.9852,10.09865 2.18883,1.37341 5.15323,1.71655 7.55917,2.22716 13.92662,2.46525 28.07268,3.49915 42.16965,4.46399 14.70876,0.72863 29.4276,1.2331 44.14271,1.83434 11.23302,0.14263 22.39724,1.35035 33.57094,2.36719 8.05769,0.92725 16.15078,1.50399 24.12717,3.01853 5.66167,1.33996 11.35634,2.524 17.12816,3.26865 3.64237,0.52116 7.18565,0.63321 10.6898,-0.55592 3.88395,-2.22523 5.25556,-6.48103 6.28515,-10.58087 1.18686,-6.73468 1.17987,-13.61205 1.26604,-20.42963 0.26129,-9.3177 -0.18948,-18.61988 -1.40172,-27.85816 -1.28699,-8.8744 -3.36074,-17.66328 -6.03982,-26.22039 -3.72322,-10.24044 -5.71847,-20.95581 -7.28202,-31.70328 -1.25287,-10.12613 -1.98712,-20.33553 -1.78421,-30.54052 0.42911,-8.20092 1.2135,-16.40176 2.18215,-24.55853 0.79402,-6.24216 1.36025,-12.508883 1.66491,-18.793352 0.17666,-4.041384 0.17362,-8.087293 0.1746,-12.131601 -0.12239,-1.493981 -0.13827,-3.466632 -0.91697,-4.813405 -3.40969,-5.897168 -10.50555,-5.968844 -16.4823,-6.658317 -15.96842,-1.210474 -32.00002,-0.03991 -47.96635,0.670976 -15.09793,0.470873 -30.17705,1.35347 -45.26784,1.993652 -9.37542,0.405809 -18.75815,0.351844 -28.12004,1.018758 -6.53839,0.712366 -12.91547,2.412598 -19.33985,3.766336 -3.14955,0.59303 -1.6253,0.329377 -4.57117,0.800029 -5.2802,0.847161 -4.08213,8.314497 1.19807,7.467335 v 0 c 3.20271,-0.515817 1.55783,-0.229299 4.93329,-0.86721 6.08812,-1.284232 12.13143,-2.888993 18.31825,-3.622857 9.28883,-0.664711 18.5999,-0.592681 27.90206,-1.006356 15.09604,-0.640678 30.18043,-1.523235 45.28362,-1.994338 15.57268,-0.693354 31.20771,-1.840916 46.7843,-0.710919 2.44676,0.267425 5.69102,0.524366 8.2034,1.085916 0.47648,0.106498 0.90299,0.390476 1.38187,0.485562 0.18177,0.03609 0.40634,-0.224044 0.54639,-0.102689 0.51048,0.442315 0.51199,2.093765 0.55044,2.485728 -9.1e-4,3.923226 0.004,7.848026 -0.16579,11.768489 -0.29404,6.109551 -0.84976,12.201283 -1.62133,18.269543 -0.99124,8.40522 -1.81006,16.85335 -2.2332,25.30466 -0.1902,10.61821 0.53459,21.23973 1.86206,31.77472 1.62969,11.14425 3.70271,22.25623 7.55096,32.87981 2.56861,8.13368 4.51587,16.50571 5.75682,24.94268 1.181,8.87667 1.58222,17.81888 1.33718,26.77263 -0.0782,6.24944 -0.0707,12.54714 -1.05172,18.7346 -0.22752,0.97618 -0.43512,2.08429 -0.82246,3.0266 -0.3959,0.96315 -0.62262,1.09916 -0.92621,1.93009 -0.11055,0.30257 -0.10514,0.24608 0.0906,0.35785 -1.91405,1.27134 -4.93294,0.003 -7.00625,0.11108 -5.62619,-0.71792 -11.16849,-1.90933 -16.68902,-3.19911 -8.21707,-1.54081 -16.54271,-2.18913 -24.8439,-3.11851 -11.29899,-1.02745 -22.5887,-2.24435 -33.94735,-2.39198 -14.64598,-0.59835 -29.29558,-1.10201 -43.93542,-1.82302 -13.76419,-0.94065 -27.57639,-1.94504 -41.17755,-4.32972 -5.67279,-1.09001 -5.57152,0.26569 -6.54612,-5.83723 -0.89139,-7.2394 -2.45267,-14.36501 -3.17228,-21.62056 -0.29124,-8.33172 0.17548,-16.66932 0.59027,-24.99066 0.79032,-11.90686 2.08858,-23.77822 2.37198,-35.71685 0.57485,-17.90938 1.53007,-35.80601 3.45717,-53.62777 1.34415,-13.24525 2.83427,-26.474093 4.53882,-39.678078 0,-5.347732 -7.56283,-5.347732 -7.56283,0 z" />
    <path
       style="fill:#000000"
       id="path78"
       d="m 495.55441,82.502783 c 0.77991,14.139461 2.05416,28.250027 3.35508,42.350357 1.83986,20.85866 4.50597,41.62274 7.35609,62.36233 1.505,11.45784 3.87541,22.77664 5.25917,34.2507 0.69725,6.13252 0.73885,12.30804 0.76728,18.47141 0.2114,7.13647 -0.41363,14.24846 -0.86241,21.36296 -0.0804,3.82284 -2.29875,8.22562 -0.41208,11.92567 0.51243,1.00496 1.41214,1.75953 2.11821,2.63929 1.22865,0.63089 2.38364,1.4327 3.68595,1.89268 5.39811,1.90664 11.75445,1.81822 17.37061,2.34633 18.71809,1.76013 -1.71999,-0.0739 18.73738,1.73224 21.4489,1.9476 42.85563,4.24904 64.34606,5.70494 13.56896,1.08638 27.16485,1.05875 40.75446,0.5541 5.42367,-0.0725 10.79468,-0.4171 16.15855,-1.19752 6.81609,-1.40525 7.80285,-5.68343 7.58626,-11.9243 -1.92887,-10.89125 -4.69538,-21.62107 -7.10541,-32.4148 -3.18158,-15.54518 -6.03691,-31.16509 -8.40636,-46.85509 -2.15799,-16.56674 -4.44053,-33.10322 -6.94137,-49.62118 -1.77748,-12.25047 -3.93665,-24.44214 -5.71657,-36.69169 -1.11932,-7.67852 -2.09163,-15.360655 -2.66284,-23.100903 -0.31463,-4.872019 -1.23614,-9.342698 -5.97958,-11.84082 -3.0071,-1.583678 -6.61325,-1.809378 -9.86908,-2.297569 C 619.43189,70.87238 603.6959,71.160973 588.005,71.59577 c -16.01076,0.869358 -32.02128,1.689706 -48.04949,2.152701 -11.01105,0.252463 -22.02508,0.322721 -33.03857,0.367849 -5.34769,0.02192 -5.31669,7.584692 0.031,7.562771 v 0 c 11.07599,-0.04542 22.15254,-0.116275 33.22606,-0.370943 16.02522,-0.463431 32.03311,-1.278072 48.04065,-2.15245 15.26593,-0.423717 30.57146,-0.702499 45.81285,0.483505 0.8088,0.10758 7.96669,0.588989 8.5937,2.150902 0.41927,1.044406 0.67635,4.14365 0.77902,5.057874 0.5865,7.917395 1.57593,15.776851 2.72092,23.631241 1.78375,12.26407 3.94176,24.47091 5.72313,36.73587 2.50106,16.51725 4.78092,33.05333 6.94107,49.61914 2.39926,15.8632 5.27989,31.65705 8.50322,47.37315 2.32074,10.39175 4.9146,20.72934 6.93515,31.18392 0.0525,0.56765 0.12739,1.13367 0.15757,1.70295 0.0286,0.53896 -0.32873,1.14411 -0.0698,1.61765 0.0674,0.12331 0.44412,-0.0729 0.4166,0.0649 -0.11415,0.57168 -1.72131,0.19709 -1.62856,0.63751 -5.09625,0.74194 -10.19574,1.05754 -15.35029,1.12389 -13.32572,0.49594 -26.65706,0.52787 -39.96259,-0.54204 -21.43912,-1.45089 -42.7941,-3.75317 -64.19197,-5.69292 -11.69681,-1.03233 -23.49055,-1.74874 -35.06494,-3.73877 -0.24028,0.0407 -0.65451,0.44888 -0.70044,0.20955 -0.4777,-2.48944 1.51599,-6.43456 1.14814,-8.99737 0.45945,-7.28457 1.08977,-14.56724 0.87733,-21.87418 -0.0302,-6.45496 -0.0843,-12.92212 -0.82186,-19.34393 -1.39515,-11.51418 -3.7479,-22.87646 -5.27492,-34.37268 -2.83483,-20.6283 -5.48836,-41.28071 -7.31766,-62.02755 -1.27984,-13.86989 -2.52262,-27.749093 -3.32309,-41.655497 0,-5.347731 -7.56284,-5.347731 -7.56284,0 z" />
    <path
       style="fill:#000000"
       id="path79"
       d="m 375.93636,77.830931 c 0,10.527937 0,21.055874 0,31.583809 -0.13135,17.28752 0.23643,34.57603 1.00798,51.84589 1.00526,13.98737 2.13208,27.96157 2.74131,41.97329 0.75009,9.26114 0.93804,18.56765 1.76652,27.82075 0.46869,6.10834 1.812,12.08191 2.8152,18.1116 0.58731,4.64212 1.80185,9.17015 2.39394,13.81044 0.68707,5.30342 8.18723,4.33175 7.50016,-0.97166 v 0 c -0.62052,-4.72938 -1.8037,-9.35304 -2.43401,-14.0812 -0.97414,-5.84362 -2.28218,-11.6312 -2.7432,-17.5504 -0.83515,-9.13376 -0.98365,-18.32643 -1.74293,-27.46837 -0.61053,-14.01471 -1.72779,-27.99268 -2.74171,-41.98253 -0.76898,-17.15715 -1.13012,-34.33309 -1.00042,-51.50781 0,-10.527935 0,-21.055872 0,-31.583809 0,-5.347732 -7.56284,-5.347732 -7.56284,0 z" />
    <path
       style="fill:#000000"
       id="path80"
       d="m 311.33704,137.30855 c 20.32243,0.0526 40.64212,0.5552 60.96299,0.83746 21.63634,0.0578 43.28322,0.7993 64.91862,0.36785 8.06497,-0.3379 16.10938,-0.75455 24.1814,-0.5494 5.34605,0.1341 5.53569,-7.42636 0.18964,-7.56046 v 0 c -8.186,-0.20277 -16.3448,0.19253 -24.52315,0.54856 -21.54941,0.43737 -43.11105,-0.31971 -64.66149,-0.36866 -20.35587,-0.28271 -40.71056,-0.78615 -61.06801,-0.83819 -5.34774,0 -5.34774,7.56284 0,7.56284 z" />
    <path
       style="fill:#000000"
       id="path81"
       d="m 325.91162,205.46302 c 24.23122,0.88216 48.48452,0.95848 72.72866,1.13872 23.35883,0.14744 46.71805,0.22633 70.07732,0.25797 4.17402,0.005 8.34806,0.004 12.52208,0.003 5.34774,-0.001 5.34594,-7.5641 -0.002,-7.56284 v 0 c -4.17002,9.9e-4 -8.34003,0.002 -12.51005,-0.003 -23.34394,-0.0316 -46.68783,-0.11045 -70.03134,-0.25776 -24.26297,-0.18035 -48.53468,-0.26044 -72.78488,-1.13894 -5.34773,0 -5.34773,7.56284 0,7.56284 z" />
    <path
       style="fill:#000000"
       id="path82"
       d="m 573.63474,90.933063 c 2.01502,14.445187 3.78494,28.917567 5.45464,43.407327 3.13916,22.66826 5.39492,45.4434 8.15683,68.1576 1.68096,15.11904 3.53741,30.22386 4.88137,45.37813 0.30972,5.37604 1.09248,10.70622 1.66015,16.05734 0.56465,5.31784 8.08521,4.51929 7.52056,-0.79854 v 0 c -0.56409,-5.30776 -1.34025,-10.59476 -1.64747,-15.9273 -1.35287,-15.23576 -3.21493,-30.42234 -4.90708,-45.62261 -2.76065,-22.69839 -5.01308,-45.45799 -8.15125,-68.1104 -1.6686,-14.47948 -3.43426,-28.94221 -5.45117,-43.376722 -0.59056,-5.315023 -8.10713,-4.479848 -7.51658,0.835175 z" />
    <path
       style="fill:#000000"
       id="path83"
       d="m 512.051,137.59733 c 20.30315,3.40115 40.89572,4.7168 61.37658,6.64139 18.96283,1.74676 37.96169,3.122 56.98826,3.92885 6.2811,0.0175 12.53528,-0.56478 18.44881,-2.73944 4.99683,-1.90522 2.30244,-8.97181 -2.6944,-7.06659 v 0 c -4.88109,1.96815 -10.2393,2.1074 -15.43425,2.24997 -18.8973,-0.80004 -37.76688,-2.16871 -56.60087,-3.90246 -20.33285,-1.91061 -40.77765,-3.21118 -60.93415,-6.58662 -5.28555,-0.81316 -6.43553,6.66174 -1.14998,7.4749 z" />
    <path
       style="fill:#000000"
       id="path84"
       d="m 511.0687,197.11757 c 20.57296,1.28358 41.11801,2.91414 61.66741,4.52587 22.75092,1.89133 45.51668,3.63856 68.32189,4.72139 8.2519,0.35534 16.51091,0.48706 24.76956,0.5355 5.34764,0.0313 5.39189,-7.53142 0.0443,-7.5627 v 0 c -8.15386,-0.0476 -16.30809,-0.17708 -24.45532,-0.52713 -22.72758,-1.07795 -45.41556,-2.82306 -68.08905,-4.70674 -20.74593,-1.62707 -41.48664,-3.2842 -62.25874,-4.54902 -5.34773,0 -5.34773,7.56283 0,7.56283 z" />
    <path
       style="fill:#000000"
       id="path85"
       d="m 181.81759,278.24142 c -0.26547,-16.63209 -1.06214,-33.25755 -1.80802,-49.87492 -1.70112,-28.77289 -3.35724,-57.54086 -4.30863,-86.34989 -0.49414,-25.35813 -1.14261,-50.712915 -1.70399,-76.069841 -0.29252,-14.268855 -1.08891,-28.480825 -3.12501,-42.608729 -0.83415,-6.232278 -1.93264,-12.424434 -2.94011,-18.6299677 -0.85702,-5.27861211 -8.3221,-4.06659804 -7.46508,1.2120141 v 0 c 1.00049,6.1619536 2.09205,12.3105086 2.92003,18.4990786 2.00129,13.824249 2.75537,27.732348 3.04919,41.695005 0.56203,25.384364 1.21077,50.76659 1.70626,76.15215 0.95304,28.83882 2.60706,57.63679 4.31212,86.43935 0.74099,16.50437 1.53202,33.01691 1.8004,49.53575 0,5.34773 7.56284,5.34773 7.56284,0 z" />
    <path
       style="fill:#000000"
       id="path86"
       d="m 903.51674,296.87264 c -1.00549,-22.48228 -0.9279,-45.00465 -1.05258,-67.50556 -0.46454,-34.15169 -0.99187,-68.3021 -1.30465,-102.45564 -0.17841,-20.44154 -0.23346,-40.883805 -0.2515,-61.326016 -0.006,-12.001785 -2e-5,-24.00357 0.004,-36.005353 -0.19853,-7.144612 0.16293,-14.262192 0.62613,-21.3874366 0.26952,-4.2098641 0.14357,-2.1689411 0.37952,-6.1226658 0.31852,-5.3382378 -7.23089,-5.7886867 -7.54941,-0.4504489 v 0 c -0.23375,3.91854 -0.10868,1.89098 -0.37702,6.0825698 -0.47361,7.2872965 -0.83836,14.5683845 -0.64205,21.8751595 -0.004,12.00495 -0.0105,24.009902 -0.004,36.014853 0.0181,20.463073 0.0732,40.926198 0.25182,61.388598 0.31274,34.14442 0.83944,68.28573 1.30445,102.4283 0.12591,22.71504 0.0385,45.45324 1.08352,68.14835 0.48416,5.32577 8.01594,4.64106 7.53178,-0.68471 z" />
    <path
       style="fill:#000000"
       id="path87"
       d="m 2.3905098,488.10209 c 0.495331,-9.0254 1.6580141,-17.99561 2.7454286,-26.96422 1.3880807,-12.52629 2.6281462,-25.07084 3.4332267,-37.64916 0.9827036,-10.84384 1.6006139,-21.70807 1.9245979,-32.58986 0.239056,-9.52499 0.251963,-19.05352 0.260714,-28.58088 0.106444,-7.24385 -0.574755,-14.4675 -1.0290088,-21.6905 -0.024383,-4.8712 -0.6285797,-9.61812 -1.656716,-14.37191 C 6.053156,318.3422 4.4664448,310.35167 3.4527074,302.25049 2.0479486,293.41249 1.5336112,284.48964 1.2337046,275.558 0.93900928,262.76321 0.97944746,249.96345 0.97575377,237.16609 c 0.004212,-17.54392 0.0137299,-35.08785 0.0186486,-52.63176 0.003713,-14.83777 0.004757,-29.67554 0.005244,-44.51331 2.196e-4,-11.12647 8.976e-5,-22.25294 4.025e-5,-33.37942 C 0.99962216,92.063974 0.999616,77.486344 0.99960724,62.908713 0.9996013,50.599832 0.99960129,38.290951 0.99960159,25.982069 1.2033041,18.134967 0.67005643,10.256198 1.1592407,2.4186272 0.84208522,3.0211023 1.660387,-0.86378785 2.2132223,-0.10257084 2.3008675,0.0181107 2.130413,0.29675965 2.2728869,0.34088328 2.6808725,0.46723488 3.1268096,0.31754189 3.5538843,0.31262713 4.3914605,0.30298833 5.2291162,0.30235828 6.0667321,0.29722386 16.348057,0.56932718 26.630307,0.7515035 36.91472,0.85771202 50.274794,1.0785654 63.642326,0.77476081 76.99866,1.1663899 88.301077,1.718236 99.602103,2.497143 110.8834,3.3987169 c 10.61614,1.3429351 21.27077,2.225214 31.95575,2.7581378 7.29817,0.3851332 14.58367,0.5186791 21.87488,0.025501 9.34204,-0.7677122 18.68294,-1.5549544 28.02507,-2.3291929 12.36351,-0.8240636 24.74175,-1.465482 37.12103,-2.0135061 18.13365,-0.7744457 36.27846,-0.745264 54.42059,-0.416505 21.61102,0.4911061 43.22596,0.7313976 64.84175,0.8659072 20.90147,0.4481631 41.79982,0.9799004 62.70472,1.2486636 23.6925,0.5224567 47.37996,1.1965951 71.0578,2.1834232 27.22545,1.2480078 54.47544,1.7387775 81.72512,2.0404165 23.50376,-0.010064 46.99881,0.594355 70.49625,1.0523582 21.02397,0.1825115 42.03632,0.8988251 63.055,1.3540576 22.60571,0.252186 45.20138,0.960571 67.80379,1.394061 21.96373,0.397245 43.93106,0.499012 65.89781,0.554526 17.51118,0.03156 35.0224,0.02278 52.5336,0.01846 14.62563,-0.02351 29.24855,0.186444 43.86479,-0.406647 9.73302,-0.553675 19.47628,-0.790827 29.22287,-0.902787 16.77608,-0.118479 33.55282,-0.09841 50.32918,-0.09951 12.7593,4.25e-4 25.5186,0.0051 38.278,0.0078 11.2189,0.0019 22.4379,0.0019 33.6569,0.0021 12.1513,0.183957 24.2915,-0.388851 36.4306,-0.8404313 6.4935,-0.093309 9.0364,-0.5370826 10.5041,5.9132913 0.8275,6.059131 0.6333,12.205417 0.5444,18.304888 -0.3102,5.230368 0.04,10.427482 0.4614,15.637473 0.4702,5.626499 0.5998,11.271769 0.6811,16.914677 0.074,8.06317 0.057,16.126878 0.056,24.190299 -0.063,11.344982 0.1469,22.692612 -0.1722,34.034082 -0.5324,12.5786 -0.877,25.16254 -1.0704,37.75057 -0.1011,12.65626 -0.08,25.30545 -0.5594,37.95404 -0.3296,12.82048 -1.1634,25.61782 -1.7355,38.42818 -0.4551,10.25536 -0.5739,20.52036 -0.6352,30.7842 0.2167,9.76911 -0.8892,19.47103 -2.0261,29.15195 -1.5201,11.06837 -3.2899,22.10291 -5.2952,33.09411 -2.0877,12.09104 -3.9643,24.21528 -5.9103,36.32939 -1.7439,11.82314 -3.1781,23.69381 -4.0697,35.61238 -0.6336,9.82821 -0.7528,19.67871 -0.8097,29.52396 -0.023,6.75621 -0.01,13.51246 0.01,20.26866 0.01,4.17314 0.012,8.34628 0.013,12.51942 -0.231,4.38061 0.9343,8.62373 2.1722,12.77912 0.9648,3.33858 1.9135,6.6861 3.0335,9.97664 1.0174,2.53303 2.0229,5.08014 3.0868,7.59575 0.1435,0.33505 0.287,0.67011 0.4305,1.00517 2.1057,4.91569 9.0576,1.93768 6.9518,-2.97801 v 0 c -0.1501,-0.35041 -0.3003,-0.70082 -0.4504,-1.05123 -1.0569,-2.28769 -1.8809,-4.71385 -2.8671,-7.03152 -1.1111,-3.1867 -1.9856,-6.45369 -2.9409,-9.68908 -1.0432,-3.45162 -2.0705,-6.964 -1.8536,-10.6094 0,-4.17709 0,-8.35417 -0.013,-12.53125 -0.013,-6.73685 -0.03,-13.47374 -0.01,-20.21059 0.056,-9.67198 0.1704,-19.34913 0.7888,-29.00459 0.8721,-11.70581 2.2875,-23.36359 3.995,-34.97598 1.9374,-12.06149 3.8059,-24.13299 5.8833,-36.1717 2.0332,-11.14882 3.829,-22.34151 5.3663,-33.56915 1.1695,-9.95873 2.2916,-19.94023 2.0776,-29.98898 0.061,-10.16639 0.1773,-20.33395 0.6278,-30.49196 0.5726,-12.82734 1.4076,-25.64167 1.7376,-38.47913 0.481,-12.70539 0.4654,-25.41124 0.564,-38.12431 0.1926,-12.55646 0.5377,-25.10877 1.0683,-37.65585 0.3155,-11.41162 0.1178,-22.82881 0.1751,-34.243895 0,-8.100162 0.018,-16.200616 -0.057,-24.300521 -0.084,-5.80988 -0.2207,-11.622047 -0.705,-17.414985 -0.402,-4.971846 -0.7493,-9.925795 -0.4376,-14.917957 0.099,-6.805 0.3349,-13.679239 -0.8126,-20.414114 -0.3417,-1.138034 -0.5545,-2.322975 -1.0249,-3.414102 -3.1738,-7.3615811 -9.8428,-8.3686761 -17.0541,-8.0575536 -12.0455,0.448095 -24.0919,1.0193921 -36.1494,0.8352037 -11.2185,-1.406e-4 -22.437,-1.472e-4 -33.6554,-0.00205 -12.76,-0.00273 -25.5201,-0.00742 -38.2801,-0.00784 -16.8052,0.0011 -33.61078,-0.019045 -50.4157,0.1000085 -9.81997,0.1131861 -19.63668,0.3512545 -29.443,0.9085265 C 913.4396,4.7627928 898.91824,4.5445222 884.39449,4.572198 866.89029,4.576518 849.38606,4.585289 831.88187,4.553761 809.95729,4.4983655 788.03193,4.3969593 766.11016,4.0005948 743.51399,3.5673229 720.92456,2.8589476 698.32509,2.6069162 677.30097,2.1516944 656.28316,1.4351139 635.25375,1.2525222 611.73508,0.79412584 588.21878,0.18945558 564.6938,0.19919096 537.5212,-0.10143919 510.34827,-0.59036277 483.19983,-1.8351322 c -23.75037,-0.9893396 -47.51035,-1.6664502 -71.27545,-2.189355 -20.92161,-0.2688351 -41.83663,-0.8028471 -62.75486,-1.2491419 -21.58583,-0.1342683 -43.17081,-0.3743039 -64.75187,-0.8648137 -18.29933,-0.3311523 -36.60145,-0.358982 -54.89216,0.4226726 -12.47602,0.5528625 -24.95111,1.1982882 -37.41107,2.0319419 -9.30472,0.7712528 -18.60824,1.5551161 -27.91277,2.3207269 -6.99499,0.47696739 -13.98404,0.3318576 -20.9863,-0.033516 C 132.60521,-1.9242992 122.02723,-2.8125125 111.48499,-4.1401529 100.0764,-5.0492226 88.648551,-5.8412835 77.218445,-6.3932507 63.814576,-6.7797389 50.40033,-6.4908374 36.992781,-6.70472 26.650024,-6.8114306 16.309688,-7.0012383 5.9698599,-7.2649906 -1.6745937,-7.1272643 -5.2144466,-6.3212865 -6.3901185,1.9673548 -6.849908,9.9591075 -6.3988985,17.981525 -6.5632337,25.982069 c -3e-7,12.308883 -3e-7,24.617766 5.6e-6,36.926649 8.8e-6,14.57764 1.5e-5,29.15528 7.94e-5,43.732912 4.95e-5,11.12639 1.794e-4,22.25277 -4.02e-5,33.37915 -4.863e-4,14.83714 -0.00153,29.67428 -0.00524,44.51142 -0.00492,17.54536 -0.014439,35.09072 -0.018649,52.63607 0.00373,12.88151 -0.036974,25.76545 0.2622375,38.64434 0.3095403,9.16131 0.8394781,18.31423 2.2736584,27.38026 1.0488611,8.32355 2.6549656,16.54014 4.73013178,24.67118 0.96054512,4.38154 1.48447392,8.74397 1.49860422,13.2382 0.4443421,7.06264 1.1160694,14.1259 1.0140944,21.20878 -0.00866,9.45476 -0.02103,18.91067 -0.2573774,28.36309 -0.3204479,10.79592 -0.9386185,21.57383 -1.9125328,32.33212 -0.79391734,12.43558 -2.0240356,24.83729 -3.3936725,37.22154 -1.1234315,9.26989 -2.3321436,18.54259 -2.8003878,27.87431 0,5.34773 7.5628348,5.34773 7.5628348,0 z" />
    <path
       style="fill:#ffeeaa;stroke-width:1.39091"
       d="m 5.4285824,466.64949 c 0.4554034,-4.97249 1.8560556,-19.99429 3.11256,-33.38178 1.4380669,-15.32194 2.2928046,-37.99812 2.3068216,-61.19993 0.02149,-35.56971 -0.11639,-37.46724 -3.9416223,-54.2454 L 2.9424511,300.43604 2.4615239,150.56575 1.9805969,0.69545379 7.9448363,0.75109566 C 36.713958,1.0194901 109.50582,3.6380918 118.9226,4.7433907 c 6.50249,0.7632329 18.44727,1.7825954 26.54395,2.26525 l 14.72124,0.8775539 1.67939,10.6614324 c 2.32077,14.733174 4.042,48.434853 5.73026,112.197683 0.78993,29.83497 2.07555,64.25993 2.85691,76.49992 0.78135,12.23999 1.86804,34.10163 2.41488,48.58142 l 0.99422,26.32691 -3.9272,4.94066 c -2.15997,2.71736 -16.3046,18.09727 -31.4325,34.17757 -15.1279,16.08031 -35.1061,37.68668 -44.396011,48.01417 -9.289905,10.32749 -23.178845,25.66225 -30.864308,34.07724 -7.685464,8.41499 -22.398142,26.25338 -32.694839,39.64086 -10.296698,13.38749 -20.347287,26.21861 -22.3346426,28.51361 l -3.6133733,4.17272 z"
       id="path89" />
    <path
       style="fill:#ffeeaa;stroke-width:1.39091"
       d="m 891.56017,296.53934 c -1.86594,-1.07884 -19.79645,-1.92143 -54.92926,-2.58122 -28.68747,-0.53874 -68.74561,-1.64486 -89.01809,-2.45804 -20.27247,-0.81319 -47.49949,-1.55265 -60.50448,-1.64327 -21.14612,-0.14734 -22.89283,-0.33203 -16.52527,-1.7473 13.44358,-2.98802 13.88216,-4.98896 7.46481,-34.05685 -6.63739,-30.06452 -9.4184,-46.99099 -8.10589,-49.3363 0.77038,-1.37659 0.4515,-2.86002 -0.90678,-4.2183 -1.15227,-1.15227 -2.09503,-3.97663 -2.09503,-6.27636 0,-2.29972 -0.93157,-10.01182 -2.07015,-17.13797 -6.52807,-40.85788 -11.85696,-76.76699 -12.65605,-85.28383 -0.50244,-5.354994 -1.82903,-11.732151 -2.94799,-14.171459 -1.8215,-3.970812 -2.85938,-4.55036 -9.91422,-5.536045 -16.90092,-2.361356 -128.34902,-0.107665 -135.84323,2.747008 -8.03708,3.06146 -9.12783,4.91431 -8.32743,14.145633 3.87091,44.644403 5.523,60.622873 8.56023,82.792053 1.93893,14.15248 3.99349,37.31109 4.56568,51.46358 1.00445,24.84382 0.45909,31.90999 -3.51566,45.55222 -0.74504,2.55714 -0.36536,3.12954 2.07588,3.12954 1.64323,0 3.35464,0.95625 3.80313,2.125 0.4485,1.16875 2.10537,2.81535 3.68194,3.65911 1.57658,0.84375 24.50507,3.60934 50.95221,6.14575 l 48.08572,4.61164 -29.90451,-0.50164 c -96.19093,-1.61357 -168.16839,-4.44877 -211.1301,-8.31645 -32.05824,-2.8861 -111.78939,-5.3454 -153.74014,-4.74212 l -35.56255,0.51141 -0.67168,-8.35315 C 180.77992,247.14731 177.1,160.13477 175.9397,114.74988 174.35173,52.636805 173.51408,36.35674 171.06891,20.083507 169.99332,12.925163 169.24558,6.9360436 169.40728,6.7743519 169.56897,6.6126603 178.77456,5.6481931 189.86415,4.6310912 213.97283,2.4199203 367.08859,2.5009833 431.8768,4.7592181 500.53652,7.1523969 709.47253,11.479844 819.11824,12.779698 l 73.84443,0.875427 -0.43817,25.163313 c -0.24099,13.839821 0.21807,77.697832 1.02014,141.906692 0.80206,64.20885 1.30698,116.89468 1.12203,117.07963 -0.18495,0.18495 -1.58287,-0.38449 -3.1065,-1.26542 z m -406.15669,-13.4808 c 6.72342,-2.55624 8.26997,-9.12498 8.18903,-34.78154 -0.0548,-17.38576 -0.69311,-25.47916 -2.63253,-33.38178 -2.19807,-8.95655 -2.69933,-19.18494 -3.54451,-72.32719 -0.54143,-34.04247 -1.43941,-64.482082 -1.99555,-67.643593 l -1.01114,-5.748203 -7.14101,-0.422158 c -16.6463,-0.984083 -83.17903,-0.04937 -111.45908,1.565876 -16.82998,0.961266 -36.31298,1.612443 -43.29554,1.447063 l -12.69559,-0.300692 -0.85064,4.603158 c -3.11597,16.861889 -6.08639,51.806059 -9.97736,117.374079 -1.95665,32.97215 -1.95217,37.58953 0.0493,50.76813 3.39984,22.38631 3.95452,24.27234 7.05121,23.97542 1.48029,-0.14194 9.20597,0.65332 17.16819,1.76724 7.96223,1.11393 33.62447,2.9482 57.02721,4.0762 42.78582,2.06223 69.02737,4.52712 87.0595,8.1776 12.24887,2.4797 13.60515,2.54357 18.05853,0.85039 z"
       id="path90" />
    <path
       style="fill:#ffeeaa;stroke-width:1.39091"
       d="m 1099.6052,463.10072 c -12.786,-17.82368 -95.3596,-95.84833 -109.08821,-103.07863 -2.19006,-1.15343 -7.75836,-6.13416 -12.374,-11.06829 -11.15424,-11.92392 -26.05525,-21.58935 -54.29915,-35.22076 -21.56975,-10.41024 -23.19057,-11.44995 -21.10334,-13.53718 1.3403,-1.3403 1.94625,-3.45073 1.48817,-5.18308 -0.425,-1.6072 -1.20174,-65.57647 -1.72611,-142.15391 l -0.95339,-139.231744 19.35218,-0.87335 c 36.41469,-1.643368 202.07735,-1.666555 203.71545,-0.02851 2.4209,2.420962 3.2591,102.107214 1.4192,168.788174 -2.878,104.29787 -3.373,111.68526 -10.3451,154.39074 -8.505,52.09439 -9.4267,60.92388 -10.4349,99.96075 l -0.8754,33.89262 z"
       id="path91" />
    <path
       style="fill:#000000"
       id="path92"
       d="m 201.49847,564.1412 c 31.10011,-2.38218 62.28374,-3.39272 93.45067,-4.44123 33.61953,-1.04913 67.25808,-1.71301 100.89421,-1.13641 17.93726,0.30749 24.70361,0.73049 42.34569,1.52525 6.44066,0.32146 12.88371,0.59807 19.32197,0.9644 18.55541,1.05578 37.08482,2.48345 55.64843,3.41286 16.69768,0.83599 21.02847,0.90671 37.82192,1.46115 36.57225,1.05752 73.15806,1.22924 109.74043,0.81098 21.99609,-0.50221 44.00931,-0.25514 66.00236,-0.90856 13.74749,-0.40844 17.89871,-0.77047 31.40262,-1.60663 11.24451,-0.76287 22.48046,-1.64269 33.71719,-2.51037 0.81994,-0.0633 10.27171,-0.86788 12.00849,-0.75793 0.90394,0.0572 1.74971,0.46908 2.62457,0.70363 0.34006,0.36359 0.78448,0.65226 1.02018,1.09076 0.24435,0.4546 0.26981,0.99701 0.37374,1.50254 0.19621,0.95444 0.40196,1.90899 0.52629,2.87542 0.64981,5.05074 0.3838,10.08765 0.22578,15.15962 -0.65518,12.74765 -1.0572,25.50338 -1.30423,38.2648 -0.39199,7.45637 -0.0331,14.87892 0.64147,22.30085 0.0388,0.48899 0.28429,3.46639 0.29362,4.01939 0.008,0.48659 -0.14104,1.86953 -0.33176,1.42179 -0.59,-1.3851 1.48055,-1.13911 -1.95913,-0.4528 -24.22999,2.72421 -48.58265,4.31281 -72.91873,5.75233 -45.18025,2.31271 -90.40317,3.47008 -135.63329,4.17071 -43.16324,0.7598 -86.32059,0.53563 -129.47569,-0.4579 -35.57156,-0.94142 -71.15206,-1.40007 -106.73431,-1.65026 -27.15443,-0.0437 -54.31182,-0.25585 -81.45242,-1.16765 -15.4262,-0.15776 -30.69774,-2.37232 -45.98014,-4.20831 -5.49172,-0.84106 -11.02937,-1.29358 -16.54832,-1.89672 -1.55683,-0.17013 -6.11328,-0.52505 -7.81532,-1.48608 -0.62984,-0.35562 -0.91811,-1.11791 -1.37717,-1.67686 -4.15978,-8.21055 -3.89525,-17.80974 -4.12414,-26.79224 0.0894,-13.65566 -0.9825,-27.27594 -1.77639,-40.89842 -0.35045,-6.65067 -0.19387,-3.43405 -0.47467,-9.64963 -0.24146,-5.34228 -7.79659,-5.00079 -7.55512,0.34149 v 0 c 0.28428,6.28613 0.12596,3.03667 0.47976,9.74816 0.78921,13.54088 1.85729,27.07937 1.76609,40.65331 0.22477,8.62201 0.0235,19.90064 3.88486,27.80335 0.78229,1.60105 1.90472,3.0122 2.85709,4.5183 1.44226,1.08269 2.71892,2.43132 4.32679,3.24808 2.07482,1.05396 6.91082,1.48116 9.07237,1.71749 5.46358,0.59736 10.94595,1.04336 16.38231,1.87863 15.49776,1.86087 30.98514,4.09552 46.62832,4.25803 27.20748,0.91219 54.4316,1.12948 81.65293,1.17172 35.54196,0.24984 71.08216,0.70797 106.61343,1.64844 43.25215,0.99553 86.5066,1.22029 129.7669,0.459 45.34004,-0.70259 90.67289,-1.86318 135.96287,-4.18301 16.8149,-0.99537 33.6003,-2.12121 50.38446,-3.54688 6.16413,-0.52359 12.33656,-0.97592 18.48317,-1.67584 1.91684,-0.21828 3.81944,-0.54735 5.72915,-0.82103 3.47227,-1.1725 4.71344,-0.96062 6.91819,-4.15671 1.67909,-2.43409 0.46869,-6.11368 0.48607,-8.77453 -0.64973,-7.1462 -1.00196,-14.28972 -0.61183,-21.46989 0.24627,-12.73286 0.64944,-25.45988 1.30209,-38.17903 0.22708,-7.50283 1.59457,-20.08009 -4.31266,-25.94042 -1.04742,-1.0391 -2.51783,-1.5388 -3.77674,-2.3082 -1.52483,-0.29029 -3.02551,-0.77072 -4.5745,-0.87088 -1.73582,-0.11224 -11.31988,0.70065 -12.25814,0.7731 -11.19811,0.86471 -22.39545,1.74155 -33.60128,2.5023 -13.32336,0.82642 -17.51374,1.19018 -31.07459,1.59344 -21.97527,0.65349 -43.97077,0.40544 -65.94908,0.90776 -36.47038,0.41727 -72.94417,0.24624 -109.40447,-0.80735 -16.7062,-0.55115 -21.0392,-0.62215 -37.6497,-1.45351 -18.5785,-0.92985 -37.12282,-2.35876 -55.69313,-3.41522 -6.45054,-0.36697 -12.90588,-0.6441 -19.35882,-0.96616 -17.79398,-0.8006 -24.5344,-1.22292 -42.63012,-1.53269 -33.73947,-0.57757 -67.48142,0.0883 -101.20424,1.14048 -31.26184,1.05199 -62.54035,2.06685 -93.73518,4.45617 -5.33414,0.38101 -4.79531,7.92463 0.53883,7.54362 z" />
    <path
       style="fill:#000000"
       id="path93"
       d="m 219.70351,692.28069 c 27.98865,-0.40315 55.97371,-1.14329 83.96196,-1.63842 46.82478,-0.96819 93.65405,-0.82599 140.48346,-0.46519 38.95043,0.56532 77.91953,-0.0601 116.852,1.37816 22.91786,1.15198 45.82308,2.4776 68.76264,3.11018 21.18922,0.87283 42.38747,1.44929 63.59497,1.39927 20.81987,-0.48938 41.6279,-1.3622 62.44445,-1.9723 5.79688,-0.38486 11.81846,0.0344 17.54262,-1.22915 2.42428,-0.53514 3.70695,-1.16264 5.97537,-2.08269 4.6894,-1.90451 10.54554,-3.97566 15.62834,-3.81675 0.42083,0.16396 0.88282,0.24729 1.26251,0.49187 2.39091,1.54009 4.09779,11.38752 4.53787,13.54443 2.04691,11.33029 3.65912,22.742 5.19399,34.15293 0.85923,6.80145 1.0544,13.65566 1.58627,20.48607 0.24484,3.28664 0.46387,6.57533 0.6371,9.86657 0.0479,0.9097 0.40675,2.8044 -0.22093,3.83092 -0.0961,0.15712 -0.34737,0.12244 -0.52106,0.18365 -6.23612,2.42536 -13.04308,2.87073 -19.64135,3.3211 -4.81817,0.32886 -9.64345,0.55018 -14.4686,0.75226 -6.96816,0.29182 -13.94005,0.48625 -20.91008,0.72938 -53.4641,2.01324 -106.95303,1.30203 -160.4252,0.22162 -59.10298,-1.35086 -118.21681,-1.94655 -177.33281,-1.45529 -41.32906,0.50045 -82.65437,1.25518 -123.98325,1.76851 -12.65085,-0.0167 -25.32796,0.0492 -37.88788,-1.61873 -9.40254,-1.23005 -18.87263,-1.94359 -28.32472,-2.70097 -3.48947,-0.61381 -7.19295,-0.0452 -10.65876,-0.85948 -0.24638,-0.0579 -1.72943,-0.63556 -1.72085,-1.29443 0.005,-0.39413 0.33,-0.71594 0.49502,-1.07391 0.32876,-10.83195 2.55836,-21.6151 5.15144,-32.11688 2.32467,-9.4304 4.98061,-18.78328 6.92681,-28.3022 0.19921,-1.14704 0.39842,-2.29407 0.59764,-3.44111 0.91255,-5.26929 -6.53936,-6.55984 -7.45191,-1.29054 v 0 c -0.18534,1.07344 -0.37068,2.14688 -0.55602,3.22032 -1.91643,9.42153 -4.57299,18.67096 -6.86017,28.00596 -1.50908,6.14925 -2.79237,12.29082 -3.80335,18.54417 -0.41604,2.5734 -1.41521,9.23781 -1.52755,11.8933 -0.0738,1.74468 0.1102,3.49074 0.16531,5.2361 0.65279,1.69394 0.96614,3.56159 1.95836,5.0818 2.71034,4.15261 12.44789,3.43835 16.68015,3.93559 9.32323,0.74659 18.66455,1.44781 27.93891,2.66008 12.92176,1.69606 25.95602,1.69402 38.9715,1.68318 41.31854,-0.51322 82.6335,-1.26755 123.95221,-1.76818 59.04411,-0.49135 118.08605,0.10515 177.11715,1.454 53.61105,1.08308 107.23891,1.79348 160.84182,-0.22468 10.12334,-0.35366 25.17416,-0.75683 35.82162,-1.51014 6.72816,-0.47602 15.44196,-0.72964 21.73697,-4.00352 1.25714,-0.65382 2.2743,-1.69089 3.41145,-2.53634 0.57801,-1.02229 1.33403,-1.9627 1.73404,-3.06686 0.69558,-1.92001 0.4479,-3.73097 0.34482,-5.68651 -0.1763,-3.34438 -0.39889,-6.68618 -0.64782,-10.02588 -0.54285,-6.97111 -0.73893,-13.96725 -1.63102,-20.90764 -1.56018,-11.58709 -3.19436,-23.17567 -5.28384,-34.67925 -1.40861,-6.70249 -2.64877,-16.25896 -9.94872,-19.30448 -1.04592,-0.43636 -2.20931,-0.50627 -3.31397,-0.75941 -1.17004,0.0345 -2.3473,-0.0307 -3.51011,0.10363 -1.04469,0.12066 -2.0591,0.42909 -3.08547,0.65818 -4.03567,0.90076 -8.11954,1.77555 -11.8518,3.62289 -1.10044,0.46032 -3.00453,1.32039 -4.21645,1.59747 -5.42024,1.23922 -11.15876,0.7424 -16.64717,1.14945 -20.74881,0.60819 -41.48918,1.47573 -62.24115,1.96907 -21.13196,0.0523 -42.25459,-0.52899 -63.36835,-1.39642 -22.91613,-0.63114 -45.7977,-1.96038 -68.69227,-3.10791 -39.00618,-1.43603 -78.04832,-0.82313 -117.07245,-1.38307 -46.89343,-0.36127 -93.78673,-0.50307 -140.67551,0.46614 -27.94366,0.49442 -55.88418,1.23206 -83.82818,1.63725 -5.34773,0 -5.34773,7.56283 0,7.56283 z" />
    <path
       style="fill:#000000"
       id="path94"
       d="m 425.3588,594.08168 c -4.94513,3.25748 -8.93898,7.74165 -12.31914,12.55783 -2.59167,4.20948 -3.83297,7.80477 -3.09697,12.73455 3.24706,8.38239 11.55567,9.76683 19.40941,11.97004 12.73756,2.709 25.80902,4.46062 38.83053,5.09021 3.39034,0.16392 6.78719,0.13857 10.18078,0.20786 11.49975,0.12118 22.96641,-1.0178 34.35522,-2.50049 7.19601,-0.93683 12.92184,-1.75026 19.91021,-3.53614 2.57906,-0.65908 5.08958,-1.56203 7.63437,-2.34304 4.87769,-2.11179 14.2785,-5.78874 15.65563,-11.90459 1.00873,-4.47981 -0.34711,-5.47491 -2.31365,-9.12417 -3.53485,-3.99113 -1.67903,-2.16499 -5.53613,-5.51007 -4.06735,-3.47203 -8.97753,2.28006 -4.91019,5.75209 v 0 c 2.85239,2.38385 1.50697,1.12209 4.04146,3.7797 0.38697,0.42049 0.74281,0.8719 1.16091,1.26145 0.22547,0.21009 0.71268,0.22296 0.75922,0.52761 0.52592,3.44218 -9.2111,7.10011 -11.08954,7.9921 -2.3293,0.72474 -4.62562,1.56552 -6.98791,2.17421 -6.76011,1.74191 -12.21176,2.50643 -19.19568,3.41837 -11.05037,1.44294 -22.17609,2.56561 -33.33509,2.4516 -15.79595,-0.29875 -31.67493,-1.63026 -47.13173,-5.02244 -3.91916,-1.08192 -8.22774,-2.01538 -11.85595,-3.9769 -0.94436,-0.51055 -1.4327,-1.3736 -2.1504,-2.1109 -0.79058,-2.40817 0.78068,-4.95387 1.87438,-7.01293 2.69856,-3.92561 5.94739,-7.5618 9.86248,-10.30957 4.64313,-2.65322 0.89091,-9.2196 -3.75222,-6.56638 z" />
    <path
       style="fill:#000000"
       id="path95"
       d="m 444.00293,713.63024 c -4.3217,4.27733 -8.99292,8.22205 -12.94767,12.84796 -3.26682,3.3904 -5.182,7.30409 -6.07971,11.87836 -0.17498,6.70381 3.41927,9.5045 8.99471,12.31458 8.66438,3.79263 18.1176,4.56176 27.4389,5.12443 13.67302,0.56838 27.36243,0.51405 41.04445,0.51912 11.7092,0.26089 23.38868,-0.27554 35.04862,-1.28986 6.94774,-0.97545 14.7752,-0.66366 21.60828,-2.17279 1.51924,-0.33553 2.98237,-0.88775 4.47356,-1.33163 5.91826,-2.55522 11.67225,-6.12877 14.65412,-12.08004 0.50541,-1.00871 0.82837,-2.09894 1.24256,-3.14841 2.52147,-8.84935 -0.34407,-13.14758 -6.30562,-19.43381 -0.80123,-0.71355 -1.60246,-1.42711 -2.40369,-2.14067 -4.00869,-3.53958 -9.01442,2.12956 -5.00573,5.66914 v 0 c 0.64663,0.56488 1.29326,1.12976 1.9399,1.69463 3.49571,3.63025 6.30136,6.1757 4.69806,11.544 -2.08095,5.96551 -5.45758,7.98142 -11.05597,10.67054 -1.08786,0.35447 -2.14716,0.81299 -3.26357,1.06339 -6.69545,1.50171 -14.42774,1.15311 -21.23768,2.1313 -11.44098,0.99633 -22.90047,1.52192 -34.39005,1.26138 -13.53252,-0.005 -27.07223,0.049 -40.59608,-0.50566 -8.32233,-0.49203 -16.78967,-1.08907 -24.56674,-4.36858 -1.11558,-0.52151 -3.01872,-1.20419 -3.97349,-2.09994 -0.60848,-0.57086 -0.49225,-1.36664 -0.91228,-2.02184 0.58612,-3.32613 2.02297,-5.95557 4.42432,-8.39663 3.87784,-4.66075 8.7202,-8.43462 12.91293,-12.80714 3.48026,-4.0603 -2.26188,-8.98213 -5.74213,-4.92183 z" />
    <path
       style="fill:#000000"
       id="path96"
       d="m 4.4268523,508.54326 c -0.081014,0.87544 -0.1327707,1.75407 -0.2430433,2.6263 -0.6608103,5.22686 -1.6799173,10.36407 -2.2545808,15.61169 -0.8412627,7.68211 -0.8971594,9.7672 -1.44453316,17.74567 -0.94679866,15.85008 -1.30581281,31.72675 -1.46990859,47.60168 -0.29118155,10.41468 0.0986808,20.80799 0.59767514,31.20706 0.57208809,12.042 0.65568462,24.09918 0.73134155,36.1522 0.0649385,14.04118 0.058585,28.08256 0.0567305,42.12386 0.0267444,11.11997 -1.15774639,22.16515 -2.35841584,33.2008 -1.1486114,10.69715 -2.159743,21.39663 -2.7237422,32.14182 -0.4043944,6.64532 -0.5662689,13.32697 0.5515649,19.90928 0.9907719,4.07369 2.473869,8.02378 4.88642383,11.46944 2.89144987,3.28056 6.79430077,2.04414 10.54009567,1.62413 7.573241,-0.54602 15.178589,-0.49932 22.767631,-0.54663 13.706027,-0.20147 27.40201,0.45601 41.100849,0.79917 15.461851,0.66739 30.92029,1.35471 46.39373,1.68036 17.66724,0.0562 35.3233,0.66202 52.98279,1.12216 17.15674,0.4283 34.31952,0.48122 51.4806,0.52767 19.27862,0.0337 38.5573,0.0246 57.83594,0.021 17.54228,-0.24202 35.05803,0.79966 52.57113,1.62673 16.7416,1.1311 33.50106,1.84949 50.27506,2.23681 15.14128,0.29157 30.28589,0.30945 45.4294,0.32218 12.75003,0.002 25.50006,-0.009 38.25009,-0.0146 14.42436,0.27042 28.82648,-0.46516 43.22272,-1.24535 18.21637,-0.51288 36.367,-2.08692 54.52681,-3.51751 22.6765,-1.77934 45.40223,-2.5737 68.13661,-3.09711 20.61092,-0.30818 41.21055,-1.0799 61.81861,-1.52542 14.36892,-0.2241 28.7199,-1.00483 43.08563,-1.37296 15.70167,-0.11334 31.39184,-0.57032 47.08663,-1.0098 15.95397,-0.43358 31.913,-0.61908 47.87209,-0.71624 13.46808,0.16644 26.92175,-0.45106 40.37844,-0.88892 15.65377,-0.53599 31.31146,-0.49644 46.96705,-0.12953 13.68684,0.38379 27.37498,0.71086 41.06621,0.881 10.55465,0.11028 21.11003,0.10468 31.66511,0.10679 13.62021,-0.15835 27.21141,0.86091 40.80011,1.62485 12.23,0.59403 24.4743,1.1666 36.7204,0.93229 8.4095,-0.13781 16.7888,-0.66819 25.0435,-2.31122 4.4777,-1.0951 9.0791,-1.41389 13.6425,-1.96876 3.8228,-0.97058 8.9818,0.15329 12.5517,-1.65347 0.9419,-0.47675 1.7263,-1.21572 2.5895,-1.82358 0.5498,-1.07206 1.309,-2.06042 1.6492,-3.21618 1.0508,-3.56981 -0.3983,-11.75609 -0.9792,-15.58981 -1.4923,-6.71602 -2.7061,-13.49125 -3.5956,-20.31288 -1.1918,-8.56902 -2.1455,-17.17547 -2.9337,-25.79125 -0.7213,-8.33234 -0.8978,-16.69535 -0.9954,-25.05378 -0.2589,-11.71497 0.506,-23.41517 1.1903,-35.10323 0.8466,-14.19276 1.894,-28.36715 2.4643,-42.57535 0.4963,-12.92423 0.993,-25.85405 1.6797,-38.77018 0.7941,-12.53299 1.2094,-25.08367 1.4468,-37.63808 0.052,-10.07692 0.5415,-20.16629 -0.4136,-30.2119 -0.5958,-5.67332 -1.8058,-11.26258 -3.346,-16.74797 -1.4523,-5.14676 -8.7309,-3.09291 -7.2786,2.05384 v 0 c 1.4323,5.0481 2.536,10.19968 3.0969,15.42209 0.9609,9.75183 0.3881,19.55794 0.3799,29.34108 -0.2354,12.46835 -0.6483,24.93294 -1.4376,37.37999 -0.6864,12.94887 -1.1874,25.91112 -1.6842,38.86804 -0.5676,14.16192 -1.6156,28.28985 -2.4575,42.43646 -0.6946,11.86466 -1.4643,23.74179 -1.2027,35.6337 0.1004,8.55918 0.2851,17.1229 1.0264,25.65512 0.799,8.71294 1.7613,17.41681 2.9661,26.08273 0.9026,6.87363 2.0944,13.70929 3.6184,20.47366 0.4341,2.8163 0.7685,5.6334 1.0296,8.47154 0.1046,1.13715 -0.1617,2.37215 0.311,3.4117 0.064,0.14024 0.2966,0.0831 0.445,0.12463 0.8347,0.698 -1.6253,0.75824 -2.839,0.88095 -2.7273,0.27572 -5.4777,0.35099 -8.1946,0.74459 -4.7535,0.57801 -9.5459,0.92402 -14.2111,2.06 -7.8131,1.56708 -15.75,2.0239 -23.7101,2.16614 -12.0548,0.24182 -24.1087,-0.34832 -36.1478,-0.92182 -13.7296,-0.77173 -27.4617,-1.79682 -41.2231,-1.63678 -10.52428,-0.002 -21.04885,0.004 -31.57269,-0.1062 -13.66352,-0.16963 -27.32394,-0.49671 -40.98308,-0.87951 -15.79659,-0.36965 -31.59537,-0.40923 -47.39008,0.13146 -13.3901,0.43577 -26.77708,1.05218 -40.17852,0.88506 -16.01433,0.0976 -32.02859,0.28387 -48.03777,0.71906 -15.68886,0.43946 -31.37303,0.89576 -47.06878,1.00932 -14.3556,0.36841 -28.69651,1.14668 -43.05524,1.37224 -20.61161,0.44576 -41.2148,1.21713 -61.82926,1.52566 -22.87447,0.52707 -45.74024,1.32802 -68.55645,3.11847 -18.09833,1.42589 -36.18726,2.99614 -54.34209,3.50523 -14.26102,0.77287 -28.52761,1.50541 -42.81657,1.23426 -12.74688,0.005 -25.49375,0.0161 -38.24062,0.0146 -15.08748,-0.0127 -30.17605,-0.0302 -45.26131,-0.32017 -16.71326,-0.38532 -33.41177,-1.10414 -50.09276,-2.23041 -17.63241,-0.83264 -35.26756,-1.87772 -52.9293,-1.63514 -19.27136,0.004 -38.54273,0.0127 -57.81406,-0.0209 -17.10223,-0.0463 -34.20616,-0.0986 -51.30408,-0.52513 -17.67215,-0.46042 -35.3409,-1.0667 -53.0208,-1.12306 -15.46334,-0.32479 -30.911488,-1.01603 -46.363358,-1.67966 -13.777649,-0.34496 -27.552482,-1.00481 -41.337389,-0.80139 -7.85846,0.0491 -15.735178,-0.003 -23.57544,0.59497 -2.4449608,0.28165 -1.2026809,0.11516 -3.2296565,0.42121 -1.5628739,0.23598 -1.1334903,0.13113 -0.3407466,1.01849 -1.8940525,-2.37944 -2.6634112,-5.48406 -3.5527451,-8.32977 -1.107394,-6.00189 -0.7302685,-12.14272 -0.4474564,-18.20267 0.5547302,-10.60429 1.557282,-21.16275 2.6897399,-31.71961 1.2300799,-11.30692 2.430905,-22.62483 2.40278,-34.01777 0.00186,-14.05746 0.00821,-28.11501 -0.05688,-42.17236 -0.07641,-12.15806 -0.1621404,-24.32027 -0.7398842,-36.46719 -0.4919625,-10.25242 -0.8807205,-20.4985 -0.5893865,-30.76647 0.162252,-15.72868 0.5168943,-31.45908 1.4526525,-47.16326 0.5512967,-8.07109 1.1070404,-16.12597 2.2487189,-24.14066 0.963312,-6.76254 0.67639,-3.04511 1.436414,-9.04214 0.100126,-0.79006 0.144188,-1.58622 0.216283,-2.37932 0.663304,-5.30644 -6.8411296,-6.24449 -7.5044341,-0.93806 z" />
    <path
       style="fill:#d4aa00;stroke-width:1.39091"
       d="m 439.5268,656.30534 c -12.23999,-0.25673 -57.93131,-1.11189 -101.53626,-1.90035 -68.89212,-1.24571 -82.44616,-1.84732 -103.42908,-4.5908 -26.80959,-3.50531 -27.35131,-3.77077 -28.59,-14.00951 -1.57378,-13.00847 -3.69226,-69.46221 -2.6432,-70.43647 1.55291,-1.4422 53.12772,-3.91237 115.7104,-5.54195 54.88832,-1.42922 106.07237,-0.3271 164.30172,3.53785 76.53012,5.07964 236.97013,5.12396 296.00724,0.0818 13.24664,-1.13136 25.00999,-1.70199 26.14079,-1.26806 1.76403,0.67692 1.99791,6.76578 1.64698,42.8774 l -0.40899,42.08844 -7.64999,0.79891 c -16.33112,1.70549 -67.54911,5.12231 -98.05899,6.54163 -31.24639,1.45359 -217.25249,2.74903 -261.49062,1.82115 z m 73.27511,-21.4921 c 22.60748,-2.9174 35.81268,-7.5862 41.34328,-14.61723 3.99512,-5.07897 3.65888,-8.7447 -1.36068,-14.8343 -4.39049,-5.32641 -7.81661,-6.44722 -10.74783,-3.516 -2.44023,2.44023 -2.13469,3.3184 2.73954,7.87375 l 4.4086,4.12021 -4.75633,2.92689 c -12.55369,7.72511 -41.10645,11.88732 -73.60627,10.72978 -29.62592,-1.05518 -52.85449,-5.77583 -52.85449,-10.74141 0,-2.9446 5.65932,-10.89339 9.91154,-13.92124 5.03882,-3.58795 5.05855,-8.6675 0.0364,-9.37846 -6.54205,-0.92612 -18.29341,13.64507 -18.29341,22.68306 0,10.21628 7.14447,14.20569 32.21568,17.989 7.90885,1.19347 16.88336,2.43073 19.94336,2.74947 8.16832,0.85083 37.68886,-0.34312 51.02059,-2.06352 z"
       id="path97" />
    <path
       style="fill:#000000"
       id="path98"
       d="m 214.59108,689.66391 c 0,4.97836 0,9.95672 0,14.93509 0,0.76366 0,1.52732 0,2.29099 0,5.34773 7.56284,5.34773 7.56284,0 v 0 c 0,-0.76367 0,-1.52733 0,-2.29099 0,-4.97837 0,-9.95673 0,-14.93509 0,-5.34773 -7.56284,-5.34773 -7.56284,0 z" />
    <path
       style="fill:#d4aa00;stroke-width:1.39091"
       d="m 591.13572,773.84487 c -32.12996,-0.73284 -118.50532,-1.00589 -191.94524,-0.60677 -110.9356,0.60289 -136.70407,0.38381 -152.30438,-1.29489 -10.32749,-1.11131 -21.76997,-2.03301 -25.42772,-2.04821 -4.85328,-0.0202 -6.88616,-0.64186 -7.52264,-2.30052 -1.25556,-3.27192 1.5517,-19.69664 7.47914,-43.7589 4.20829,-17.08348 4.84932,-21.41624 3.49041,-23.5922 -3.52993,-5.65231 -2.28615,-6.56914 10.50582,-7.74415 20.70685,-1.90203 317.34164,-1.36902 345.98826,0.62169 35.71161,2.48167 132.44182,3.55388 165.518,1.83469 21.80714,-1.13346 29.47118,-2.05256 35.46814,-4.25345 10.1723,-3.73323 13.12512,-3.63895 15.00137,0.47897 2.53777,5.56979 8.48825,47.73014 8.9288,63.26223 l 0.41072,14.48053 -4.17273,1.201 c -13.00806,3.74402 -124.41864,5.70433 -211.41795,3.71998 z m -51.21074,-18.45549 c 29.70859,-2.63498 38.77259,-7.63019 40.42357,-22.27763 1.01406,-8.99671 -6.95217,-21.2112 -13.06593,-20.0338 -4.10264,0.7901 -3.78586,4.9452 0.80127,10.51019 2.35102,2.85219 4.27458,6.2106 4.27458,7.46313 0,3.24241 -5.09519,9.29334 -9.9313,11.79419 -6.61605,3.42129 -34.57283,5.04071 -76.10216,4.40829 -37.69617,-0.57404 -45.03763,-1.38947 -50.86356,-5.6495 -3.40604,-2.49055 -1.53471,-6.09289 8.53116,-16.42263 7.82653,-8.03168 9.16828,-12.51607 4.04034,-13.50362 -1.68836,-0.32515 -5.46984,2.33083 -10.86908,7.63402 -9.63703,9.46561 -12.2416,13.81837 -12.2416,20.4581 0,5.87536 5.54155,11.12666 14.32004,13.56996 14.14583,3.93719 67.21795,5.01743 100.68267,2.0493 z"
       id="path99" />
    <path
       style="fill:#ff9955;stroke-width:1.39091"
       d="m 349.1178,797.63789 c -7.64999,-0.59514 -63.98175,-1.73323 -125.18168,-2.52909 -61.19993,-0.79585 -128.485087,-2.16831 -149.522564,-3.0499 -21.037478,-0.8816 -44.907099,-1.19898 -53.0436,-0.70529 l -14.7936431,0.89763 -1.549522,-4.44497 C 2.8598928,781.5903 3.0990109,768.53868 5.839621,743.4401 7.798009,725.50514 8.2064899,706.56628 8.2695922,630.77659 c 0.058444,-70.19502 0.5242851,-94.37654 2.0297148,-105.36125 1.551321,-11.31957 2.410998,-14.25397 4.172723,-14.24305 1.220373,0.008 10.981579,0.63405 21.691567,1.39218 10.709988,0.75813 42.005409,1.98951 69.545383,2.7364 27.53997,0.74689 65.09447,2.63887 83.45445,4.2044 55.64617,4.74486 72.66858,5.32174 134.91804,4.57226 56.51619,-0.68045 61.18741,-0.54481 84.84536,2.46371 23.0407,2.93003 31.74389,3.22953 109.18624,3.75742 81.39272,0.55481 152.98672,-1.04914 174.55891,-3.91071 5.35499,-0.71034 22.56747,-1.89275 38.24995,-2.62756 15.68249,-0.73482 34.77269,-2.03497 42.42268,-2.88923 7.65,-0.85426 36.12883,-2.14839 63.2863,-2.87584 52.12083,-1.39613 52.29742,-1.40471 98.05898,-4.76172 16.06499,-1.17851 40.78837,-2.79909 54.94085,-3.6013 53.14866,-3.01265 66.63376,-3.92995 87.62716,-5.96069 11.8575,-1.147 24.6826,-2.75747 28.5003,-3.57882 3.8177,-0.82135 7.6572,-1.21867 8.5321,-0.88293 2.7472,1.05423 4.6951,17.62206 4.6886,39.88076 -0.01,21.9512 -2.9105,89.05339 -5.6838,131.32683 -2.1316,32.49247 -0.1703,63.88948 6.34,101.49349 1.0555,6.09646 1.6171,11.57315 1.2479,12.17044 -0.3691,0.59727 -2.9066,1.08595 -5.639,1.08595 -2.7323,0 -11.3016,1.01864 -19.0428,2.26366 -11.5582,1.85888 -19.4227,2.08322 -43.9796,1.25453 -60.79857,-2.05169 -148.48434,-2.83487 -209.33161,-1.8697 -125.25238,1.98679 -252.19947,5.96317 -286.52696,8.97493 -27.90108,2.44794 -181.88162,3.82033 -207.24523,1.84714 z m 438.49544,-16.56706 c 19.0917,-1.50919 25.89661,-3.85263 27.81084,-9.57737 1.6026,-4.79284 -0.19434,-30.35181 -3.84725,-54.72183 -3.37805,-22.53621 -5.91964,-31.78888 -9.6624,-35.17605 -3.67858,-3.32905 -12.85718,-3.06018 -23.23758,0.68072 -7.13665,2.57193 -13.30795,3.10704 -51.23219,4.44242 -43.21054,1.5215 -80.29875,0.8006 -167.60436,-3.25788 -21.16805,-0.98401 -86.95882,-1.30716 -186.69966,-0.91704 -180.00105,0.70407 -160.33835,-1.57653 -159.27447,18.47362 0.55599,10.47824 0.0178,15.23809 -3.30269,29.20906 -7.50787,31.58954 -7.7971,42.89985 -1.1798,46.13582 1.88385,0.92123 15.22869,2.7279 29.65519,4.01483 23.15124,2.06522 40.70169,2.2405 149.52257,1.49329 67.8109,-0.46561 145.5123,-0.28799 172.66977,0.39471 58.64876,1.47435 202.20327,0.717 226.38203,-1.1943 z M 616.17206,665.54494 c 86.34555,-1.78643 161.22388,-5.45886 188.1705,-9.22887 11.76555,-1.64608 11.29718,0.2464 11.98917,-48.44289 0.66645,-46.89297 0.19443,-50.652 -6.75802,-53.81975 -2.76945,-1.26184 -11.17177,-1.03171 -37.9745,1.04007 -29.63848,2.29098 -48.71187,2.65625 -137.34535,2.63024 -94.46588,-0.0277 -107.04346,-0.31021 -152.99984,-3.43646 -42.24197,-2.87358 -60.5136,-3.40549 -116.83623,-3.40125 -59.31114,0.004 -123.44996,1.88032 -155.78165,4.5561 -10.8436,0.89743 -11.13849,1.01841 -11.56737,4.7459 -0.24206,2.10375 -1.07774,3.82499 -1.85702,3.82499 -1.63921,0 -0.29661,58.33276 1.64058,71.27965 2.81066,18.78446 4.30202,19.62881 42.38377,23.99623 29.02094,3.32826 36.62898,3.58191 147.43621,4.91527 64.25993,0.77326 119.65282,1.59238 123.09532,1.82026 14.16549,0.93772 44.51455,0.80096 106.40443,-0.47949 z"
       id="path100" />
  </g>
</svg>
