<?xml version="1.0" encoding="UTF-8" standalone="no"?>
<!-- Created with Inkscape (http://www.inkscape.org/) -->

<svg
   width="115.42306mm"
   height="119.20018mm"
   viewBox="0 0 115.42306 119.20018"
   version="1.1"
   id="svg1"
   xmlns="http://www.w3.org/2000/svg"
   xmlns:svg="http://www.w3.org/2000/svg">
  <defs
     id="defs1" />
  <path
     style="fill:#1a1a1a;stroke-width:0.264583"
     id="path23"
     d="m 33.788918,14.69597 c -2.178666,0.216794 -4.247057,0.95317 -6.274511,1.737614 -2.282375,0.939611 -4.213402,2.289818 -5.951829,4.024442 -1.323642,1.454842 -2.082839,3.265848 -2.360682,5.205282 -0.06228,0.434751 -0.07324,0.875321 -0.109857,1.312981 -0.032,1.661515 0.199135,3.342344 0.90279,4.863439 0.400462,0.865679 0.694835,1.208177 1.236852,1.970598 1.976456,2.303433 4.459475,2.975856 7.317106,3.604625 3.112535,0.530527 6.2777,0.952333 9.442519,0.951291 0.572333,-1.91e-4 1.143974,-0.03985 1.715963,-0.05978 2.185525,-0.126994 4.228145,-0.90575 5.771536,-2.497116 0.889712,-0.917366 1.032783,-1.352288 1.631429,-2.449303 0.86129,-2.022912 1.110504,-4.238067 0.701442,-6.401552 -0.07546,-0.399092 -0.194699,-0.788646 -0.292047,-1.182969 -0.711711,-2.546527 -2.192142,-4.546514 -3.959175,-6.456404 -1.335521,-1.26147 -2.687235,-2.629413 -4.311893,-3.529629 -0.280712,-0.15554 -0.579956,-0.274986 -0.869934,-0.412479 -0.688284,-0.297455 -1.415209,-0.457795 -2.146252,-0.602685 -1.388867,-0.270276 -1.771095,1.693878 -0.382228,1.964155 v 0 c 0.574074,0.109116 1.14545,0.229759 1.688375,0.454632 1.75972,0.786048 3.187054,2.162233 4.556207,3.488229 1.543076,1.651859 2.851269,3.374432 3.484581,5.583228 0.5716,2.212467 0.621953,3.989615 -0.235088,6.154623 -0.169166,0.327816 -0.31124,0.671103 -0.5075,0.983454 -0.859411,1.367769 -2.218113,2.36637 -3.801496,2.7296 -0.458467,0.105172 -0.933527,0.116348 -1.400291,0.174525 -0.526847,0.01982 -1.05332,0.05867 -1.580536,0.05946 -3.042844,0.0046 -6.086359,-0.402418 -9.079765,-0.906446 -2.245302,-0.483505 -4.532878,-1.027404 -6.118005,-2.817173 -0.399962,-0.549248 -0.697331,-0.905584 -0.994539,-1.52215 -0.598138,-1.240854 -0.789087,-2.624923 -0.775095,-3.988771 0.144599,-2.041994 0.509627,-3.68964 1.893909,-5.262162 1.511886,-1.531885 3.260289,-2.74123 5.255966,-3.569924 1.853584,-0.718139 3.741203,-1.40639 5.733211,-1.610856 1.40911,-0.128101 1.227947,-2.120883 -0.181163,-1.992783 z" />
  <path
     style="fill:#1a1a1a;stroke-width:0.264583"
     id="path24"
     d="m 19.641985,20.382873 c -0.852196,1.114787 -1.763457,2.185103 -2.561423,3.34115 -0.680995,0.986585 -1.017701,1.58428 -1.636505,2.614178 -1.678768,2.691509 -3.00095,5.563116 -4.056577,8.548632 -0.614121,2.2332 -1.252499,4.539113 -1.247348,6.87645 7.67e-4,0.352496 0.03937,0.703897 0.05906,1.055843 0.320165,2.282185 1.521325,3.32114 3.338221,4.529479 1.930807,1.195835 4.103564,1.874083 6.295225,2.402681 2.123013,0.444498 4.297448,0.527143 6.459005,0.580755 1.553926,0.03657 3.105353,0.03723 4.655739,-0.07538 1.506678,-0.126942 2.936904,-0.633535 4.347938,-1.144556 1.364382,-0.504172 2.687405,-1.107914 3.942342,-1.842804 1.1747,-0.645047 2.185217,-1.509538 3.170338,-2.405783 0.122798,-0.11725 0.983403,-1.07923 1.206095,-0.915651 0.754719,0.200551 1.428017,0.592397 2.039517,1.068623 1.030176,0.816417 2.020774,1.677273 2.992548,2.561463 1.432121,1.514147 2.860308,3.030945 4.300723,4.537263 1.817386,1.934487 3.727641,3.783144 5.696143,5.563264 2.325423,2.032957 4.791916,3.893227 7.345738,5.627555 2.443888,1.525976 4.835938,3.133111 7.270131,4.673565 2.428759,1.545889 4.842954,3.114403 7.257026,4.683329 1.929522,1.149993 3.829381,2.341242 5.636654,3.675586 1.456796,1.119611 2.947331,2.192452 4.437817,3.266345 1.155258,0.870635 2.287836,1.772621 3.494473,2.571443 1.10906,0.755904 2.285506,1.39836 3.484894,1.996268 1.189228,0.454726 2.440341,0.746146 3.672351,1.067636 1.34564,0.386477 2.68535,0.790946 4.05453,1.087395 1.17849,0.279048 2.35453,0.566005 3.55228,0.749311 0.98445,0.125381 1.97899,0.212765 2.97065,0.148944 1.55186,-0.21859 2.05148,-1.676458 2.37483,-3.003785 0.33107,-1.421045 -0.12997,-2.778588 -0.68416,-4.07434 -0.36383,-0.652235 -0.64945,-1.356243 -1.07707,-1.972188 -0.16517,-0.2379 -0.35438,-0.45829 -0.52449,-0.692682 -0.46263,-0.723141 -1.13579,-1.247561 -1.79455,-1.778749 -0.63056,-0.555773 -1.34102,-1.007644 -1.99761,-1.528987 -0.4744,-0.339535 -0.89091,-0.748062 -1.33541,-1.124096 -0.76881,-0.554979 -1.66041,-0.917093 -2.51921,-1.309377 -1.39165,-0.776486 -2.78942,-1.546736 -4.16532,-2.351302 C 98.340441,68.364226 96.63581,67.255966 94.926591,66.154519 92.908323,64.88386 90.86071,63.661668 88.834205,62.404595 86.703198,61.102977 84.611556,59.739077 82.52216,58.372266 80.242835,56.830152 77.960608,55.292352 75.710914,53.706746 73.440017,52.071415 71.214775,50.373898 69.048362,48.602325 67.164465,47.077074 65.38918,45.423142 63.626727,43.760712 61.964077,42.19232 60.251831,40.674829 58.528492,39.173467 57.096326,37.893066 55.681874,36.595044 54.223062,35.344872 53.124539,34.313886 51.988595,33.31864 50.927137,32.248972 50.356473,31.602616 49.69225,31.11506 48.920325,30.738841 48.514753,30.55009 48.068026,30.430388 47.673535,30.219835 46.399333,29.604684 45.52938,31.406679 46.803582,32.02183 v 0 c 0.410273,0.190087 0.83358,0.354991 1.25349,0.522224 0.578972,0.268256 1.029446,0.632862 1.452091,1.11678 1.102143,1.103688 2.270385,2.140947 3.411826,3.203445 1.454859,1.246732 2.86479,2.541987 4.293563,3.818348 1.704234,1.482793 3.395271,2.984243 5.039164,4.533709 1.79682,1.694847 3.607732,3.379981 5.528165,4.935191 2.203773,1.801082 4.466238,3.52833 6.776286,5.190815 2.268622,1.598851 4.570013,3.149555 6.868583,4.704461 2.102916,1.375616 4.208164,2.748206 6.352873,4.058338 2.016985,1.250476 4.053996,2.467824 6.063057,3.731382 1.733833,1.117309 3.463446,2.240941 5.244888,3.281807 1.434412,0.836482 2.886822,1.646171 4.342992,2.443453 0.69491,0.317373 1.40783,0.615654 2.05856,1.017241 0.4631,0.391353 0.89809,0.81607 1.3919,1.17012 0.65515,0.509907 1.35007,0.966004 1.97709,1.512662 0.52345,0.422077 1.07249,0.820148 1.43439,1.400871 0.1426,0.194432 0.30278,0.375682 0.44289,0.571908 0.37762,0.528838 0.61159,1.147775 0.93792,1.706668 0.38907,0.889529 0.78707,1.835679 0.57381,2.820262 -0.1049,0.462886 -0.0854,0.439569 -0.23832,0.876517 -0.0357,0.101918 -0.0733,0.203338 -0.11743,0.301914 -0.028,0.06261 -0.0968,0.112146 -0.0984,0.180708 -7.9e-4,0.03521 0.11926,0.02676 0.093,0.05018 -0.0559,0.04974 -0.1442,0.03977 -0.21629,0.05965 -0.83818,0.07849 -1.68728,-0.04923 -2.52061,-0.131926 -1.15758,-0.173866 -2.29169,-0.462262 -3.43107,-0.727083 -1.34196,-0.287385 -2.65173,-0.693968 -3.97123,-1.067578 -1.09933,-0.286139 -2.209458,-0.558078 -3.284272,-0.922136 -1.128321,-0.562478 -2.236147,-1.164712 -3.278544,-1.877579 -1.188414,-0.774239 -2.284503,-1.679474 -3.423838,-2.522815 -1.48435,-1.069462 -2.968779,-2.137783 -4.419452,-3.252954 -1.839841,-1.356855 -3.769199,-2.575484 -5.734328,-3.743275 -2.420959,-1.573398 -4.84215,-3.146208 -7.277761,-4.696621 -2.416654,-1.527868 -4.78926,-3.125505 -7.21609,-4.638151 -2.478378,-1.681057 -4.87022,-3.486695 -7.127933,-5.456574 -1.933856,-1.745895 -3.806926,-3.563109 -5.591492,-5.461532 -1.472491,-1.539734 -2.928372,-3.094114 -4.400267,-4.634367 -1.016532,-0.924862 -2.053482,-1.824845 -3.132175,-2.677374 -1.034698,-0.766985 -2.190485,-1.452661 -3.517773,-1.455174 -0.188664,0.03822 -0.382032,0.05797 -0.565991,0.114657 -0.700604,0.21591 -1.213594,0.808119 -1.715439,1.303417 -0.883412,0.80373 -1.781784,1.587317 -2.839025,2.161585 -1.145309,0.678757 -2.362946,1.219348 -3.609202,1.685967 -1.237707,0.449419 -2.490494,0.908106 -3.811296,1.029991 -1.485464,0.108717 -2.971927,0.104651 -4.46087,0.07069 -2.02098,-0.04964 -4.054526,-0.120806 -6.041299,-0.526087 -1.966822,-0.469717 -3.921336,-1.067289 -5.66042,-2.127242 -1.15342,-0.753515 -2.248416,-1.514864 -2.442814,-2.980899 -0.163095,-2.42928 0.404259,-4.823401 1.078048,-7.144993 1.006307,-2.860532 2.277932,-5.607201 3.885165,-8.184391 0.556813,-0.928552 0.92211,-1.572088 1.53372,-2.459667 0.786581,-1.141499 1.687913,-2.196235 2.528057,-3.297004 0.868677,-1.116871 -0.710817,-2.345366 -1.579494,-1.228495 z" />
  <path
     style="fill:#1a1a1a;stroke-width:0.264583"
     id="path25"
     d="m 22.958882,32.934433 c 1.51925,-0.620241 3.116931,-1.003562 4.712481,-1.367909 1.325515,-0.2916 2.656604,-0.433811 3.99593,-0.185623 1.064877,0.225065 1.946193,0.791839 2.766748,1.48011 0.7571,0.584867 1.404522,1.272461 1.903736,2.08705 0.359553,0.704387 0.703043,1.412959 1.105421,2.094544 0.719431,1.21837 2.442461,0.200941 1.723033,-1.017428 v 0 C 38.755555,35.329839 38.4181,34.599925 38.035491,33.888926 37.41063,32.89994 36.640349,32.035919 35.710092,31.319684 c -1.097364,-0.899382 -2.283505,-1.629786 -3.697057,-1.909688 -1.626521,-0.273651 -3.180376,-0.15947 -4.787768,0.205888 -1.726388,0.395364 -3.454521,0.814726 -5.094405,1.496906 -1.288096,0.585499 -0.460077,2.407142 0.82802,1.821643 z" />
  <path
     style="fill:#1a1a1a;stroke-width:0.264583"
     id="path26"
     d="m 43.553649,39.159886 c 1.378678,0.969282 2.66396,2.06294 3.964104,3.133156 1.37278,1.062516 2.672369,2.199039 3.912616,3.412424 1.106197,1.022691 2.314493,1.921899 3.469722,2.886522 1.110917,0.827252 2.243585,1.623782 3.412167,2.366886 1.180135,0.817581 2.399335,1.572315 3.55794,2.420252 1.299921,0.906857 2.535893,1.897703 3.768973,2.891882 1.477013,1.097087 2.803028,2.371892 4.206968,3.55721 1.492385,1.339249 3.161122,2.447755 4.815607,3.570562 1.970942,1.304449 4.004053,2.515291 6.05995,3.68064 1.335363,0.850942 2.636293,1.743141 4.018521,2.518476 1.285478,0.626049 2.453177,1.446909 3.644056,2.229639 1.425805,0.912667 2.680385,2.052404 4.022767,3.077688 1.097804,0.849146 2.072722,1.838487 3.097795,2.770029 0.826336,0.731232 1.615215,1.502664 2.408751,2.268744 0.64408,0.589097 1.203798,1.261774 1.790948,1.905926 0.364616,0.402053 0.729006,0.804886 1.080216,1.218883 0.91755,1.077076 2.44077,-0.220544 1.52321,-1.29762 v 0 c -0.36732,-0.429697 -0.74433,-0.851255 -1.12468,-1.269336 -0.61614,-0.675767 -1.204698,-1.380167 -1.880642,-1.998178 -0.808869,-0.77919 -1.611363,-1.56559 -2.452894,-2.310046 C 95.781565,75.225218 94.76788,74.19387 93.621131,73.314631 92.240766,72.261713 90.952234,71.088495 89.483114,70.155246 88.252796,69.347053 87.044979,68.501153 85.718469,67.852324 84.338331,67.079626 83.046958,66.178612 81.708267,65.338536 79.698928,64.200087 77.712098,63.01674 75.785331,61.743018 74.188671,60.65962 72.575782,59.593365 71.136919,58.299204 69.721417,57.104375 68.384472,55.818989 66.895114,54.71325 65.637613,53.699396 64.376688,52.689511 63.051528,51.764054 61.856466,50.89041 60.601457,50.109064 59.383072,49.268498 58.285445,48.57624 57.229911,47.82222 56.182593,47.056024 c -1.11515,-0.931104 -2.279343,-1.801088 -3.35315,-2.78115 -1.281416,-1.252736 -2.622878,-2.428692 -4.040028,-3.526787 -1.393074,-1.14658 -2.767325,-2.326098 -4.263996,-3.337391 -1.236864,-0.687146 -2.208633,1.062043 -0.97177,1.74919 z" />
  <path
     style="fill:#cccccc;stroke-width:0.295415"
     d="m 97.608172,81.686571 c -0.9602,-0.48514 -3.939283,-2.50194 -6.620179,-4.481774 -2.680896,-1.97983 -6.270197,-4.484577 -7.976219,-5.566098 -9.800085,-6.212695 -17.045176,-10.99475 -19.645135,-12.966597 -1.678686,-1.273135 -5.760191,-5.053668 -9.453298,-8.756205 -8.771332,-8.793723 -9.905034,-9.369531 -13.042299,-6.62418 -2.06107,1.803593 -3.956849,2.902932 -6.898251,4.000201 -2.113513,0.788432 -2.44025,0.825167 -7.089974,0.797108 -3.894734,-0.02349 -5.33131,-0.150403 -7.148038,-0.631413 -3.077948,-0.814943 -5.331436,-1.9266 -6.420953,-3.167491 -0.797875,-0.90873 -0.906373,-1.246195 -0.906373,-2.819148 0,-4.006932 2.519153,-10.613731 6.025614,-15.802942 l 0.621237,-0.919368 0.01102,2.691861 c 0.02651,6.47538 3.245979,9.250036 12.248725,10.556411 2.87092,0.416597 8.409252,0.514803 10.265693,0.182034 0.980482,-0.175752 1.255514,-0.13553 1.255514,0.183618 0,0.224771 1.495541,1.626264 3.323426,3.114434 1.827882,1.488168 4.386921,3.634793 5.68675,4.770279 1.299827,1.135486 4.556784,3.587813 7.23768,5.449617 2.680896,1.861804 6.137259,4.459706 7.680806,5.773119 3.808524,3.240688 6.783922,5.469244 9.602854,7.192475 1.29881,0.793972 3.890251,2.376972 5.758751,3.517781 7.730914,4.720085 8.830559,5.531594 13.962536,10.303989 2.996782,2.786801 4.116501,4.084367 3.524565,4.084367 -0.142245,0 -1.044247,-0.396935 -2.004452,-0.882078 z"
     id="path27" />
  <path
     style="fill:#cccccc;stroke-width:0.295415"
     d="m 109.74688,85.01931 c -0.48743,-0.06575 -2.31496,-0.456157 -4.06117,-0.867563 -3.05104,-0.718826 -3.16808,-0.775303 -2.99938,-1.447456 0.1472,-0.586486 -0.29421,-1.184598 -2.733386,-3.703725 -3.099742,-3.201347 -7.480771,-7.011389 -10.146615,-8.824193 -0.89363,-0.607679 -4.01765,-2.545352 -6.942264,-4.305943 -7.015967,-4.223546 -9.078794,-5.623771 -12.30077,-8.349636 -4.180965,-3.537185 -6.008037,-4.93287 -10.150814,-7.754125 -2.112219,-1.438436 -4.58793,-3.25411 -5.501576,-4.034835 -4.554265,-3.891687 -8.777237,-7.403981 -9.631495,-8.010625 l -0.953127,-0.676855 0.960943,-0.843719 c 0.528518,-0.464045 1.265859,-1.454256 1.638535,-2.200465 0.372676,-0.746213 0.81647,-1.356752 0.986208,-1.356752 0.169738,0 1.323613,0.972042 2.564162,2.16009 2.188009,2.09541 11.353824,10.391714 15.350963,13.894702 3.311483,2.902096 9.890699,7.737422 15.877511,11.669009 7.23596,4.751911 17.511135,11.089822 20.952305,12.923745 2.50075,1.332743 5.88227,3.766843 7.26424,5.22897 1.51579,1.603714 2.47935,4.346337 2.01806,5.744075 -0.3233,0.979581 -0.38139,0.999596 -2.19233,0.755301 z"
     id="path28" />
  <path
     style="fill:#666666;stroke-width:0.295415"
     d="m 38.593659,34.586653 c -0.961049,-1.856981 -2.78471,-3.664966 -4.665355,-4.62525 -2.453431,-1.25276 -5.138558,-1.069372 -11.383563,0.777476 -0.56431,0.166885 -0.689052,0.02945 -0.993047,-1.094063 -0.191217,-0.706707 -0.284035,-2.086454 -0.206261,-3.066106 0.378199,-4.763888 4.235319,-7.761868 12.627358,-9.81472 1.198594,-0.293199 3.222228,0.325636 5.075594,1.552135 1.983727,1.312768 4.6398,4.290718 5.641774,6.325476 0.83276,1.691121 0.951545,2.228977 0.951545,4.30853 0,1.968079 -0.129622,2.628366 -0.754716,3.844494 -0.83166,1.618004 -2.620748,2.932546 -4.415057,3.243985 -1.009719,0.17526 -1.053743,0.141229 -1.878272,-1.451957 z"
     id="path29" />
  <path
     style="fill:#333333;stroke-width:0.295415"
     d="M 31.781974,35.728716 C 28.330548,35.258832 25.16634,34.35333 24.18579,33.554913 l -0.700253,-0.570182 0.886247,-0.33945 c 1.879672,-0.71995 4.796729,-1.23249 6.380189,-1.121032 1.341517,0.09443 1.937827,0.325078 3.160077,1.222293 1.297543,0.952484 2.71948,2.654517 2.71948,3.255171 0,0.267825 -1.495433,0.183642 -4.849556,-0.272997 z"
     id="path30" />
</svg>
