<?xml version="1.0" encoding="UTF-8" standalone="no"?>
<!-- Created with Inkscape (http://www.inkscape.org/) -->

<svg
   width="50.608845mm"
   height="6.1366973mm"
   viewBox="0 0 191.27752 23.193817"
   version="1.1"
   id="svg1"
   xmlns="http://www.w3.org/2000/svg"
   xmlns:svg="http://www.w3.org/2000/svg">
  <defs
     id="defs1" />
  <path
     style="fill:#d45500;stroke-width:1.9938"
     id="path7"
     d="m 9.7665645,19.888951 c 11.2452705,0.99699 22.8236105,1.39734 34.3270405,1.81226 15.56987,0.49074 31.19411,0.78973 46.8252,0.82651 10.015015,-0.0132 20.033695,-0.18416 30.003915,-0.52045 7.18198,-0.20241 14.28828,-0.63069 21.43483,-0.94045 4.58757,-0.19878 9.08468,-0.58543 13.6301,-0.87096 5.35126,-0.28654 10.56217,-0.81274 15.71555,-1.38874 3.46242,-0.43784 7.09186,-0.82618 10.30323,-1.4802 0.80702,-0.16437 1.5741,-0.35246 2.36114,-0.52869 6.23874,-5.03557 9.09487,-3.91461 -4.49448,-8.1593403 -0.93885,-0.29324 -2.45456,-0.17103 -3.69688,-0.2163 -4.34177,-0.15825 -8.83533,-0.0358 -13.18349,-0.001 -13.27552,0.26774 -26.56189,0.30795 -39.85425,0.29747 -16.06628,-0.0301 -32.132635,-0.055 -48.199065,-0.0703 -12.04501,-0.0107 -24.09004,-0.0124 -36.13503,-0.0132 -3.89296,-1.8e-4 -7.78593,-1.5e-4 -11.67888,-3e-5 -1.68649,5e-5 -3.40794,0.0378 -5.07248,-0.0798 0.0882,0.008 -0.009,-0.0606 0.044,-0.0579 1.32235,0.0626 2.93644,0.57605 3.62623,0.94744 0.57611,0.31017 0.92576,0.6667003 1.38867,1.0000503 0.18843,1.67329 0.88618,1.65468 -0.85044,2.92282 -0.2643,0.19306 -0.84232,0.32475 -1.0369,0.52805 -0.0679,0.0708 0.40263,-0.0434 0.59874,-0.0703 3.34041,-0.45786 -0.55287,0.0301 3.79319,-0.49481 7.70666,-0.95633 15.75313,-1.49305 23.76522,-2.00767 7.95341,-0.5687 16.02526,-0.80567 24.11485,-0.92964 8.89423,-0.19764 17.79429,-0.30247 26.695815,-0.12822 4.08108,0.0972 8.15891,0.20249 12.22318,0.36775 1.99539,0.0811 4.09307,0.12515 5.99944,0.3662 1.98182,0.17236 3.70138,0.52447 5.39805,0.90556 1.44287,0.38219 3.31304,0.55377 4.66902,0.97389 3.70843,0.84939 7.87246,1.3466 12.12636,1.71326 2.72059,0.14159 5.37764,0.36497 8.03351,0.60913 -2.8667,-0.21296 -5.49785,-1.1707 -6.3677,-2.14936 -0.20814,-0.234 -0.29469,-0.47955 -0.44216,-0.71933 -0.1313,-1.09795 0.52884,-1.66391 2.4638,-2.5064503 0.16441,-0.0716 0.80567,-0.215 0.55141,-0.19609 -0.47514,0.0353 -0.85053,0.16668 -1.27579,0.25001 -3.96318,0.6642103 -8.22392,1.0612603 -12.49576,1.3779803 -8.7553,0.65781 -17.70278,0.82459 -26.60541,1.03674 -9.630095,0.2127 -19.275045,0.40218 -28.926475,0.37594 -7.40721,-0.053 -14.82254,-0.22526 -22.16869,-0.57098 -6.09438,-0.34249 -12.17745,-0.71522 -18.23772,-1.12766 -1.88956,-0.17354 -3.80523,-0.3061 -5.70877,-0.45728 -0.42257,-0.0335 -0.84479,-0.0683 -1.26127,-0.11041 -0.70672,-0.0715 -0.77961,-0.0201 -0.5847,-0.10958 -0.28668,-0.052 -0.60461,-0.0865 -0.86044,-0.15604 -0.17311,-0.047 0.41438,0.0496 0.60536,0.0867 0.25194,0.0489 0.51034,0.0989 0.71713,0.16982 2.35004,0.80572 3.12574,1.5194 3.26694,2.93371 0.0628,0.62905 -0.97987,1.20958 -1.46983,1.81437 -0.0171,0.051 -0.19144,0.16183 -0.0491,0.15329 0.4423,-0.0265 0.79255,-0.14967 1.1927,-0.22182 0.86774,-0.15647 1.72922,-0.31767 2.61082,-0.46399 1.30843,-0.21715 2.62255,-0.43064 3.95758,-0.62617 4.50094,-0.65919 5.47392,-0.7357 10.20521,-1.28499 10.67167,-1.20216 21.67415,-1.96864 32.79294,-2.38553 9.15688,-0.3589303 18.360475,-0.4872103 27.564695,-0.5510703 8.3825,-0.0431 16.76618,-0.0378 25.14931,-0.0353 5.84568,0.002 11.69134,0.005 17.537,0.007 1.55951,-0.0544 3.80225,0.0612 4.71402,0.15138 1.69007,0.5609903 -2.70607,-0.45499 -2.15297,-0.26908 0.87385,0.29368 2.18577,0.4168003 2.98408,0.7472603 1.42099,0.47945 3.37805,0.76335 4.62911,1.30612 -0.0942,-0.027 -0.23622,-0.12079 -0.28299,-0.081 -0.0531,0.0451 0.17613,0.0761 0.23723,0.11988 0.0893,0.064 -0.27266,-0.1059 -0.37751,-0.16682 -0.19845,-0.11553 -0.24323,-0.16279 -0.3841,-0.28019 -0.19613,-0.24883 -0.0132,1.01823 -0.0808,0.208 0.10126,-0.21218 0.20213,-0.42437 0.30338,-0.63655 -5.50013,6.05368 18.5417,8.82351 24.04185,2.76984 v 0 c 0.25793,-0.38463 0.5156,-0.76926 0.77344,-1.1539 0.22186,-1.14001 0.21283,-2.28052 -0.54513,-3.4002003 -1.15506,-1.44639 -3.03631,-2.74981 -6.04993,-3.82323 -1.87974,-0.63383 -3.82628,-1.2476 -6.00571,-1.7499 -3.25714,-0.94051 -6.72002,-1.81629 -10.72853,-2.29848 -3.61492,-0.32687008 -7.32295,-0.47562008 -11.05668,-0.44119008 -5.84487,-0.001 -11.68973,-0.004 -17.53462,-0.007 -8.55571,-0.002 -17.11194,-0.008 -25.66698,0.0371 -9.94181,0.0701 -19.882475,0.21345 -29.772965,0.60103008 -12.88037,0.50262 -25.63597,1.37471 -37.99366,2.78553 -6.14537,0.72677 -12.20905,1.46763 -18.02421,2.4946 -2.98145,0.52652 -6.35303,1.1842 -8.92423,1.95528 -1.28574,0.38557 -2.36871,0.84952 -3.55309,1.27427 -1.07169,0.8918203 -2.96424,1.7095403 -3.21511,2.6754803 -0.7441605,2.86514 4.44743,4.84 11.01754,5.93804 0.94257,0.13975 1.86843,0.29479 2.8277,0.41928 3.36943,0.43724 6.9943,0.56072 10.4365,0.90166 6.5559,0.44176 13.12977,0.85321 19.72574,1.2121 8.37176,0.37692 16.80407,0.60041 25.24352,0.64465 10.26664,0.0181 20.52596,-0.16041 30.769645,-0.39586 10.12708,-0.24137 20.29564,-0.45766 30.24682,-1.219 6.6655,-0.52398 13.3087,-1.16627 19.39145,-2.29868 1.50811,-0.29781 3.64563,-0.70029 4.8514,-1.06878 2.97128,-0.90806 5.29992,-2.06926 6.05206,-3.45878 0.2449,-0.45213 0.24356,-0.9168 0.36545,-1.3752 -0.37014,-0.91761 -0.3667,-1.56422 -1.63732,-2.3847403 -2.43424,-1.572 -5.69172,-2.49381 -10.48179,-2.97995 -2.86174,-0.26181 -5.72637,-0.52166 -8.65957,-0.66354 -0.91825,-0.0641 -1.99095,-0.14875 -2.80115,-0.26971 -0.30771,-0.0459 -0.5747,-0.12608 -0.89413,-0.16065 -0.13565,-0.0146 0.21484,0.0658 0.32243,0.0987 -2.837,-0.68293 -3.57845,-0.73377 -5.64337,-1.20355 -3.81964,-0.85419 -7.86042,-1.5576 -12.23844,-1.97373 -1.16311,-0.10363 -2.31504,-0.22468 -3.48927,-0.31098 -6.5777,-0.48348 -13.38041,-0.4951 -20.03901,-0.72479 -9.707555,-0.17127 -19.411845,-0.10411 -29.110765,0.12471 -9.2291,0.14581 -18.43858,0.42361 -27.5151,1.06515 -9.37835,0.60735 -18.7818,1.2552 -27.78942,2.39158 -5.59873,0.73587 -11.7594105,1.54172 -15.4866905,3.32641 -1.14202,0.54681 -2.21137,1.14949 -2.65713,1.8122 -0.57633,0.8567403 -0.22522,1.7601103 -0.33794,2.6401803 0.62112,0.55741 1.03824,1.14946 1.86335,1.67225 2.96673,1.87968 8.6384805,2.78136 14.2980905,3.1654 6.65125,0.27161 13.34925,0.11838 20.0317,0.15621 12.02411,8.6e-4 24.0482,0.002 36.07228,0.0132 16.07065,0.0153 32.141165,0.0402 48.211665,0.0703 13.49722,0.0107 26.99004,-0.0271 40.47007,-0.29966 1.63537,-0.013 6.12331,-0.0528 8.06541,-0.0556 0.64094,-9.3e-4 1.306,0.0727 1.92267,0.0107 0.30971,-0.0313 -0.70731,-0.0242 -0.91286,-0.11231 -2.8711,-1.23248 -7.61663,-2.22203 -8.22171,-3.80881 -0.55276,-1.44962 3.50369,-2.64649 5.25557,-3.9697203 0.38664,-0.0743 0.78011,-0.14407 1.15997,-0.2226 0.21983,-0.0454 -0.44943,0.0851 -0.67992,0.12336 -0.46541,0.0773 -0.93846,0.14875 -1.40713,0.22359 -1.26269,0.20161 -1.21425,0.20652 -2.65016,0.38661 -0.65525,0.0822 -1.3189,0.1556803 -1.97831,0.2335203 -4.11586,0.46445 -8.27328,0.89434 -12.55684,1.11237 -4.08766,0.26181 -8.13824,0.59859 -12.25645,0.79751 -6.92684,0.30226 -13.81602,0.71417 -20.77629,0.91492 -9.11901,0.31397 -18.28735,0.46014 -27.447805,0.47974 -14.83272,-0.0277 -29.65867,-0.32446 -44.43422,-0.78103 -9.91397,-0.35617 -19.86988,-0.69793 -29.60769,-1.47841 -17.11422058,-1.8282903 -24.3751395,6.79034 -7.2609605,8.61862 z" />
  <path
     style="fill:#803300"
     id="path8"
     d="m 19.860795,10.715531 c -0.16014,-0.0225 -0.3371,-0.007 -0.47122,0.0935 -0.0391,0.0292 -0.071,0.0671 -0.10658,0.10062 -0.0275,0.0573 -0.0626,0.11164 -0.0826,0.17203 -0.0425,0.12847 -0.003,0.31489 0.0608,0.43049 0.0179,0.0324 0.0415,0.0612 0.0622,0.0918 0.11959,0.13241 0.28526,0.20454 0.46409,0.19987 0.035,-9.1e-4 0.0696,-0.008 0.10442,-0.0113 0.19032,-0.0461 0.29833,-0.12476 0.40831,-0.28515 0.0421,-0.0807 0.0855,-0.16349 0.1013,-0.25425 0.005,-0.0304 0.007,-0.0612 0.0112,-0.0918 0.0332,-0.53348 -0.7213,-0.58037 -0.75445,-0.0469 v 0 c 0.007,-0.0302 0.0219,-0.0712 -0.009,0.008 -0.002,0.006 0.007,-0.011 0.0111,-0.0164 0.0354,-0.0399 0.0716,-0.0593 0.11072,-0.0591 0.0629,0.004 0.11163,0.0413 0.1487,0.0926 0.0533,0.10453 0.006,0.15309 -0.056,0.25493 -0.0325,0.0255 -0.10634,0.0928 -0.16022,0.067 -0.0153,-0.007 0.099,0.01 0.0507,0.003 0.52914,0.0756 0.63604,-0.67272 0.1069,-0.74831 z" />
  <path
     style="fill:#803300"
     id="path8-8"
     d="m 28.060635,11.503711 c -0.16014,-0.0225 -0.3371,-0.007 -0.47122,0.0935 -0.0391,0.0292 -0.071,0.0671 -0.10658,0.10062 -0.0275,0.0573 -0.0626,0.11164 -0.0826,0.17203 -0.0425,0.12847 -0.003,0.31489 0.0608,0.43049 0.0179,0.0324 0.0415,0.0612 0.0622,0.0918 0.11959,0.13241 0.28526,0.20454 0.46409,0.19987 0.035,-9.1e-4 0.0696,-0.008 0.10442,-0.0113 0.19032,-0.0461 0.29833,-0.12476 0.40831,-0.28515 0.0421,-0.0807 0.0855,-0.16349 0.1013,-0.25425 0.005,-0.0304 0.007,-0.0612 0.0112,-0.0918 0.0332,-0.53348 -0.7213,-0.58037 -0.75445,-0.0469 v 0 c 0.007,-0.0302 0.0219,-0.0712 -0.009,0.008 -0.002,0.006 0.007,-0.011 0.0111,-0.0164 0.0354,-0.0399 0.0716,-0.0593 0.11072,-0.0591 0.0629,0.004 0.11163,0.0413 0.1487,0.0926 0.0533,0.10453 0.006,0.15309 -0.056,0.25493 -0.0325,0.0255 -0.10634,0.0928 -0.16022,0.067 -0.0153,-0.007 0.099,0.01 0.0507,0.003 0.52914,0.0756 0.63604,-0.67272 0.1069,-0.74831 z" />
  <path
     style="fill:#803300"
     id="path8-5"
     d="m 36.060635,11.503711 c -0.16014,-0.0225 -0.3371,-0.007 -0.47122,0.0935 -0.0391,0.0292 -0.071,0.0671 -0.10658,0.10062 -0.0275,0.0573 -0.0626,0.11164 -0.0826,0.17203 -0.0425,0.12847 -0.003,0.31489 0.0608,0.43049 0.0179,0.0324 0.0415,0.0612 0.0622,0.0918 0.11959,0.13241 0.28526,0.20454 0.46409,0.19987 0.035,-9.1e-4 0.0696,-0.008 0.10442,-0.0113 0.19032,-0.0461 0.29833,-0.12476 0.40831,-0.28515 0.0421,-0.0807 0.0855,-0.16349 0.1013,-0.25425 0.005,-0.0304 0.007,-0.0612 0.0112,-0.0918 0.0332,-0.53348 -0.7213,-0.58037 -0.75445,-0.0469 v 0 c 0.007,-0.0302 0.0219,-0.0712 -0.009,0.008 -0.002,0.006 0.007,-0.011 0.0111,-0.0164 0.0354,-0.0399 0.0716,-0.0593 0.11072,-0.0591 0.0629,0.004 0.11163,0.0413 0.1487,0.0926 0.0533,0.10453 0.006,0.15309 -0.056,0.25493 -0.0325,0.0255 -0.10634,0.0928 -0.16022,0.067 -0.0153,-0.007 0.099,0.01 0.0507,0.003 0.52914,0.0756 0.63604,-0.67272 0.1069,-0.74831 z" />
  <path
     style="fill:#803300"
     id="path8-1"
     d="m 45.060635,8.5037107 c -0.16014,-0.0225 -0.3371,-0.007 -0.47122,0.0935 -0.0391,0.0292 -0.071,0.0671 -0.10658,0.10062 -0.0275,0.0573 -0.0626,0.11164 -0.0826,0.17203 -0.0425,0.12847 -0.003,0.31489 0.0608,0.43049 0.0179,0.0324 0.0415,0.0612 0.0622,0.0918 0.11959,0.13241 0.28526,0.20454 0.46409,0.19987 0.035,-9.1e-4 0.0696,-0.008 0.10442,-0.0113 0.19032,-0.0461 0.29833,-0.12476 0.40831,-0.28515 0.0421,-0.0807 0.0855,-0.16349 0.1013,-0.25425 0.005,-0.0304 0.007,-0.0612 0.0112,-0.0918 0.0332,-0.53348 -0.7213,-0.58037 -0.75445,-0.0469 v 0 c 0.007,-0.0302 0.0219,-0.0712 -0.009,0.008 -0.002,0.006 0.007,-0.011 0.0111,-0.0164 0.0354,-0.0399 0.0716,-0.0593 0.11072,-0.0591 0.0629,0.004 0.11163,0.0413 0.1487,0.0926 0.0533,0.10453 0.006,0.15309 -0.056,0.25493 -0.0325,0.0255 -0.10634,0.0928 -0.16022,0.067 -0.0153,-0.007 0.099,0.01 0.0507,0.003 0.52914,0.0756 0.63604,-0.67272 0.1069,-0.74831 z" />
  <path
     style="fill:#803300"
     id="path8-7"
     d="m 52.060635,5.5037107 c -0.16014,-0.0225 -0.3371,-0.007 -0.47122,0.0935 -0.0391,0.0292 -0.071,0.0671 -0.10658,0.10062 -0.0275,0.0573 -0.0626,0.11164 -0.0826,0.17203 -0.0425,0.12847 -0.003,0.31489 0.0608,0.43049 0.0179,0.0324 0.0415,0.0612 0.0622,0.0918 0.11959,0.13241 0.28526,0.20454 0.46409,0.19987 0.035,-9.1e-4 0.0696,-0.008 0.10442,-0.0113 0.19032,-0.0461 0.29833,-0.12476 0.40831,-0.28515 0.0421,-0.0807 0.0855,-0.16349 0.1013,-0.25425 0.005,-0.0304 0.007,-0.0612 0.0112,-0.0918 0.0332,-0.53348 -0.7213,-0.58037 -0.75445,-0.0469 v 0 c 0.007,-0.0302 0.0219,-0.0712 -0.009,0.008 -0.002,0.006 0.007,-0.011 0.0111,-0.0164 0.0354,-0.0399 0.0716,-0.0593 0.11072,-0.0591 0.0629,0.004 0.11163,0.0413 0.1487,0.0926 0.0533,0.10453 0.006,0.15309 -0.056,0.25493 -0.0325,0.0255 -0.10634,0.0928 -0.16022,0.067 -0.0153,-0.007 0.099,0.01 0.0507,0.003 0.52914,0.0756 0.63604,-0.67272 0.1069,-0.74831 z" />
  <path
     style="fill:#803300"
     id="path8-2"
     d="m 58.060635,11.503711 c -0.16014,-0.0225 -0.3371,-0.007 -0.47122,0.0935 -0.0391,0.0292 -0.071,0.0671 -0.10658,0.10062 -0.0275,0.0573 -0.0626,0.11164 -0.0826,0.17203 -0.0425,0.12847 -0.003,0.31489 0.0608,0.43049 0.0179,0.0324 0.0415,0.0612 0.0622,0.0918 0.11959,0.13241 0.28526,0.20454 0.46409,0.19987 0.035,-9.1e-4 0.0696,-0.008 0.10442,-0.0113 0.19032,-0.0461 0.29833,-0.12476 0.40831,-0.28515 0.0421,-0.0807 0.0855,-0.16349 0.1013,-0.25425 0.005,-0.0304 0.007,-0.0612 0.0112,-0.0918 0.0332,-0.53348 -0.7213,-0.58037 -0.75445,-0.0469 v 0 c 0.007,-0.0302 0.0219,-0.0712 -0.009,0.008 -0.002,0.006 0.007,-0.011 0.0111,-0.0164 0.0354,-0.0399 0.0716,-0.0593 0.11072,-0.0591 0.0629,0.004 0.11163,0.0413 0.1487,0.0926 0.0533,0.10453 0.006,0.15309 -0.056,0.25493 -0.0325,0.0255 -0.10634,0.0928 -0.16022,0.067 -0.0153,-0.007 0.099,0.01 0.0507,0.003 0.52914,0.0756 0.63604,-0.67272 0.1069,-0.74831 z" />
  <path
     style="fill:#803300"
     id="path8-16"
     d="m 51.060635,15.503711 c -0.16014,-0.0225 -0.3371,-0.007 -0.47122,0.0935 -0.0391,0.0292 -0.071,0.0671 -0.10658,0.10062 -0.0275,0.0573 -0.0626,0.11164 -0.0826,0.17203 -0.0425,0.12847 -0.003,0.31489 0.0608,0.43049 0.0179,0.0324 0.0415,0.0612 0.0622,0.0918 0.11959,0.13241 0.28526,0.20454 0.46409,0.19987 0.035,-9.1e-4 0.0696,-0.008 0.10442,-0.0113 0.19032,-0.0461 0.29833,-0.12476 0.40831,-0.28515 0.0421,-0.0807 0.0855,-0.16349 0.1013,-0.25425 0.005,-0.0304 0.007,-0.0612 0.0112,-0.0918 0.0332,-0.53348 -0.7213,-0.58037 -0.75445,-0.0469 v 0 c 0.007,-0.0302 0.0219,-0.0712 -0.009,0.008 -0.002,0.006 0.007,-0.011 0.0111,-0.0164 0.0354,-0.0399 0.0716,-0.0593 0.11072,-0.0591 0.0629,0.004 0.11163,0.0413 0.1487,0.0926 0.0533,0.10453 0.006,0.15309 -0.056,0.25493 -0.0325,0.0255 -0.10634,0.0928 -0.16022,0.067 -0.0153,-0.007 0.099,0.01 0.0507,0.003 0.52914,0.0756 0.63604,-0.67272 0.1069,-0.74831 z" />
  <path
     style="fill:#803300"
     id="path8-6"
     d="m 42.060635,17.503711 c -0.16014,-0.0225 -0.3371,-0.007 -0.47122,0.0935 -0.0391,0.0292 -0.071,0.0671 -0.10658,0.10062 -0.0275,0.0573 -0.0626,0.11164 -0.0826,0.17203 -0.0425,0.12847 -0.003,0.31489 0.0608,0.43049 0.0179,0.0324 0.0415,0.0612 0.0622,0.0918 0.11959,0.13241 0.28526,0.20454 0.46409,0.19987 0.035,-9.1e-4 0.0696,-0.008 0.10442,-0.0113 0.19032,-0.0461 0.29833,-0.12476 0.40831,-0.28515 0.0421,-0.0807 0.0855,-0.16349 0.1013,-0.25425 0.005,-0.0304 0.007,-0.0612 0.0112,-0.0918 0.0332,-0.53348 -0.7213,-0.58037 -0.75445,-0.0469 v 0 c 0.007,-0.0302 0.0219,-0.0712 -0.009,0.008 -0.002,0.006 0.007,-0.011 0.0111,-0.0164 0.0354,-0.0399 0.0716,-0.0593 0.11072,-0.0591 0.0629,0.004 0.11163,0.0413 0.1487,0.0926 0.0533,0.10453 0.006,0.15309 -0.056,0.25493 -0.0325,0.0255 -0.10634,0.0928 -0.16022,0.067 -0.0153,-0.007 0.099,0.01 0.0507,0.003 0.52914,0.0756 0.63604,-0.67272 0.1069,-0.74831 z" />
  <path
     style="fill:#803300"
     id="path8-27"
     d="m 29.060635,16.503711 c -0.16014,-0.0225 -0.3371,-0.007 -0.47122,0.0935 -0.0391,0.0292 -0.071,0.0671 -0.10658,0.10062 -0.0275,0.0573 -0.0626,0.11164 -0.0826,0.17203 -0.0425,0.12847 -0.003,0.31489 0.0608,0.43049 0.0179,0.0324 0.0415,0.0612 0.0622,0.0918 0.11959,0.13241 0.28526,0.20454 0.46409,0.19987 0.035,-9.1e-4 0.0696,-0.008 0.10442,-0.0113 0.19032,-0.0461 0.29833,-0.12476 0.40831,-0.28515 0.0421,-0.0807 0.0855,-0.16349 0.1013,-0.25425 0.005,-0.0304 0.007,-0.0612 0.0112,-0.0918 0.0332,-0.53348 -0.7213,-0.58037 -0.75445,-0.0469 v 0 c 0.007,-0.0302 0.0219,-0.0712 -0.009,0.008 -0.002,0.006 0.007,-0.011 0.0111,-0.0164 0.0354,-0.0399 0.0716,-0.0593 0.11072,-0.0591 0.0629,0.004 0.11163,0.0413 0.1487,0.0926 0.0533,0.10453 0.006,0.15309 -0.056,0.25493 -0.0325,0.0255 -0.10634,0.0928 -0.16022,0.067 -0.0153,-0.007 0.099,0.01 0.0507,0.003 0.52914,0.0756 0.63604,-0.67272 0.1069,-0.74831 z" />
  <path
     style="fill:#803300"
     id="path8-3"
     d="m 18.060635,16.503711 c -0.16014,-0.0225 -0.3371,-0.007 -0.47122,0.0935 -0.0391,0.0292 -0.071,0.0671 -0.10658,0.10062 -0.0275,0.0573 -0.0626,0.11164 -0.0826,0.17203 -0.0425,0.12847 -0.003,0.31489 0.0608,0.43049 0.0179,0.0324 0.0415,0.0612 0.0622,0.0918 0.11959,0.13241 0.28526,0.20454 0.46409,0.19987 0.035,-9.1e-4 0.0696,-0.008 0.10442,-0.0113 0.19032,-0.0461 0.29833,-0.12476 0.40831,-0.28515 0.0421,-0.0807 0.0855,-0.16349 0.1013,-0.25425 0.005,-0.0304 0.007,-0.0612 0.0112,-0.0918 0.0332,-0.53348 -0.7213,-0.58037 -0.75445,-0.0469 v 0 c 0.007,-0.0302 0.0219,-0.0712 -0.009,0.008 -0.002,0.006 0.007,-0.011 0.0111,-0.0164 0.0354,-0.0399 0.0716,-0.0593 0.11072,-0.0591 0.0629,0.004 0.11163,0.0413 0.1487,0.0926 0.0533,0.10453 0.006,0.15309 -0.056,0.25493 -0.0325,0.0255 -0.10634,0.0928 -0.16022,0.067 -0.0153,-0.007 0.099,0.01 0.0507,0.003 0.52914,0.0756 0.63604,-0.67272 0.1069,-0.74831 z" />
  <path
     style="fill:#803300"
     id="path8-34"
     d="m 13.060635,11.503711 c -0.16014,-0.0225 -0.3371,-0.007 -0.47122,0.0935 -0.0391,0.0292 -0.071,0.0671 -0.10658,0.10062 -0.0275,0.0573 -0.0626,0.11164 -0.0826,0.17203 -0.0425,0.12847 -0.003,0.31489 0.0608,0.43049 0.0179,0.0324 0.0415,0.0612 0.0622,0.0918 0.11959,0.13241 0.28526,0.20454 0.46409,0.19987 0.035,-9.1e-4 0.0696,-0.008 0.10442,-0.0113 0.19032,-0.0461 0.29833,-0.12476 0.40831,-0.28515 0.0421,-0.0807 0.0855,-0.16349 0.1013,-0.25425 0.005,-0.0304 0.007,-0.0612 0.0112,-0.0918 0.0332,-0.53348 -0.7213,-0.58037 -0.75445,-0.0469 v 0 c 0.007,-0.0302 0.0219,-0.0712 -0.009,0.008 -0.002,0.006 0.007,-0.011 0.0111,-0.0164 0.0354,-0.0399 0.0716,-0.0593 0.11072,-0.0591 0.0629,0.004 0.11163,0.0413 0.1487,0.0926 0.0533,0.10453 0.006,0.15309 -0.056,0.25493 -0.0325,0.0255 -0.10634,0.0928 -0.16022,0.067 -0.0153,-0.007 0.099,0.01 0.0507,0.003 0.52914,0.0756 0.63604,-0.67272 0.1069,-0.74831 z" />
  <path
     style="fill:#803300"
     id="path8-87"
     d="m 23.060635,5.5037107 c -0.16014,-0.0225 -0.3371,-0.007 -0.47122,0.0935 -0.0391,0.0292 -0.071,0.0671 -0.10658,0.10062 -0.0275,0.0573 -0.0626,0.11164 -0.0826,0.17203 -0.0425,0.12847 -0.003,0.31489 0.0608,0.43049 0.0179,0.0324 0.0415,0.0612 0.0622,0.0918 0.11959,0.13241 0.28526,0.20454 0.46409,0.19987 0.035,-9.1e-4 0.0696,-0.008 0.10442,-0.0113 0.19032,-0.0461 0.29833,-0.12476 0.40831,-0.28515 0.0421,-0.0807 0.0855,-0.16349 0.1013,-0.25425 0.005,-0.0304 0.007,-0.0612 0.0112,-0.0918 0.0332,-0.53348 -0.7213,-0.58037 -0.75445,-0.0469 v 0 c 0.007,-0.0302 0.0219,-0.0712 -0.009,0.008 -0.002,0.006 0.007,-0.011 0.0111,-0.0164 0.0354,-0.0399 0.0716,-0.0593 0.11072,-0.0591 0.0629,0.004 0.11163,0.0413 0.1487,0.0926 0.0533,0.10453 0.006,0.15309 -0.056,0.25493 -0.0325,0.0255 -0.10634,0.0928 -0.16022,0.067 -0.0153,-0.007 0.099,0.01 0.0507,0.003 0.52914,0.0756 0.63604,-0.67272 0.1069,-0.74831 z" />
  <path
     style="fill:#803300"
     id="path8-79"
     d="m 25.060635,13.503711 c -0.16014,-0.0225 -0.3371,-0.007 -0.47122,0.0935 -0.0391,0.0292 -0.071,0.0671 -0.10658,0.10062 -0.0275,0.0573 -0.0626,0.11164 -0.0826,0.17203 -0.0425,0.12847 -0.003,0.31489 0.0608,0.43049 0.0179,0.0324 0.0415,0.0612 0.0622,0.0918 0.11959,0.13241 0.28526,0.20454 0.46409,0.19987 0.035,-9.1e-4 0.0696,-0.008 0.10442,-0.0113 0.19032,-0.0461 0.29833,-0.12476 0.40831,-0.28515 0.0421,-0.0807 0.0855,-0.16349 0.1013,-0.25425 0.005,-0.0304 0.007,-0.0612 0.0112,-0.0918 0.0332,-0.53348 -0.7213,-0.58037 -0.75445,-0.0469 v 0 c 0.007,-0.0302 0.0219,-0.0712 -0.009,0.008 -0.002,0.006 0.007,-0.011 0.0111,-0.0164 0.0354,-0.0399 0.0716,-0.0593 0.11072,-0.0591 0.0629,0.004 0.11163,0.0413 0.1487,0.0926 0.0533,0.10453 0.006,0.15309 -0.056,0.25493 -0.0325,0.0255 -0.10634,0.0928 -0.16022,0.067 -0.0153,-0.007 0.099,0.01 0.0507,0.003 0.52914,0.0756 0.63604,-0.67272 0.1069,-0.74831 z" />
  <path
     style="fill:#803300"
     id="path8-86"
     d="m 32.060635,5.5037107 c -0.16014,-0.0225 -0.3371,-0.007 -0.47122,0.0935 -0.0391,0.0292 -0.071,0.0671 -0.10658,0.10062 -0.0275,0.0573 -0.0626,0.11164 -0.0826,0.17203 -0.0425,0.12847 -0.003,0.31489 0.0608,0.43049 0.0179,0.0324 0.0415,0.0612 0.0622,0.0918 0.11959,0.13241 0.28526,0.20454 0.46409,0.19987 0.035,-9.1e-4 0.0696,-0.008 0.10442,-0.0113 0.19032,-0.0461 0.29833,-0.12476 0.40831,-0.28515 0.0421,-0.0807 0.0855,-0.16349 0.1013,-0.25425 0.005,-0.0304 0.007,-0.0612 0.0112,-0.0918 0.0332,-0.53348 -0.7213,-0.58037 -0.75445,-0.0469 v 0 c 0.007,-0.0302 0.0219,-0.0712 -0.009,0.008 -0.002,0.006 0.007,-0.011 0.0111,-0.0164 0.0354,-0.0399 0.0716,-0.0593 0.11072,-0.0591 0.0629,0.004 0.11163,0.0413 0.1487,0.0926 0.0533,0.10453 0.006,0.15309 -0.056,0.25493 -0.0325,0.0255 -0.10634,0.0928 -0.16022,0.067 -0.0153,-0.007 0.099,0.01 0.0507,0.003 0.52914,0.0756 0.63604,-0.67272 0.1069,-0.74831 z" />
  <path
     style="fill:#803300"
     id="path8-860"
     d="m 39.060635,6.5037107 c -0.16014,-0.0225 -0.3371,-0.007 -0.47122,0.0935 -0.0391,0.0292 -0.071,0.0671 -0.10658,0.10062 -0.0275,0.0573 -0.0626,0.11164 -0.0826,0.17203 -0.0425,0.12847 -0.003,0.31489 0.0608,0.43049 0.0179,0.0324 0.0415,0.0612 0.0622,0.0918 0.11959,0.13241 0.28526,0.20454 0.46409,0.19987 0.035,-9.1e-4 0.0696,-0.008 0.10442,-0.0113 0.19032,-0.0461 0.29833,-0.12476 0.40831,-0.28515 0.0421,-0.0807 0.0855,-0.16349 0.1013,-0.25425 0.005,-0.0304 0.007,-0.0612 0.0112,-0.0918 0.0332,-0.53348 -0.7213,-0.58037 -0.75445,-0.0469 v 0 c 0.007,-0.0302 0.0219,-0.0712 -0.009,0.008 -0.002,0.006 0.007,-0.011 0.0111,-0.0164 0.0354,-0.0399 0.0716,-0.0593 0.11072,-0.0591 0.0629,0.004 0.11163,0.0413 0.1487,0.0926 0.0533,0.10453 0.006,0.15309 -0.056,0.25493 -0.0325,0.0255 -0.10634,0.0928 -0.16022,0.067 -0.0153,-0.007 0.099,0.01 0.0507,0.003 0.52914,0.0756 0.63604,-0.67272 0.1069,-0.74831 z" />
  <path
     style="fill:#803300"
     id="path8-65"
     d="m 43.060635,13.503711 c -0.16014,-0.0225 -0.3371,-0.007 -0.47122,0.0935 -0.0391,0.0292 -0.071,0.0671 -0.10658,0.10062 -0.0275,0.0573 -0.0626,0.11164 -0.0826,0.17203 -0.0425,0.12847 -0.003,0.31489 0.0608,0.43049 0.0179,0.0324 0.0415,0.0612 0.0622,0.0918 0.11959,0.13241 0.28526,0.20454 0.46409,0.19987 0.035,-9.1e-4 0.0696,-0.008 0.10442,-0.0113 0.19032,-0.0461 0.29833,-0.12476 0.40831,-0.28515 0.0421,-0.0807 0.0855,-0.16349 0.1013,-0.25425 0.005,-0.0304 0.007,-0.0612 0.0112,-0.0918 0.0332,-0.53348 -0.7213,-0.58037 -0.75445,-0.0469 v 0 c 0.007,-0.0302 0.0219,-0.0712 -0.009,0.008 -0.002,0.006 0.007,-0.011 0.0111,-0.0164 0.0354,-0.0399 0.0716,-0.0593 0.11072,-0.0591 0.0629,0.004 0.11163,0.0413 0.1487,0.0926 0.0533,0.10453 0.006,0.15309 -0.056,0.25493 -0.0325,0.0255 -0.10634,0.0928 -0.16022,0.067 -0.0153,-0.007 0.099,0.01 0.0507,0.003 0.52914,0.0756 0.63604,-0.67272 0.1069,-0.74831 z" />
  <path
     style="fill:#803300"
     id="path8-0"
     d="m 51.060635,9.5037107 c -0.16014,-0.0225 -0.3371,-0.007 -0.47122,0.0935 -0.0391,0.0292 -0.071,0.0671 -0.10658,0.10062 -0.0275,0.0573 -0.0626,0.11164 -0.0826,0.17203 -0.0425,0.12847 -0.003,0.3148903 0.0608,0.4304903 0.0179,0.0324 0.0415,0.0612 0.0622,0.0918 0.11959,0.13241 0.28526,0.20454 0.46409,0.19987 0.035,-9.1e-4 0.0696,-0.008 0.10442,-0.0113 0.19032,-0.0461 0.29833,-0.12476 0.40831,-0.28515 0.0421,-0.0807 0.0855,-0.16349 0.1013,-0.25425 0.005,-0.0304 0.007,-0.0612 0.0112,-0.0918 0.0332,-0.53348 -0.7213,-0.58037 -0.75445,-0.0469 v 0 c 0.007,-0.0302 0.0219,-0.0712 -0.009,0.008 -0.002,0.006 0.007,-0.011 0.0111,-0.0164 0.0354,-0.0399 0.0716,-0.0593 0.11072,-0.0591 0.0629,0.004 0.11163,0.0413 0.1487,0.0926 0.0533,0.1045299 0.006,0.1530899 -0.056,0.2549299 -0.0325,0.0255 -0.10634,0.0928 -0.16022,0.067 -0.0153,-0.007 0.099,0.01 0.0507,0.003 0.52914,0.0756 0.63604,-0.6727199 0.1069,-0.7483099 z" />
  <path
     style="fill:#803300"
     id="path8-89"
     d="m 45.060635,3.5037107 c -0.16014,-0.0225 -0.3371,-0.007 -0.47122,0.0935 -0.0391,0.0292 -0.071,0.0671 -0.10658,0.10062 -0.0275,0.0573 -0.0626,0.11164 -0.0826,0.17203 -0.0425,0.12847 -0.003,0.31489 0.0608,0.43049 0.0179,0.0324 0.0415,0.0612 0.0622,0.0918 0.11959,0.13241 0.28526,0.20454 0.46409,0.19987 0.035,-9.1e-4 0.0696,-0.008 0.10442,-0.0113 0.19032,-0.0461 0.29833,-0.12476 0.40831,-0.28515 0.0421,-0.0807 0.0855,-0.16349 0.1013,-0.25425 0.005,-0.0304 0.007,-0.0612 0.0112,-0.0918 0.0332,-0.53348 -0.7213,-0.58037 -0.75445,-0.0469 v 0 c 0.007,-0.0302 0.0219,-0.0712 -0.009,0.008 -0.002,0.006 0.007,-0.011 0.0111,-0.0164 0.0354,-0.0399 0.0716,-0.0593 0.11072,-0.0591 0.0629,0.004 0.11163,0.0413 0.1487,0.0926 0.0533,0.10453 0.006,0.15309 -0.056,0.25493 -0.0325,0.0255 -0.10634,0.0928 -0.16022,0.067 -0.0153,-0.007 0.099,0.01 0.0507,0.003 0.52914,0.0756 0.63604,-0.67272 0.1069,-0.74831 z" />
  <path
     style="fill:#803300"
     id="path8-60"
     d="m 134.03839,9.2730107 c -0.16014,-0.0225 -0.3371,-0.007 -0.47122,0.0935 -0.0391,0.0292 -0.071,0.0671 -0.10658,0.10062 -0.0275,0.0573 -0.0626,0.11164 -0.0826,0.17203 -0.0425,0.12847 -0.003,0.31489 0.0608,0.4304903 0.0179,0.0324 0.0415,0.0612 0.0622,0.0918 0.11959,0.13241 0.28526,0.20454 0.46409,0.19987 0.035,-9.1e-4 0.0696,-0.008 0.10442,-0.0113 0.19032,-0.0461 0.29833,-0.12476 0.40831,-0.28515 0.0421,-0.0807 0.0855,-0.1634903 0.1013,-0.2542503 0.005,-0.0304 0.007,-0.0612 0.0112,-0.0918 0.0332,-0.53348 -0.7213,-0.58037 -0.75445,-0.0469 v 0 c 0.007,-0.0302 0.0219,-0.0712 -0.009,0.008 -0.002,0.006 0.007,-0.011 0.0111,-0.0164 0.0354,-0.0399 0.0716,-0.0593 0.11072,-0.0591 0.0629,0.004 0.11163,0.0413 0.1487,0.0926 0.0533,0.10453 0.006,0.15309 -0.056,0.25493 -0.0325,0.0255 -0.10634,0.0928 -0.16022,0.067 -0.0153,-0.007 0.099,0.01 0.0507,0.003 0.52914,0.0756 0.63604,-0.6727211 0.1069,-0.7483111 z" />
  <path
     style="fill:#803300"
     id="path8-8-6"
     d="m 142.23823,10.061191 c -0.16014,-0.0225 -0.3371,-0.007 -0.47122,0.0935 -0.0391,0.0292 -0.071,0.0671 -0.10658,0.10062 -0.0275,0.0573 -0.0626,0.11164 -0.0826,0.17203 -0.0425,0.12847 -0.003,0.31489 0.0608,0.43049 0.0179,0.0324 0.0415,0.0612 0.0622,0.0918 0.11959,0.13241 0.28526,0.20454 0.46409,0.19987 0.035,-9.1e-4 0.0696,-0.008 0.10442,-0.0113 0.19032,-0.0461 0.29833,-0.12476 0.40831,-0.28515 0.0421,-0.0807 0.0855,-0.16349 0.1013,-0.25425 0.005,-0.0304 0.007,-0.0612 0.0112,-0.0918 0.0332,-0.5334803 -0.7213,-0.5803703 -0.75445,-0.0469 v 0 c 0.007,-0.0302 0.0219,-0.0712 -0.009,0.008 -0.002,0.006 0.007,-0.011 0.0111,-0.0164 0.0354,-0.0399 0.0716,-0.0593 0.11072,-0.0591 0.0629,0.004 0.11163,0.0413 0.1487,0.0926 0.0533,0.10453 0.006,0.15309 -0.056,0.25493 -0.0325,0.0255 -0.10634,0.0928 -0.16022,0.067 -0.0153,-0.007 0.099,0.01 0.0507,0.003 0.52914,0.0756 0.63604,-0.67272 0.1069,-0.74831 z" />
  <path
     style="fill:#803300"
     id="path8-5-6"
     d="m 150.23823,10.061191 c -0.16014,-0.0225 -0.3371,-0.007 -0.47122,0.0935 -0.0391,0.0292 -0.071,0.0671 -0.10658,0.10062 -0.0275,0.0573 -0.0626,0.11164 -0.0826,0.17203 -0.0425,0.12847 -0.003,0.31489 0.0608,0.43049 0.0179,0.0324 0.0415,0.0612 0.0622,0.0918 0.11959,0.13241 0.28526,0.20454 0.46409,0.19987 0.035,-9.1e-4 0.0696,-0.008 0.10442,-0.0113 0.19032,-0.0461 0.29833,-0.12476 0.40831,-0.28515 0.0421,-0.0807 0.0855,-0.16349 0.1013,-0.25425 0.005,-0.0304 0.007,-0.0612 0.0112,-0.0918 0.0332,-0.5334803 -0.7213,-0.5803703 -0.75445,-0.0469 v 0 c 0.007,-0.0302 0.0219,-0.0712 -0.009,0.008 -0.002,0.006 0.007,-0.011 0.0111,-0.0164 0.0354,-0.0399 0.0716,-0.0593 0.11072,-0.0591 0.0629,0.004 0.11163,0.0413 0.1487,0.0926 0.0533,0.10453 0.006,0.15309 -0.056,0.25493 -0.0325,0.0255 -0.10634,0.0928 -0.16022,0.067 -0.0153,-0.007 0.099,0.01 0.0507,0.003 0.52914,0.0756 0.63604,-0.67272 0.1069,-0.74831 z" />
  <path
     style="fill:#803300"
     id="path8-1-1"
     d="m 159.23823,7.0611907 c -0.16014,-0.0225 -0.3371,-0.007 -0.47122,0.0935 -0.0391,0.0292 -0.071,0.0671 -0.10658,0.10062 -0.0275,0.0573 -0.0626,0.11164 -0.0826,0.17203 -0.0425,0.12847 -0.003,0.31489 0.0608,0.43049 0.0179,0.0324 0.0415,0.0612 0.0622,0.0918 0.11959,0.13241 0.28526,0.20454 0.46409,0.19987 0.035,-9.1e-4 0.0696,-0.008 0.10442,-0.0113 0.19032,-0.0461 0.29833,-0.12476 0.40831,-0.28515 0.0421,-0.0807 0.0855,-0.16349 0.1013,-0.25425 0.005,-0.0304 0.007,-0.0612 0.0112,-0.0918 0.0332,-0.53348 -0.7213,-0.58037 -0.75445,-0.0469 v 0 c 0.007,-0.0302 0.0219,-0.0712 -0.009,0.008 -0.002,0.006 0.007,-0.011 0.0111,-0.0164 0.0354,-0.0399 0.0716,-0.0593 0.11072,-0.0591 0.0629,0.004 0.11163,0.0413 0.1487,0.0926 0.0533,0.10453 0.006,0.15309 -0.056,0.25493 -0.0325,0.0255 -0.10634,0.0928 -0.16022,0.067 -0.0153,-0.007 0.099,0.01 0.0507,0.003 0.52914,0.0756 0.63604,-0.67272 0.1069,-0.74831 z" />
  <path
     style="fill:#803300"
     id="path8-7-8"
     d="m 166.23823,4.0611907 c -0.16014,-0.0225 -0.3371,-0.007 -0.47122,0.0935 -0.0391,0.0292 -0.071,0.0671 -0.10658,0.10062 -0.0275,0.0573 -0.0626,0.11164 -0.0826,0.17203 -0.0425,0.12847 -0.003,0.31489 0.0608,0.43049 0.0179,0.0324 0.0415,0.0612 0.0622,0.0918 0.11959,0.13241 0.28526,0.20454 0.46409,0.19987 0.035,-9.1e-4 0.0696,-0.008 0.10442,-0.0113 0.19032,-0.0461 0.29833,-0.12476 0.40831,-0.28515 0.0421,-0.0807 0.0855,-0.16349 0.1013,-0.25425 0.005,-0.0304 0.007,-0.0612 0.0112,-0.0918 0.0332,-0.53348 -0.7213,-0.58037 -0.75445,-0.0469 v 0 c 0.007,-0.0302 0.0219,-0.0712 -0.009,0.008 -0.002,0.006 0.007,-0.011 0.0111,-0.0164 0.0354,-0.0399 0.0716,-0.0593 0.11072,-0.0591 0.0629,0.004 0.11163,0.0413 0.1487,0.0926 0.0533,0.10453 0.006,0.15309 -0.056,0.25493 -0.0325,0.0255 -0.10634,0.0928 -0.16022,0.067 -0.0153,-0.007 0.099,0.01 0.0507,0.003 0.52914,0.0756 0.63604,-0.67272 0.1069,-0.74831 z" />
  <path
     style="fill:#803300"
     id="path8-2-4"
     d="m 172.23823,10.061191 c -0.16014,-0.0225 -0.3371,-0.007 -0.47122,0.0935 -0.0391,0.0292 -0.071,0.0671 -0.10658,0.10062 -0.0275,0.0573 -0.0626,0.11164 -0.0826,0.17203 -0.0425,0.12847 -0.003,0.31489 0.0608,0.43049 0.0179,0.0324 0.0415,0.0612 0.0622,0.0918 0.11959,0.13241 0.28526,0.20454 0.46409,0.19987 0.035,-9.1e-4 0.0696,-0.008 0.10442,-0.0113 0.19032,-0.0461 0.29833,-0.12476 0.40831,-0.28515 0.0421,-0.0807 0.0855,-0.16349 0.1013,-0.25425 0.005,-0.0304 0.007,-0.0612 0.0112,-0.0918 0.0332,-0.5334803 -0.7213,-0.5803703 -0.75445,-0.0469 v 0 c 0.007,-0.0302 0.0219,-0.0712 -0.009,0.008 -0.002,0.006 0.007,-0.011 0.0111,-0.0164 0.0354,-0.0399 0.0716,-0.0593 0.11072,-0.0591 0.0629,0.004 0.11163,0.0413 0.1487,0.0926 0.0533,0.10453 0.006,0.15309 -0.056,0.25493 -0.0325,0.0255 -0.10634,0.0928 -0.16022,0.067 -0.0153,-0.007 0.099,0.01 0.0507,0.003 0.52914,0.0756 0.63604,-0.67272 0.1069,-0.74831 z" />
  <path
     style="fill:#803300"
     id="path8-16-9"
     d="m 165.23823,14.061191 c -0.16014,-0.0225 -0.3371,-0.007 -0.47122,0.0935 -0.0391,0.0292 -0.071,0.0671 -0.10658,0.10062 -0.0275,0.0573 -0.0626,0.11164 -0.0826,0.17203 -0.0425,0.12847 -0.003,0.31489 0.0608,0.43049 0.0179,0.0324 0.0415,0.0612 0.0622,0.0918 0.11959,0.13241 0.28526,0.20454 0.46409,0.19987 0.035,-9.1e-4 0.0696,-0.008 0.10442,-0.0113 0.19032,-0.0461 0.29833,-0.12476 0.40831,-0.28515 0.0421,-0.0807 0.0855,-0.16349 0.1013,-0.25425 0.005,-0.0304 0.007,-0.0612 0.0112,-0.0918 0.0332,-0.53348 -0.7213,-0.58037 -0.75445,-0.0469 v 0 c 0.007,-0.0302 0.0219,-0.0712 -0.009,0.008 -0.002,0.006 0.007,-0.011 0.0111,-0.0164 0.0354,-0.0399 0.0716,-0.0593 0.11072,-0.0591 0.0629,0.004 0.11163,0.0413 0.1487,0.0926 0.0533,0.10453 0.006,0.15309 -0.056,0.25493 -0.0325,0.0255 -0.10634,0.0928 -0.16022,0.067 -0.0153,-0.007 0.099,0.01 0.0507,0.003 0.52914,0.0756 0.63604,-0.67272 0.1069,-0.74831 z" />
  <path
     style="fill:#803300"
     id="path8-6-6"
     d="m 156.23823,16.061191 c -0.16014,-0.0225 -0.3371,-0.007 -0.47122,0.0935 -0.0391,0.0292 -0.071,0.0671 -0.10658,0.10062 -0.0275,0.0573 -0.0626,0.11164 -0.0826,0.17203 -0.0425,0.12847 -0.003,0.31489 0.0608,0.43049 0.0179,0.0324 0.0415,0.0612 0.0622,0.0918 0.11959,0.13241 0.28526,0.20454 0.46409,0.19987 0.035,-9.1e-4 0.0696,-0.008 0.10442,-0.0113 0.19032,-0.0461 0.29833,-0.12476 0.40831,-0.28515 0.0421,-0.0807 0.0855,-0.16349 0.1013,-0.25425 0.005,-0.0304 0.007,-0.0612 0.0112,-0.0918 0.0332,-0.53348 -0.7213,-0.58037 -0.75445,-0.0469 v 0 c 0.007,-0.0302 0.0219,-0.0712 -0.009,0.008 -0.002,0.006 0.007,-0.011 0.0111,-0.0164 0.0354,-0.0399 0.0716,-0.0593 0.11072,-0.0591 0.0629,0.004 0.11163,0.0413 0.1487,0.0926 0.0533,0.10453 0.006,0.15309 -0.056,0.25493 -0.0325,0.0255 -0.10634,0.0928 -0.16022,0.067 -0.0153,-0.007 0.099,0.01 0.0507,0.003 0.52914,0.0756 0.63604,-0.67272 0.1069,-0.74831 z" />
  <path
     style="fill:#803300"
     id="path8-27-3"
     d="m 143.23823,15.061191 c -0.16014,-0.0225 -0.3371,-0.007 -0.47122,0.0935 -0.0391,0.0292 -0.071,0.0671 -0.10658,0.10062 -0.0275,0.0573 -0.0626,0.11164 -0.0826,0.17203 -0.0425,0.12847 -0.003,0.31489 0.0608,0.43049 0.0179,0.0324 0.0415,0.0612 0.0622,0.0918 0.11959,0.13241 0.28526,0.20454 0.46409,0.19987 0.035,-9.1e-4 0.0696,-0.008 0.10442,-0.0113 0.19032,-0.0461 0.29833,-0.12476 0.40831,-0.28515 0.0421,-0.0807 0.0855,-0.16349 0.1013,-0.25425 0.005,-0.0304 0.007,-0.0612 0.0112,-0.0918 0.0332,-0.53348 -0.7213,-0.58037 -0.75445,-0.0469 v 0 c 0.007,-0.0302 0.0219,-0.0712 -0.009,0.008 -0.002,0.006 0.007,-0.011 0.0111,-0.0164 0.0354,-0.0399 0.0716,-0.0593 0.11072,-0.0591 0.0629,0.004 0.11163,0.0413 0.1487,0.0926 0.0533,0.10453 0.006,0.15309 -0.056,0.25493 -0.0325,0.0255 -0.10634,0.0928 -0.16022,0.067 -0.0153,-0.007 0.099,0.01 0.0507,0.003 0.52914,0.0756 0.63604,-0.67272 0.1069,-0.74831 z" />
  <path
     style="fill:#803300"
     id="path8-3-7"
     d="m 132.23823,15.061191 c -0.16014,-0.0225 -0.3371,-0.007 -0.47122,0.0935 -0.0391,0.0292 -0.071,0.0671 -0.10658,0.10062 -0.0275,0.0573 -0.0626,0.11164 -0.0826,0.17203 -0.0425,0.12847 -0.003,0.31489 0.0608,0.43049 0.0179,0.0324 0.0415,0.0612 0.0622,0.0918 0.11959,0.13241 0.28526,0.20454 0.46409,0.19987 0.035,-9.1e-4 0.0696,-0.008 0.10442,-0.0113 0.19032,-0.0461 0.29833,-0.12476 0.40831,-0.28515 0.0421,-0.0807 0.0855,-0.16349 0.1013,-0.25425 0.005,-0.0304 0.007,-0.0612 0.0112,-0.0918 0.0332,-0.53348 -0.7213,-0.58037 -0.75445,-0.0469 v 0 c 0.007,-0.0302 0.0219,-0.0712 -0.009,0.008 -0.002,0.006 0.007,-0.011 0.0111,-0.0164 0.0354,-0.0399 0.0716,-0.0593 0.11072,-0.0591 0.0629,0.004 0.11163,0.0413 0.1487,0.0926 0.0533,0.10453 0.006,0.15309 -0.056,0.25493 -0.0325,0.0255 -0.10634,0.0928 -0.16022,0.067 -0.0153,-0.007 0.099,0.01 0.0507,0.003 0.52914,0.0756 0.63604,-0.67272 0.1069,-0.74831 z" />
  <path
     style="fill:#803300"
     id="path8-34-8"
     d="m 127.23823,10.061191 c -0.16014,-0.0225 -0.3371,-0.007 -0.47122,0.0935 -0.0391,0.0292 -0.071,0.0671 -0.10658,0.10062 -0.0275,0.0573 -0.0626,0.11164 -0.0826,0.17203 -0.0425,0.12847 -0.003,0.31489 0.0608,0.43049 0.0179,0.0324 0.0415,0.0612 0.0622,0.0918 0.11959,0.13241 0.28526,0.20454 0.46409,0.19987 0.035,-9.1e-4 0.0696,-0.008 0.10442,-0.0113 0.19032,-0.0461 0.29833,-0.12476 0.40831,-0.28515 0.0421,-0.0807 0.0855,-0.16349 0.1013,-0.25425 0.005,-0.0304 0.007,-0.0612 0.0112,-0.0918 0.0332,-0.5334803 -0.7213,-0.5803703 -0.75445,-0.0469 v 0 c 0.007,-0.0302 0.0219,-0.0712 -0.009,0.008 -0.002,0.006 0.007,-0.011 0.0111,-0.0164 0.0354,-0.0399 0.0716,-0.0593 0.11072,-0.0591 0.0629,0.004 0.11163,0.0413 0.1487,0.0926 0.0533,0.10453 0.006,0.15309 -0.056,0.25493 -0.0325,0.0255 -0.10634,0.0928 -0.16022,0.067 -0.0153,-0.007 0.099,0.01 0.0507,0.003 0.52914,0.0756 0.63604,-0.67272 0.1069,-0.74831 z" />
  <path
     style="fill:#803300"
     id="path8-87-8"
     d="m 137.23823,4.0611907 c -0.16014,-0.0225 -0.3371,-0.007 -0.47122,0.0935 -0.0391,0.0292 -0.071,0.0671 -0.10658,0.10062 -0.0275,0.0573 -0.0626,0.11164 -0.0826,0.17203 -0.0425,0.12847 -0.003,0.31489 0.0608,0.43049 0.0179,0.0324 0.0415,0.0612 0.0622,0.0918 0.11959,0.13241 0.28526,0.20454 0.46409,0.19987 0.035,-9.1e-4 0.0696,-0.008 0.10442,-0.0113 0.19032,-0.0461 0.29833,-0.12476 0.40831,-0.28515 0.0421,-0.0807 0.0855,-0.16349 0.1013,-0.25425 0.005,-0.0304 0.007,-0.0612 0.0112,-0.0918 0.0332,-0.53348 -0.7213,-0.58037 -0.75445,-0.0469 v 0 c 0.007,-0.0302 0.0219,-0.0712 -0.009,0.008 -0.002,0.006 0.007,-0.011 0.0111,-0.0164 0.0354,-0.0399 0.0716,-0.0593 0.11072,-0.0591 0.0629,0.004 0.11163,0.0413 0.1487,0.0926 0.0533,0.10453 0.006,0.15309 -0.056,0.25493 -0.0325,0.0255 -0.10634,0.0928 -0.16022,0.067 -0.0153,-0.007 0.099,0.01 0.0507,0.003 0.52914,0.0756 0.63604,-0.67272 0.1069,-0.74831 z" />
  <path
     style="fill:#803300"
     id="path8-79-2"
     d="m 139.23823,12.061191 c -0.16014,-0.0225 -0.3371,-0.007 -0.47122,0.0935 -0.0391,0.0292 -0.071,0.0671 -0.10658,0.10062 -0.0275,0.0573 -0.0626,0.11164 -0.0826,0.17203 -0.0425,0.12847 -0.003,0.31489 0.0608,0.43049 0.0179,0.0324 0.0415,0.0612 0.0622,0.0918 0.11959,0.13241 0.28526,0.20454 0.46409,0.19987 0.035,-9.1e-4 0.0696,-0.008 0.10442,-0.0113 0.19032,-0.0461 0.29833,-0.12476 0.40831,-0.28515 0.0421,-0.0807 0.0855,-0.16349 0.1013,-0.25425 0.005,-0.0304 0.007,-0.0612 0.0112,-0.0918 0.0332,-0.53348 -0.7213,-0.58037 -0.75445,-0.0469 v 0 c 0.007,-0.0302 0.0219,-0.0712 -0.009,0.008 -0.002,0.006 0.007,-0.011 0.0111,-0.0164 0.0354,-0.0399 0.0716,-0.0593 0.11072,-0.0591 0.0629,0.004 0.11163,0.0413 0.1487,0.0926 0.0533,0.10453 0.006,0.15309 -0.056,0.25493 -0.0325,0.0255 -0.10634,0.0928 -0.16022,0.067 -0.0153,-0.007 0.099,0.01 0.0507,0.003 0.52914,0.0756 0.63604,-0.67272 0.1069,-0.74831 z" />
  <path
     style="fill:#803300"
     id="path8-86-9"
     d="m 146.23823,4.0611907 c -0.16014,-0.0225 -0.3371,-0.007 -0.47122,0.0935 -0.0391,0.0292 -0.071,0.0671 -0.10658,0.10062 -0.0275,0.0573 -0.0626,0.11164 -0.0826,0.17203 -0.0425,0.12847 -0.003,0.31489 0.0608,0.43049 0.0179,0.0324 0.0415,0.0612 0.0622,0.0918 0.11959,0.13241 0.28526,0.20454 0.46409,0.19987 0.035,-9.1e-4 0.0696,-0.008 0.10442,-0.0113 0.19032,-0.0461 0.29833,-0.12476 0.40831,-0.28515 0.0421,-0.0807 0.0855,-0.16349 0.1013,-0.25425 0.005,-0.0304 0.007,-0.0612 0.0112,-0.0918 0.0332,-0.53348 -0.7213,-0.58037 -0.75445,-0.0469 v 0 c 0.007,-0.0302 0.0219,-0.0712 -0.009,0.008 -0.002,0.006 0.007,-0.011 0.0111,-0.0164 0.0354,-0.0399 0.0716,-0.0593 0.11072,-0.0591 0.0629,0.004 0.11163,0.0413 0.1487,0.0926 0.0533,0.10453 0.006,0.15309 -0.056,0.25493 -0.0325,0.0255 -0.10634,0.0928 -0.16022,0.067 -0.0153,-0.007 0.099,0.01 0.0507,0.003 0.52914,0.0756 0.63604,-0.67272 0.1069,-0.74831 z" />
  <path
     style="fill:#803300"
     id="path8-860-1"
     d="m 153.23823,5.0611907 c -0.16014,-0.0225 -0.3371,-0.007 -0.47122,0.0935 -0.0391,0.0292 -0.071,0.0671 -0.10658,0.10062 -0.0275,0.0573 -0.0626,0.11164 -0.0826,0.17203 -0.0425,0.12847 -0.003,0.31489 0.0608,0.43049 0.0179,0.0324 0.0415,0.0612 0.0622,0.0918 0.11959,0.13241 0.28526,0.20454 0.46409,0.19987 0.035,-9.1e-4 0.0696,-0.008 0.10442,-0.0113 0.19032,-0.0461 0.29833,-0.12476 0.40831,-0.28515 0.0421,-0.0807 0.0855,-0.16349 0.1013,-0.25425 0.005,-0.0304 0.007,-0.0612 0.0112,-0.0918 0.0332,-0.53348 -0.7213,-0.58037 -0.75445,-0.0469 v 0 c 0.007,-0.0302 0.0219,-0.0712 -0.009,0.008 -0.002,0.006 0.007,-0.011 0.0111,-0.0164 0.0354,-0.0399 0.0716,-0.0593 0.11072,-0.0591 0.0629,0.004 0.11163,0.0413 0.1487,0.0926 0.0533,0.10453 0.006,0.15309 -0.056,0.25493 -0.0325,0.0255 -0.10634,0.0928 -0.16022,0.067 -0.0153,-0.007 0.099,0.01 0.0507,0.003 0.52914,0.0756 0.63604,-0.67272 0.1069,-0.74831 z" />
  <path
     style="fill:#803300"
     id="path8-65-3"
     d="m 157.23823,12.061191 c -0.16014,-0.0225 -0.3371,-0.007 -0.47122,0.0935 -0.0391,0.0292 -0.071,0.0671 -0.10658,0.10062 -0.0275,0.0573 -0.0626,0.11164 -0.0826,0.17203 -0.0425,0.12847 -0.003,0.31489 0.0608,0.43049 0.0179,0.0324 0.0415,0.0612 0.0622,0.0918 0.11959,0.13241 0.28526,0.20454 0.46409,0.19987 0.035,-9.1e-4 0.0696,-0.008 0.10442,-0.0113 0.19032,-0.0461 0.29833,-0.12476 0.40831,-0.28515 0.0421,-0.0807 0.0855,-0.16349 0.1013,-0.25425 0.005,-0.0304 0.007,-0.0612 0.0112,-0.0918 0.0332,-0.53348 -0.7213,-0.58037 -0.75445,-0.0469 v 0 c 0.007,-0.0302 0.0219,-0.0712 -0.009,0.008 -0.002,0.006 0.007,-0.011 0.0111,-0.0164 0.0354,-0.0399 0.0716,-0.0593 0.11072,-0.0591 0.0629,0.004 0.11163,0.0413 0.1487,0.0926 0.0533,0.10453 0.006,0.15309 -0.056,0.25493 -0.0325,0.0255 -0.10634,0.0928 -0.16022,0.067 -0.0153,-0.007 0.099,0.01 0.0507,0.003 0.52914,0.0756 0.63604,-0.67272 0.1069,-0.74831 z" />
  <path
     style="fill:#803300"
     id="path8-0-5"
     d="m 165.23823,8.0611907 c -0.16014,-0.0225 -0.3371,-0.007 -0.47122,0.0935 -0.0391,0.0292 -0.071,0.0671 -0.10658,0.10062 -0.0275,0.0573 -0.0626,0.11164 -0.0826,0.17203 -0.0425,0.12847 -0.003,0.31489 0.0608,0.43049 0.0179,0.0324 0.0415,0.0612 0.0622,0.0918 0.11959,0.13241 0.28526,0.20454 0.46409,0.19987 0.035,-9.1e-4 0.0696,-0.008 0.10442,-0.0113 0.19032,-0.0461 0.29833,-0.12476 0.40831,-0.28515 0.0421,-0.0807 0.0855,-0.16349 0.1013,-0.25425 0.005,-0.0304 0.007,-0.0612 0.0112,-0.0918 0.0332,-0.53348 -0.7213,-0.58037 -0.75445,-0.0469 v 0 c 0.007,-0.0302 0.0219,-0.0712 -0.009,0.008 -0.002,0.006 0.007,-0.011 0.0111,-0.0164 0.0354,-0.0399 0.0716,-0.0593 0.11072,-0.0591 0.0629,0.004 0.11163,0.0413 0.1487,0.0926 0.0533,0.10453 0.006,0.15309 -0.056,0.25493 -0.0325,0.0255 -0.10634,0.0928 -0.16022,0.067 -0.0153,-0.007 0.099,0.01 0.0507,0.003 0.52914,0.0756 0.63604,-0.67272 0.1069,-0.74831 z" />
  <path
     style="fill:#803300"
     id="path8-89-9"
     d="m 159.23823,2.0611907 c -0.16014,-0.0225 -0.3371,-0.007 -0.47122,0.0935 -0.0391,0.0292 -0.071,0.0671 -0.10658,0.10062 -0.0275,0.0573 -0.0626,0.11164 -0.0826,0.17203 -0.0425,0.12847 -0.003,0.31489 0.0608,0.43049 0.0179,0.0324 0.0415,0.0612 0.0622,0.0918 0.11959,0.13241 0.28526,0.20454 0.46409,0.19987 0.035,-9.1e-4 0.0696,-0.008 0.10442,-0.0113 0.19032,-0.0461 0.29833,-0.12476 0.40831,-0.28515 0.0421,-0.0807 0.0855,-0.16349 0.1013,-0.25425 0.005,-0.0304 0.007,-0.0612 0.0112,-0.0918 0.0332,-0.53348 -0.7213,-0.58037 -0.75445,-0.0469 v 0 c 0.007,-0.0302 0.0219,-0.0712 -0.009,0.008 -0.002,0.006 0.007,-0.011 0.0111,-0.0164 0.0354,-0.0399 0.0716,-0.0593 0.11072,-0.0591 0.0629,0.004 0.11163,0.0413 0.1487,0.0926 0.0533,0.10453 0.006,0.15309 -0.056,0.25493 -0.0325,0.0255 -0.10634,0.0928 -0.16022,0.067 -0.0153,-0.007 0.099,0.01 0.0507,0.003 0.52914,0.0756 0.63604,-0.67272 0.1069,-0.74831 z" />
  <path
     style="fill:#803300"
     id="path8-76"
     d="m 77.853805,11.077881 c -0.16014,-0.0225 -0.3371,-0.007 -0.47122,0.0935 -0.0391,0.0292 -0.071,0.0671 -0.10658,0.10062 -0.0275,0.0573 -0.0626,0.11164 -0.0826,0.17203 -0.0425,0.12847 -0.003,0.31489 0.0608,0.43049 0.0179,0.0324 0.0415,0.0612 0.0622,0.0918 0.11959,0.13241 0.28526,0.20454 0.46409,0.19987 0.035,-9.1e-4 0.0696,-0.008 0.10442,-0.0113 0.19032,-0.0461 0.29833,-0.12476 0.40831,-0.28515 0.0421,-0.0807 0.0855,-0.16349 0.1013,-0.25425 0.005,-0.0304 0.007,-0.0612 0.0112,-0.0918 0.0332,-0.53348 -0.7213,-0.58037 -0.75445,-0.0469 v 0 c 0.007,-0.0302 0.0219,-0.0712 -0.009,0.008 -0.002,0.006 0.007,-0.011 0.0111,-0.0164 0.0354,-0.0399 0.0716,-0.0593 0.11072,-0.0591 0.0629,0.004 0.11163,0.0413 0.1487,0.0926 0.0533,0.10453 0.006,0.15309 -0.056,0.25493 -0.0325,0.0255 -0.10634,0.0928 -0.16022,0.067 -0.0153,-0.007 0.099,0.01 0.0507,0.003 0.52914,0.0756 0.63604,-0.67272 0.1069,-0.74831 z" />
  <path
     style="fill:#803300"
     id="path8-8-3"
     d="m 86.053645,11.866061 c -0.16014,-0.0225 -0.3371,-0.007 -0.47122,0.0935 -0.0391,0.0292 -0.071,0.0671 -0.10658,0.10062 -0.0275,0.0573 -0.0626,0.11164 -0.0826,0.17203 -0.0425,0.12847 -0.003,0.31489 0.0608,0.43049 0.0179,0.0324 0.0415,0.0612 0.0622,0.0918 0.11959,0.13241 0.28526,0.20454 0.46409,0.19987 0.035,-9.1e-4 0.0696,-0.008 0.10442,-0.0113 0.19032,-0.0461 0.29833,-0.12476 0.40831,-0.28515 0.0421,-0.0807 0.0855,-0.16349 0.1013,-0.25425 0.005,-0.0304 0.007,-0.0612 0.0112,-0.0918 0.0332,-0.53348 -0.7213,-0.58037 -0.75445,-0.0469 v 0 c 0.007,-0.0302 0.0219,-0.0712 -0.009,0.008 -0.002,0.006 0.007,-0.011 0.0111,-0.0164 0.0354,-0.0399 0.0716,-0.0593 0.11072,-0.0591 0.0629,0.004 0.11163,0.0413 0.1487,0.0926 0.0533,0.10453 0.006,0.15309 -0.056,0.25493 -0.0325,0.0255 -0.10634,0.0928 -0.16022,0.067 -0.0153,-0.007 0.099,0.01 0.0507,0.003 0.52914,0.0756 0.63604,-0.67272 0.1069,-0.74831 z" />
  <path
     style="fill:#803300"
     id="path8-5-61"
     d="m 94.053645,11.866061 c -0.16014,-0.0225 -0.3371,-0.007 -0.47122,0.0935 -0.0391,0.0292 -0.071,0.0671 -0.10658,0.10062 -0.0275,0.0573 -0.0626,0.11164 -0.0826,0.17203 -0.0425,0.12847 -0.003,0.31489 0.0608,0.43049 0.0179,0.0324 0.0415,0.0612 0.0622,0.0918 0.11959,0.13241 0.28526,0.20454 0.46409,0.19987 0.035,-9.1e-4 0.0696,-0.008 0.10442,-0.0113 0.19032,-0.0461 0.29833,-0.12476 0.40831,-0.28515 0.0421,-0.0807 0.0855,-0.16349 0.1013,-0.25425 0.005,-0.0304 0.007,-0.0612 0.0112,-0.0918 0.0332,-0.53348 -0.7213,-0.58037 -0.75445,-0.0469 v 0 c 0.007,-0.0302 0.0219,-0.0712 -0.009,0.008 -0.002,0.006 0.007,-0.011 0.0111,-0.0164 0.0354,-0.0399 0.0716,-0.0593 0.11072,-0.0591 0.0629,0.004 0.11163,0.0413 0.1487,0.0926 0.0533,0.10453 0.006,0.15309 -0.056,0.25493 -0.0325,0.0255 -0.10634,0.0928 -0.16022,0.067 -0.0153,-0.007 0.099,0.01 0.0507,0.003 0.52914,0.0756 0.63604,-0.67272 0.1069,-0.74831 z" />
  <path
     style="fill:#803300"
     id="path8-1-5"
     d="m 103.05364,8.8660607 c -0.16014,-0.0225 -0.3371,-0.007 -0.47122,0.0935 -0.0391,0.0292 -0.071,0.0671 -0.10658,0.10062 -0.0275,0.0573 -0.0626,0.11164 -0.0826,0.17203 -0.0425,0.12847 -0.003,0.31489 0.0608,0.43049 0.0179,0.0324 0.0415,0.0612 0.0622,0.0918 0.11959,0.13241 0.28526,0.20454 0.46409,0.19987 0.035,-9.1e-4 0.0696,-0.008 0.10442,-0.0113 0.19032,-0.0461 0.29833,-0.12476 0.40831,-0.28515 0.0421,-0.0807 0.0855,-0.16349 0.1013,-0.25425 0.005,-0.0304 0.007,-0.0612 0.0112,-0.0918 0.0332,-0.53348 -0.7213,-0.58037 -0.75445,-0.0469 v 0 c 0.007,-0.0302 0.0219,-0.0712 -0.009,0.008 -0.002,0.006 0.007,-0.011 0.0111,-0.0164 0.0354,-0.0399 0.0716,-0.0593 0.11072,-0.0591 0.0629,0.004 0.11163,0.0413 0.1487,0.0926 0.0533,0.10453 0.006,0.15309 -0.056,0.25493 -0.0325,0.0255 -0.10634,0.0928 -0.16022,0.067 -0.0153,-0.007 0.099,0.01 0.0507,0.003 0.52914,0.0756 0.63604,-0.67272 0.1069,-0.74831 z" />
  <path
     style="fill:#803300"
     id="path8-7-4"
     d="m 110.05364,5.8660607 c -0.16014,-0.0225 -0.3371,-0.007 -0.47122,0.0935 -0.0391,0.0292 -0.071,0.0671 -0.10658,0.10062 -0.0275,0.0573 -0.0626,0.11164 -0.0826,0.17203 -0.0425,0.12847 -0.003,0.31489 0.0608,0.43049 0.0179,0.0324 0.0415,0.0612 0.0622,0.0918 0.11959,0.13241 0.28526,0.20454 0.46409,0.19987 0.035,-9.1e-4 0.0696,-0.008 0.10442,-0.0113 0.19032,-0.0461 0.29833,-0.12476 0.40831,-0.28515 0.0421,-0.0807 0.0855,-0.16349 0.1013,-0.25425 0.005,-0.0304 0.007,-0.0612 0.0112,-0.0918 0.0332,-0.53348 -0.7213,-0.58037 -0.75445,-0.0469 v 0 c 0.007,-0.0302 0.0219,-0.0712 -0.009,0.008 -0.002,0.006 0.007,-0.011 0.0111,-0.0164 0.0354,-0.0399 0.0716,-0.0593 0.11072,-0.0591 0.0629,0.004 0.11163,0.0413 0.1487,0.0926 0.0533,0.10453 0.006,0.15309 -0.056,0.25493 -0.0325,0.0255 -0.10634,0.0928 -0.16022,0.067 -0.0153,-0.007 0.099,0.01 0.0507,0.003 0.52914,0.0756 0.63604,-0.67272 0.1069,-0.74831 z" />
  <path
     style="fill:#803300"
     id="path8-2-2"
     d="m 116.05364,11.866061 c -0.16014,-0.0225 -0.3371,-0.007 -0.47122,0.0935 -0.0391,0.0292 -0.071,0.0671 -0.10658,0.10062 -0.0275,0.0573 -0.0626,0.11164 -0.0826,0.17203 -0.0425,0.12847 -0.003,0.31489 0.0608,0.43049 0.0179,0.0324 0.0415,0.0612 0.0622,0.0918 0.11959,0.13241 0.28526,0.20454 0.46409,0.19987 0.035,-9.1e-4 0.0696,-0.008 0.10442,-0.0113 0.19032,-0.0461 0.29833,-0.12476 0.40831,-0.28515 0.0421,-0.0807 0.0855,-0.16349 0.1013,-0.25425 0.005,-0.0304 0.007,-0.0612 0.0112,-0.0918 0.0332,-0.53348 -0.7213,-0.58037 -0.75445,-0.0469 v 0 c 0.007,-0.0302 0.0219,-0.0712 -0.009,0.008 -0.002,0.006 0.007,-0.011 0.0111,-0.0164 0.0354,-0.0399 0.0716,-0.0593 0.11072,-0.0591 0.0629,0.004 0.11163,0.0413 0.1487,0.0926 0.0533,0.10453 0.006,0.15309 -0.056,0.25493 -0.0325,0.0255 -0.10634,0.0928 -0.16022,0.067 -0.0153,-0.007 0.099,0.01 0.0507,0.003 0.52914,0.0756 0.63604,-0.67272 0.1069,-0.74831 z" />
  <path
     style="fill:#803300"
     id="path8-16-0"
     d="m 109.05364,15.866061 c -0.16014,-0.0225 -0.3371,-0.007 -0.47122,0.0935 -0.0391,0.0292 -0.071,0.0671 -0.10658,0.10062 -0.0275,0.0573 -0.0626,0.11164 -0.0826,0.17203 -0.0425,0.12847 -0.003,0.31489 0.0608,0.43049 0.0179,0.0324 0.0415,0.0612 0.0622,0.0918 0.11959,0.13241 0.28526,0.20454 0.46409,0.19987 0.035,-9.1e-4 0.0696,-0.008 0.10442,-0.0113 0.19032,-0.0461 0.29833,-0.12476 0.40831,-0.28515 0.0421,-0.0807 0.0855,-0.16349 0.1013,-0.25425 0.005,-0.0304 0.007,-0.0612 0.0112,-0.0918 0.0332,-0.53348 -0.7213,-0.58037 -0.75445,-0.0469 v 0 c 0.007,-0.0302 0.0219,-0.0712 -0.009,0.008 -0.002,0.006 0.007,-0.011 0.0111,-0.0164 0.0354,-0.0399 0.0716,-0.0593 0.11072,-0.0591 0.0629,0.004 0.11163,0.0413 0.1487,0.0926 0.0533,0.10453 0.006,0.15309 -0.056,0.25493 -0.0325,0.0255 -0.10634,0.0928 -0.16022,0.067 -0.0153,-0.007 0.099,0.01 0.0507,0.003 0.52914,0.0756 0.63604,-0.67272 0.1069,-0.74831 z" />
  <path
     style="fill:#803300"
     id="path8-6-9"
     d="m 100.05364,17.866061 c -0.160135,-0.0225 -0.337095,-0.007 -0.471215,0.0935 -0.0391,0.0292 -0.071,0.0671 -0.10658,0.10062 -0.0275,0.0573 -0.0626,0.11164 -0.0826,0.17203 -0.0425,0.12847 -0.003,0.31489 0.0608,0.43049 0.0179,0.0324 0.0415,0.0612 0.0622,0.0918 0.11959,0.13241 0.28526,0.20454 0.46409,0.19987 0.035,-9.1e-4 0.0696,-0.008 0.104415,-0.0113 0.19032,-0.0461 0.29833,-0.12476 0.40831,-0.28515 0.0421,-0.0807 0.0855,-0.16349 0.1013,-0.25425 0.005,-0.0304 0.007,-0.0612 0.0112,-0.0918 0.0332,-0.53348 -0.721295,-0.58037 -0.754445,-0.0469 v 0 c 0.007,-0.0302 0.0219,-0.0712 -0.009,0.008 -0.002,0.006 0.007,-0.011 0.0111,-0.0164 0.0354,-0.0399 0.0716,-0.0593 0.11072,-0.0591 0.06289,0.004 0.111625,0.0413 0.148695,0.0926 0.0533,0.10453 0.006,0.15309 -0.056,0.25493 -0.0325,0.0255 -0.106335,0.0928 -0.160215,0.067 -0.0153,-0.007 0.099,0.01 0.0507,0.003 0.529135,0.0756 0.636035,-0.67272 0.106895,-0.74831 z" />
  <path
     style="fill:#803300"
     id="path8-27-7"
     d="m 87.053645,16.866061 c -0.16014,-0.0225 -0.3371,-0.007 -0.47122,0.0935 -0.0391,0.0292 -0.071,0.0671 -0.10658,0.10062 -0.0275,0.0573 -0.0626,0.11164 -0.0826,0.17203 -0.0425,0.12847 -0.003,0.31489 0.0608,0.43049 0.0179,0.0324 0.0415,0.0612 0.0622,0.0918 0.11959,0.13241 0.28526,0.20454 0.46409,0.19987 0.035,-9.1e-4 0.0696,-0.008 0.10442,-0.0113 0.19032,-0.0461 0.29833,-0.12476 0.40831,-0.28515 0.0421,-0.0807 0.0855,-0.16349 0.1013,-0.25425 0.005,-0.0304 0.007,-0.0612 0.0112,-0.0918 0.0332,-0.53348 -0.7213,-0.58037 -0.75445,-0.0469 v 0 c 0.007,-0.0302 0.0219,-0.0712 -0.009,0.008 -0.002,0.006 0.007,-0.011 0.0111,-0.0164 0.0354,-0.0399 0.0716,-0.0593 0.11072,-0.0591 0.0629,0.004 0.11163,0.0413 0.1487,0.0926 0.0533,0.10453 0.006,0.15309 -0.056,0.25493 -0.0325,0.0255 -0.10634,0.0928 -0.16022,0.067 -0.0153,-0.007 0.099,0.01 0.0507,0.003 0.52914,0.0756 0.63604,-0.67272 0.1069,-0.74831 z" />
  <path
     style="fill:#803300"
     id="path8-3-3"
     d="m 76.053645,16.866061 c -0.16014,-0.0225 -0.3371,-0.007 -0.47122,0.0935 -0.0391,0.0292 -0.071,0.0671 -0.10658,0.10062 -0.0275,0.0573 -0.0626,0.11164 -0.0826,0.17203 -0.0425,0.12847 -0.003,0.31489 0.0608,0.43049 0.0179,0.0324 0.0415,0.0612 0.0622,0.0918 0.11959,0.13241 0.28526,0.20454 0.46409,0.19987 0.035,-9.1e-4 0.0696,-0.008 0.10442,-0.0113 0.19032,-0.0461 0.29833,-0.12476 0.40831,-0.28515 0.0421,-0.0807 0.0855,-0.16349 0.1013,-0.25425 0.005,-0.0304 0.007,-0.0612 0.0112,-0.0918 0.0332,-0.53348 -0.7213,-0.58037 -0.75445,-0.0469 v 0 c 0.007,-0.0302 0.0219,-0.0712 -0.009,0.008 -0.002,0.006 0.007,-0.011 0.0111,-0.0164 0.0354,-0.0399 0.0716,-0.0593 0.11072,-0.0591 0.0629,0.004 0.11163,0.0413 0.1487,0.0926 0.0533,0.10453 0.006,0.15309 -0.056,0.25493 -0.0325,0.0255 -0.10634,0.0928 -0.16022,0.067 -0.0153,-0.007 0.099,0.01 0.0507,0.003 0.52914,0.0756 0.63604,-0.67272 0.1069,-0.74831 z" />
  <path
     style="fill:#803300"
     id="path8-34-7"
     d="m 71.053645,11.866061 c -0.16014,-0.0225 -0.3371,-0.007 -0.47122,0.0935 -0.0391,0.0292 -0.071,0.0671 -0.10658,0.10062 -0.0275,0.0573 -0.0626,0.11164 -0.0826,0.17203 -0.0425,0.12847 -0.003,0.31489 0.0608,0.43049 0.0179,0.0324 0.0415,0.0612 0.0622,0.0918 0.11959,0.13241 0.28526,0.20454 0.46409,0.19987 0.035,-9.1e-4 0.0696,-0.008 0.10442,-0.0113 0.19032,-0.0461 0.29833,-0.12476 0.40831,-0.28515 0.0421,-0.0807 0.0855,-0.16349 0.1013,-0.25425 0.005,-0.0304 0.007,-0.0612 0.0112,-0.0918 0.0332,-0.53348 -0.7213,-0.58037 -0.75445,-0.0469 v 0 c 0.007,-0.0302 0.0219,-0.0712 -0.009,0.008 -0.002,0.006 0.007,-0.011 0.0111,-0.0164 0.0354,-0.0399 0.0716,-0.0593 0.11072,-0.0591 0.0629,0.004 0.11163,0.0413 0.1487,0.0926 0.0533,0.10453 0.006,0.15309 -0.056,0.25493 -0.0325,0.0255 -0.10634,0.0928 -0.16022,0.067 -0.0153,-0.007 0.099,0.01 0.0507,0.003 0.52914,0.0756 0.63604,-0.67272 0.1069,-0.74831 z" />
  <path
     style="fill:#803300"
     id="path8-87-2"
     d="m 81.053645,5.8660607 c -0.16014,-0.0225 -0.3371,-0.007 -0.47122,0.0935 -0.0391,0.0292 -0.071,0.0671 -0.10658,0.10062 -0.0275,0.0573 -0.0626,0.11164 -0.0826,0.17203 -0.0425,0.12847 -0.003,0.31489 0.0608,0.43049 0.0179,0.0324 0.0415,0.0612 0.0622,0.0918 0.11959,0.13241 0.28526,0.20454 0.46409,0.19987 0.035,-9.1e-4 0.0696,-0.008 0.10442,-0.0113 0.19032,-0.0461 0.29833,-0.12476 0.40831,-0.28515 0.0421,-0.0807 0.0855,-0.16349 0.1013,-0.25425 0.005,-0.0304 0.007,-0.0612 0.0112,-0.0918 0.0332,-0.53348 -0.7213,-0.58037 -0.75445,-0.0469 v 0 c 0.007,-0.0302 0.0219,-0.0712 -0.009,0.008 -0.002,0.006 0.007,-0.011 0.0111,-0.0164 0.0354,-0.0399 0.0716,-0.0593 0.11072,-0.0591 0.0629,0.004 0.11163,0.0413 0.1487,0.0926 0.0533,0.10453 0.006,0.15309 -0.056,0.25493 -0.0325,0.0255 -0.10634,0.0928 -0.16022,0.067 -0.0153,-0.007 0.099,0.01 0.0507,0.003 0.52914,0.0756 0.63604,-0.67272 0.1069,-0.74831 z" />
  <path
     style="fill:#803300"
     id="path8-79-6"
     d="m 83.053645,13.866061 c -0.16014,-0.0225 -0.3371,-0.007 -0.47122,0.0935 -0.0391,0.0292 -0.071,0.0671 -0.10658,0.10062 -0.0275,0.0573 -0.0626,0.11164 -0.0826,0.17203 -0.0425,0.12847 -0.003,0.31489 0.0608,0.43049 0.0179,0.0324 0.0415,0.0612 0.0622,0.0918 0.11959,0.13241 0.28526,0.20454 0.46409,0.19987 0.035,-9.1e-4 0.0696,-0.008 0.10442,-0.0113 0.19032,-0.0461 0.29833,-0.12476 0.40831,-0.28515 0.0421,-0.0807 0.0855,-0.16349 0.1013,-0.25425 0.005,-0.0304 0.007,-0.0612 0.0112,-0.0918 0.0332,-0.53348 -0.7213,-0.58037 -0.75445,-0.0469 v 0 c 0.007,-0.0302 0.0219,-0.0712 -0.009,0.008 -0.002,0.006 0.007,-0.011 0.0111,-0.0164 0.0354,-0.0399 0.0716,-0.0593 0.11072,-0.0591 0.0629,0.004 0.11163,0.0413 0.1487,0.0926 0.0533,0.10453 0.006,0.15309 -0.056,0.25493 -0.0325,0.0255 -0.10634,0.0928 -0.16022,0.067 -0.0153,-0.007 0.099,0.01 0.0507,0.003 0.52914,0.0756 0.63604,-0.67272 0.1069,-0.74831 z" />
  <path
     style="fill:#803300"
     id="path8-86-0"
     d="m 90.053645,5.8660607 c -0.16014,-0.0225 -0.3371,-0.007 -0.47122,0.0935 -0.0391,0.0292 -0.071,0.0671 -0.10658,0.10062 -0.0275,0.0573 -0.0626,0.11164 -0.0826,0.17203 -0.0425,0.12847 -0.003,0.31489 0.0608,0.43049 0.0179,0.0324 0.0415,0.0612 0.0622,0.0918 0.11959,0.13241 0.28526,0.20454 0.46409,0.19987 0.035,-9.1e-4 0.0696,-0.008 0.10442,-0.0113 0.19032,-0.0461 0.29833,-0.12476 0.40831,-0.28515 0.0421,-0.0807 0.0855,-0.16349 0.1013,-0.25425 0.005,-0.0304 0.007,-0.0612 0.0112,-0.0918 0.0332,-0.53348 -0.7213,-0.58037 -0.75445,-0.0469 v 0 c 0.007,-0.0302 0.0219,-0.0712 -0.009,0.008 -0.002,0.006 0.007,-0.011 0.0111,-0.0164 0.0354,-0.0399 0.0716,-0.0593 0.11072,-0.0591 0.0629,0.004 0.11163,0.0413 0.1487,0.0926 0.0533,0.10453 0.006,0.15309 -0.056,0.25493 -0.0325,0.0255 -0.10634,0.0928 -0.16022,0.067 -0.0153,-0.007 0.099,0.01 0.0507,0.003 0.52914,0.0756 0.63604,-0.67272 0.1069,-0.74831 z" />
  <path
     style="fill:#803300"
     id="path8-860-16"
     d="m 97.053645,6.8660607 c -0.16014,-0.0225 -0.3371,-0.007 -0.47122,0.0935 -0.0391,0.0292 -0.071,0.0671 -0.10658,0.10062 -0.0275,0.0573 -0.0626,0.11164 -0.0826,0.17203 -0.0425,0.12847 -0.003,0.31489 0.0608,0.43049 0.0179,0.0324 0.0415,0.0612 0.0622,0.0918 0.11959,0.13241 0.28526,0.20454 0.46409,0.19987 0.035,-9.1e-4 0.0696,-0.008 0.10442,-0.0113 0.19032,-0.0461 0.29833,-0.12476 0.40831,-0.28515 0.0421,-0.0807 0.0855,-0.16349 0.1013,-0.25425 0.005,-0.0304 0.007,-0.0612 0.0112,-0.0918 0.0332,-0.53348 -0.7213,-0.58037 -0.75445,-0.0469 v 0 c 0.007,-0.0302 0.0219,-0.0712 -0.009,0.008 -0.002,0.006 0.007,-0.011 0.0111,-0.0164 0.0354,-0.0399 0.0716,-0.0593 0.11072,-0.0591 0.0629,0.004 0.11163,0.0413 0.1487,0.0926 0.0533,0.10453 0.006,0.15309 -0.056,0.25493 -0.0325,0.0255 -0.10634,0.0928 -0.16022,0.067 -0.0153,-0.007 0.099,0.01 0.0507,0.003 0.52914,0.0756 0.63604,-0.67272 0.1069,-0.74831 z" />
  <path
     style="fill:#803300"
     id="path8-65-5"
     d="m 101.05364,13.866061 c -0.16014,-0.0225 -0.3371,-0.007 -0.47122,0.0935 -0.0391,0.0292 -0.071,0.0671 -0.10658,0.10062 -0.0275,0.0573 -0.0626,0.11164 -0.0826,0.17203 -0.0425,0.12847 -0.003,0.31489 0.0608,0.43049 0.0179,0.0324 0.0415,0.0612 0.0622,0.0918 0.11959,0.13241 0.28526,0.20454 0.46409,0.19987 0.035,-9.1e-4 0.0696,-0.008 0.10442,-0.0113 0.19032,-0.0461 0.29833,-0.12476 0.40831,-0.28515 0.0421,-0.0807 0.0855,-0.16349 0.1013,-0.25425 0.005,-0.0304 0.007,-0.0612 0.0112,-0.0918 0.0332,-0.53348 -0.7213,-0.58037 -0.75445,-0.0469 v 0 c 0.007,-0.0302 0.0219,-0.0712 -0.009,0.008 -0.002,0.006 0.007,-0.011 0.0111,-0.0164 0.0354,-0.0399 0.0716,-0.0593 0.11072,-0.0591 0.0629,0.004 0.11163,0.0413 0.1487,0.0926 0.0533,0.10453 0.006,0.15309 -0.056,0.25493 -0.0325,0.0255 -0.10634,0.0928 -0.16022,0.067 -0.0153,-0.007 0.099,0.01 0.0507,0.003 0.52914,0.0756 0.63604,-0.67272 0.1069,-0.74831 z" />
  <path
     style="fill:#803300"
     id="path8-0-7"
     d="m 109.05364,9.8660607 c -0.16014,-0.0225 -0.3371,-0.007 -0.47122,0.0935 -0.0391,0.0292 -0.071,0.0671 -0.10658,0.1006203 -0.0275,0.0573 -0.0626,0.11164 -0.0826,0.17203 -0.0425,0.12847 -0.003,0.31489 0.0608,0.43049 0.0179,0.0324 0.0415,0.0612 0.0622,0.0918 0.11959,0.13241 0.28526,0.20454 0.46409,0.19987 0.035,-9.1e-4 0.0696,-0.008 0.10442,-0.0113 0.19032,-0.0461 0.29833,-0.12476 0.40831,-0.28515 0.0421,-0.0807 0.0855,-0.16349 0.1013,-0.25425 0.005,-0.0304 0.007,-0.0612 0.0112,-0.0918 0.0332,-0.5334803 -0.7213,-0.5803703 -0.75445,-0.0469 v 0 c 0.007,-0.0302 0.0219,-0.0712 -0.009,0.008 -0.002,0.006 0.007,-0.011 0.0111,-0.0164 0.0354,-0.0399 0.0716,-0.0593 0.11072,-0.0591 0.0629,0.004 0.11163,0.0413 0.1487,0.0926 0.0533,0.10453 0.006,0.15309 -0.056,0.25493 -0.0325,0.0255 -0.10634,0.0928 -0.16022,0.067 -0.0153,-0.007 0.099,0.01 0.0507,0.003 0.52914,0.0756 0.63604,-0.6727203 0.1069,-0.7483103 z" />
  <path
     style="fill:#803300"
     id="path8-89-5"
     d="m 103.05364,3.8660607 c -0.16014,-0.0225 -0.3371,-0.007 -0.47122,0.0935 -0.0391,0.0292 -0.071,0.0671 -0.10658,0.10062 -0.0275,0.0573 -0.0626,0.11164 -0.0826,0.17203 -0.0425,0.12847 -0.003,0.31489 0.0608,0.43049 0.0179,0.0324 0.0415,0.0612 0.0622,0.0918 0.11959,0.13241 0.28526,0.20454 0.46409,0.19987 0.035,-9.1e-4 0.0696,-0.008 0.10442,-0.0113 0.19032,-0.0461 0.29833,-0.12476 0.40831,-0.28515 0.0421,-0.0807 0.0855,-0.16349 0.1013,-0.25425 0.005,-0.0304 0.007,-0.0612 0.0112,-0.0918 0.0332,-0.53348 -0.7213,-0.58037 -0.75445,-0.0469 v 0 c 0.007,-0.0302 0.0219,-0.0712 -0.009,0.008 -0.002,0.006 0.007,-0.011 0.0111,-0.0164 0.0354,-0.0399 0.0716,-0.0593 0.11072,-0.0591 0.0629,0.004 0.11163,0.0413 0.1487,0.0926 0.0533,0.10453 0.006,0.15309 -0.056,0.25493 -0.0325,0.0255 -0.10634,0.0928 -0.16022,0.067 -0.0153,-0.007 0.099,0.01 0.0507,0.003 0.52914,0.0756 0.63604,-0.67272 0.1069,-0.74831 z" />
  <path
     style="fill:#000000"
     id="path11"
     d="m 96.176095,1.0513907 c -1.03129,0.0247 -2.06145,0.0923 -3.09289,0.1262 -1.31443,0.004 -2.62176,0.13474 -3.92912,0.25364 -1.00137,0.11068 -1.99937,0.25291 -2.99462,0.40887 -0.84146,0.12484 -1.68698,0.22708 -2.53308,0.31604 -0.91337,0.094 -1.83243,0.0795 -2.74802,0.13078 -0.89185,0.0737 -1.78548,0.11509 -2.67993,0.13754 -0.92457,0.0519 -1.83803,-0.11865 -2.74767,-0.2568 -1.38065,-0.2191 -2.76251,-0.43082 -4.14318,-0.65016 -1.60507,-0.2555 -3.22623,-0.37056 -4.84869,-0.43402 -1.29715,-0.0403 -2.59508,-0.0379 -3.8927,-0.0373 -1.44856,0.002 -2.89711,0.004 -4.34566,0.004 -1.49961,-0.0242 -2.99701,0.0156 -4.49494,0.0799 -1.28861,0.0146 -2.56526,0.19408 -3.83879,0.37293 -1.30015,0.21766 -2.59739,0.45242 -3.89608,0.67971 -1.5269,0.33064 -3.08116,0.46681 -4.63813,0.54622 -1.84235,0.0697 -3.68652,0.065 -5.52989,0.0664 -1.60312,-3.2e-4 -3.20625,-0.003 -4.80937,-0.004 -1.06296,0.008 -2.12648,-0.0221 -3.18881,0.0198 -1.11213,0.10079 -2.22167,0.22898 -3.32826,0.37848 -1.52637,0.22336 -3.041,0.50194 -4.54402,0.84855 -1.69844,0.38163 -3.35276,0.92735 -5.01657,1.43319 -1.3223,0.38505 -2.61958,0.84887 -3.93469,1.25731 -1.0466505,0.33415 -2.1144905,0.5949 -3.1390105,0.99447 -0.74304,0.28419 -1.42356,0.69211 -2.11235,1.08333 -0.73874,0.45097 -1.34922,1.05971 -1.92817,1.6950603 -0.52092,0.59555 -1.00844,1.21689 -1.48476,1.84836 -0.50336,0.66471 -1.00593,1.32857 -1.54728008,1.96303 -0.45781,0.53074 -0.66046,1.17776 -0.76022,1.85759 0.006,1.07207 0.81879,1.53644 1.63398008,2.05991 1.39974,0.75325 2.9962,1.01007 4.55029,1.24397 1.37938,0.21611 2.76888,0.35459 4.1532405,0.53136 1.47058,0.17298 2.92527,0.45274 4.38563,0.69348 1.38875,0.23946 2.79188,0.38644 4.18052,0.62391 1.33793,0.21506 2.64841,0.55816 3.98295,0.7914 1.81333,0.2827 3.63327,0.52895 5.45636,0.74056 2.06049,0.23155 4.13323,0.29174 6.2046,0.32376 2.87884,0.0491 5.75729,-0.034 8.63544,-0.0868 2.49122,-0.045 4.98282,-0.0613 7.47439,-0.0707 2.02521,-0.005 4.05043,-0.004 6.07564,-0.004 2.51178,-0.006 5.02372,0.0192 7.53526,-0.02 2.5855,-0.0574 5.16867,-0.18524 7.75378,-0.2595 1.83816,-0.0515 3.67706,-0.0627 5.51583,-0.0681 1.70637,-0.003 3.41275,-9.5e-4 5.11912,-2.7e-4 2.0538,7.7e-4 4.1076,9.3e-4 6.1614,10e-4 1.94503,0.0112 3.89055,-0.0237 5.8352,0.0208 1.89773,0.0675 3.79608,0.10936 5.694795,0.13356 1.91217,-0.006 3.82277,0.0454 5.73391,0.0993 2.24765,0.0847 4.49535,0.0608 6.74321,0.01 1.81174,-0.0229 3.60938,-0.23539 5.40998,-0.41038 1.75082,-0.18382 3.50835,-0.29069 5.26241,-0.43773 1.84485,-0.20636 3.69675,-0.33289 5.54862,-0.45561 2.03442,-0.12504 4.05876,-0.36239 6.09037,-0.5224 1.98612,-0.14381 3.9781,-0.16047 5.96841,-0.17447 1.95455,-0.009 3.90913,-0.006 5.86369,-0.004 1.5022,0.008 3.0033,0.0114 4.50447,-0.0473 1.46835,-0.08 2.9302,-0.22796 4.39171,-0.38537 1.83442,-0.18845 3.6795,-0.21861 5.52179,-0.2451 2.19279,0.004 4.38434,-0.0441 6.57211,-0.19406 1.98285,-0.19084 3.95252,-0.48541 5.90931,-0.85489 1.40233,-0.23918 2.76742,-0.63476 4.14934,-0.9609 1.32195,-0.28431 2.63144,-0.62116 3.94129,-0.95549 0.90896,-0.22415 1.78757,-0.54887 2.67855,-0.83247 0.95585,-0.30467 1.92149,-0.57541 2.88484,-0.85477 0.86006,-0.22344 1.69576,-0.51869 2.46987,-0.95657 0.49644,-0.28922 0.88426,-0.68391 1.12643,-1.20331 0.22207,-0.60475 0.13708,-1.09933 -0.0915,-1.685 -0.40448,-0.68463 -0.9731,-1.25092 -1.52233,-1.8189403 -0.56126,-0.56762 -1.07556,-1.17604 -1.61155,-1.76686 -0.32064,-0.28444 -0.58723,-0.63129 -0.92134,-0.9014 -0.4173,-0.33736 -0.87886,-0.57423 -1.35871,-0.80655 -1.18566,-0.54262 -2.47938,-0.75162 -3.74995,-0.9944 -1.30264,-0.22243 -2.60583,-0.43768 -3.91178,-0.63928 -1.18195,-0.15689 -2.35292,-0.38329 -3.52411,-0.60417 -1.20316,-0.24413 -2.40931,-0.47326 -3.62277,-0.66013 -1.13357,-0.16155 -2.24386,-0.44478 -3.35732,-0.70546 -0.96428,-0.25431 -1.89648,-0.60036 -2.83345,-0.93608 -1.30565,-0.50551 -2.65399,-0.86283 -4.01407,-1.18606008 -1.46913,-0.39239 -2.97566,-0.57242 -4.48912,-0.66956 -1.58457,-0.0755 -3.17169,-0.0649999944 -4.75761,-0.0648999944 -1.75167,0.001999994 -3.50199,0.0881999944 -5.253,0.13236999435 -1.60256,0.037 -3.20557,0.0446 -4.80849,0.0488 -1.50472,0.002 -3.00945,0.001 -4.51417,0.001 -1.71151,-5.1e-4 -3.42301,-6.2e-4 -5.13451,-7e-4 -2.02784,-0.0258 -4.05437,0.0532 -6.08114,0.10479 -1.79866,0.0192 -3.59552,0.0781 -5.39284,0.14571 -1.79987,0.0648 -3.60093,0.0816 -5.40178,0.0924 -1.77126,0.008 -3.54253,0.006 -5.3138,0.006 -1.73048,-5.2e-4 -3.46095,-8.7e-4 -5.19143,-0.001 -1.49048,0.0157 -2.98153,-0.0177 -4.468335,-0.12472 -0.89866,-0.0608 -1.78658,-0.21773 -2.68018,-0.32462 -0.4738,-0.0566 -0.95111,-0.0687 -1.42774,-0.0742 -0.4145,6e-4 -0.77871,0.1587 -1.14324,0.33476 -0.29035,0.10986 -0.54489,0.29191 -0.83093,0.41064 -0.31835,0.12935 -0.65101,0.19912 -0.98314,0.28001008 -0.46346,0.11254 -0.93547,0.18169 -1.40131,0.28416 -0.52193,0.11529 -0.35889,0.8534 0.16304,0.73812 v 0 c 0.47135,-0.10459 0.94963,-0.17238 1.4184,-0.28815 0.3713,-0.0919 0.74339,-0.17287 1.09912,-0.31865 0.29549,-0.12799 0.56491,-0.30495 0.86361,-0.42547 0.25967,-0.12546008 0.50931,-0.25453008 0.80593,-0.25957008 0.4495,0.005 0.8997,0.0157 1.34656,0.0689 0.90546,0.1081 1.8051,0.26758008 2.71579,0.32802008 1.504825,0.10758 3.013805,0.14294 4.522335,0.12666 1.73046,2e-4 3.46091,5.5e-4 5.19137,10e-4 1.77282,3.6e-4 3.54564,0.002 5.31845,-0.006 1.80882,-0.0108 3.61785,-0.0278 5.42568,-0.0929 1.79427,-0.0675 3.58808,-0.12624 5.38368,-0.14542 2.02035,-0.0515001 4.04045,-0.13031008 6.06186,-0.10455008 1.71144,8e-5 3.42289,2e-4 5.13433,7e-4 1.50547,4.3e-4 3.01094,0.001 4.51641,-0.001 1.6086,-0.004 3.21729,-0.0119 4.82552,-0.0491 1.74467,-0.044 3.48866,-0.12982 5.23399,-0.13214 1.56981,-8e-5 3.14081,-0.0106 4.70931,0.0634 1.47093,0.0938 2.935,0.26824008 4.36264,0.65062008 1.33304,0.31669 2.65475,0.66571 3.93409,1.16232 0.96415,0.34467 1.92327,0.70087 2.91586,0.96039 1.13243,0.26511 2.26177,0.55241 3.41466,0.71657 1.20511,0.18529 2.40277,0.41366 3.59765,0.65583 1.17942,0.22243 2.35866,0.45023 3.54888,0.60841 1.29709,0.2002 2.5914,0.41405 3.88523,0.6347 1.20634,0.2305 2.43659,0.42363 3.56451,0.9333 0.40739,0.19394 0.81481,0.39239 1.16944,0.67703 0.31911,0.25614 0.57186,0.58791 0.87828,0.85768 0.54179,0.59618 1.0614,1.21066 1.62782,1.7842203 0.48216,0.49847 0.97274,0.99626 1.36315,1.5724 0.15036,0.37047 0.2411,0.70298 0.1044,1.09663 -0.15835,0.37833 -0.46389,0.64541 -0.81046,0.85566 -0.72049,0.41239 -1.50557,0.67655 -2.30675,0.88766 -0.96956,0.28134 -1.94154,0.55361 -2.90354,0.86046 -0.87699,0.27921 -1.74176,0.599 -2.63624,0.82035 -1.30547,0.33334 -2.61066,0.66894 -3.92824,0.95227 -1.37056,0.3246 -2.7248,0.71585 -4.11571,0.95376 -1.92751,0.3642 -3.86771,0.65427 -5.82079,0.84353 -2.17414,0.14952 -4.35208,0.19556 -6.5312,0.19237 -1.86571,0.0269 -3.73419,0.0581 -5.59187,0.24936 -1.44444,0.15558 -2.88915,0.30211 -4.34033,0.3816 -1.49109,0.0584 -2.98211,0.0549 -4.47422,0.0467 -1.95656,-0.002 -3.91314,-0.005 -5.86969,0.004 -2.00835,0.0142 -4.01837,0.0313 -6.02246,0.17679 -2.02849,0.15988 -4.04973,0.39659 -6.08099,0.52172 -1.85625,0.12305 -3.71256,0.24975 -5.56179,0.4566 -1.75738,0.1474 -3.51826,0.25434 -5.27239,0.43863 -1.78197,0.17327 -3.56094,0.3843 -5.35396,0.40703 -2.23505,0.0506 -4.46992,0.0746 -6.70476,-0.01 -1.91504,-0.054 -3.82954,-0.10591 -5.7456,-0.0996 -1.896205,-0.0242 -3.792015,-0.066 -5.687215,-0.13343 -1.95039,-0.0442 -3.90161,-0.0102 -5.85238,-0.021 -2.05371,-1.2e-4 -4.10742,-2.8e-4 -6.16113,-0.001 -1.70723,-6.8e-4 -3.41445,-0.002 -5.12168,2.6e-4 -1.84525,0.005 -3.69064,0.0167 -5.53528,0.0684 -2.58182,0.0742 -5.1617,0.20167 -7.7439,0.25928 -2.50756,0.0393 -5.01551,0.0133 -7.52331,0.0199 -2.0262,-3.3e-4 -4.05241,-0.002 -6.07861,0.004 -2.49524,0.009 -4.99052,0.0258 -7.48542,0.0708 -2.86964,0.0527 -5.73958,0.13555 -8.6099,0.0867 -2.04616,-0.0315 -4.0937,-0.0904 -6.12914,-0.31881 -1.8088,-0.2098 -3.61441,-0.45432 -5.41357,-0.73435 -1.33558,-0.23262 -2.64658,-0.57848 -3.9858,-0.79189 -1.39028,-0.23643 -2.79428,-0.38626 -4.18464,-0.6246 -1.46944,-0.24223 -2.9332,-0.52358 -4.41295,-0.69747 -1.3788605,-0.17565 -2.7626905,-0.31422 -4.1365905,-0.52905 -1.4498,-0.21731 -2.9421,-0.44953 -4.25613,-1.13379 -0.35826,-0.22666 -0.97977,-0.58917 -1.20253008,-0.96906 -0.0791,-0.13484 -0.0715,-0.19739 -0.0896,-0.34656 0.0745,-0.53914 0.22355008,-1.05282 0.58703008,-1.474 0.55093,-0.64616 1.06346,-1.32142 1.57566,-1.9984 0.46223,-0.61297 0.93485,-1.21637 1.44019,-1.79461 0.52493,-0.577 1.07471,-1.1333703 1.74266,-1.5467503 0.65713,-0.37347 1.30523,-0.76484 2.01412,-1.03652 1.00706,-0.39455 2.0596405,-0.64489 3.0880505,-0.97663 1.31363,-0.40811 2.6096,-0.87105 3.93034,-1.25597 1.64731,-0.50085 3.28511,-1.04166 4.96662,-1.41986 1.48028,-0.34166 2.97207,-0.61567 4.47537,-0.83601 1.08303,-0.14652 2.16898,-0.27116 3.25722,-0.37227 1.05193,-0.0428 2.10526,-0.01 3.15784,-0.0192 1.60356,0.002 3.20712,0.004 4.81068,0.004 1.85604,-10e-4 3.7129,0.003 5.56791,-0.0673 1.58766,-0.0814 3.17268,-0.22039 4.72985,-0.55655 1.29031,-0.22586 2.57923,-0.45883 3.87089,-0.67574 1.24943,-0.17546 2.5018,-0.3528 3.76611,-0.36628 1.48728,-0.0639 2.97398,-0.10346 4.46293,-0.0792 1.44853,-8.5e-4 2.89705,-0.002 4.34557,-0.004 1.28767,-6.1e-4 2.57565,-0.003 3.86286,0.0367 1.59262,0.0621 3.184,0.17454 4.75958,0.42524 1.38237,0.21961 2.76595,0.43152 4.14828,0.65094 0.9535,0.1448 1.91114,0.31921 2.88017,0.26514 0.90235,-0.0227 1.8039,-0.0641 2.70362,-0.13851 0.92767,-0.0531 1.85914,-0.036 2.78449,-0.13373 0.85879,-0.0906 1.71703,-0.19407 2.57112,-0.32102 0.979,-0.15388 1.96091,-0.29306 2.94589,-0.40285 1.29285,-0.11759 2.58562,-0.2472 3.88548,-0.25093 1.02317,-0.0337 2.04511,-0.10018 3.06806,-0.12579 0.53451,0 0.53451,-0.75591 0,-0.75591 z" />
</svg>
