<?xml version="1.0" encoding="UTF-8" standalone="no"?>
<!-- Created with Inkscape (http://www.inkscape.org/) -->

<svg
   width="15.457749mm"
   height="5.9865613mm"
   viewBox="0 0 58.422991 22.626374"
   version="1.1"
   id="svg1"
   xmlns="http://www.w3.org/2000/svg"
   xmlns:svg="http://www.w3.org/2000/svg">
  <defs
     id="defs1" />
  <path
     style="fill:#ececec;stroke-width:1.10072"
     id="path7"
     d="m 3.0177312,19.480002 c 3.42734,0.99699 6.9562,1.39734 10.4622398,1.81226 4.7454,0.49074 9.50737,0.78973 14.27143,0.82651 3.05239,-0.0132 6.1059,-0.18416 9.14464,-0.52045 2.18892,-0.20241 4.3548,-0.63069 6.53293,-0.94045 1.39821,-0.19878 2.76884,-0.58543 4.1542,-0.87096 1.63097,-0.28654 3.21915,-0.81274 4.7898,-1.38874 1.05528,-0.43784 2.16146,-0.82618 3.14023,-1.4802 0.24596,-0.16437 0.47976,-0.35246 0.71963,-0.52869 1.90145,-5.03557 2.77195,-3.91461 -1.36982,-8.1593399 -0.28614,-0.29324 -0.74812,-0.17103 -1.12675,-0.2163 -1.32329,-0.15825 -2.69283,-0.0358 -4.01808,-10e-4 -4.04612,0.26774 -8.09556,0.30795 -12.14683,0.29747 -4.89669,-0.0301 -9.79342,-0.055 -14.69017,-0.0703 -3.67109,-0.0107 -7.34219,-0.0124 -11.01328,-0.0132 -1.1865,-1.8e-4 -2.3729998,-1.5e-4 -3.5595098,-3e-5 -0.514,5e-5 -1.03867,0.0378 -1.54598,-0.0798 0.0269,0.008 -0.003,-0.0606 0.0131,-0.0579 0.40303,0.0626 0.89497,0.57605 1.1052,0.94744 0.17561,0.31017 0.28217,0.6667 0.42326,1.0000499 0.0573,1.67329 0.27008,1.65468 -0.25921,2.92282 -0.0805,0.19306 -0.25672,0.32475 -0.31603,0.52805 -0.0207,0.0708 0.12276,-0.0434 0.18249,-0.0703 1.01809,-0.45786 -0.16851,0.0301 1.15609,-0.49481 2.3488498,-0.95633 4.8012598,-1.49305 7.2431898,-2.00767 2.42405,-0.5687 4.88421,-0.80567 7.34975,-0.9296399 2.7108,-0.19764 5.42337,-0.30247 8.13639,-0.12822 1.24384,0.0972 2.48668,0.2024899 3.72539,0.3677499 0.60816,0.0811 1.24749,0.12515 1.82853,0.3662 0.60402,0.17236 1.12811,0.52447 1.64522,0.90556 0.43976,0.38219 1.00975,0.55377 1.42303,0.97389 1.13026,0.84939 2.39938,1.3466 3.69589,1.71326 0.82919,0.14159 1.63899,0.36497 2.44846,0.60913 -0.87372,-0.21296 -1.67564,-1.1707 -1.94076,-2.14936 -0.0634,-0.234 -0.0897,-0.47955 -0.13477,-0.71933 -0.0399,-1.09795 0.16123,-1.66391 0.75093,-2.5064499 0.0501,-0.0716 0.24556,-0.215 0.16806,-0.19609 -0.14479,0.0353 -0.25923,0.16668 -0.38884,0.25001 -1.2079,0.6642099 -2.50649,1.0612599 -3.80847,1.3779799 -2.66845,0.65781 -5.39547,0.82459 -8.10883,1.03674 -2.93508,0.2127 -5.87467,0.40218 -8.81624,0.37594 -2.25759,-0.053 -4.51764,-0.22526 -6.7566,-0.57098 -1.85746,-0.34249 -3.71146,-0.71522 -5.55853,-1.12766 -0.57589,-0.17354 -1.15976,-0.3061 -1.73991,-0.45728 -0.12885,-0.0335 -0.2574798,-0.0683 -0.3844198,-0.1104099 -0.21539,-0.0715 -0.23761,-0.0201 -0.1782,-0.10958 -0.0874,-0.052 -0.18428,-0.0865 -0.26224,-0.15604 -0.0528,-0.047 0.12621,0.0496 0.18449,0.0867 0.0768,0.0489 0.15563,0.0989 0.21858,0.16982 0.7162398,0.8057199 0.9526498,1.5193999 0.9956898,2.9337099 0.0192,0.62905 -0.29864,1.20958 -0.44797,1.81437 -0.005,0.051 -0.0583,0.16183 -0.0148,0.15329 0.13477,-0.0265 0.24156,-0.14967 0.36352,-0.22182 0.26446,-0.15647 0.52703,-0.31767 0.79572,-0.46399 0.39878,-0.21715 0.79931,-0.43064 1.20621,-0.62617 1.3718,-0.65919 1.66834,-0.7357 3.11035,-1.28499 3.25252,-1.20216 6.60588,-1.96864 9.99468,-2.3855299 2.79083,-0.35893 5.59591,-0.48721 8.40119,-0.55107 2.55483,-0.0431 5.11001,-0.0378 7.66504,-0.0353 1.78165,0.002 3.56331,0.005 5.34495,0.007 0.4753,-0.0544 1.15886,0.0612 1.43675,0.15138 0.51509,0.5609899 -0.82477,-0.45499 -0.6562,-0.26908 0.26634,0.29368 0.66619,0.4168 0.9095,0.74726 0.43308,0.4794499 1.02957,0.7633499 1.41087,1.3061199 -0.0288,-0.027 -0.072,-0.12079 -0.0863,-0.081 -0.0164,0.0451 0.0537,0.0761 0.0723,0.11988 0.0273,0.064 -0.0832,-0.1059 -0.11504,-0.16682 -0.0605,-0.11553 -0.0741,-0.16279 -0.11702,-0.28019 -0.0598,-0.24883 -0.003,1.01823 -0.0246,0.208 0.0309,-0.21218 0.0616,-0.42437 0.0925,-0.63655 -1.67635,6.05368 5.65115,8.82351 7.32749,2.76984 v 0 c 0.0786,-0.38463 0.15712,-0.76926 0.23574,-1.1539 0.0676,-1.14001 0.0649,-2.2805199 -0.16615,-3.4001999 -0.35204,-1.44639 -0.92541,-2.74981 -1.8439,-3.82323 -0.57292,-0.63383 -1.16619,-1.2476 -1.83044,-1.7499 -0.9927,-0.94051 -2.04812,-1.81629 -3.26984,-2.29847998 -1.10177,-0.32687 -2.2319,-0.47562 -3.36987,-0.44119 -1.78141,-0.001 -3.56281,-0.004 -5.34422,-0.007 -2.60762,-0.002 -5.21541,-0.008 -7.82282,0.0371 -3.03008,0.0701 -6.05981,0.21345 -9.07425,0.60103 -3.92569,0.50261998 -7.81335,1.37470998 -11.57974,2.78552998 -1.87301,0.72677 -3.7210898,1.46763 -5.4934498,2.4946 -0.90869,0.52652 -1.93627,1.1842 -2.71993,1.95528 -0.39187,0.38557 -0.72194,0.84952 -1.08292,1.27427 -0.32663,0.8918199 -0.90345,1.7095399 -0.9799,2.6754799 -0.22682,2.86514 1.35549,4.84 3.35793,5.93804 0.28728,0.13975 0.56947,0.29479 0.86184,0.41928 1.02694,0.43724 2.13173,0.56072 3.1808398,0.90166 1.99812,0.44176 4.00171,0.85321 6.01203,1.2121 2.55157,0.37692 5.12157,0.60041 7.69376,0.64465 3.12907,0.0181 6.25592,-0.16041 9.37801,-0.39586 3.08655,-0.24137 6.18573,-0.45766 9.21866,-1.219 2.03153,-0.52398 4.05625,-1.16627 5.91016,-2.29868 0.45963,-0.29781 1.11111,-0.70029 1.4786,-1.06878 0.90561,-0.90806 1.61533,-2.06926 1.84456,-3.45878 0.0746,-0.45213 0.0743,-0.9168 0.11142,-1.3752 -0.1129,-0.91761 -0.11175,-1.5642199 -0.49903,-2.3847399 -0.7419,-1.572 -1.73472,-2.49381 -3.19464,-2.97995 -0.87221,-0.26181 -1.74529,-0.52166 -2.63928,-0.66354 -0.27986,-0.0641 -0.60681,-0.14875 -0.85374,-0.26971 -0.0938,-0.0459 -0.17515,-0.12608 -0.27251,-0.16065 -0.0414,-0.0146 0.0654,0.0658 0.0983,0.0987 -0.86467,-0.68293 -1.09064,-0.73377 -1.71998,-1.20355 -1.16417,-0.85419 -2.39572,-1.5576 -3.73007,-1.97373 -0.35449,-0.10363 -0.70558,-0.22468 -1.06345,-0.31098 -2.00476,-0.48348 -4.0781,-0.4951 -6.10752,-0.72478998 -2.95868,-0.17127 -5.91635,-0.10411 -8.8724,0.12471 -2.81287,0.14580998 -5.61975,0.42360998 -8.38609,1.06514998 -2.85835,0.60735 -5.7243498,1.2552 -8.4696898,2.39158 -1.70639,0.73587 -3.58406,1.54172 -4.72006,3.32641 -0.34807,0.54681 -0.67398,1.14949 -0.80984006,1.8122 -0.17565,0.8567399 -0.0687,1.7601099 -0.10305,2.6401799 0.18930006,0.55741 0.31643006,1.14946 0.56791006,1.67225 0.90421,1.87968 2.63285,2.78136 4.35779,3.1654 2.02718,0.27161 4.0686,0.11838 6.1052898,0.15621 3.66472,8.6e-4 7.32944,0.002 10.99415,0.0132 4.89803,0.0153 9.79602,0.0402 14.69401,0.0703 4.1137,0.0107 8.22606,-0.0271 12.33452,-0.29966 0.49842,-0.013 1.86626,-0.0528 2.45818,-0.0556 0.19534,-9.3e-4 0.39805,0.0727 0.58599,0.0107 0.0943,-0.0313 -0.21557,-0.0242 -0.27822,-0.11231 -0.87505,-1.23248 -2.3214,-2.22203 -2.50582,-3.80881 -0.16847,-1.44962 1.06786,-2.64649 1.6018,-3.9697199 0.11783,-0.0743 0.23777,-0.14407 0.35353,-0.2226 0.0671,-0.0454 -0.1369,0.0851 -0.20722,0.12336 -0.14183,0.0773 -0.28602,0.14875 -0.42887,0.22359 -0.38485,0.20161 -0.37007,0.20652 -0.80772,0.38661 -0.1997,0.0822 -0.40197,0.15568 -0.60295,0.23352 -1.25442,0.4644499 -2.52154,0.8943399 -3.82709,1.1123699 -1.24583,0.26181 -2.48037,0.59859 -3.73553,0.79751 -2.11117,0.30226 -4.21086,0.71417 -6.33222,0.91492 -2.77931,0.31397 -5.57364,0.46014 -8.36558,0.47974 -4.52074,-0.0277 -9.0394,-0.32446 -13.54272,-0.78103 -3.02159,-0.35617 -6.0559698,-0.69793 -9.0238598,-1.47841 -5.21610006,-1.8282899 -7.429089,6.79034 -2.213,8.61862 z" />
  <path
     style="fill:#000000"
     id="path8-60"
     d="m 12.972671,9.4154821 c -0.16014,-0.0225 -0.3371,-0.007 -0.47122,0.0935 -0.0391,0.0292 -0.071,0.0671 -0.10658,0.10062 -0.0275,0.0573 -0.0626,0.11164 -0.0826,0.17203 -0.0425,0.12847 -0.003,0.3148899 0.0608,0.4304899 0.0179,0.0324 0.0415,0.0612 0.0622,0.0918 0.11959,0.13241 0.28526,0.20454 0.46409,0.19987 0.035,-9.1e-4 0.0696,-0.008 0.10442,-0.0113 0.19032,-0.0461 0.29833,-0.12476 0.40831,-0.28515 0.0421,-0.0807 0.0855,-0.16349 0.1013,-0.2542499 0.005,-0.0304 0.007,-0.0612 0.0112,-0.0918 0.0332,-0.53348 -0.7213,-0.58037 -0.75445,-0.0469 v 0 c 0.007,-0.0302 0.0219,-0.0712 -0.009,0.008 -0.002,0.006 0.007,-0.011 0.0111,-0.0164 0.0354,-0.0399 0.0716,-0.0593 0.11072,-0.0591 0.0629,0.004 0.11163,0.0413 0.1487,0.0926 0.0533,0.10453 0.006,0.15309 -0.056,0.2549299 -0.0325,0.0255 -0.10634,0.0928 -0.16022,0.067 -0.0153,-0.007 0.099,0.01 0.0507,0.003 0.52914,0.0756 0.63604,-0.6727199 0.1069,-0.7483099 z" />
  <path
     style="fill:#000000"
     id="path8-8-6"
     d="m 21.172511,10.203662 c -0.16014,-0.0225 -0.3371,-0.007 -0.47122,0.0935 -0.0391,0.0292 -0.071,0.0671 -0.10658,0.10062 -0.0275,0.0573 -0.0626,0.11164 -0.0826,0.17203 -0.0425,0.12847 -0.003,0.31489 0.0608,0.43049 0.0179,0.0324 0.0415,0.0612 0.0622,0.0918 0.11959,0.13241 0.28526,0.20454 0.46409,0.19987 0.035,-9.1e-4 0.0696,-0.008 0.10442,-0.0113 0.19032,-0.0461 0.29833,-0.12476 0.40831,-0.28515 0.0421,-0.0807 0.0855,-0.16349 0.1013,-0.25425 0.005,-0.0304 0.007,-0.0612 0.0112,-0.0918 0.0332,-0.53348 -0.7213,-0.58037 -0.75445,-0.0469 v 0 c 0.007,-0.0302 0.0219,-0.0712 -0.009,0.008 -0.002,0.006 0.007,-0.011 0.0111,-0.0164 0.0354,-0.0399 0.0716,-0.0593 0.11072,-0.0591 0.0629,0.004 0.11163,0.0413 0.1487,0.0926 0.0533,0.10453 0.006,0.15309 -0.056,0.25493 -0.0325,0.0255 -0.10634,0.0928 -0.16022,0.067 -0.0153,-0.007 0.099,0.01 0.0507,0.003 0.52914,0.0756 0.63604,-0.67272 0.1069,-0.74831 z" />
  <path
     style="fill:#000000"
     id="path8-5-6"
     d="m 29.172511,10.203662 c -0.16014,-0.0225 -0.3371,-0.007 -0.47122,0.0935 -0.0391,0.0292 -0.071,0.0671 -0.10658,0.10062 -0.0275,0.0573 -0.0626,0.11164 -0.0826,0.17203 -0.0425,0.12847 -0.003,0.31489 0.0608,0.43049 0.0179,0.0324 0.0415,0.0612 0.0622,0.0918 0.11959,0.13241 0.28526,0.20454 0.46409,0.19987 0.035,-9.1e-4 0.0696,-0.008 0.10442,-0.0113 0.19032,-0.0461 0.29833,-0.12476 0.40831,-0.28515 0.0421,-0.0807 0.0855,-0.16349 0.1013,-0.25425 0.005,-0.0304 0.007,-0.0612 0.0112,-0.0918 0.0332,-0.53348 -0.7213,-0.58037 -0.75445,-0.0469 v 0 c 0.007,-0.0302 0.0219,-0.0712 -0.009,0.008 -0.002,0.006 0.007,-0.011 0.0111,-0.0164 0.0354,-0.0399 0.0716,-0.0593 0.11072,-0.0591 0.0629,0.004 0.11163,0.0413 0.1487,0.0926 0.0533,0.10453 0.006,0.15309 -0.056,0.25493 -0.0325,0.0255 -0.10634,0.0928 -0.16022,0.067 -0.0153,-0.007 0.099,0.01 0.0507,0.003 0.52914,0.0756 0.63604,-0.67272 0.1069,-0.74831 z" />
  <path
     style="fill:#000000"
     id="path8-1-1"
     d="m 38.172511,7.2036621 c -0.16014,-0.0225 -0.3371,-0.007 -0.47122,0.0935 -0.0391,0.0292 -0.071,0.0671 -0.10658,0.10062 -0.0275,0.0573 -0.0626,0.11164 -0.0826,0.17203 -0.0425,0.12847 -0.003,0.31489 0.0608,0.43049 0.0179,0.0324 0.0415,0.0612 0.0622,0.0918 0.11959,0.13241 0.28526,0.20454 0.46409,0.19987 0.035,-9.1e-4 0.0696,-0.008 0.10442,-0.0113 0.19032,-0.0461 0.29833,-0.12476 0.40831,-0.28515 0.0421,-0.0807 0.0855,-0.16349 0.1013,-0.25425 0.005,-0.0304 0.007,-0.0612 0.0112,-0.0918 0.0332,-0.53348 -0.7213,-0.58037 -0.75445,-0.0469 v 0 c 0.007,-0.0302 0.0219,-0.0712 -0.009,0.008 -0.002,0.006 0.007,-0.011 0.0111,-0.0164 0.0354,-0.0399 0.0716,-0.0593 0.11072,-0.0591 0.0629,0.004 0.11163,0.0413 0.1487,0.0926 0.0533,0.10453 0.006,0.15309 -0.056,0.25493 -0.0325,0.0255 -0.10634,0.0928 -0.16022,0.067 -0.0153,-0.007 0.099,0.01 0.0507,0.003 0.52914,0.0756 0.63604,-0.67272 0.1069,-0.74831 z" />
  <path
     style="fill:#000000"
     id="path8-7-8"
     d="m 45.172511,4.2036621 c -0.16014,-0.0225 -0.3371,-0.007 -0.47122,0.0935 -0.0391,0.0292 -0.071,0.0671 -0.10658,0.10062 -0.0275,0.0573 -0.0626,0.11164 -0.0826,0.17203 -0.0425,0.12847 -0.003,0.31489 0.0608,0.43049 0.0179,0.0324 0.0415,0.0612 0.0622,0.0918 0.11959,0.13241 0.28526,0.20454 0.46409,0.19987 0.035,-9.1e-4 0.0696,-0.008 0.10442,-0.0113 0.19032,-0.0461 0.29833,-0.12476 0.40831,-0.28515 0.0421,-0.0807 0.0855,-0.16349 0.1013,-0.25425 0.005,-0.0304 0.007,-0.0612 0.0112,-0.0918 0.0332,-0.53348 -0.7213,-0.58037 -0.75445,-0.0469 v 0 c 0.007,-0.0302 0.0219,-0.0712 -0.009,0.008 -0.002,0.006 0.007,-0.011 0.0111,-0.0164 0.0354,-0.0399 0.0716,-0.0593 0.11072,-0.0591 0.0629,0.004 0.11163,0.0413 0.1487,0.0926 0.0533,0.10453 0.006,0.15309 -0.056,0.25493 -0.0325,0.0255 -0.10634,0.0928 -0.16022,0.067 -0.0153,-0.007 0.099,0.01 0.0507,0.003 0.52914,0.0756 0.63604,-0.67272 0.1069,-0.74831 z" />
  <path
     style="fill:#000000"
     id="path8-2-4"
     d="m 51.172511,10.203662 c -0.16014,-0.0225 -0.3371,-0.007 -0.47122,0.0935 -0.0391,0.0292 -0.071,0.0671 -0.10658,0.10062 -0.0275,0.0573 -0.0626,0.11164 -0.0826,0.17203 -0.0425,0.12847 -0.003,0.31489 0.0608,0.43049 0.0179,0.0324 0.0415,0.0612 0.0622,0.0918 0.11959,0.13241 0.28526,0.20454 0.46409,0.19987 0.035,-9.1e-4 0.0696,-0.008 0.10442,-0.0113 0.19032,-0.0461 0.29833,-0.12476 0.40831,-0.28515 0.0421,-0.0807 0.0855,-0.16349 0.1013,-0.25425 0.005,-0.0304 0.007,-0.0612 0.0112,-0.0918 0.0332,-0.53348 -0.7213,-0.58037 -0.75445,-0.0469 v 0 c 0.007,-0.0302 0.0219,-0.0712 -0.009,0.008 -0.002,0.006 0.007,-0.011 0.0111,-0.0164 0.0354,-0.0399 0.0716,-0.0593 0.11072,-0.0591 0.0629,0.004 0.11163,0.0413 0.1487,0.0926 0.0533,0.10453 0.006,0.15309 -0.056,0.25493 -0.0325,0.0255 -0.10634,0.0928 -0.16022,0.067 -0.0153,-0.007 0.099,0.01 0.0507,0.003 0.52914,0.0756 0.63604,-0.67272 0.1069,-0.74831 z" />
  <path
     style="fill:#000000"
     id="path8-16-9"
     d="m 44.172511,14.203662 c -0.16014,-0.0225 -0.3371,-0.007 -0.47122,0.0935 -0.0391,0.0292 -0.071,0.0671 -0.10658,0.10062 -0.0275,0.0573 -0.0626,0.11164 -0.0826,0.17203 -0.0425,0.12847 -0.003,0.31489 0.0608,0.43049 0.0179,0.0324 0.0415,0.0612 0.0622,0.0918 0.11959,0.13241 0.28526,0.20454 0.46409,0.19987 0.035,-9.1e-4 0.0696,-0.008 0.10442,-0.0113 0.19032,-0.0461 0.29833,-0.12476 0.40831,-0.28515 0.0421,-0.0807 0.0855,-0.16349 0.1013,-0.25425 0.005,-0.0304 0.007,-0.0612 0.0112,-0.0918 0.0332,-0.53348 -0.7213,-0.58037 -0.75445,-0.0469 v 0 c 0.007,-0.0302 0.0219,-0.0712 -0.009,0.008 -0.002,0.006 0.007,-0.011 0.0111,-0.0164 0.0354,-0.0399 0.0716,-0.0593 0.11072,-0.0591 0.0629,0.004 0.11163,0.0413 0.1487,0.0926 0.0533,0.10453 0.006,0.15309 -0.056,0.25493 -0.0325,0.0255 -0.10634,0.0928 -0.16022,0.067 -0.0153,-0.007 0.099,0.01 0.0507,0.003 0.52914,0.0756 0.63604,-0.67272 0.1069,-0.74831 z" />
  <path
     style="fill:#000000"
     id="path8-6-6"
     d="m 35.172511,16.203662 c -0.16014,-0.0225 -0.3371,-0.007 -0.47122,0.0935 -0.0391,0.0292 -0.071,0.0671 -0.10658,0.10062 -0.0275,0.0573 -0.0626,0.11164 -0.0826,0.17203 -0.0425,0.12847 -0.003,0.31489 0.0608,0.43049 0.0179,0.0324 0.0415,0.0612 0.0622,0.0918 0.11959,0.13241 0.28526,0.20454 0.46409,0.19987 0.035,-9.1e-4 0.0696,-0.008 0.10442,-0.0113 0.19032,-0.0461 0.29833,-0.12476 0.40831,-0.28515 0.0421,-0.0807 0.0855,-0.16349 0.1013,-0.25425 0.005,-0.0304 0.007,-0.0612 0.0112,-0.0918 0.0332,-0.53348 -0.7213,-0.58037 -0.75445,-0.0469 v 0 c 0.007,-0.0302 0.0219,-0.0712 -0.009,0.008 -0.002,0.006 0.007,-0.011 0.0111,-0.0164 0.0354,-0.0399 0.0716,-0.0593 0.11072,-0.0591 0.0629,0.004 0.11163,0.0413 0.1487,0.0926 0.0533,0.10453 0.006,0.15309 -0.056,0.25493 -0.0325,0.0255 -0.10634,0.0928 -0.16022,0.067 -0.0153,-0.007 0.099,0.01 0.0507,0.003 0.52914,0.0756 0.63604,-0.67272 0.1069,-0.74831 z" />
  <path
     style="fill:#000000"
     id="path8-27-3"
     d="m 22.172511,15.203662 c -0.16014,-0.0225 -0.3371,-0.007 -0.47122,0.0935 -0.0391,0.0292 -0.071,0.0671 -0.10658,0.10062 -0.0275,0.0573 -0.0626,0.11164 -0.0826,0.17203 -0.0425,0.12847 -0.003,0.31489 0.0608,0.43049 0.0179,0.0324 0.0415,0.0612 0.0622,0.0918 0.11959,0.13241 0.28526,0.20454 0.46409,0.19987 0.035,-9.1e-4 0.0696,-0.008 0.10442,-0.0113 0.19032,-0.0461 0.29833,-0.12476 0.40831,-0.28515 0.0421,-0.0807 0.0855,-0.16349 0.1013,-0.25425 0.005,-0.0304 0.007,-0.0612 0.0112,-0.0918 0.0332,-0.53348 -0.7213,-0.58037 -0.75445,-0.0469 v 0 c 0.007,-0.0302 0.0219,-0.0712 -0.009,0.008 -0.002,0.006 0.007,-0.011 0.0111,-0.0164 0.0354,-0.0399 0.0716,-0.0593 0.11072,-0.0591 0.0629,0.004 0.11163,0.0413 0.1487,0.0926 0.0533,0.10453 0.006,0.15309 -0.056,0.25493 -0.0325,0.0255 -0.10634,0.0928 -0.16022,0.067 -0.0153,-0.007 0.099,0.01 0.0507,0.003 0.52914,0.0756 0.63604,-0.67272 0.1069,-0.74831 z" />
  <path
     style="fill:#000000"
     id="path8-3-7"
     d="m 11.172511,15.203662 c -0.16014,-0.0225 -0.3371,-0.007 -0.47122,0.0935 -0.0391,0.0292 -0.071,0.0671 -0.10658,0.10062 -0.0275,0.0573 -0.0626,0.11164 -0.0826,0.17203 -0.0425,0.12847 -0.003,0.31489 0.0608,0.43049 0.0179,0.0324 0.0415,0.0612 0.0622,0.0918 0.11959,0.13241 0.28526,0.20454 0.46409,0.19987 0.035,-9.1e-4 0.0696,-0.008 0.10442,-0.0113 0.19032,-0.0461 0.29833,-0.12476 0.40831,-0.28515 0.0421,-0.0807 0.0855,-0.16349 0.1013,-0.25425 0.005,-0.0304 0.007,-0.0612 0.0112,-0.0918 0.0332,-0.53348 -0.7213,-0.58037 -0.75445,-0.0469 v 0 c 0.007,-0.0302 0.0219,-0.0712 -0.009,0.008 -0.002,0.006 0.007,-0.011 0.0111,-0.0164 0.0354,-0.0399 0.0716,-0.0593 0.11072,-0.0591 0.0629,0.004 0.11163,0.0413 0.1487,0.0926 0.0533,0.10453 0.006,0.15309 -0.056,0.25493 -0.0325,0.0255 -0.10634,0.0928 -0.16022,0.067 -0.0153,-0.007 0.099,0.01 0.0507,0.003 0.52914,0.0756 0.63604,-0.67272 0.1069,-0.74831 z" />
  <path
     style="fill:#000000"
     id="path8-34-8"
     d="m 6.1725112,10.203662 c -0.16014,-0.0225 -0.3371,-0.007 -0.47122,0.0935 -0.0391,0.0292 -0.071,0.0671 -0.10658,0.10062 -0.0275,0.0573 -0.0626,0.11164 -0.0826,0.17203 -0.0425,0.12847 -0.003,0.31489 0.0608,0.43049 0.0179,0.0324 0.0415,0.0612 0.0622,0.0918 0.11959,0.13241 0.28526,0.20454 0.46409,0.19987 0.035,-9.1e-4 0.0696,-0.008 0.10442,-0.0113 0.19032,-0.0461 0.29833,-0.12476 0.40831,-0.28515 0.0421,-0.0807 0.0855,-0.16349 0.1013,-0.25425 0.005,-0.0304 0.007,-0.0612 0.0112,-0.0918 0.0332,-0.53348 -0.7213,-0.58037 -0.75445,-0.0469 v 0 c 0.007,-0.0302 0.0219,-0.0712 -0.009,0.008 -0.002,0.006 0.007,-0.011 0.0111,-0.0164 0.0354,-0.0399 0.0716,-0.0593 0.11072,-0.0591 0.0629,0.004 0.11163,0.0413 0.1487,0.0926 0.0533,0.10453 0.006,0.15309 -0.056,0.25493 -0.0325,0.0255 -0.10634,0.0928 -0.16022,0.067 -0.0153,-0.007 0.099,0.01 0.0507,0.003 0.52914,0.0756 0.63604,-0.67272 0.1069,-0.74831 z" />
  <path
     style="fill:#000000"
     id="path8-87-8"
     d="m 16.172511,4.2036621 c -0.16014,-0.0225 -0.3371,-0.007 -0.47122,0.0935 -0.0391,0.0292 -0.071,0.0671 -0.10658,0.10062 -0.0275,0.0573 -0.0626,0.11164 -0.0826,0.17203 -0.0425,0.12847 -0.003,0.31489 0.0608,0.43049 0.0179,0.0324 0.0415,0.0612 0.0622,0.0918 0.11959,0.13241 0.28526,0.20454 0.46409,0.19987 0.035,-9.1e-4 0.0696,-0.008 0.10442,-0.0113 0.19032,-0.0461 0.29833,-0.12476 0.40831,-0.28515 0.0421,-0.0807 0.0855,-0.16349 0.1013,-0.25425 0.005,-0.0304 0.007,-0.0612 0.0112,-0.0918 0.0332,-0.53348 -0.7213,-0.58037 -0.75445,-0.0469 v 0 c 0.007,-0.0302 0.0219,-0.0712 -0.009,0.008 -0.002,0.006 0.007,-0.011 0.0111,-0.0164 0.0354,-0.0399 0.0716,-0.0593 0.11072,-0.0591 0.0629,0.004 0.11163,0.0413 0.1487,0.0926 0.0533,0.10453 0.006,0.15309 -0.056,0.25493 -0.0325,0.0255 -0.10634,0.0928 -0.16022,0.067 -0.0153,-0.007 0.099,0.01 0.0507,0.003 0.52914,0.0756 0.63604,-0.67272 0.1069,-0.74831 z" />
  <path
     style="fill:#000000"
     id="path8-79-2"
     d="m 18.172511,12.203662 c -0.16014,-0.0225 -0.3371,-0.007 -0.47122,0.0935 -0.0391,0.0292 -0.071,0.0671 -0.10658,0.10062 -0.0275,0.0573 -0.0626,0.11164 -0.0826,0.17203 -0.0425,0.12847 -0.003,0.31489 0.0608,0.43049 0.0179,0.0324 0.0415,0.0612 0.0622,0.0918 0.11959,0.13241 0.28526,0.20454 0.46409,0.19987 0.035,-9.1e-4 0.0696,-0.008 0.10442,-0.0113 0.19032,-0.0461 0.29833,-0.12476 0.40831,-0.28515 0.0421,-0.0807 0.0855,-0.16349 0.1013,-0.25425 0.005,-0.0304 0.007,-0.0612 0.0112,-0.0918 0.0332,-0.53348 -0.7213,-0.58037 -0.75445,-0.0469 v 0 c 0.007,-0.0302 0.0219,-0.0712 -0.009,0.008 -0.002,0.006 0.007,-0.011 0.0111,-0.0164 0.0354,-0.0399 0.0716,-0.0593 0.11072,-0.0591 0.0629,0.004 0.11163,0.0413 0.1487,0.0926 0.0533,0.10453 0.006,0.15309 -0.056,0.25493 -0.0325,0.0255 -0.10634,0.0928 -0.16022,0.067 -0.0153,-0.007 0.099,0.01 0.0507,0.003 0.52914,0.0756 0.63604,-0.67272 0.1069,-0.74831 z" />
  <path
     style="fill:#000000"
     id="path8-86-9"
     d="m 25.172511,4.2036621 c -0.16014,-0.0225 -0.3371,-0.007 -0.47122,0.0935 -0.0391,0.0292 -0.071,0.0671 -0.10658,0.10062 -0.0275,0.0573 -0.0626,0.11164 -0.0826,0.17203 -0.0425,0.12847 -0.003,0.31489 0.0608,0.43049 0.0179,0.0324 0.0415,0.0612 0.0622,0.0918 0.11959,0.13241 0.28526,0.20454 0.46409,0.19987 0.035,-9.1e-4 0.0696,-0.008 0.10442,-0.0113 0.19032,-0.0461 0.29833,-0.12476 0.40831,-0.28515 0.0421,-0.0807 0.0855,-0.16349 0.1013,-0.25425 0.005,-0.0304 0.007,-0.0612 0.0112,-0.0918 0.0332,-0.53348 -0.7213,-0.58037 -0.75445,-0.0469 v 0 c 0.007,-0.0302 0.0219,-0.0712 -0.009,0.008 -0.002,0.006 0.007,-0.011 0.0111,-0.0164 0.0354,-0.0399 0.0716,-0.0593 0.11072,-0.0591 0.0629,0.004 0.11163,0.0413 0.1487,0.0926 0.0533,0.10453 0.006,0.15309 -0.056,0.25493 -0.0325,0.0255 -0.10634,0.0928 -0.16022,0.067 -0.0153,-0.007 0.099,0.01 0.0507,0.003 0.52914,0.0756 0.63604,-0.67272 0.1069,-0.74831 z" />
  <path
     style="fill:#000000"
     id="path8-860-1"
     d="m 32.172511,5.2036621 c -0.16014,-0.0225 -0.3371,-0.007 -0.47122,0.0935 -0.0391,0.0292 -0.071,0.0671 -0.10658,0.10062 -0.0275,0.0573 -0.0626,0.11164 -0.0826,0.17203 -0.0425,0.12847 -0.003,0.31489 0.0608,0.43049 0.0179,0.0324 0.0415,0.0612 0.0622,0.0918 0.11959,0.13241 0.28526,0.20454 0.46409,0.19987 0.035,-9.1e-4 0.0696,-0.008 0.10442,-0.0113 0.19032,-0.0461 0.29833,-0.12476 0.40831,-0.28515 0.0421,-0.0807 0.0855,-0.16349 0.1013,-0.25425 0.005,-0.0304 0.007,-0.0612 0.0112,-0.0918 0.0332,-0.53348 -0.7213,-0.58037 -0.75445,-0.0469 v 0 c 0.007,-0.0302 0.0219,-0.0712 -0.009,0.008 -0.002,0.006 0.007,-0.011 0.0111,-0.0164 0.0354,-0.0399 0.0716,-0.0593 0.11072,-0.0591 0.0629,0.004 0.11163,0.0413 0.1487,0.0926 0.0533,0.10453 0.006,0.15309 -0.056,0.25493 -0.0325,0.0255 -0.10634,0.0928 -0.16022,0.067 -0.0153,-0.007 0.099,0.01 0.0507,0.003 0.52914,0.0756 0.63604,-0.67272 0.1069,-0.74831 z" />
  <path
     style="fill:#000000"
     id="path8-65-3"
     d="m 36.172511,12.203662 c -0.16014,-0.0225 -0.3371,-0.007 -0.47122,0.0935 -0.0391,0.0292 -0.071,0.0671 -0.10658,0.10062 -0.0275,0.0573 -0.0626,0.11164 -0.0826,0.17203 -0.0425,0.12847 -0.003,0.31489 0.0608,0.43049 0.0179,0.0324 0.0415,0.0612 0.0622,0.0918 0.11959,0.13241 0.28526,0.20454 0.46409,0.19987 0.035,-9.1e-4 0.0696,-0.008 0.10442,-0.0113 0.19032,-0.0461 0.29833,-0.12476 0.40831,-0.28515 0.0421,-0.0807 0.0855,-0.16349 0.1013,-0.25425 0.005,-0.0304 0.007,-0.0612 0.0112,-0.0918 0.0332,-0.53348 -0.7213,-0.58037 -0.75445,-0.0469 v 0 c 0.007,-0.0302 0.0219,-0.0712 -0.009,0.008 -0.002,0.006 0.007,-0.011 0.0111,-0.0164 0.0354,-0.0399 0.0716,-0.0593 0.11072,-0.0591 0.0629,0.004 0.11163,0.0413 0.1487,0.0926 0.0533,0.10453 0.006,0.15309 -0.056,0.25493 -0.0325,0.0255 -0.10634,0.0928 -0.16022,0.067 -0.0153,-0.007 0.099,0.01 0.0507,0.003 0.52914,0.0756 0.63604,-0.67272 0.1069,-0.74831 z" />
  <path
     style="fill:#000000"
     id="path8-0-5"
     d="m 44.172511,8.2036621 c -0.16014,-0.0225 -0.3371,-0.007 -0.47122,0.0935 -0.0391,0.0292 -0.071,0.0671 -0.10658,0.10062 -0.0275,0.0573 -0.0626,0.11164 -0.0826,0.17203 -0.0425,0.12847 -0.003,0.31489 0.0608,0.43049 0.0179,0.0324 0.0415,0.0612 0.0622,0.0918 0.11959,0.13241 0.28526,0.20454 0.46409,0.19987 0.035,-9.1e-4 0.0696,-0.008 0.10442,-0.0113 0.19032,-0.0461 0.29833,-0.12476 0.40831,-0.28515 0.0421,-0.0807 0.0855,-0.16349 0.1013,-0.25425 0.005,-0.0304 0.007,-0.0612 0.0112,-0.0918 0.0332,-0.53348 -0.7213,-0.58037 -0.75445,-0.0469 v 0 c 0.007,-0.0302 0.0219,-0.0712 -0.009,0.008 -0.002,0.006 0.007,-0.011 0.0111,-0.0164 0.0354,-0.0399 0.0716,-0.0593 0.11072,-0.0591 0.0629,0.004 0.11163,0.0413 0.1487,0.0926 0.0533,0.10453 0.006,0.15309 -0.056,0.25493 -0.0325,0.0255 -0.10634,0.0928 -0.16022,0.067 -0.0153,-0.007 0.099,0.01 0.0507,0.003 0.52914,0.0756 0.63604,-0.67272 0.1069,-0.74831 z" />
  <path
     style="fill:#000000"
     id="path8-89-9"
     d="m 38.172511,2.2036621 c -0.16014,-0.0225 -0.3371,-0.007 -0.47122,0.0935 -0.0391,0.0292 -0.071,0.0671 -0.10658,0.10062 -0.0275,0.0573 -0.0626,0.11164 -0.0826,0.17203 -0.0425,0.12847 -0.003,0.31489 0.0608,0.43049 0.0179,0.0324 0.0415,0.0612 0.0622,0.0918 0.11959,0.13241 0.28526,0.20454 0.46409,0.19987 0.035,-9.1e-4 0.0696,-0.008 0.10442,-0.0113 0.19032,-0.0461 0.29833,-0.12476 0.40831,-0.28515 0.0421,-0.0807 0.0855,-0.16349 0.1013,-0.25425 0.005,-0.0304 0.007,-0.0612 0.0112,-0.0918 0.0332,-0.53348 -0.7213,-0.58037 -0.75445,-0.0469 v 0 c 0.007,-0.0302 0.0219,-0.0712 -0.009,0.008 -0.002,0.006 0.007,-0.011 0.0111,-0.0164 0.0354,-0.0399 0.0716,-0.0593 0.11072,-0.0591 0.0629,0.004 0.11163,0.0413 0.1487,0.0926 0.0533,0.10453 0.006,0.15309 -0.056,0.25493 -0.0325,0.0255 -0.10634,0.0928 -0.16022,0.067 -0.0153,-0.007 0.099,0.01 0.0507,0.003 0.52914,0.0756 0.63604,-0.67272 0.1069,-0.74831 z" />
  <path
     style="fill:#000000"
     id="path11"
     d="m 27.669921,0.44065212 c -0.52568,0.0599 -1.05318,0.10075 -1.57896,0.15991 -0.62671,0.0577 -1.24652,0.16765 -1.86883,0.25801 -0.64381,0.0779 -1.28972,0.13359 -1.93233,0.22136998 -0.59848,0.0725 -1.19137,0.18237 -1.7863,0.27834 -0.74163,0.12217 -1.49053,0.19028 -2.23612,0.28252 -0.67106,0.0844 -1.34506,0.13716 -2.02037,0.17113 -0.60008,0.0213 -1.19961,0.0213 -1.79675,0.0893 -0.50671,0.0486 -1.00299,0.15608 -1.49588,0.27903 -0.56067,0.15406 -1.11787,0.32078 -1.67127,0.49914 -0.6079,0.19949 -1.21692,0.39531 -1.8238498,0.59778 -0.62742,0.2334 -1.27031,0.4189 -1.91637,0.59228 -0.62992,0.17216 -1.26573,0.31994 -1.88557,0.52649 -0.44838,0.14728 -0.85849,0.38541 -1.24439,0.6533 -0.3316,0.25618 -0.67674,0.49362 -1.02521,0.72609 -0.31771,0.1919 -0.62368,0.39782 -0.88191,0.66574 -0.24348,0.2564 -0.37473,0.58026 -0.49063,0.90788 -0.10948,0.33849 -0.2247,0.67504 -0.33973,1.01167 -0.12093,0.39344 -0.30104,0.76285 -0.47334,1.13531 -0.17598,0.41654 -0.40275006,0.8079299 -0.59247006,1.2178499 -0.18372,0.39507 -0.30026,0.81377 -0.38875,1.23879 -0.0801,0.37095 -0.11787,0.74751 -0.15649,1.12431 -0.0411,0.39262 -0.0685,0.78661 -0.0639000066,1.18143 0.0226000066,0.42405 0.0810000066,0.84437 0.14003000658,1.26446 0.0495,0.36408 0.0682,0.72962 0.13635,1.0909 0.0658,0.38424 0.1924,0.75003 0.32802,1.11388 0.12754,0.30122 0.22904,0.62131 0.41081006,0.8965 0.0426,0.0644 0.0923,0.12386 0.13843,0.18579 0.34809,0.3862 0.8263,0.60968 1.3191,0.75227 0.14441,0.0418 0.29186,0.0722 0.43779,0.10832 1.20238,0.26678 2.42849,0.39755 3.64914,0.54828 1.1786,0.15104 2.36003,0.27765 3.5398898,0.41796 0.54543,0.0734 1.09411,0.14152 1.62926,0.27334 0.29358,0.0894 0.58915,0.17253 0.88546,0.25241 0.64932,0.18356 1.31728,0.28467 1.9826,0.38939 0.99385,0.14103 1.99352,0.23765 2.99524,0.29986 0.88975,0.0465 1.78096,0.05 2.67169,0.053 0.36137,0.008 0.7232,-0.008 1.08454,8e-5 0.3051,0.007 0.61071,0.0344 0.91517,0.0537 0.72042,0.0556 1.4414,0.10481 2.16308,0.14078 0.87929,0.0389 1.75952,0.0317 2.63868,0.0727 0.78414,0.0527 1.56745,0.1172 2.35181,0.16671 0.47872,0.0356 0.95899,0.0323 1.43839,0.0482 0.1652,0.005 0.61924,0.0321 0.77812,0.041 0.88764,0.0432 1.77413,0.10619 2.66151,0.15409 0.51712,0.0204 1.03469,0.0525 1.5525,0.0426 0.31029,-0.006 0.41893,-0.0175 0.73036,-0.0392 0.63124,-0.0411 1.25859,-0.11851 1.88421,-0.20967 0.5583,-0.0865 1.11688,-0.16815 1.6725,-0.27073 0.7826,-0.1364 1.56173,-0.29185 2.33583,-0.47022 0.68155,-0.18698 1.36302,-0.3738 2.0458,-0.55639 0.92043,-0.28001 1.85646,-0.50047 2.79201,-0.7224 0.76362,-0.18532 1.52425,-0.38493 2.29359,-0.54542 0.66664,-0.12389 1.33184,-0.25651 1.99505,-0.39768 0.27288,-0.0674 0.55041,-0.11939 0.81658,-0.21158 0.0677,-0.0234 0.31247,-0.11932 0.38102,-0.14597 0.44865,-0.17715 0.87039,-0.41139 1.29308,-0.64156 0.42673,-0.21317 0.81085,-0.49328 1.18197,-0.79008 0.21008,-0.1826 0.37027,-0.41031 0.54626,-0.62339 0.008,-0.009 0.25954,-0.3014 0.25961,-0.30148 0.29857,-0.34653 0.6305,-0.66178 0.95131,-0.98718 0.32831,-0.32881 0.62014,-0.68652 0.88262,-1.06903 0.25343,-0.37178 0.37686,-0.8063 0.46402,-1.24238 0.12714,-0.62498 -0.0148,-1.18887 -0.17548,-1.78958 -0.14828,-0.53883 -0.31092,-1.07354 -0.46423,-1.6109399 -0.12531,-0.43985 -0.23855,-0.88288 -0.3505,-1.32627 -0.10985,-0.45749 -0.24431,-0.90916 -0.40812,-1.35019 -0.16378,-0.44334 -0.37777,-0.86561 -0.5951,-1.28451 -0.20122,-0.3788 -0.40702,-0.75507 -0.63909,-1.11595 -0.26943,-0.41778 -0.59329,-0.79608 -0.94484,-1.14619 -0.39862,-0.38353 -0.84829,-0.70567 -1.2894,-1.03709 -0.35392,-0.26646 -0.74383,-0.47835 -1.11577,-0.71754 -0.26487,-0.16809 -0.52316,-0.34612 -0.79393,-0.5047 -0.2806,-0.16194 -0.5613,-0.32227 -0.84702,-0.47517 -0.3269,-0.16839998 -0.65947,-0.32546998 -0.99275,-0.48074998 -0.35522,-0.1509 -0.72798,-0.25449 -1.10151,-0.34867 -0.44325,-0.10693 -0.8947,-0.15916 -1.34881,-0.18857 -0.47521,-0.0208 -0.95133,-0.0315 -1.42684,-0.0173 -0.51839,0.0186 -1.03606,0.0507 -1.5541,0.0766 -0.70748,0.0316 -1.41582,0.0349 -2.12388,0.0389 -0.70146,0.0127 -1.40244,-0.0168 -2.10351,-0.0347 -0.77219,-0.0183 -1.54462,-0.0217 -2.31699,-0.0242 -0.77607,0.007 -1.55173,-0.0184 -2.32743,-0.0381 -0.6316,-0.0165 -1.26341,-0.021 -1.89519,-0.0235 -0.65709,3.6e-4 -1.31423,-0.007 -1.9712,0.006 -0.70945,0.0115 -1.41769,0.0485 -2.125,0.10306 -0.44606,0.052 -0.89369,0.0882 -1.3397,0.14024 -0.27095,0.0319 -0.53473,0.0972 -0.79563,0.17461 -0.0267,0.007 -0.0533,0.0146 -0.08,0.0219 -0.51534,0.14184 -0.31475,0.87064998 0.2006,0.72879998 v 0 c 0.0315,-0.009 0.063,-0.0174 0.0945,-0.0261 0.21925,-0.0651 0.4402,-0.12194 0.66808,-0.14845 0.43623,-0.0509 0.87408,-0.086 1.3103,-0.13737998 0.69319,-0.0535 1.38727,-0.0898 2.08256,-0.10099 0.65075,-0.0137 1.30168,-0.006 1.95255,-0.006 0.62636,0.002 1.25274,0.007 1.87892,0.0232 0.78126,0.0198 1.56248,0.0456 2.34411,0.0384 0.76676,0.003 1.53357,0.006 2.30015,0.024 0.70894,0.0181 1.41781,0.0477 2.12715,0.035 0.7192,-0.004 1.43869,-0.008 2.15731,-0.0399 0.51325,-0.0257 1.02613,-0.0575 1.53972,-0.076 0.45157,-0.0145 0.90381,-0.002 1.35512,0.0161 0.40847,0.0259 0.81443,0.0719 1.21329,0.1674 0.32734,0.0816 0.65373,0.17245998 0.96626,0.30070998 0.32066,0.1493 0.64053,0.30049 0.95526,0.462 0.27759,0.14854 0.5504,0.304 0.82284,0.46166 0.26206,0.15205 0.50978,0.32682 0.76633,0.4878 0.35668,0.22872 0.72958,0.43275 1.07017,0.68584 0.41365,0.31073 0.83613,0.61166 1.21138,0.96968 0.31454,0.30973 0.60084,0.64841 0.84172,1.01906 0.22033,0.34015 0.41214,0.69717 0.60331,1.0543 0.20328,0.39163 0.40442,0.78601 0.55778,1.20046 0.15537,0.41469 0.27952,0.84073 0.38348,1.27111 0.11383,0.45086 0.22908,0.90134 0.3565,1.3485999 0.15222,0.53348 0.31354,1.06434 0.46098,1.59917 0.12756,0.47539 0.26614,0.9531 0.16389,1.44834 -0.0643,0.3353 -0.15351,0.6735 -0.34567,0.96048 -0.0322,0.047 -0.1649,0.24185 -0.20098,0.28956 -0.18153,0.24006 -0.39349,0.45515 -0.59664,0.67641 -0.33248,0.33749 -0.67649,0.66447 -0.98549,1.02426 -0.23697,0.27493 -0.45756,0.56359 -0.70575,0.82831 -0.33613,0.26947 -0.68323,0.52442 -1.07102,0.71629 -0.39441,0.21478 -0.78727,0.43467 -1.20554,0.60091 -0.008,0.003 -0.3119,0.12154 -0.33613,0.13012 -0.24219,0.0858 -0.49665,0.12927 -0.745,0.19262 -0.66221,0.14117 -1.32657,0.27307 -1.99221,0.39708 -0.77586,0.16246 -1.54336,0.36225 -2.31341,0.54985 -0.94251,0.22358 -1.88551,0.44571 -2.81284,0.72765 -0.67433,0.18034 -1.34755,0.36424 -2.02037,0.55006 -0.76323,0.17617 -1.53161,0.32883 -2.30325,0.46346 -0.54621,0.10093 -1.09537,0.18089 -1.6442,0.26606 -0.60705,0.0885 -1.21572,0.16396 -1.82826,0.20363 -0.73077,0.0518 -1.45786,0.0423 -2.18911,-0.004 -0.88679,-0.0478 -1.77269,-0.11086 -2.65975,-0.15399 -0.19343,-0.0109 -0.6124,-0.0356 -0.80738,-0.0421 -0.46793,-0.0156 -0.93674,-0.0121 -1.40402,-0.0469 -0.78853,-0.0497 -1.57597,-0.11494 -2.36432,-0.1674 -0.87835,-0.0406 -1.75768,-0.0348 -2.63617,-0.0726 -0.71823,-0.0357 -1.43573,-0.0849 -2.15271,-0.14019 -0.3208,-0.0204 -0.64236,-0.0483 -0.96384,-0.0553 -0.36025,-0.008 -0.72099,0.008 -1.08127,-7e-5 -0.87598,-0.003 -1.75244,-0.006 -2.62748,-0.0516 -0.97805,-0.0605 -1.95404,-0.15504 -2.92447,-0.29211 -0.63867,-0.10053 -1.2802,-0.19625 -1.90351,-0.37256 -0.30216,-0.0813 -0.60315,-0.16715 -0.90292,-0.2569 -0.56534,-0.13681 -1.14294,-0.21474 -1.71916,-0.28959 -1.1787398,-0.14017 -2.3590398,-0.26666 -3.5365098,-0.41755 -1.19138,-0.14711 -2.38811,-0.27408 -3.56208,-0.53231 -0.4733,-0.11438 -0.97934,-0.23169 -1.33694,-0.58658 -0.20997,-0.25982 -0.31719,-0.57928 -0.44059,-0.88607 -0.12082,-0.32414 -0.23669,-0.64858 -0.29379,-0.99145 -0.0673,-0.34876 -0.0782,-0.70326 -0.13034006,-1.05453 -0.0547,-0.38881 -0.10903,-0.77761 -0.13274,-1.16988 -0.006,-0.36551 0.0236,-0.73028 0.06,-1.09379 0.0359,-0.35108 0.0697,-0.70203 0.14464,-1.04765 0.0764,-0.36895 0.17529006,-0.73284 0.33500006,-1.07578 0.18857,-0.41012 0.41783,-0.80015 0.59216,-1.2171699 0.18328,-0.39623 0.37311,-0.79006 0.50257,-1.20824 0.11426,-0.33437 0.22888,-0.66862 0.33739,-1.00492 0.0802,-0.2286 0.16027,-0.46085 0.3288,-0.64169 0.20918,-0.2343 0.49146,-0.3831 0.75046,-0.55441 0.35287,-0.23568 0.70307,-0.47555 1.03878,-0.73536 0.32435,-0.22902 0.67261,-0.42984 1.05069,-0.55578 0.6051,-0.20276 1.22727,-0.34358 1.84206,-0.51339 0.66051,-0.17747 1.31794,-0.36692 1.95954,-0.60527 0.6045498,-0.20168 1.2111698,-0.39674 1.8166798,-0.59543 0.53716,-0.17338 1.07819,-0.33483 1.62226,-0.48513 0.4611,-0.1151 0.92508,-0.21686 1.39932,-0.26151 0.58085,-0.0677 1.16466,-0.0616 1.74835,-0.0853 0.69361,-0.035 1.3859,-0.0892 2.07516,-0.1759 0.75479,-0.0935 1.51294,-0.16234 2.26366,-0.28645 0.58896,-0.095 1.17589,-0.20388 1.76836,-0.27566 0.64467,-0.0883 1.29287,-0.14272 1.93863,-0.22226 0.61426,-0.0894 1.22609,-0.19782 1.84471,-0.25489 0.52263,-0.059 1.04702,-0.0992 1.56954,-0.15892 0.53186,-0.0532 0.45664,-0.80533998 -0.0752,-0.75214998 z" />
</svg>
