<?xml version="1.0" encoding="UTF-8" standalone="no"?>
<!-- Created with Inkscape (http://www.inkscape.org/) -->

<svg
   width="296.99997mm"
   height="210mm"
   viewBox="0 0 1122.5196 793.70081"
   version="1.1"
   id="svg1"
   xmlns="http://www.w3.org/2000/svg"
   xmlns:svg="http://www.w3.org/2000/svg">
  <defs
     id="defs1" />
  <g
     id="layer1">
    <path
       style="fill:#000000"
       id="path102"
       d="m 74.549989,320.90836 c 6.70705,-0.0656 13.4158,-0.0805 20.07816,0.7672 1.34646,0.35034 3.38141,0.4982 4.2379,1.86632 0.49154,0.78517 0.56537,2.85271 0.64397,3.64686 0.15818,4.72448 -0.67407,9.41032 -1.3885,14.06054 -0.20838,1.35634 -1.24971,8.29804 -1.44959,9.629 -1.71333,9.94753 -2.40083,20.01426 -2.8204,30.08574 -0.33102,7.69228 -0.43046,15.37646 0.31401,23.04403 0.53831,5.07369 1.29233,10.12849 2.57345,15.07003 0.70986,3.32431 2.10227,6.20126 5.328351,7.78724 2.48371,1.22102 5.12337,1.36322 7.8044,1.75241 14.73343,0.99823 29.52982,0.89706 44.29036,0.76537 12.8436,-0.0326 25.67489,-0.64723 38.43288,-2.12967 5.92197,-0.66319 11.77498,-1.78788 17.65248,-2.74297 2.80825,-0.56107 5.73296,-1.12108 8.26104,-2.54471 0.5103,-0.28736 0.98268,-0.63739 1.47402,-0.95609 0.53825,-0.57759 1.16209,-1.08592 1.61474,-1.73278 2.85525,-4.08032 2.23981,-9.70298 1.87246,-14.34773 -1.26404,-9.33306 -2.6824,-18.641 -3.66402,-28.01013 -0.83033,-8.52953 -1.01836,-17.10066 -1.12193,-25.664 -0.007,-6.29511 0.34337,-12.57387 0.84757,-18.84529 0.43791,-2.99761 0.62257,-6.04009 1.1202,-9.02798 0.24477,-1.96734 0.632,-2.05005 2.37502,-2.76718 3.35618,-1.00087 6.91615,-1.05584 10.38823,-1.30131 3.73679,-0.27628 7.52996,-0.39774 11.18454,-1.28619 0.16589,-0.0455 0.55057,0.0273 0.49767,-0.13638 -0.77789,-2.40652 -1.53675,-4.86422 -2.81877,-7.04433 -0.19793,-0.33658 -0.74455,0.23565 -1.11796,0.34982 -1.93176,0.59058 -3.89169,1.08396 -5.83897,1.62085 -6.46061,1.44127 -12.9614,2.72969 -19.48145,3.87515 -6.36808,1.03007 -12.81899,1.31364 -19.25741,1.47252 -5.12027,0.0279 -10.24803,0.20223 -15.36589,-0.01 -5.11449,-0.34385 -10.2379,-0.47375 -15.36208,-0.55591 -6.06325,-0.0774 -12.12712,-0.082 -18.19077,-0.0857 -5.34089,-7.6e-4 -10.68177,0.002 -16.02265,0.003 -5.4383,-0.0621 -10.88177,0.12037 -16.3175,-0.0793 -3.71481,-0.1202 -7.40991,-0.43716 -11.10359,-0.83009 -1.69388,-0.18882 -3.42251,-0.37688 -5.071401,-0.82612 -5.18667,-1.30256 -7.02876,6.03251 -1.84208,7.33506 v 0 c 2.00783,0.48287 4.056101,0.82526 6.113471,1.01146 3.86999,0.41168 7.74253,0.73949 11.63431,0.86773 5.5267,0.19153 11.05946,0.0335 16.58858,0.084 5.33874,-10e-4 10.67747,-0.004 16.0162,-0.003 6.02488,0.004 12.04996,0.008 18.07445,0.0847 5.06377,0.0808 10.12652,0.21114 15.18071,0.55084 5.28195,0.20488 10.57183,0.0572 15.85601,0.0134 6.81459,-0.17029 13.64151,-0.48236 20.37984,-1.58454 6.75514,-1.18968 13.49346,-2.51503 20.1821,-4.03302 2.03047,-0.56024 4.07249,-1.07803 6.08693,-1.69383 0.36001,-0.11005 1.09387,0.0387 1.0778,-0.33736 -0.10833,-2.53376 -0.82754,-5.00822 -1.41184,-7.47606 -0.0268,-0.11317 -0.22403,0.0625 -0.33605,0.0937 -3.1946,0.86169 -6.60212,0.7318 -9.86866,1.07525 -4.43795,0.31503 -8.99702,0.39989 -13.18754,2.05683 -0.64728,0.33937 -1.32681,0.6233 -1.94184,1.01812 -2.62551,1.68547 -4.21829,4.26199 -4.56762,7.34484 -0.49452,3.18949 -0.76516,6.41515 -1.19051,9.61463 -0.52267,6.5034 -0.88095,13.01514 -0.87133,19.54296 0.10693,8.79629 0.30534,17.60039 1.16267,26.36154 0.97874,9.31394 2.36317,18.57113 3.64859,27.84583 0.27011,3.08422 0.48483,6.16307 -0.20735,9.2047 -1.89757,1.4639 -4.41274,1.7979 -6.69221,2.28695 -5.76451,0.93864 -11.50534,2.04094 -17.31315,2.69564 -12.4893,1.45822 -25.05236,2.04338 -37.6257,2.07919 -14.39676,0.12954 -28.82448,0.21314 -43.19821,-0.69598 -1.06904,-0.13428 -5.58956,-0.52631 -5.92473,-1.06881 -0.39384,-0.63747 -0.7653,-2.32393 -0.91496,-2.88857 -1.19889,-4.55196 -1.85044,-9.22312 -2.36419,-13.89742 -0.72567,-7.31646 -0.58484,-14.65125 -0.28441,-21.99174 0.40629,-9.80077 1.07013,-19.59712 2.74305,-29.27658 0.22686,-1.51054 1.2066,-8.042 1.44307,-9.58642 0.82244,-5.37144 1.76355,-10.79137 1.40953,-16.24832 -0.38351,-2.43425 -0.38547,-3.86025 -1.59006,-6.05843 -2.06195,-3.76273 -5.828591,-5.25657 -9.849691,-5.93748 -6.97642,-0.85427 -13.99152,-0.92301 -21.01375,-0.8253 -5.34773,0 -5.34773,7.56284 0,7.56284 z" />
    <path
       style="fill:#cccccc;stroke-width:0.695454"
       d="m 117.65546,421.13972 c -7.88458,-0.38698 -11.27754,-0.8145 -11.97032,-1.5083 -2.78304,-2.78715 -4.55854,-22.00603 -3.7272,-40.34496 0.59299,-13.08088 0.96228,-16.56368 3.71508,-35.03683 0.96897,-6.5025 1.76466,-13.49674 1.76818,-15.54276 l 0.006,-3.72005 52.55291,0.24278 52.55292,0.24277 -0.42515,1.73864 c -0.23382,0.95625 -0.60825,9.8907 -0.83204,19.85434 -0.44094,19.63144 0.0973,28.59015 2.94356,48.99558 1.9288,13.8278 2.056,16.6352 0.82927,18.30086 -1.35907,1.84534 -16.49298,4.5461 -33.65064,6.0052 -11.40343,0.96975 -50.17523,1.43962 -63.76299,0.77273 z"
       id="path103" />
  </g>
</svg>
