<?xml version="1.0" encoding="UTF-8" standalone="no"?>
<!-- Created with Inkscape (http://www.inkscape.org/) -->

<svg
   width="56.613346mm"
   height="8.3843498mm"
   viewBox="0 0 213.9717 31.688882"
   version="1.1"
   id="svg1"
   xmlns="http://www.w3.org/2000/svg"
   xmlns:svg="http://www.w3.org/2000/svg">
  <defs
     id="defs1" />
  <g
     id="layer1"
     transform="translate(-156.88845,-105.02044)">
    <path
       style="fill:#000000"
       id="path16"
       d="m 244.34663,110.41629 a 102.2861,13.277522 0 0 1 120.48657,10.38992 102.2861,13.277522 0 0 1 -80.03312,15.64075 102.2861,13.277522 0 0 1 -120.49684,-10.38791 102.2861,13.277522 0 0 1 80.01766,-15.64208 l 20.24603,13.01482 z" />
    <path
       style="fill:#808080"
       id="path16-8"
       d="m 244.65776,105.28246 a 102.2861,13.277522 0 0 1 120.48657,10.38991 102.2861,13.277522 0 0 1 -80.03312,15.64075 102.2861,13.277522 0 0 1 -120.49684,-10.38791 102.2861,13.277522 0 0 1 80.01765,-15.64208 l 20.24603,13.01483 z" />
    <path
       style="fill:#000000"
       id="path17"
       d="m 162.19867,120.09172 c -0.0298,0.22919 -0.0409,0.4598 -0.0678,0.68924 -0.0288,0.22004 -0.0444,0.44133 -0.053,0.66298 -0.0149,0.22375 2.2e-4,0.4436 0.0375,0.66443 0.0363,0.21049 0.12178,0.40759 0.17057,0.61466 0.0551,0.14369 0.0768,0.29925 0.13151,0.44292 0.0218,0.0572 0.0493,0.11206 0.0739,0.16809 0.31361,0.5631 0.89478,0.76771 1.49369,0.48493 0.27222,-0.12853 0.37066,-0.31602 0.52699,-0.53898 0.26951,-0.47846 0.33342,-0.95774 0.32515,-1.49724 -0.01,-0.34766 -0.12608,-0.67051 -0.24634,-0.99137 -0.0875,-0.17607 -0.0962,-0.22702 -0.16846,-0.38918 -0.099,-0.18837 -0.20407,-0.38446 -0.36871,-0.52533 -0.0581,-0.0497 -0.11836,-0.0969 -0.17755,-0.1454 -0.0813,-0.0604 0.0264,0.0187 -0.13377,-0.0913 -0.008,-0.006 0.0194,0.007 0.0268,0.0144 0.0999,0.0941 0.11306,0.14177 0.0977,0.0905 0.0177,0.0181 0.0108,0.0131 -0.006,-0.0247 -0.58193,-1.2029 -2.28308,-0.37992 -1.70115,0.82298 v 0 c 0.0754,0.15287 0.0333,0.0729 0.12799,0.23913 0.13426,0.19773 0.31361,0.38079 0.49363,0.489 -0.0277,-0.026 -0.0542,-0.0533 -0.083,-0.0781 -0.0144,-0.0124 0.0477,0.0581 0.0397,0.0409 -0.13498,-0.29139 -0.006,0.0912 -0.041,-0.062 0.008,0.0179 0.0131,0.0375 0.024,0.0538 0.007,0.01 -0.0146,-0.0446 -0.0105,-0.0336 0.0345,0.0915 0.0634,0.18763 0.11228,0.27317 0.001,0.002 -3e-5,-0.005 -4e-5,-0.008 0.047,0.12439 0.10603,0.24605 0.12576,0.37855 0.009,0.14827 0.004,0.29262 -0.0347,0.43598 0.0784,-0.0488 0.14654,-0.11972 0.23466,-0.1475 0.41778,-0.1317 0.8297,-0.0408 1.03711,0.37158 0.007,0.0208 0.0154,0.0413 0.0217,0.0625 0.002,0.008 0.006,0.0324 0.004,0.0244 -0.0288,-0.10579 -0.0527,-0.21316 -0.0913,-0.3161 -0.0446,-0.17508 -0.10339,-0.34552 -0.14954,-0.51967 -0.002,0.005 -0.007,0.0225 -0.007,0.0165 -0.005,-0.0825 0.005,-0.16587 0.003,-0.24838 0.006,-0.1722 0.0187,-0.34404 0.0416,-0.51492 0.0249,-0.2136 0.039,-0.42776 0.0616,-0.64153 0.18898,-1.32284 -1.68179,-1.59009 -1.87077,-0.26725 z" />
    <path
       style="fill:#000000"
       id="path1"
       d="m 366.60303,122.21254 c 0.2267,-0.98481 0.53079,-1.94888 0.74913,-2.93566 0.19974,-0.96721 0.20888,-1.95822 0.22536,-2.94157 -0.009,-0.42097 0.25881,-2.0111 -0.73238,-1.65375 -0.16208,0.0584 -0.19604,0.28337 -0.29405,0.42505 -0.54793,1.23607 -0.96467,2.53488 -1.32061,3.83883 -0.30373,0.93049 -0.36358,1.95782 -0.71542,2.87218 1.09526,0.0831 0.65868,-0.0117 0.97615,-0.63842 0.009,-0.0176 0.0336,0.0467 0.0166,0.0567 -0.32926,0.19414 -0.33804,-0.0172 -0.27574,0.23662 0.19605,0.46044 0.38369,1.22476 1.10634,0.77296 0.1989,-0.12435 0.29915,-0.69416 0.34719,-0.89128 -0.50697,0.53237 0.24865,-0.58923 0.1103,-0.49315 -0.0523,0.0363 -0.11747,0.20048 -0.0563,0.18262 0.29487,-0.0861 0.35165,-0.15413 0.60731,-0.32624 0.39342,-0.33982 0.18536,-0.13877 0.54484,-0.53907 0.0614,-0.0684 0.11619,-0.14354 0.18542,-0.20394 0.0101,-0.009 0.053,0.008 0.0396,0.008 -0.43152,-0.009 -0.29725,0.066 -0.50025,-0.0999 0.0818,-0.04 -0.23639,0.51081 -0.2313,0.50365 0.12033,-0.16911 0.22343,-0.10968 0.13815,-0.29771 -0.15603,-0.0527 -0.16461,-1.03544 -0.2516,-1.0304 -0.86436,0.05 -0.75892,0.0512 -0.7963,0.56679 0.009,0.47229 -0.28612,1.75905 0.744,0.50882 0.11543,-0.1401 0.0214,-0.36264 0.0432,-0.54285 0.0253,-0.20891 0.0653,-0.41577 0.098,-0.62365 0.0652,-0.31708 0.0851,-0.59587 0.24843,-0.87469 0.0139,-0.0238 0.10047,-0.0448 0.0741,-0.0368 -0.61351,0.18762 -0.40104,0.14754 -0.36395,0.80438 -0.0737,0.40219 -0.034,1.68884 -0.30729,1.97081 -0.21132,0.29066 -0.32555,0.64694 -0.46211,0.97708 -0.033,0.0798 -0.18972,0.23752 -0.1034,0.23743 0.13593,-1.4e-4 0.22091,-0.15844 0.33137,-0.23766 0.0759,-0.008 0.19816,0.0461 0.22776,-0.0243 0.0669,-0.15906 -0.003,-0.34515 2.1e-4,-0.51768 0.004,-0.2423 0.006,-0.48485 0.0225,-0.72665 0.0456,-0.68583 0.15302,-1.36829 0.26015,-2.04651 0.0215,-0.0572 0.12579,-0.17334 0.0646,-0.17174 -0.78484,0.0206 -0.65208,0.36435 -0.7252,0.95279 -0.0722,0.58098 -0.0931,0.67903 -0.18339,1.23536 -0.0237,0.0683 -0.14089,0.22437 -0.0712,0.20502 0.26337,-0.0731 0.56971,-0.16012 0.7234,-0.38616 0.12955,-0.19052 0.005,-0.46076 0.009,-0.69111 0.0119,-0.61341 0.0309,-1.2265 0.062,-1.83922 0.005,-0.0236 0.0375,-0.0734 0.0136,-0.0708 -0.24876,0.0266 -0.5314,0.004 -0.7358,0.14795 -0.0571,0.0403 0.0153,1.04842 0.0256,1.38902 0.25258,-0.0954 0.57778,-0.0848 0.75772,-0.28611 0.12501,-0.13983 8.8e-4,-0.37513 10e-4,-0.56269 0.001,-1.08183 7.4e-4,-2.16366 5.8e-4,-3.24549 -6e-5,-0.12852 0.12836,-0.38486 -1.6e-4,-0.38556 -0.93148,-0.005 -0.74347,0.44897 -0.79708,0.99727 -0.026,0.26633 -0.0573,0.53228 -0.0972,0.79689 -0.0688,0.45582 -0.233,1.27527 -0.32124,1.72916 -0.0368,0.18978 -0.21951,1.14829 -0.27934,1.39798 -0.0241,0.10066 -0.19385,0.30821 -0.091,0.29692 0.83777,-0.092 0.61018,-0.56097 0.64563,-1.09554 0.12373,0.24113 -0.49116,0.0509 -0.66508,0.20431 -0.10626,0.0937 -0.002,0.28341 -0.006,0.42506 -0.0141,0.51764 -0.0836,1.0184 0.006,1.52948 0.25617,0.002 0.54808,0.13659 0.7685,0.006 0.16361,-0.0969 0.11342,-0.36374 0.15038,-0.55025 0.1591,-0.80285 0.18363,-1.63932 0.264,-2.45278 0.008,-0.0365 0.0613,-0.10966 0.0239,-0.10937 -0.24452,0.002 -0.51818,-0.0164 -0.72453,0.11484 -0.0957,0.0609 0.007,0.2268 0.009,0.34023 0.0106,0.57892 0.0114,1.15794 0.0132,1.73693 0.47899,-0.30265 -0.2412,0.76356 3e-4,0.73104 0.29894,-0.0403 0.6299,-0.13287 0.83134,-0.35738 0.0661,-0.0736 0.309,-2.04828 0.3372,-2.25823 -0.0407,-0.53735 0.19847,-1.03928 0.28264,-1.55129 0.009,-0.0555 -0.0177,0.1365 -0.0715,0.15292 -0.57542,0.17547 -0.5123,-0.25372 -0.44169,0.3517 0.0498,0.52316 0.0619,1.04864 0.0838,1.57337 0.003,0.0755 -0.0626,0.24093 0.0115,0.22648 0.88731,-0.17279 0.75209,-0.2581 0.80638,-0.87479 0.21112,-1.53116 0.7861,-2.98272 1.47113,-4.35857 0.044,-0.0852 0.65843,-1.13352 0.82072,-1.03004 0.0428,0.0273 -0.0784,0.0656 -0.11025,0.10517 -0.0634,0.0788 -0.0344,0.15247 -0.0311,0.2514 -0.0118,0.0847 -0.01,0.17243 -0.0353,0.25406 -0.24528,0.78736 -0.7613,1.65143 -1.09345,2.42206 -0.15163,0.30929 -0.24658,0.55998 -0.45799,0.82288 -0.0358,0.0445 -0.1871,0.12101 -0.1311,0.11004 0.0931,-0.0182 0.1661,-0.0918 0.25129,-0.13358 0.19452,-0.0953 0.12248,0.0397 0.0572,-0.3273 -0.0355,-0.97417 0.34132,-1.88896 0.76401,-2.74675 0.0322,-0.0539 0.15939,-0.15752 0.0967,-0.16172 -0.25528,-0.0171 -0.54306,-0.0206 -0.75856,0.1173 -0.13264,0.0849 -0.0892,0.30207 -0.13299,0.45336 -0.18069,0.62487 -0.33235,1.25025 -0.46911,1.8861 -0.0363,0.17177 -0.0595,0.34681 -0.10884,0.5153 -0.0396,0.13525 -0.29459,0.5238 0.37241,0.0481 0.0727,-0.0518 -0.009,-0.179 1.1e-4,-0.26775 0.0174,-0.16305 0.0534,-0.32357 0.0801,-0.48535 0.0248,-0.2737 0.85246,-2.22803 0.81269,-2.26359 -0.18458,-0.16507 -0.44258,-0.22227 -0.66388,-0.3334 -0.85603,0.68297 -1.30863,1.70643 -1.61101,2.73184 -0.0501,0.47628 -0.67637,1.67167 0.48626,0.94373 0.0784,-0.0491 -0.014,-0.1849 -0.0109,-0.27738 0.004,-0.13393 0.0225,-0.26707 0.0337,-0.40061 0.1342,-1.0191 0.37223,-1.941 1.15111,-2.64551 0.1486,-0.14026 1.23035,-1.04255 1.40167,-0.699 -0.0132,0.005 -0.0265,0.0104 -0.0397,0.0156 -0.0381,-0.0318 -0.0652,-0.10225 -0.1143,-0.0953 -0.0611,0.009 -0.0887,0.0858 -0.13161,0.13005 -0.11345,0.11703 -0.22,0.24086 -0.3375,0.35383 -0.31869,0.30639 -0.65489,0.59405 -0.9791,0.8946 0.0287,0.0521 -1.06068,0.93953 -1.05732,0.94537 0.12814,0.22272 0.31308,0.44601 0.5536,0.53643 0.11279,0.0424 0.1898,-0.14853 0.28633,-0.22066 0.12906,-0.0964 0.26025,-0.19001 0.39037,-0.28502 0.43159,-0.31531 -0.0143,-0.92568 -0.44592,-0.61036 v 0 c -0.50994,0.37279 -1.00173,0.45344 -0.29942,1.15944 0.0129,0.013 1.03426,-0.90358 1.08627,-0.97087 0.53014,-0.49153 1.94103,-1.438 1.64955,-2.29604 -0.0358,-0.10524 -0.15558,-0.15878 -0.23337,-0.23817 -0.11828,-0.0431 -0.23041,-0.11024 -0.35485,-0.12936 -0.72849,-0.11192 -1.38314,0.55351 -1.89257,0.95884 -0.96402,0.93293 -1.2064,1.83588 -1.38693,3.13852 -0.0154,0.21871 -0.0743,0.82985 -0.0122,0.87353 1.02428,0.72066 0.82373,-0.29997 0.98279,-0.87059 0.23816,-0.83266 0.59716,-1.64972 1.224,-2.2672 -0.14083,-0.15148 -0.27068,-0.31397 -0.42249,-0.45445 -0.0154,-0.0143 0.006,0.0431 -3.9e-4,0.0631 -0.0349,0.10919 -0.0762,0.21644 -0.12235,0.32135 -0.27015,0.61377 -0.57839,1.21244 -0.69063,1.88373 -0.0219,0.17123 -0.18324,0.97506 -0.0122,1.19034 0.76811,0.96679 1.06055,-0.18044 1.15569,-0.73441 0.13285,-0.61947 0.28349,-1.22677 0.45659,-1.83616 0.0512,-0.18026 0.22486,-0.36816 0.15263,-0.54108 -0.11458,-0.27427 -0.37672,-0.48184 -0.63866,-0.62235 -0.0725,-0.0389 -0.0829,0.14203 -0.12438,0.21304 -0.49288,1.00979 -0.91646,2.08571 -0.8259,3.23089 0.40355,1.81724 1.32523,0.66112 1.71544,-0.32438 0.32999,-0.76672 0.9867,-1.87472 1.15273,-2.66125 0.0322,-0.15255 0.0146,-0.31148 0.022,-0.46722 -0.51514,-1.87704 -1.60437,-0.44037 -2.09651,0.49046 -0.72479,1.46167 -1.33147,3.00286 -1.54728,4.62987 -0.0553,0.65154 -0.23393,0.72668 0.70164,0.90121 0.0709,0.0132 -0.008,-0.14403 -0.0111,-0.21609 -0.0229,-0.54984 -0.0356,-1.10051 -0.0904,-1.64851 -0.0734,-0.47979 0.003,-0.77429 -0.70213,-0.89282 -0.33927,-0.0571 -0.46886,1.14797 -0.48135,1.23134 -0.0354,0.23599 -0.056,0.47395 -0.084,0.71093 -0.0925,0.68938 -0.10996,0.84816 -0.21808,1.53727 -0.0356,0.22672 -0.20998,0.47158 -0.11233,0.67926 0.11826,0.2515 0.40714,0.40164 0.66695,0.50032 0.22873,0.0869 -0.4502,-1.14335 -3e-4,-0.73401 -0.002,-0.58637 8.8e-4,-1.17329 -0.0136,-1.75953 -0.004,-0.1421 0.0976,-0.34142 -0.0165,-0.42611 -0.20866,-0.15482 -0.50463,-0.16327 -0.76425,-0.15319 -0.0625,0.002 -0.0234,0.12281 -0.0351,0.18422 -0.0779,0.78857 -0.14627,1.5763 -0.24944,2.36214 -0.0127,0.0965 -0.1067,0.22126 -0.0374,0.2896 0.1542,0.15206 0.39679,0.17364 0.59519,0.26046 -0.12248,-0.39178 0.005,-0.96434 0.011,-1.36979 0.01,-0.64543 0.1372,-0.76189 -0.77051,-0.89509 -0.0758,-0.0111 -0.046,0.14621 -0.069,0.21932 -0.0379,0.67588 -0.23432,1.33569 0.83269,1.3593 0.1257,0.003 0.078,-0.23933 0.10735,-0.36158 0.0594,-0.24743 0.24423,-1.2168 0.28117,-1.40707 0.16915,-0.87062 0.34623,-1.73695 0.4307,-2.62107 0.0211,-0.22098 0.16759,-0.48116 0.0426,-0.66458 -0.15894,-0.23317 -0.4735,-0.383 -0.75568,-0.38159 -0.12846,6.5e-4 1e-4,0.25692 1.5e-4,0.38538 1.7e-4,1.08129 8.1e-4,2.16258 -5.7e-4,3.24387 -2.4e-4,0.18624 -0.12647,0.42099 -0.001,0.55871 0.17949,0.1972 0.50247,0.17874 0.7537,0.2681 -0.004,-0.13243 -0.016,-1.41634 -0.0277,-1.42556 -0.2073,-0.16334 -0.50084,-0.18892 -0.76411,-0.20746 -0.0511,-0.004 -0.0147,0.10139 -0.0221,0.15208 -0.0315,0.62228 -0.0512,1.24493 -0.0629,1.86791 -0.005,0.24065 -0.12682,0.51223 -0.009,0.72203 0.15688,0.27901 0.44726,0.49775 0.75119,0.59818 0.10518,0.0348 0.0656,-0.21162 0.0984,-0.31743 0.0548,-0.33866 0.41502,-2.37097 0.18074,-2.55168 -0.19364,-0.14934 -0.50334,-0.0842 -0.73361,-0.002 -0.0984,0.0352 -0.064,0.19895 -0.096,0.29843 -0.1515,0.96222 -0.28776,1.92534 -0.2918,2.90154 -9.2e-4,0.22246 -0.047,0.45406 0.0169,0.66717 0.0676,0.2257 0.24287,0.40381 0.3643,0.60571 0.16954,-0.0675 0.36225,-0.0936 0.50861,-0.2026 0.15879,-0.11826 0.26517,-0.85428 0.46038,-1.04094 0.5039,-0.69043 0.35916,-1.7066 0.47284,-2.50337 -0.0171,-0.18766 -0.0296,-0.96631 -0.25575,-1.13259 -0.92463,-0.6798 -1.09884,0.64303 -1.20348,1.18138 -0.002,0.015 -0.20226,1.20101 -0.15012,1.27722 0.93618,1.36825 0.75691,-0.0648 0.76615,-0.45366 0.0256,-0.44356 0.10703,-0.3877 -0.68824,-0.42152 -0.0471,-0.002 0.027,0.0904 0.0372,0.13636 0.0847,0.38018 0.13409,0.77056 0.31785,1.12137 0.73698,0.97026 1.29908,0.37835 1.47122,-0.54463 -0.0201,-0.15836 0.0465,-0.3565 -0.0603,-0.47509 -0.56264,-0.62437 -1.04122,0.32993 -1.39557,0.60845 -0.27411,0.20789 -0.41469,0.15823 -0.6204,0.29371 -0.27899,0.18374 -0.28428,0.49949 -0.34187,0.78913 -0.10712,0.48563 -0.16628,0.38331 0.27647,0.57824 0.0146,0.006 -0.0389,0.0222 -0.047,0.009 -0.13028,-0.22066 -0.15878,-0.49255 -0.31004,-0.70346 -0.0942,-0.12217 -0.14347,-0.29988 -0.28262,-0.36651 -0.57658,-0.27611 -0.78019,0.11104 -0.9156,0.54671 -0.0356,0.11448 -0.16547,0.24602 -0.099,0.34576 0.15054,0.22573 0.43555,0.32366 0.65333,0.48548 0.33426,-0.94718 0.4492,-1.9706 0.73467,-2.9327 0.34377,-1.26423 0.74812,-2.52362 1.27817,-3.72196 -0.55345,-0.42048 -0.43219,-0.45837 -0.41037,-0.0559 0.0173,0.31834 -0.0244,0.63817 -0.006,0.95639 -0.0155,0.93278 -0.0212,1.87325 -0.20769,2.79125 -0.21405,0.97195 -0.51608,1.92078 -0.73782,2.89095 -0.14684,0.51394 0.57998,0.7216 0.72682,0.20766 z" />
    <path
       style="fill:#000000"
       id="path2"
       d="m 164.00199,121.26437 c -0.57825,-1.51939 -1.11478,-3.05733 -1.58958,-4.6132 -0.35147,-1.16139 -0.7448,-2.28791 -1.5541,-3.20868 -0.36664,-0.56428 -1.4293,-0.50004 -1.85424,-0.89368 -0.0641,0.24364 -0.19003,0.47901 -0.1922,0.73092 -6.5e-4,0.0766 0.12746,0.0859 0.18474,0.13677 0.10197,0.0906 0.20564,0.18107 0.29196,0.28667 0.39068,0.47796 0.66552,1.07322 0.96613,1.60772 0.87861,1.59853 1.20905,3.38839 1.5822,5.15039 0.3292,1.08523 0.25833,2.25958 0.55289,3.34576 0.16833,0.0929 0.31309,0.26675 0.505,0.27879 0.87707,0.0551 1.24343,-2.25961 1.34997,-2.84077 0.25591,-1.57073 -0.14076,-3.01478 -0.76833,-4.43926 -0.57338,-1.36575 -1.38574,-2.59426 -2.25794,-3.78207 -0.78579,-1.0979 -1.94819,-1.4649 -3.21888,-1.6764 -0.60601,-0.0417 -1.25625,-0.46324 -0.79766,0.63086 0.0313,0.0746 0.16058,0.0207 0.23963,0.0377 0.12322,0.0266 0.24437,0.0619 0.36656,0.0929 1.16921,0.55481 1.88425,1.63016 2.55103,2.68923 0.88394,1.42697 1.3079,3.02148 1.52534,4.66771 0.13738,1.22261 0.18123,2.44642 -0.008,3.66386 -0.0812,0.24357 -0.29567,0.76419 0.67263,-0.0251 0.11464,-0.0935 0.0101,-0.29564 0.0163,-0.44342 0.0329,-0.78444 0.0707,-1.56856 0.10129,-2.35311 0.18707,-1.85262 -0.36995,-3.57543 -1.16325,-5.21915 -0.48304,-1.1311 -1.19798,-2.00474 -2.32524,-2.50504 -0.26613,-0.12735 -0.56439,-0.13546 -0.84133,-0.22153 -0.0343,-0.0107 -0.1004,-0.0925 -0.0908,-0.058 0.0448,0.16056 0.14152,0.30211 0.20213,0.45739 0.0101,0.0259 -0.0187,0.0785 0.009,0.0831 0.0807,0.0134 0.16117,-0.0277 0.24175,-0.0415 0.82385,0.14593 1.26498,0.99105 1.65151,1.65132 0.43039,0.93727 0.74241,1.9207 1.0755,2.89482 0.30829,1.0873 0.58177,2.18697 0.75768,3.30421 0.10509,0.51428 -0.1397,1.87652 0.9173,0.92901 0.0511,-0.0458 -0.0106,-0.98584 -0.0199,-1.1757 -0.2054,-1.95857 -0.96605,-3.75771 -1.74732,-5.54036 -0.63611,-1.53767 -1.33517,-2.48015 -2.8292,-3.22682 -0.57746,-0.21982 -1.01484,-0.7457 -0.82625,0.52283 0.0214,0.1441 0.20622,0.20672 0.29694,0.32072 0.12407,0.15591 0.23073,0.32491 0.3461,0.48737 0.94363,1.27726 1.57439,2.73768 2.17055,4.1988 0.66179,1.35533 1.01104,2.8213 1.43685,4.25909 0.15182,0.51249 0.87659,0.29779 0.72477,-0.2147 v 0 c -0.43313,-1.4617 -0.79015,-2.95165 -1.46175,-4.33 -0.61888,-1.51619 -1.27782,-3.02918 -2.25678,-4.35459 -0.013,-0.0178 -0.67302,-0.98311 -0.81791,-0.98223 -1.58423,0.01 -0.29604,0.76114 0.0535,0.77084 1.29345,0.6257 1.93663,1.52322 2.47082,2.85211 0.74463,1.69905 1.47848,3.40987 1.68474,5.27547 0.0116,0.21823 0.03,0.4362 0.0347,0.65469 0.003,0.13509 -0.11319,0.31588 -0.0118,0.4052 1.14588,1.00949 0.58601,-0.57956 0.58128,-0.9698 -0.18418,-1.1599 -0.46542,-2.30255 -0.78907,-3.43075 -0.34964,-1.02219 -0.67561,-2.05552 -1.13944,-3.03388 -0.56173,-0.94831 -1.21845,-1.99292 -2.44333,-2.01038 -0.16203,0.0326 -0.67767,0.0987 -0.74748,0.29491 -0.2883,0.81011 0.62239,0.77873 1.06927,0.92302 0.97068,0.39756 1.53044,1.19412 1.94303,2.13983 0.74418,1.53158 1.26906,3.1311 1.08826,4.86027 -0.0307,0.78682 -0.0733,1.57335 -0.10153,2.36024 -0.006,0.18034 -0.13297,0.40656 -0.0128,0.54121 0.18111,0.20299 0.48913,0.27522 0.76033,0.29657 0.08,0.006 0.0442,-0.15435 0.0662,-0.23153 0.19744,-1.28908 0.15969,-2.58477 0.0107,-3.879 -0.23528,-1.75369 -0.69196,-3.4521 -1.63535,-4.97133 -0.77318,-1.22269 -1.62416,-2.44421 -3.00934,-3.01977 -0.25039,-0.0603 -0.79233,-0.20491 -0.83315,-0.15118 -0.73962,0.97367 0.23365,0.78339 0.72095,0.86952 1.07693,0.17486 2.06463,0.44165 2.7323,1.37792 0.83986,1.14373 1.62508,2.32451 2.17597,3.64055 0.57123,1.28473 0.9432,2.57719 0.71586,3.99818 -0.10995,0.6104 -0.11271,0.72747 -0.28534,1.30745 -0.15757,0.52941 -0.47256,0.74021 -0.10002,1.17885 -0.11783,-0.36383 -0.11818,-0.76614 -0.16855,-1.14329 -0.0962,-0.72048 -0.22569,-1.43609 -0.37073,-2.14821 -0.38909,-1.83705 -0.74298,-3.70006 -1.66287,-5.36435 -0.42408,-0.75384 -0.80265,-1.58651 -1.4867,-2.14535 -0.0975,-0.0797 -0.19882,-0.25818 -0.31473,-0.20896 -0.24437,0.10376 -0.36663,0.38406 -0.54994,0.5761 0.53838,0.35839 1.21517,0.38621 1.73232,0.78387 0.75058,0.82358 1.05933,1.88346 1.39498,2.92597 0.48336,1.58182 1.02827,3.14579 1.61774,4.6902 0.21055,0.49129 0.90534,0.19352 0.69479,-0.29777 z" />
  </g>
</svg>
