<?xml version="1.0" encoding="UTF-8" standalone="no"?>
<!-- Created with Inkscape (http://www.inkscape.org/) -->

<svg
   width="115.42306mm"
   height="119.20018mm"
   viewBox="0 0 115.42306 119.20018"
   version="1.1"
   id="svg1"
   xmlns="http://www.w3.org/2000/svg"
   xmlns:svg="http://www.w3.org/2000/svg">
  <defs
     id="defs1" />
  <g
     id="layer1"
     transform="translate(-37.486736,-99.802982)">
    <path
       style="fill:#000000;stroke-width:0.264583"
       id="path1"
       d="m 115.95836,194.21428 c -0.90613,-2.85116 -2.02987,-5.62656 -3.04784,-8.43841 -1.20482,-3.45746 -2.30061,-6.94676 -3.8802,-10.25578 -1.25423,-2.68765 -3.00551,-4.05194 -5.48784,-5.53116 -0.48633,-0.25908 -0.96819,-0.52674 -1.459,-0.77723 -1.97499,-1.00799 -1.28038,-0.57315 -3.288541,-1.64889 -1.850713,-0.9914 -3.582363,-2.09761 -5.302395,-3.2981 -2.009868,-1.50899 -3.794699,-3.30355 -5.242751,-5.36087 -0.776573,-1.10332 -1.023847,-1.62337 -1.667613,-2.78881 -1.145474,-2.22293 -1.931569,-4.58587 -2.347272,-7.04667 0.0209,-0.61608 -0.450054,-2.00484 -0.04192,-2.5553 0.0069,-0.009 0.140843,0.0537 0.288866,0.12009 1.588405,0.67551 2.98286,1.73054 4.435237,2.64701 1.228783,0.77538 2.471119,1.52907 3.7064,2.29406 3.107587,1.83353 5.964801,4.04083 8.861599,6.18047 1.47554,0.95266 2.88338,2.50571 4.7265,2.72389 0.29095,0.0344 0.5859,-0.009 0.87885,-0.0132 2.1886,-0.41808 3.10425,-1.6204 4.1165,-3.49151 1.05984,-2.23724 1.576,-4.65475 1.73424,-7.11201 0.0671,-3.18201 -1.4775,-6.00682 -2.96451,-8.71701 -2.014,-3.55903 -4.20578,-7.01024 -6.25785,-10.54688 -1.21277,-2.04715 -2.25719,-4.20509 -3.65721,-6.13546 -0.76284,-1.04423 -1.839393,-1.23265 -3.050391,-1.31445 -1.74009,-0.11493 -3.441763,0.36716 -5.089181,0.87314 -1.303811,0.33534 -2.520354,0.95289 -3.814815,1.30824 -0.04081,-0.0244 -0.0959,-0.0337 -0.122428,-0.0732 -0.101002,-0.15024 0.06971,-0.0965 0.108204,-0.15099 0.147045,-0.2082 0.16954,-0.48318 0.291991,-0.70673 0.09845,-0.17973 0.224386,-0.34297 0.336579,-0.51446 1.125559,-1.51935 2.853563,-2.15833 4.578567,-2.73934 2.461546,-0.78778 5.033836,-1.08523 7.598434,-1.2925 1.90939,-0.22417 3.04475,-0.0791 4.74499,0.78991 1.60642,1.07215 2.95738,2.48911 4.20062,3.95566 1.26502,1.45475 2.34888,3.04838 3.47295,4.61069 1.19681,1.57778 2.39156,3.15188 3.52816,4.77364 1.2661,1.70362 2.31619,3.55901 3.37334,5.39685 0.12136,0.23203 0.24273,0.46407 0.36409,0.6961 0.32804,0.62641 1.21392,0.16249 0.88588,-0.46392 v 0 c -0.12773,-0.24362 -0.25546,-0.48725 -0.38319,-0.73087 -1.07233,-1.86343 -2.13785,-3.7442 -3.42122,-5.47209 -1.13898,-1.62515 -2.33544,-3.20317 -3.53536,-4.78378 -1.13978,-1.58389 -2.23973,-3.19889 -3.52232,-4.6738 -1.3308,-1.56546 -2.7762,-3.08054 -4.51156,-4.20081 -1.86678,-0.93584 -3.19297,-1.14275 -5.27706,-0.89432 -2.645997,0.2145 -5.29905,0.52608 -7.837783,1.34183 -1.944338,0.65859 -3.85771,1.42033 -5.102074,3.14968 -0.48078,0.77146 -1.428726,2.36795 -0.07141,2.89325 0.177943,0.0689 0.380016,0.0348 0.570024,0.0522 1.300456,-0.36948 2.530737,-0.96455 3.839546,-1.31551 1.530588,-0.47211 3.112494,-0.93329 4.729876,-0.83101 0.917269,0.0575 1.719575,0.11012 2.306659,0.90454 1.384022,1.89934 2.398792,4.03658 3.601152,6.04936 2.04819,3.52983 4.23514,6.97475 6.24627,10.52637 1.39616,2.53992 2.88237,5.18958 2.843,8.17296 -0.14143,2.31459 -0.63154,4.59217 -1.61798,6.703 -0.76205,1.44312 -1.57667,2.62376 -3.27071,2.96386 -0.20305,0.0134 -0.40643,0.058 -0.60915,0.0403 -1.63779,-0.14252 -3.04986,-1.74118 -4.36612,-2.55597 -2.918788,-2.1557 -5.798249,-4.37869 -8.929206,-6.22627 -1.230127,-0.76179 -2.467372,-1.51218 -3.69102,-2.28434 -1.340191,-0.8457 -2.667455,-1.90039 -4.135154,-2.52881 -0.287004,-0.12289 -0.596614,-0.18423 -0.894921,-0.27634 -0.254818,0.0452 -0.533091,0.0196 -0.764453,0.13551 -1.02321,0.51278 -0.473556,2.62377 -0.41543,3.46568 0.438568,2.57109 1.256318,5.04205 2.458175,7.36343 0.679471,1.22605 0.928349,1.75106 1.74907,2.9132 1.510522,2.13888 3.370998,4.00403 5.464313,5.57261 1.758489,1.22505 3.527499,2.35521 5.418521,3.36789 2.019765,1.08162 1.313444,0.64209 3.274515,1.64156 0.47699,0.2431 0.94534,0.50277 1.41801,0.75416 2.26763,1.34361 3.96877,2.63811 5.0964,5.10262 1.56788,3.27821 2.64388,6.74038 3.84224,10.1651 1.00658,2.77978 2.11433,5.52441 3.01796,8.3405 0.1715,0.686 1.14164,0.44346 0.97014,-0.24253 z" />
    <path
       style="fill:#000000;stroke-width:0.264583"
       id="path2"
       d="m 109.01429,121.10647 c 1.69406,-0.5162 3.46949,-0.73368 5.23405,-0.80369 0.27822,0.0426 0.56505,0.0469 0.83467,0.12773 1.55433,0.46577 3.03179,2.76255 3.91005,4.0125 1.93899,2.7766 3.68695,5.67968 5.50947,8.53257 0.63894,1.06007 1.3342,2.084 2.00894,3.12116 0.3856,0.59271 1.22382,0.0474 0.83822,-0.54533 v 0 c -0.67325,-1.03483 -1.3671,-2.05638 -2.00445,-3.1142 -1.83067,-2.86541 -3.58624,-5.78138 -5.53445,-8.56979 -1.14427,-1.62292 -2.54391,-3.8648 -4.58629,-4.42685 -0.32984,-0.0908 -0.67809,-0.0913 -1.01714,-0.13695 -1.84353,0.0779 -3.69757,0.30083 -5.46779,0.84133 -0.6799,0.19425 -0.40518,1.15578 0.27472,0.96152 z" />
    <path
       style="fill:#000000;stroke-width:0.264583"
       id="path3"
       d="m 124.06655,130.86181 c 1.20854,0.53772 2.36399,1.1768 3.43325,1.95533 1.08482,0.889 1.5907,2.24266 2.18057,3.47616 0.11308,0.25282 0.22617,0.50563 0.33925,0.75845 0.28885,0.64542 1.20161,0.23693 0.91277,-0.40849 v 0 c -0.11663,-0.26046 -0.23325,-0.52092 -0.34987,-0.78138 -0.66294,-1.38625 -1.25263,-2.87734 -2.49499,-3.8538 -1.11521,-0.80841 -2.31444,-1.48136 -3.57377,-2.0407 -0.63245,-0.31623 -1.07966,0.5782 -0.44721,0.89443 z" />
    <path
       style="fill:#000000;stroke-width:0.264583"
       id="path4"
       d="m 130.76056,136.3592 c 0.63638,1.06034 1.38332,2.04751 2.03409,3.09881 0.54025,0.9891 1.22892,1.87536 1.90444,2.7741 1.00824,1.31723 2.03227,2.63882 2.83572,4.09384 0.68533,1.07818 0.90288,2.28841 1.01589,3.53654 0.17568,1.70315 -0.23172,3.36265 -0.70567,4.98348 -0.54947,1.87376 -1.22033,3.7021 -1.67174,5.60485 -0.34562,1.62163 -0.45112,3.27655 -0.49964,4.9294 -0.0683,1.15306 -0.009,2.28723 0.20974,3.41988 0.31166,1.50121 0.68008,2.98935 1.06805,4.4725 0.48768,1.95919 0.94031,3.92629 1.4532,5.87913 0.54232,1.94996 0.85432,3.9435 1.19673,5.93366 0.26288,1.31335 0.3237,2.65354 0.50334,3.97718 0.0844,0.78842 0.27365,1.56022 0.43176,2.3359 0.14124,0.69286 1.12109,0.49311 0.97984,-0.19975 v 0 c -0.15384,-0.75453 -0.33928,-1.50503 -0.42088,-2.27202 -0.1851,-1.3342 -0.23927,-2.68715 -0.50856,-4.01102 -0.34789,-2.01839 -0.66538,-4.04022 -1.21504,-6.01799 -0.51288,-1.9525 -0.96495,-3.9194 -1.45294,-5.87817 -0.38263,-1.46257 -0.74624,-2.92997 -1.05388,-4.41029 -0.20815,-1.05986 -0.25473,-2.1203 -0.19179,-3.1998 0.0461,-1.58515 0.14465,-3.17244 0.47317,-4.72824 0.44559,-1.88647 1.11753,-3.69678 1.65863,-5.55519 0.507,-1.74209 0.93122,-3.526 0.74148,-5.35505 -0.12902,-1.38429 -0.38403,-2.73163 -1.13703,-3.92974 -0.83028,-1.49316 -1.87085,-2.85824 -2.91106,-4.21 -0.65794,-0.87507 -1.33035,-1.73533 -1.85387,-2.70015 -0.64596,-1.04025 -1.38053,-2.0211 -2.01574,-3.068 -0.35083,-0.61394 -1.21907,-0.1178 -0.86824,0.49614 z" />
    <path
       style="fill:#000000;stroke-width:0.264583"
       id="path5"
       d="m 114.32528,194.21581 c 0.0318,2.44133 0.38328,4.8675 0.69097,7.28559 0.55556,3.62647 1.22111,7.23936 2.03392,10.81734 0.15666,0.68953 1.13181,0.46798 0.97515,-0.22155 v 0 c -0.80585,-3.54648 -1.46526,-7.12763 -2.01707,-10.72204 -0.30245,-2.37617 -0.64951,-4.76043 -0.68297,-7.15934 0,-0.70711 -1,-0.70711 -1,0 z" />
    <path
       style="fill:#000000;stroke-width:0.264583"
       id="path6"
       d="m 142.08523,193.4019 c 1.08372,3.01293 2.18728,6.02141 3.33229,9.01241 0.85539,2.25994 1.60174,4.55784 2.45302,6.81911 0.2492,0.66174 1.18504,0.30931 0.93583,-0.35243 v 0 c -0.85243,-2.26276 -1.59778,-4.56299 -2.45495,-6.82421 -1.13989,-2.9773 -2.23837,-5.97209 -3.3175,-8.97111 -0.22361,-0.67082 -1.17229,-0.35459 -0.94869,0.31623 z" />
    <path
       style="fill:#000000;stroke-width:0.264583"
       id="path7"
       d="m 141.30515,189.95756 c 0.38646,1.00004 0.7248,2.02224 1.02801,3.051 0.27818,0.79797 0.69745,1.52237 0.9619,2.32697 0.25573,1.10485 0.58144,2.18885 0.88939,3.27949 0.13926,0.38063 0.29108,0.75564 0.42615,1.13773 0.23628,0.66647 1.1788,0.33232 0.94252,-0.33415 v 0 c -0.12845,-0.36135 -0.26752,-0.71799 -0.40635,-1.07549 -0.3123,-1.10448 -0.63885,-2.20299 -0.90206,-3.32091 -0.26306,-0.79452 -0.65868,-1.51725 -0.95249,-2.29684 -0.30749,-1.03947 -0.64785,-2.0733 -1.03838,-3.08403 -0.22361,-0.67081 -1.1723,-0.35459 -0.94869,0.31623 z" />
    <path
       style="fill:#000000;stroke-width:0.264583"
       id="path8"
       d="m 117.75125,213.14344 c 0.26497,0.93729 0.50193,2.03877 1.37072,2.61993 0.26515,0.17737 0.57638,0.27358 0.86457,0.41036 3.9801,0.96075 8.14641,1.22228 12.22242,1.52105 2.48626,0.10555 4.95796,0.40272 7.43858,0.58318 1.98298,0.2501 3.97817,0.33864 5.97416,0.40135 1.86793,0.0781 3.72875,0.34165 5.59976,0.3229 1.94027,-0.31964 1.81716,-1.77072 1.51499,-3.33945 -0.42429,-1.55273 -0.86303,-3.10894 -1.36136,-4.64061 -0.31267,-1.00432 -0.66354,-1.97531 -1.3956,-2.7457 -0.42703,-0.37548 -0.97066,-0.58022 -1.4892,-0.79735 -0.65261,-0.27219 -1.03756,0.65075 -0.38494,0.92294 v 0 c 0.39505,0.16404 0.81053,0.3155 1.15549,0.56978 0.63813,0.64291 0.87811,1.51851 1.16354,2.3604 0.48817,1.49298 0.91114,3.01227 1.33111,4.52478 0.0935,0.4576 0.51282,1.72925 -0.13905,2.03569 -0.12709,0.0597 -0.27119,0.0731 -0.40678,0.10958 -1.85624,0.0256 -3.70302,-0.25526 -5.55659,-0.32247 -1.98233,-0.0622 -3.96363,-0.15089 -5.93304,-0.39921 -2.48045,-0.18011 -4.9519,-0.47799 -7.43799,-0.58314 -3.97662,-0.29131 -7.99178,-0.55813 -11.88875,-1.43726 -0.32042,-0.12928 -0.72661,-0.23033 -0.96474,-0.51823 -0.43233,-0.52271 -0.516,-1.29784 -0.72862,-1.91475 -0.22361,-0.67082 -1.17229,-0.35459 -0.94868,0.31623 z" />
    <path
       style="fill:#d38d5f;stroke-width:1.39098"
       d="m 547.35006,822.01477 c -51.7603,-3.63061 -79.13878,-6.33551 -91.38831,-9.02883 -1.92791,-0.4239 -4.29296,-3.12549 -6.38844,-7.29749 -5.63006,-11.20922 -15.05017,-67.71182 -11.48959,-68.9156 1.5673,-0.52988 -0.85484,-8.40235 -13.12979,-42.67456 -14.68353,-40.99709 -16.60318,-43.48015 -45.55602,-58.92652 -21.93083,-11.70012 -27.23117,-15.42147 -37.30845,-26.19412 -12.19071,-13.03191 -20.36599,-29.99174 -23.50466,-48.76104 -0.47974,-2.86889 -0.33714,-5.21617 0.31689,-5.21617 2.23085,0 45.4943,28.04484 60.38255,39.14202 8.16632,6.0869 16.76099,11.61576 19.09926,12.28636 13.53148,3.88079 24.77511,-9.25099 28.23275,-32.97387 2.34964,-16.12082 -0.36469,-23.49855 -22.65389,-61.57485 -26.24239,-44.82946 -25.75049,-44.11035 -31.46313,-45.99569 -6.09223,-2.01062 -16.49311,-0.92414 -27.54117,2.87695 -10.42151,3.58552 -12.2919,2.919 -6.66295,-2.3744 4.93195,-4.63795 18.04424,-9.29671 32.40067,-11.51188 20.28692,-3.13023 26.26801,-1.28928 39.10788,12.03721 9.39662,9.75273 34.16546,43.31291 41.04186,55.60906 4.80579,8.59356 8.87289,11.46424 8.87289,6.26275 0,-4.89114 -30.11048,-48.84392 -43.97281,-64.18787 -2.65319,-2.93676 -4.24492,-5.69745 -3.53717,-6.13487 2.83282,-1.75078 20.09749,-3.38775 23.21777,-2.20142 4.50691,1.71352 11.84728,11.37568 28.46032,37.46241 12.91822,20.28493 18.08755,26.06209 18.08755,20.2144 0,-1.16396 -1.65645,-4.61936 -3.68101,-7.67866 -2.02454,-3.0593 -3.33074,-5.91263 -2.90264,-6.34072 1.87151,-1.87152 8.4923,4.72171 12.28383,12.23269 2.50548,4.9633 4.89986,8.02043 6.09241,7.77869 1.7605,-0.35687 4.72306,3.52886 23.27098,30.52252 7.40722,10.78004 7.4663,21.70645 0.23794,43.98767 -2.73051,8.41671 -3.84981,15.27323 -4.35056,26.65051 -0.65017,14.77183 -0.42215,16.35974 6.39166,44.51131 3.88624,16.05616 7.74481,34.82649 8.5746,41.71183 1.77343,14.71519 3.37539,19.37616 6.27681,18.26278 1.43245,-0.54967 2.05129,0.14576 2.04469,2.2978 -0.0164,5.36922 22.51498,64.9846 24.56068,64.9846 1.03255,0 1.87736,-0.66288 1.87736,-1.47307 0,-0.81019 0.6176,-1.09138 1.37244,-0.62486 2.00636,1.24 10.14521,28.28629 9.22982,30.67176 -0.84916,2.21291 -2.22633,2.24391 -25.90302,0.58317 z"
       id="path9"
       transform="scale(0.26458333)" />
    <path
       style="fill:#000000;stroke-width:0.264583"
       id="path10"
       d="m 138.71008,160.28572 c 1.0769,0.62095 1.96516,1.48319 2.8601,2.33151 0.58286,0.56985 1.04419,1.23536 1.29373,2.0121 0.12333,0.53398 0.24209,1.11358 0.003,1.63087 -0.43904,0.43226 -1.0743,0.59445 -1.65089,0.76551 -0.78089,0.21246 -1.58901,0.26449 -2.39377,0.2925 -0.58073,0.0629 -1.10641,-0.1859 -1.64768,-0.35603 -0.67461,-0.2119 -0.97428,0.74214 -0.29967,0.95404 v 0 c 0.648,0.2034 1.2873,0.47656 1.98248,0.40137 0.88997,-0.0316 1.78295,-0.0946 2.64534,-0.33386 0.86832,-0.26184 1.80351,-0.53552 2.29569,-1.35977 0.27329,-0.76229 0.24003,-1.53239 0.0149,-2.30885 -0.31468,-0.93008 -0.84582,-1.7404 -1.55515,-2.42366 -0.9478,-0.89833 -1.89394,-1.80522 -3.03354,-2.46322 -0.60634,-0.36381 -1.12083,0.49369 -0.51449,0.85749 z" />
    <path
       style="fill:#000000;stroke-width:0.264583"
       id="path11"
       d="m 111.47248,145.89655 c -2.8303,-1.77828 -5.73764,-3.42834 -8.63785,-5.08864 -4.161526,-2.4035 -8.201685,-5.00578 -12.180375,-7.69869 -2.367364,-1.57268 -4.708522,-3.1791 -7.22463,-4.50698 -2.341137,-1.10018 -4.650555,-2.26518 -6.862038,-3.6081 -2.881005,-1.76802 -5.589058,-3.79319 -8.346805,-5.74275 -2.079442,-1.54202 -4.307456,-2.8957 -6.311794,-4.53723 -0.72921,-0.79884 -0.305281,-1.68317 0.0049,-2.5753 0.309721,-1.11286 0.575471,-2.26815 0.520382,-3.43193 -0.03337,-0.70506 -0.13695,-1.03158 -0.289403,-1.71741 -0.721416,-1.96584 -2.258211,-3.39107 -3.845981,-4.67845 -1.817852,-1.34254 -3.936235,-2.00443 -6.128716,-2.409424 -2.251913,-0.328022 -3.894979,0.178444 -5.837581,1.273454 -1.337329,0.83491 -2.59947,1.79417 -3.644495,2.98234 -0.440497,0.50084 -1.190443,1.51648 -1.589593,2.04584 -1.526045,2.10176 -2.507245,4.49107 -3.160858,6.98816 -0.29899,1.50852 -0.545632,3.05442 -0.415134,4.59758 0.09632,1.13897 0.24152,1.54906 0.511225,2.66863 0.69868,2.47251 1.984161,4.69848 3.519242,6.73813 1.521013,1.73707 2.892652,1.85467 5.046895,1.42351 2.153444,-0.57859 4.117983,-1.71078 5.951643,-2.95549 1.067033,-0.72434 1.786454,-1.62473 3.140991,-1.18654 0.177442,0.0776 0.362646,0.13935 0.532333,0.23266 0.778106,0.42788 1.488036,1.02901 2.187943,1.56625 1.161738,0.89174 1.070113,0.81762 2.274941,1.72135 2.555642,1.89278 5.121224,3.77508 7.590057,5.78066 2.305915,1.74337 4.428434,3.70345 6.700943,5.48829 2.07664,1.50933 4.23682,2.90537 6.209437,4.55159 1.95611,1.61046 3.975521,3.16705 6.075471,4.58765 2.116865,1.43557 4.288782,2.7979 6.564585,3.96713 2.141331,1.20878 4.38695,2.19085 6.640845,3.16372 2.2751,0.99162 4.55543,1.98296 6.88687,2.83553 1.30965,0.44861 2.63875,0.83636 3.95985,1.25002 0.6748,0.2113 0.97362,-0.74301 0.29881,-0.95431 v 0 c -1.30623,-0.409 -2.62026,-0.79266 -3.91556,-1.235 -2.31411,-0.84432 -4.5756,-1.8317 -6.83368,-2.81437 -2.233524,-0.96402 -4.458977,-1.93638 -6.580477,-3.13523 -2.241079,-1.14927 -4.376976,-2.49419 -6.461379,-3.90607 -2.073696,-1.39944 -4.064138,-2.93937 -5.995125,-4.52727 -1.982285,-1.64986 -4.143177,-3.06057 -6.232057,-4.56989 -2.268545,-1.78097 -4.385879,-3.73888 -6.688129,-5.47805 -2.479453,-2.0129 -5.053854,-3.90471 -7.620426,-5.80437 -1.252903,-0.93974 -1.057132,-0.78754 -2.26422,-1.7132 -0.76717,-0.58831 -1.545227,-1.23885 -2.405554,-1.69391 -0.211241,-0.11173 -0.440664,-0.18505 -0.660996,-0.27757 -0.229282,-0.0561 -0.453247,-0.14225 -0.687847,-0.16842 -1.27816,-0.14254 -2.315541,0.82227 -3.280484,1.4928 -1.721091,1.17604 -3.572193,2.24191 -5.59144,2.80279 -1.681557,0.36172 -2.854489,0.34072 -4.045945,-1.04652 -1.45756,-1.92702 -2.675665,-4.03494 -3.345735,-6.37168 -0.250381,-1.02392 -0.390285,-1.42223 -0.483421,-2.46082 -0.129889,-1.44846 0.108519,-2.90042 0.383204,-4.31739 0.6153,-2.37203 1.547199,-4.64065 2.991724,-6.63841 0.341677,-0.45341 1.12641,-1.51315 1.511429,-1.9542 0.97758,-1.11985 2.164247,-2.01931 3.418311,-2.80657 1.722739,-0.98867 3.154992,-1.44279 5.162661,-1.15927 2.028391,0.37064 3.992433,0.9703 5.680472,2.20331 1.414319,1.14158 2.805213,2.39741 3.499429,4.12093 0.387874,1.69416 0.31459,2.92873 -0.200146,4.60147 -0.482667,1.39218 -0.827056,2.48246 0.306937,3.67753 2.025626,1.65267 4.265552,3.0281 6.367402,4.57953 2.776802,1.96302 5.503841,4.00181 8.405341,5.78113 2.229575,1.35166 4.55385,2.53132 6.914351,3.63773 2.484726,1.30891 4.792141,2.90068 7.130537,4.45056 3.999471,2.70684 8.06078,5.32252 12.244053,7.7384 2.91657,1.66965 5.83762,3.3328 8.68746,5.11521 0.63246,0.31623 1.07967,-0.5782 0.44721,-0.89443 z" />
    <path
       style="fill:#000000;stroke-width:0.264583"
       id="path12"
       d="m 46.946192,101.39874 c -0.919022,1.0616 -1.963528,1.8889 -2.867628,2.97566 -0.989142,1.32032 -1.806093,2.75324 -2.291882,4.33164 -0.367633,1.35097 -0.323077,2.37584 0.177771,3.67132 0.527863,1.01943 1.436026,1.7175 2.304175,2.43004 0.981892,0.80711 2.063011,1.48712 3.110494,2.20578 0.890548,0.65855 1.854756,1.11597 2.895074,1.47236 0.922014,0.28676 1.872234,0.4822 2.8224,0.65094 0.902684,0.15436 1.817296,0.20527 2.731227,0.2307 0.879388,0.0206 0.946674,-0.15479 1.49828,0.48401 0.71115,0.85728 1.225683,1.85317 1.825747,2.78739 0.702881,1.08405 1.580571,2.03472 2.464784,2.97064 0.81778,0.88699 1.720575,1.68562 2.574965,2.53565 0.97206,1.02382 1.998392,1.98596 3.096657,2.87201 0.958704,0.84423 1.993974,1.59091 2.988397,2.39167 1.310415,0.94723 2.681756,1.81058 4.090969,2.60244 1.348171,0.70822 2.702883,1.37966 4.014846,2.15581 0.934415,0.56089 1.907336,1.05741 2.831935,1.63368 1.911017,1.04512 3.826286,2.08295 5.725174,3.15003 1.444553,0.8941 2.92033,1.73274 4.381203,2.59873 1.096016,0.60073 2.19361,1.20237 3.329223,1.72536 1.060127,0.46348 2.091153,0.97663 3.096152,1.54922 1.598721,0.87966 3.211565,1.73251 4.813265,2.60769 1.36455,0.69621 2.72741,1.421 4.18938,1.89231 0.57346,0.20927 1.16129,0.42794 1.62026,0.84312 0.46558,0.39478 0.74923,0.89912 1.261,1.24954 0.11368,0.0511 0.22735,0.10218 0.34103,0.15327 0.65069,0.27675 1.04209,-0.64347 0.39139,-0.92022 v 0 c -0.0625,-0.0238 -0.12497,-0.0477 -0.18746,-0.0715 -0.48849,-0.28456 -0.66863,-0.86893 -1.1541,-1.16942 -0.57926,-0.48277 -1.25229,-0.80109 -1.96705,-1.03711 -1.40321,-0.44625 -2.70433,-1.15714 -4.01496,-1.81753 -1.59651,-0.87234 -3.204145,-1.72244 -4.797789,-2.59905 -1.030242,-0.58676 -2.087025,-1.11333 -3.173396,-1.58889 -1.104826,-0.50702 -2.170444,-1.09515 -3.237185,-1.6771 -1.467813,-0.86934 -2.949472,-1.71294 -4.401095,-2.61021 -1.886268,-1.05982 -3.787852,-2.0924 -5.687584,-3.12782 -0.932789,-0.57708 -1.908389,-1.08228 -2.850362,-1.64483 -1.318508,-0.77947 -2.679282,-1.45688 -4.034419,-2.1671 -1.361731,-0.76342 -2.6846,-1.59931 -3.953378,-2.50939 -0.994521,-0.80027 -2.029711,-1.54629 -2.987675,-2.39108 -1.071615,-0.86395 -2.07105,-1.8038 -3.019216,-2.80261 -0.847296,-0.84258 -1.741979,-1.63465 -2.553345,-2.51348 -0.841828,-0.89069 -1.679993,-1.79346 -2.350379,-2.82449 -0.62866,-0.97754 -1.165786,-2.02125 -1.920036,-2.9116 -0.731393,-0.80457 -1.171548,-0.84531 -2.217565,-0.81874 -0.864725,-0.0238 -1.730203,-0.0705 -2.584429,-0.21575 -0.899626,-0.15899 -1.799122,-0.34387 -2.672773,-0.61231 -0.954673,-0.32704 -1.837693,-0.7408 -2.653462,-1.35094 -1.023932,-0.70238 -2.081408,-1.36626 -3.041787,-2.15417 -0.735462,-0.60357 -1.51711,-1.18501 -2.00691,-2.02034 -0.411096,-1.04372 -0.463116,-1.91942 -0.152783,-3.01681 0.437247,-1.45499 1.207328,-2.76636 2.106324,-3.98614 0.857316,-1.04719 1.927331,-1.87363 2.803633,-2.90526 0.499999,-0.5 -0.207108,-1.20711 -0.707107,-0.70711 z" />
    <path
       style="fill:#000000;stroke-width:0.264583"
       id="path13"
       d="m 60.908683,113.75561 c -0.37561,0.81681 -0.843481,1.57707 -1.35219,2.31543 -0.486291,0.51465 -0.888405,1.11876 -1.460812,1.54302 -0.322853,0.16967 -0.156112,0.096 -0.500335,0.22067 -0.660532,0.25238 -0.303607,1.18652 0.356925,0.93413 v 0 c 0.51538,-0.20385 0.264891,-0.084 0.75101,-0.36055 0.6444,-0.50372 1.140544,-1.15674 1.676688,-1.76992 0.55072,-0.79934 1.05519,-1.62526 1.45719,-2.51139 0.262612,-0.65654 -0.665864,-1.02793 -0.928476,-0.37139 z" />
    <path
       style="fill:#000000;stroke-width:0.264583"
       id="path14"
       d="m 44.795733,113.48513 c 1.507337,-0.0878 2.912473,0.35228 4.280932,0.93131 1.044829,0.45619 1.913633,1.14874 2.566688,2.07739 0.30157,0.58906 0.635538,1.15988 0.89203,1.77053 0.275868,0.65107 1.196626,0.26093 0.920755,-0.39014 v 0 c -0.288464,-0.67582 -0.648314,-1.31588 -0.998736,-1.96118 -0.773099,-1.07125 -1.77088,-1.89161 -2.99254,-2.41817 -1.491888,-0.62583 -3.028956,-1.09919 -4.669129,-1.00974 -0.707107,0 -0.707107,1 0,1 z" />
    <path
       style="fill:#cccccc;stroke-width:1.39098"
       d="m 201.69811,442.3462 c -2.61929,-6.32353 -11.47703,-13.50581 -19.6495,-15.93277 -8.56055,-2.54222 -15.13118,-2.80436 -15.13118,-0.60368 0,3.39537 -4.12758,-1.99143 -4.97107,-6.48763 -1.83751,-9.79478 14.23886,-33.72641 24.69578,-36.76266 11.99814,-3.48376 31.91862,5.25126 40.62426,17.81351 4.14164,5.97639 4.51514,10.88481 1.89732,24.93402 -1.4605,7.83811 -2.64655,10.28067 -7.41195,15.26421 -5.0515,5.28274 -6.36681,5.93291 -12.00231,5.93291 -5.71581,0 -6.49597,-0.40289 -8.05135,-4.15791 z"
       id="path15"
       transform="scale(0.26458333)" />
    <path
       style="fill:#cccccc;stroke-width:1.39098"
       d="m 234.37988,481.87078 c -15.48125,-12.06959 -21.7509,-15.89297 -26.06163,-15.89297 -2.35766,0 -8.74007,2.84405 -15.41003,6.86682 -14.97787,9.03343 -21.77251,11.02783 -27.77775,8.15348 -5.70407,-2.7302 -13.78071,-16.18183 -17.11763,-28.50939 -2.13382,-7.88299 -2.24469,-10.40911 -0.8212,-18.71026 0.90512,-5.27826 3.52844,-13.7492 5.82961,-18.82431 4.31663,-9.52012 6.47035,-11.28257 4.22647,-3.45864 -1.61958,5.64716 -0.51323,12.594 2.62242,16.46636 4.39238,5.42436 21.06644,16.9923 28.50358,19.7749 4.0066,1.49906 11.7577,3.16632 17.22467,3.70502 l 9.93993,0.97945 4.4911,7.12603 c 2.47011,3.91932 9.48074,12.29004 15.57918,18.6016 6.09844,6.31157 10.50759,11.439 9.7981,11.3943 -0.70948,-0.0447 -5.67155,-3.49728 -11.02682,-7.67239 z"
       id="path16"
       transform="scale(0.26458333)" />
    <path
       style="fill:#cccccc;stroke-width:1.39098"
       d="m 413.17316,579.89641 c -2.64872,-2.21721 -5.62663,-4.03129 -6.61755,-4.03129 -0.99092,0 -9.15179,-3.85353 -18.13526,-8.5634 -8.98348,-4.70988 -20.71517,-10.72629 -26.07044,-13.36982 -5.35527,-2.64353 -14.74437,-7.77685 -20.86468,-11.4074 -6.1203,-3.63053 -20.51693,-11.78244 -31.9925,-18.11535 -34.15006,-18.84604 -38.33658,-21.50593 -52.50804,-33.3608 -14.34926,-12.00361 -24.48672,-22.75028 -32.0627,-33.98951 l -4.60556,-6.83251 5.86534,-6.03499 5.86534,-6.03498 24.81302,17.52915 c 25.90152,18.29813 35.91236,24.54225 53.32809,33.26263 5.73778,2.87302 22.63817,13.1731 37.55642,22.88907 27.0795,17.63636 69.71968,43.16323 72.10002,43.16323 2.23064,0 3.00412,10.18918 1.4524,19.13285 -0.83024,4.78529 -1.91418,8.94665 -2.40877,9.24747 -0.49457,0.30082 -3.06638,-1.26713 -5.71513,-3.48435 z"
       id="path17"
       transform="scale(0.26458333)" />
    <path
       style="fill:#cccccc;stroke-width:1.39098"
       d="m 396.42889,589.9095 c -31.93245,-13.00187 -59.1818,-28.48166 -83.45872,-47.41114 -6.50282,-5.07045 -15.26599,-11.66569 -19.4737,-14.65607 -10.62846,-7.55355 -19.52197,-14.98659 -18.79775,-15.71081 0.60279,-0.60279 22.98981,11.66571 62.0825,34.02236 11.18349,6.39571 20.80071,11.62856 21.3716,11.62856 0.5709,0 8.94711,4.3005 18.6138,9.55668 9.66669,5.25617 20.50344,10.6443 24.08168,11.97362 3.57823,1.32931 7.91244,3.91415 9.63157,5.74408 1.71914,1.82993 3.94207,3.32714 4.93988,3.32714 1.43031,0 1.47893,0.73579 0.22975,3.47745 -0.87145,1.9126 -2.57936,3.46645 -3.79539,3.45301 -1.216,-0.0134 -8.15736,-2.44563 -15.42522,-5.40488 z"
       id="path18"
       transform="scale(0.26458333)" />
    <path
       style="fill:#666666;stroke-width:1.39098"
       d="m 206.40314,445.44451 c -1.61652,-0.2612 -3.63741,-2.00747 -4.49086,-3.88059 -0.85345,-1.87312 -2.19109,-3.40568 -2.97253,-3.40568 -0.78144,0 -1.26431,-0.68419 -1.07305,-1.52042 0.19126,-0.83623 -0.86997,-2.2446 -2.35829,-3.1297 -1.48832,-0.88511 -3.85281,-2.61076 -5.25443,-3.83478 -3.48338,-3.04202 -11.68107,-5.23402 -18.92418,-5.06019 -6.6613,0.15987 -8.52995,-1.52322 -8.56401,-7.71357 -0.0416,-7.56515 10.55993,-24.27572 19.81572,-31.2343 3.89912,-2.93138 5.57889,-3.29515 12.48797,-2.70437 10.42708,0.89159 23.76048,8.07707 29.9213,16.12483 3.80664,4.97255 4.52068,7.08576 4.52068,13.37907 0,21.17736 -9.77886,35.13355 -23.10832,32.9797 z"
       id="path19"
       transform="scale(0.26458333)" />
    <path
       style="fill:#4d4d4d;stroke-width:0.122946"
       d="m 195.7305,445.36672 c -5.06361,-1.19511 -8.95457,-2.72172 -12.26008,-4.81021 -1.88035,-1.18805 -9.3133,-6.28625 -11.09388,-7.6092 -4.49331,-3.33849 -8.245,-6.74282 -9.57033,-8.68424 -0.98776,-1.44692 -1.71297,-3.88779 -1.93154,-6.5011 -0.30075,-3.59574 1.47506,-9.1326 4.76819,-14.86696 0.91073,-1.58585 3.19815,-5.00613 4.14419,-6.19663 0.93111,-1.1717 4.13434,-4.46033 4.24219,-4.35529 0.0468,0.0456 -0.27093,0.51588 -0.70613,1.04504 -1.36761,1.66287 -2.60267,3.36234 -4.05482,5.57953 -3.57427,5.45727 -5.84889,10.27232 -6.99533,14.8081 -0.49508,1.95873 -0.61851,4.44521 -0.29358,5.91418 0.6964,3.14833 3.14443,7.1796 4.35988,7.1796 0.43228,0 0.62181,-0.27651 0.62181,-0.90716 0,-0.53243 0.39037,-1.01428 0.98735,-1.2187 0.31905,-0.10926 1.29646,-0.12921 3.68839,-0.0753 2.86105,0.0645 3.44157,0.11242 4.80411,0.39669 4.98678,1.04042 8.47848,2.23732 11.65802,3.99621 1.58409,0.87631 3.50245,2.1013 3.41992,2.18383 -0.0329,0.0329 -0.52333,-0.22356 -1.08992,-0.56982 -3.77603,-2.30766 -10.55891,-4.64584 -15.53783,-5.35617 -0.95372,-0.13606 -2.32303,-0.21434 -3.87281,-0.22139 -2.20115,-0.01 -2.43233,0.01 -2.82342,0.23933 -0.60158,0.35341 -0.91766,0.95258 -0.91766,1.73949 0,0.69901 0.21638,1.10413 0.83757,1.56811 0.30759,0.22976 0.5774,0.261 2.88164,0.33364 3.52123,0.11102 5.73269,0.48314 9.11989,1.53457 1.91459,0.59431 5.07723,1.84313 6.58874,2.60165 3.13818,1.57483 6.1396,4.08022 8.05748,6.72585 0.2451,0.3381 1.06581,1.81807 1.8238,3.28882 1.10954,2.15284 1.33419,2.67254 1.15253,2.66618 -0.12411,-0.004 -1.02787,-0.19724 -2.00837,-0.42865 z"
       id="path20"
       transform="scale(0.26458333)" />
    <path
       style="fill:#000000;stroke-width:0.264583"
       id="path21"
       d="m 139.06738,159.34561 c -0.1243,-0.0676 -0.24695,-0.13902 -0.3694,-0.21026 -0.13879,-0.0729 -0.26447,-0.16625 -0.39827,-0.24715 -0.0872,-0.05 -0.16646,-0.11132 -0.24692,-0.17128 -0.0139,-0.0106 -0.0278,-0.0213 -0.0417,-0.0319 -0.56214,-0.42895 -1.16878,0.36603 -0.60664,0.79498 v 0 c 0.017,0.0129 0.0339,0.0259 0.0509,0.0388 0.10645,0.0793 0.21319,0.15863 0.32795,0.22573 0.13841,0.0832 0.26797,0.18065 0.41189,0.25521 0.16446,0.0957 0.32787,0.19489 0.50089,0.27439 0.65653,0.26261 1.02792,-0.66587 0.37139,-0.92848 z" />
    <path
       style="fill:#b3b3b3;stroke-width:0.245893"
       d="m 520.09789,631.45807 c -1.37343,-0.44152 -2.53806,-0.68017 -2.88924,-0.59203 l -0.58832,0.14766 0.004,-2.91589 c 0.0106,-8.65043 1.10429,-18.67769 2.57549,-23.61257 l 0.37896,-1.27116 1.90201,1.13505 c 6.01409,3.58897 7.10113,4.39765 11.65199,8.66827 4.54937,4.26922 6.33889,7.05781 6.99618,10.90206 0.49949,2.92133 0.15008,4.17741 -1.46167,5.25456 -2.44712,1.63544 -7.30608,2.76172 -12.57966,2.91591 -3.57281,0.10445 -3.76049,0.0847 -5.98931,-0.63186 z"
       id="path22"
       transform="scale(0.26458333)" />
    <path
       style="fill:#f2f2f2;stroke-width:0.264583"
       id="path34"
       d="m 43.482725,110.39422 c -0.04243,-0.0359 -0.16873,-0.14472 -0.127275,-0.1077 0.132882,0.11865 0.264554,0.23879 0.401579,0.35263 0.447384,0.37167 0.926182,0.70572 1.394751,1.04974 0.477621,0.35589 0.966282,0.69539 1.462527,1.02473 0.64416,0.39993 1.292373,0.79328 1.94288,1.18284 0.587486,0.36189 1.174517,0.72411 1.767711,1.07655 0.374335,0.23082 0.762669,0.43709 1.14459,0.6547 0.134805,0.0891 0.281892,0.15788 0.423309,0.23565 0.0026,0.001 -0.0058,-0.001 -0.0084,-0.003 -0.04489,-0.0256 -0.174411,-0.11006 -0.133832,-0.0781 0.0566,0.0446 0.121486,0.0775 0.182229,0.11622 0.285705,0.19015 0.573749,0.37667 0.865479,0.55778 0.3801,0.2264 0.76237,0.45997 1.172376,0.63005 0.144151,0.0598 0.291643,0.11119 0.437465,0.16679 0.325644,0.10191 0.656532,0.18361 0.988801,0.25969 -0.02357,0.008 -0.136607,-0.0658 -0.119846,-0.0284 0.01347,0.0301 0.125484,0.0404 0.09445,0.0293 -0.283419,-0.10123 -0.344855,-0.0945 -0.664456,-0.2841 -0.18768,-0.11132 -0.35877,-0.24849 -0.538155,-0.37273 -0.330065,-0.41982 -0.836303,-0.74808 -0.990198,-1.25945 -0.275441,-0.91526 -0.503626,-1.93551 -0.248509,-2.85664 0.37261,-1.34536 1.45946,-2.34682 2.732182,-2.68743 0.0093,-0.002 0.01855,-0.005 0.02783,-0.007 0.0016,-0.001 0.0066,-0.003 0.0048,-0.003 -0.359801,0.0439 -0.675637,0.10559 -1.036672,0.18037 -0.14452,0.0233 -0.280318,0.0921 -0.424624,0.1164 -0.02917,0.005 0.056,-0.0193 0.08463,-0.0267 0.0058,-0.002 0.01527,10e-4 0.0173,-0.004 0.0019,-0.005 -0.01037,-2.6e-4 -0.01556,-2.6e-4 -0.03495,2.1e-4 -0.07091,-7.9e-4 -0.105722,10e-4 -0.129839,0.008 -0.25958,0.017 -0.389372,0.0254 -0.124954,0.007 -0.247621,0.0333 -0.371866,0.046 -0.01482,0.002 0.02946,-0.004 0.04426,-0.006 0.0031,-2.6e-4 0.0063,-2e-5 0.0092,-0.001 0.0081,-0.003 -0.0173,-2.6e-4 -0.02598,-2.6e-4 -0.01688,6e-5 -0.03376,2e-4 -0.05064,2.6e-4 -0.06702,2.7e-4 -0.07694,2.5e-4 -0.145577,2.7e-4 -0.186729,0.008 -0.606115,-0.0182 0.01342,0.0116 0.413313,0.0634 0.10437,0.009 0.492826,0.0961 0.01122,0.003 -0.04357,-0.0147 -0.03267,-0.011 0.04687,0.0156 0.185587,0.0672 0.140554,0.0469 -0.121726,-0.0549 -0.452212,-0.15197 -0.539895,-0.17937 -0.312663,-0.10794 -0.638479,-0.16603 -0.963287,-0.22266 -0.03826,-0.007 0.07674,0.0121 0.115104,0.0181 -0.02236,-0.005 -0.240416,-0.052 -0.185563,-0.0377 0.713447,0.18594 -0.681103,-0.23095 0.716503,0.22047 0.03319,0.0107 -0.06369,-0.0285 -0.09599,-0.0417 -0.08033,-0.0328 -0.161237,-0.0641 -0.241856,-0.0961 0.08405,0.0349 0.167373,0.0715 0.25214,0.10462 0.02593,0.0101 -0.05001,-0.0245 -0.0755,-0.0357 -0.08927,-0.0384 -0.178544,-0.0767 -0.267817,-0.11508 0.03021,0.0124 0.120515,0.0504 0.09062,0.0373 -0.05758,-0.0254 -0.229746,-0.1025 -0.17371,-0.0739 0.107244,0.0548 0.218356,0.10163 0.327533,0.15245 0.646144,0.37713 0.154975,0.10682 -0.0114,-0.0241 -0.02487,-0.0196 0.04487,0.0279 0.10188,0.0663 -0.279511,-0.21146 -0.571386,-0.35538 -0.8792,-0.5193 -0.01259,-0.007 0.02625,0.0113 0.03891,0.0179 0.111268,0.0576 0.16805,0.0943 0.08961,0.0451 -0.356831,-0.20956 -0.688494,-0.37876 -1.177015,-0.57448 0.06017,0.0118 0.111763,0.0503 0.169722,0.0699 0.03596,0.0122 -0.06883,-0.0321 -0.103235,-0.0481 -0.129312,-0.0603 -0.260501,-0.11617 -0.392232,-0.17092 0.0623,0.0272 0.123021,0.0584 0.186905,0.0817 0.03287,0.012 -0.06207,-0.0323 -0.0935,-0.0477 -0.07181,-0.0351 -0.144119,-0.0691 -0.216204,-0.10359 -0.04225,-0.0202 0.168344,0.0822 0.126688,0.0608 -0.297339,-0.15284 -0.255212,-0.1273 -0.586523,-0.2681 -0.06966,-0.0332 0.0044,0.002 -0.191255,-0.0757 -0.0045,-0.002 0.105487,0.04 0.127392,0.0502 0.04038,0.0188 0.152257,0.089 0.120388,0.0579 -0.03549,-0.0346 -0.08785,-0.046 -0.131773,-0.069 0.01048,0.005 0.04176,0.021 0.03146,0.0155 -0.269547,-0.14427 -0.213608,-0.11898 -0.499763,-0.27517 -0.769641,-0.38547 -0.142664,-0.0705 -0.149072,-0.0758 -0.03556,-0.0294 -0.161499,-0.0892 -0.122163,-0.0651 0.05152,0.0316 0.210891,0.11805 0.158763,0.0875 -0.146928,-0.0861 -0.224711,-0.12845 -0.348729,-0.19651 0.01259,0.007 0.02543,0.0126 0.03776,0.0196 0.09951,0.0563 0.151842,0.0948 0.150241,0.0936 -0.05195,-0.0382 -0.105857,-0.0738 -0.158729,-0.1107 -0.05264,-0.0368 -0.05539,-0.0382 -0.02532,-0.019 0.235055,0.2 0.392133,0.30576 0.571685,0.52001 0.06681,0.0797 0.122393,0.16864 0.191365,0.24651 0.04157,0.0469 -0.145362,-0.20437 -0.108117,-0.15393 0.0099,0.0134 0.01934,0.0271 0.02902,0.0407 0.440095,0.74087 -0.0804,-0.15287 0.252299,0.46508 0.01664,0.0309 -0.0271,-0.0648 -0.04003,-0.0974 -0.0041,-0.0103 0.0095,0.0201 0.01349,0.0305 0.0471,0.12244 0.04132,0.11351 0.08375,0.25314 0.129526,0.54866 -0.120203,-0.51222 -0.03454,-0.14608 0.0078,0.0335 0.01516,0.0671 0.02167,0.10081 0.0063,0.0324 0.01114,0.065 0.01669,0.0975 0.06004,0.35223 0.02156,0.70189 -0.03796,1.0354 -0.0299,0.10886 -0.0598,0.21773 -0.0897,0.3266 -0.02069,0.0568 -0.04527,0.11225 -0.06212,0.17027 -0.0098,0.0339 0.02764,-0.0649 0.041,-0.0975 0.224287,-0.54819 -0.08085,0.18881 0.127275,-0.30487 -0.112643,0.25808 -0.07631,0.17095 0.03204,-0.0573 0.01789,-0.0377 -0.0791,0.14615 -0.05431,0.11264 0.01217,-0.0164 0.109551,-0.20866 0.05299,-0.0974 0.197418,-0.31953 0.340344,-0.66643 0.481578,-1.01288 0.01183,-0.029 -0.02244,0.0585 -0.03364,0.0878 -0.168923,0.40761 -0.352465,0.62183 -0.611042,0.89832 -0.02761,0.0258 -0.05382,0.0532 -0.08284,0.0775 -0.08296,0.0693 -0.175604,0.12741 -0.252926,0.20295 -0.05895,0.0576 0.133091,-0.0973 0.197475,-0.14878 0.195566,-0.15628 0.214563,-0.17965 0.380346,-0.33006 0.02813,-0.0255 -0.05599,0.0513 -0.08399,0.077 -0.07171,0.0566 -0.141576,0.11552 -0.215138,0.16965 -0.110754,0.0815 -0.253,0.167 -0.374343,0.22863 -0.07407,0.0376 -0.308813,0.11556 -0.226557,0.10389 0.08997,-0.0128 0.167127,-0.0714 0.250687,-0.10712 -0.318201,0.14246 -0.659476,0.22091 -1.00553,0.25401 0.0033,2.7e-4 0.123978,-7e-5 0.09298,-2.6e-4 -0.436674,-0.004 0.121296,0.009 -0.44904,-0.0251 -0.02299,-0.001 0.04526,0.009 0.06797,0.0124 0.0619,0.0104 0.123893,0.0202 0.18584,0.0304 0.249084,0.0713 -0.03505,-0.003 0.382011,0.11004 -0.0094,-0.002 -0.01908,-0.003 -0.0283,-0.006 -0.05947,-0.018 -0.118907,-0.0361 -0.177718,-0.0562 -0.03628,-0.0123 -0.07159,-0.0274 -0.10744,-0.0409 -0.0066,-0.003 -0.02647,-0.0104 -0.02005,-0.007 0.06059,0.0291 0.195884,0.0907 0.264856,0.12226 0.07171,0.0308 0.143274,0.0619 0.215141,0.0924 0.304588,0.129 -0.0082,-0.006 -0.02861,-0.0159 -0.105214,-0.053 -0.228251,-0.12883 -0.02045,-0.004 0.466397,0.27776 -0.164441,-0.10668 0.03934,0.0249 0.07315,0.0472 0.146945,0.0935 0.220218,0.1405 0.03932,0.0252 -0.157929,-0.1 -0.118369,-0.0751 0.110995,0.0698 0.221782,0.13989 0.332671,0.20983 0.109726,0.0702 0.422183,0.24839 0.646322,0.36797 0.297061,0.14748 0.02572,0.0153 0.420386,0.19683 0.042,0.0193 -0.168304,-0.0766 -0.126921,-0.056 0.782376,0.3898 -0.176104,-0.0933 0.267076,0.13076 -0.01426,-0.007 -0.05672,-0.0282 -0.04275,-0.0208 0.05557,0.029 0.111127,0.0581 0.166693,0.0871 -0.04495,-0.0219 -0.04214,-0.0211 0.02839,0.0178 0.105642,0.0583 0.141329,0.0725 0.09387,0.053 0.395531,0.21351 0.57046,0.30824 1.02606,0.51348 0.09814,0.0415 0.164692,0.0703 0.275277,0.11143 0.08754,0.0326 0.176052,0.0625 0.264224,0.0933 0.05602,0.0196 -0.11298,-0.0368 -0.167775,-0.0596 -0.09951,-0.0414 -0.79847,-0.36663 0.09633,0.0479 0.235313,0.10046 0.142685,0.0594 0.33559,0.14249 0.02421,0.0104 -0.0967,-0.0419 -0.07294,-0.0305 0.04811,0.0231 0.09735,0.0437 0.146029,0.0655 -0.07925,-0.0396 0.177869,0.0816 0.133964,0.06 -0.06884,-0.0339 -0.261684,-0.15402 -0.207315,-0.0999 0.02098,0.0209 0.394473,0.2022 0.436936,0.22331 -0.235529,-0.0862 -0.989203,-0.66476 -0.341818,-0.17026 0.02476,0.0189 0.05048,0.0365 0.07572,0.0548 0.09984,0.0657 0.200232,0.1306 0.299532,0.19713 0.05907,0.0396 -0.120446,-0.0757 -0.178832,-0.11627 -0.05214,-0.0362 -0.201273,-0.15477 -0.152558,-0.11405 0.06411,0.0536 0.230404,0.23005 0.198797,0.1527 -0.03232,-0.0791 -0.122124,-0.12649 -0.201247,-0.1587 -0.07385,-0.0301 0.123145,0.10131 0.184719,0.15197 0.265041,0.20911 0.519086,0.3554 0.811154,0.51355 0.0798,0.0432 -0.16051,-0.085 -0.237974,-0.13224 -0.276678,-0.16883 -0.326845,-0.23699 -0.616509,-0.48254 0.03272,0.0317 0.06388,0.0651 0.09815,0.0951 0.12006,0.10516 0.244716,0.20499 0.364672,0.31026 0.04357,0.0382 -0.09289,-0.0697 -0.135432,-0.10908 -0.11357,-0.10509 -0.217331,-0.22059 -0.332494,-0.32393 -0.05099,-0.0458 0.09082,0.10274 0.139602,0.15084 0.10681,0.1053 0.217977,0.20609 0.326967,0.30914 -0.01762,-0.0153 -0.07039,-0.0615 -0.05287,-0.046 0.363415,0.32063 0.09233,0.0895 0.595405,0.47458 0.02719,0.0208 -0.112363,-0.0784 -0.08431,-0.0587 0.07443,0.0521 0.282147,0.22548 0.223449,0.15612 -0.06198,-0.0732 -0.155734,-0.11208 -0.233601,-0.16812 0.386361,0.29271 -0.0463,-0.0277 0.601623,0.40648 0.07206,0.0483 -0.138917,-0.11043 -0.221747,-0.13619 -0.07775,-0.0242 0.13757,0.0872 0.206004,0.1313 0.01431,0.009 -0.02983,-0.0166 -0.04365,-0.0266 -0.12964,-0.0935 -0.257728,-0.18915 -0.386593,-0.28373 -0.588544,-0.53996 0.426842,0.40096 -0.124537,-0.11233 3.965731,4.03397 9.670637,-1.57442 5.704906,-5.6084 v 0 c -0.804473,-0.7725 0.462093,0.44032 -0.381928,-0.36008 -0.156171,-0.11792 -0.310335,-0.23854 -0.468516,-0.35376 -0.04245,-0.0309 -0.08379,-0.0661 -0.133038,-0.0844 -0.046,-0.017 0.164851,0.10641 0.123071,0.0807 -0.68883,-0.4238 -0.05546,-0.0558 0.123679,0.10142 -0.106765,-0.0792 -0.214109,-0.15756 -0.320291,-0.23751 -0.04051,-0.0305 0.164274,0.11901 0.123267,0.0892 -0.06242,-0.0454 -0.244555,-0.18791 -0.187505,-0.1359 0.0823,0.075 0.177366,0.13474 0.263564,0.20522 0.03615,0.0296 0.137602,0.12635 0.103241,0.0947 -0.05477,-0.0504 -0.109636,-0.10071 -0.164455,-0.15107 0.07122,0.07 0.143394,0.1391 0.213649,0.21009 0.01765,0.0178 0.06775,0.0739 0.04993,0.0562 -0.13971,-0.13821 -0.27287,-0.28309 -0.415687,-0.41809 -0.448601,-0.42405 -0.105902,-0.0199 0.07182,0.0752 -0.159427,-0.13937 -0.312989,-0.28575 -0.478282,-0.41812 -0.222816,-0.17842 -0.411329,-0.2731 -0.656968,-0.41517 -0.09555,-0.0553 0.798496,0.46783 0.507582,0.33721 0.15586,0.13247 0.230851,0.19506 -0.197567,-0.15749 -0.03201,-0.0263 0.130251,0.10258 0.09725,0.0775 -0.321104,-0.24411 -0.183301,-0.15563 -0.530416,-0.38258 -0.06371,-0.0417 0.125712,0.0858 0.188569,0.12878 -0.0099,-0.007 -0.03934,-0.0292 -0.02987,-0.0214 0.05278,0.0434 0.103684,0.0894 0.159855,0.12825 0.07766,0.0537 -0.142396,-0.1247 -0.219823,-0.17879 -0.553466,-0.38661 -0.37015,-0.27376 -0.831805,-0.52266 0.09367,0.0521 -0.02729,-0.0155 -0.113864,-0.0582 -0.01908,-0.009 0.07452,0.041 0.05553,0.0314 -0.187319,-0.0944 -0.369826,-0.1971 -0.564033,-0.27672 -0.204616,-0.0914 -0.376341,-0.16497 -0.528185,-0.22925 0.07513,0.0369 0.301511,0.1454 0.225385,0.11063 -0.615378,-0.2811 -0.200676,-0.11735 -0.729938,-0.31693 -0.03645,-0.0137 0.144455,0.0584 0.108395,0.0437 -0.0371,-0.0152 -0.07386,-0.0312 -0.110784,-0.0467 0.05993,0.0291 0.119793,0.0584 0.179787,0.0873 0.01704,0.008 -0.03436,-0.0159 -0.05105,-0.0248 -0.07095,-0.038 -0.1413,-0.0771 -0.212412,-0.11472 -0.03422,-0.0181 -0.132358,-0.0786 -0.103564,-0.0526 0.0356,0.032 0.08304,0.0477 0.124561,0.0715 -0.255749,-0.14721 -0.469199,-0.26358 -0.688898,-0.37789 -0.368186,-0.18393 -0.206285,-0.10317 -0.573974,-0.27731 -0.03039,-0.0144 0.131919,0.053 0.0903,0.0449 0.166772,0.0957 -0.04435,-0.0256 -0.05223,-0.0291 -0.02908,-0.0128 0.05404,0.0334 0.08112,0.05 0.02167,0.0133 -0.04319,-0.0268 -0.06486,-0.04 -0.183128,-0.11213 -0.120475,-0.0753 -0.229076,-0.13823 0.06377,0.0422 0.254302,0.17007 0.191331,0.12666 -0.08395,-0.0579 -0.169304,-0.11366 -0.254262,-0.17004 -0.02204,-0.0146 0.08747,0.0594 0.06548,0.0448 -0.142659,-0.0951 -0.282406,-0.19649 -0.434362,-0.27658 -0.307744,-0.18257 -0.622337,-0.36373 -0.959209,-0.48852 -0.0074,-0.003 0.01389,0.007 0.02082,0.011 -0.401542,-0.18356 -0.802555,-0.37291 -1.234456,-0.47626 0.07539,0.0279 7.94e-4,-2.2e-4 -0.127971,-0.0364 -0.247557,-0.0695 -0.494871,-0.13223 -0.746786,-0.18394 -0.08574,-0.0176 -0.172101,-0.032 -0.258151,-0.0481 -0.489768,-0.0762 -0.981568,-0.14708 -1.478836,-0.11337 -0.635802,0.0304 -1.266076,0.13361 -1.852411,0.3931 -0.04162,0.0181 -0.08831,0.0275 -0.124849,0.0544 -0.03269,0.0241 0.150079,-0.0621 0.112958,-0.0456 -0.126521,0.0561 -0.256452,0.10471 -0.381203,0.16469 -0.366642,0.17625 -0.708684,0.39739 -1.023544,0.65469 -0.07088,0.0617 -0.141917,0.12324 -0.21263,0.18514 -0.0089,0.008 0.01799,-0.0154 0.0272,-0.0228 0.03821,-0.0309 0.07602,-0.0624 0.115028,-0.0923 0.03158,-0.0242 0.127889,-0.0948 0.09667,-0.0701 -0.502158,0.39747 -0.210714,0.14409 -0.552368,0.45079 -0.104259,0.10758 -0.210076,0.21367 -0.312772,0.32274 -0.366961,0.38974 -0.651166,0.85489 -0.876837,1.33775 -0.285948,0.67569 -0.127481,0.2931 -0.09328,0.22474 0.01262,-0.0252 0.15862,-0.28314 0.06305,-0.1152 -0.01722,0.0303 -0.03469,0.0604 -0.05203,0.0906 -0.202161,0.36234 -0.322149,0.60595 -0.458444,0.91114 -0.160356,0.38982 -0.339273,0.77369 -0.430744,1.18813 -0.02527,0.12687 -0.0521,0.25343 -0.07578,0.3806 -0.08971,0.4817 -0.082,0.97986 -0.02135,1.4645 0.03245,0.21594 0.0347,0.25318 0.08062,0.46817 0.01503,0.0704 0.03225,0.14024 0.04953,0.21008 0.0109,0.0441 0.04317,0.17645 0.03505,0.13174 -0.01537,-0.0846 -0.07186,-0.33638 -0.05684,-0.25169 0.01807,0.10188 0.044,0.2022 0.066,0.30331 0.164055,0.58707 0.376788,1.15669 0.70241,1.67636 0.343429,0.52403 0.719632,1.03137 1.291741,1.46192 0.296405,0.21621 0.575294,0.41571 0.916866,0.60569 0.0355,0.0194 0.134657,0.0873 0.106516,0.0582 -0.03272,-0.0338 -0.161706,-0.0963 -0.120822,-0.073 0.263763,0.15026 0.329642,0.19275 0.588253,0.32606 0.02609,0.0134 -0.05155,-0.0281 -0.07732,-0.0421 0.247483,0.12652 0.389374,0.22498 0.586102,0.32217 0.297636,0.14784 0.608346,0.30304 0.826059,0.37878 -0.05703,-0.0258 -0.114702,-0.0502 -0.171093,-0.0774 -0.03472,-0.0167 -0.136565,-0.0716 -0.102121,-0.0543 0.355457,0.17859 0.279688,0.14969 0.726064,0.35601 0.0222,0.009 0.04265,0.0297 0.06658,0.0276 0.02191,-0.002 -0.07967,-0.0372 -0.05961,-0.0282 0.195747,0.0879 0.387982,0.18441 0.590354,0.25672 -0.05278,-0.0226 -0.106098,-0.044 -0.158345,-0.0678 -0.03211,-0.0146 -0.06316,-0.0315 -0.09461,-0.0475 -0.0068,-0.003 0.01344,0.007 0.02066,0.01 0.003,10e-4 -0.01072,-0.007 -0.0079,-0.005 0.238432,0.12841 0.306517,0.17089 0.02392,0.005 0.158324,0.0968 0.198186,0.12291 0.394751,0.22988 0.06479,0.0353 0.253232,0.14843 0.197135,0.10053 -0.06664,-0.0569 -0.152812,-0.0858 -0.22951,-0.12817 -0.01296,-0.007 0.05037,0.0312 0.03834,0.0225 -0.06889,-0.0495 -0.139356,-0.0969 -0.209037,-0.14529 0.06589,0.0473 0.130982,0.0957 0.197668,0.14184 0.05808,0.0402 0.117406,0.0786 0.176556,0.11714 0.02915,0.019 0.115112,0.0779 0.08833,0.0557 -0.03714,-0.0308 -0.07871,-0.056 -0.119589,-0.0816 -0.03152,-0.0198 0.06099,0.0427 0.09149,0.064 0.136652,0.085 0.273304,0.16991 0.409956,0.25486 0.14387,0.0696 0.288028,0.13865 0.431607,0.20887 0.01873,0.009 -0.07626,-0.0339 -0.05707,-0.0257 0.06833,0.0291 0.135105,0.062 0.204499,0.0885 0.05311,0.0203 -0.103592,-0.0469 -0.155585,-0.0699 -0.0127,-0.006 0.02516,0.0118 0.03772,0.0177 0.123793,0.0539 0.247586,0.10775 0.371379,0.16163 -0.03599,-0.0152 -0.07194,-0.0305 -0.107976,-0.0456 -0.01175,-0.005 0.02318,0.0107 0.03514,0.0151 0.368292,0.13517 0.72725,0.28046 1.115777,0.34187 0.09463,0.0175 0.189143,0.0355 0.28388,0.0524 0.03323,0.006 -0.06644,-0.012 -0.09934,-0.0195 -0.04818,-0.011 -0.09605,-0.0234 -0.14383,-0.0361 -0.01156,-0.003 -0.04596,-0.0132 -0.03418,-0.011 0.01535,0.003 0.02999,0.008 0.04491,0.013 0.05988,0.0181 0.119656,0.0365 0.17948,0.0548 -0.04928,-0.017 -0.09873,-0.0336 -0.147841,-0.0511 -0.0044,-0.002 -0.01693,-0.008 -0.01254,-0.006 0.430609,0.1551 0.864378,0.30469 1.323083,0.35461 0.326666,0.0381 0.654953,0.0554 0.983756,0.0493 0.235291,-2.7e-4 0.470741,-7.9e-4 0.705688,-0.0152 0.153559,-0.0107 0.306406,-0.0235 0.459269,-0.0418 0.03761,-0.004 0.07514,-0.01 0.112689,-0.0145 0.01638,-0.002 0.06153,0.004 0.04905,-0.007 -0.01315,-0.0114 -0.03467,0.003 -0.052,0.004 -0.06777,0.003 -0.135782,0.002 -0.203306,0.008 -0.05078,0.005 0.101981,-0.002 0.152956,-0.003 0.294933,-0.009 0.589655,-0.0282 0.882425,-0.0658 0.412065,-0.061 0.823007,-0.13505 1.220943,-0.26114 -0.107825,0.0188 -0.216199,0.0348 -0.323477,0.0565 -0.01733,0.004 0.23816,-0.0335 0.245706,-0.0347 0.196964,-0.0304 0.396742,-0.0418 0.592121,-0.0839 0.08833,-0.0178 0.481402,-0.0923 0.570871,-0.12767 1.38572,-0.54834 2.344943,-0.9089 2.88776,-2.76433 0.665247,-2.27392 -0.167846,-2.85331 -1.256186,-4.27003 -0.209344,-0.14964 -0.408384,-0.31484 -0.628026,-0.4489 -0.485304,-0.29621 -1.032399,-0.46816 -1.580433,-0.60159 -0.08212,-0.0186 -0.163409,-0.0407 -0.245313,-0.0602 -0.01714,-0.004 0.06791,0.0189 0.05085,0.0145 -0.175914,-0.0455 -0.237517,-0.0687 0.06344,0.0275 0.07578,0.0316 0.152265,0.0616 0.227349,0.0948 0.02453,0.0109 0.04796,0.0241 0.0713,0.0374 0.0046,0.003 -0.01016,-0.003 -0.01479,-0.005 -0.147614,-0.0775 -0.126243,-0.0646 -0.292571,-0.16783 -0.294304,-0.17734 -0.461468,-0.29901 -0.791162,-0.51145 -0.185936,-0.10939 0.525227,0.30943 -0.349279,-0.21886 -0.06365,-0.0384 -0.129432,-0.0733 -0.19453,-0.10919 -0.03173,-0.0175 -0.06171,-0.0393 -0.09593,-0.0512 -0.02392,-0.008 0.04298,0.0268 0.06447,0.0402 -0.06607,-0.0393 -0.132133,-0.0786 -0.198199,-0.11792 -0.339572,-0.1933 -0.685284,-0.37512 -1.017678,-0.58088 -0.585195,-0.34759 -1.163344,-0.70648 -1.743683,-1.06222 -0.545801,-0.3268 -1.088001,-0.65929 -1.632964,-0.98748 -0.390191,-0.2582 -0.773946,-0.5236 -1.147879,-0.80513 -0.266676,-0.19579 -0.533767,-0.391 -0.800089,-0.58726 -0.04854,-0.0358 -0.09577,-0.0734 -0.145574,-0.10736 -0.0051,-0.003 -0.01334,-1.8e-4 -0.01794,-0.004 -0.108091,-0.0955 -0.212297,-0.1953 -0.318442,-0.29295 -4.345715,-3.62143 -9.467191,2.52434 -5.121476,6.14577 z" />
    <path
       style="fill:#1a1a1a;stroke-width:0.264583"
       id="path35"
       d="m 42.584737,108.63185 c 0.10931,-0.30361 0.252886,-0.59319 0.388562,-0.88548 0.109093,-0.24341 0.221946,-0.48586 0.371718,-0.7072 0.118547,-0.20554 0.24175,-0.40807 0.374243,-0.60509 0.120401,-0.18905 0.231405,-0.38513 0.360622,-0.56844 0.163285,-0.20564 0.311774,-0.42202 0.478396,-0.62503 0.199321,-0.25592 0.395853,-0.51377 0.589338,-0.77418 0.191606,-0.2637 0.372636,-0.53471 0.545848,-0.81077 0.111086,-0.1731 0.239467,-0.33409 0.377804,-0.48623 0.06412,-0.0693 0.130593,-0.13637 0.196948,-0.20353 0.496888,-0.50309 -0.214598,-1.20579 -0.711483,-0.7027 v 0 c -0.07646,0.0774 -0.153009,0.15484 -0.226684,0.23497 -0.176938,0.19599 -0.341154,0.40357 -0.483688,0.62606 -0.159258,0.2539 -0.325414,0.50322 -0.501467,0.74584 -0.184206,0.24798 -0.371068,0.49373 -0.560732,0.73749 -0.182396,0.2237 -0.348059,0.45966 -0.525393,0.68731 -0.130461,0.18941 -0.248965,0.38709 -0.370147,0.5824 -0.13225,0.19781 -0.258929,0.39947 -0.375452,0.60689 -0.17572,0.26582 -0.319548,0.54955 -0.447058,0.84148 -0.146048,0.31522 -0.300027,0.62769 -0.417706,0.95509 -0.24828,0.66208 0.688049,1.0132 0.936331,0.35112 z" />
    <path
       style="fill:#1a1a1a;stroke-width:0.264583"
       id="path36"
       d="m 41.149455,109.03318 c 0.06172,0.31581 0.131252,0.62995 0.193061,0.94584 0.06611,0.3751 0.129733,0.75067 0.20638,1.12379 0.06183,0.33524 0.129093,0.66911 0.224483,0.99652 0.08392,0.27243 0.145296,0.55102 0.228222,0.82363 0.07599,0.24512 0.163097,0.48588 0.264456,0.72163 0.115446,0.26472 0.268288,0.51078 0.426636,0.75155 0.144361,0.21161 0.311499,0.40164 0.500972,0.57346 0.231267,0.21001 0.496501,0.37659 0.76054,0.5415 0.180586,0.13379 0.385085,0.22769 0.58375,0.33048 0.204406,0.0918 0.396684,0.2063 0.593537,0.31259 0.226505,0.13468 0.456118,0.26371 0.688062,0.38966 0.235702,0.13712 0.469162,0.27778 0.705186,0.41439 0.254955,0.15373 0.503907,0.31299 0.772467,0.44259 0.371332,0.17594 0.774607,0.26492 1.16405,0.3906 0.374523,0.13399 0.763551,0.2229 1.150774,0.31156 0.404251,0.10912 0.815173,0.189 1.224992,0.27344 0.341227,0.069 0.686477,0.11719 1.031986,0.15901 0.269052,0.0516 0.542374,0.07 0.813681,0.10363 0.241069,0.0299 0.482515,0.0608 0.721341,0.10563 0.302784,0.0517 0.609055,0.0833 0.914416,0.11679 0.275722,0.0313 0.553109,0.0402 0.830331,0.0448 0.235897,0.003 0.471821,0.002 0.707732,0.002 0.201538,-2.7e-4 0.403076,-5.3e-4 0.604617,-5.3e-4 0.22133,0.003 0.4415,0.004 0.661549,-0.0222 0.241207,-0.006 0.442187,-0.12416 0.650372,-0.22886 0.270666,-0.12138 0.517189,-0.28579 0.746009,-0.47304 0.222006,-0.20103 0.41529,-0.43142 0.609552,-0.65872 0.188132,-0.22335 0.393385,-0.42875 0.56583,-0.66515 0.134295,-0.17278 0.28511,-0.33202 0.429183,-0.49676 0.234527,-0.25176 0.449988,-0.51748 0.652603,-0.79545 0.228867,-0.31204 0.428141,-0.64328 0.620286,-0.97871 0.25241,-0.45996 0.401167,-0.96326 0.537628,-1.46676 0.09613,-0.39571 0.149712,-0.80037 0.213146,-1.20233 0.05937,-0.36589 0.0786,-0.73626 0.08936,-1.10623 0.0069,-0.32799 0.0059,-0.65606 0.0055,-0.9841 0.0033,-0.36512 -1.27e-4,-0.72957 -0.02027,-1.09415 -0.02661,-0.29472 -0.0091,-0.14892 -0.05205,-0.43744 -0.106955,-0.69897 -1.095449,-0.54771 -0.988494,0.15126 v 0 c 0.03444,0.21665 0.01976,0.10287 0.04208,0.34157 0.01931,0.34648 0.0217,0.69281 0.01873,1.03982 2.65e-4,0.31811 0.0013,0.63626 -0.0051,0.95432 -0.0093,0.32756 -0.02511,0.65561 -0.07763,0.97958 -0.0574,0.36633 -0.107074,0.73487 -0.190505,1.09625 -0.114105,0.42151 -0.232982,0.84476 -0.440545,1.23188 -0.173429,0.30402 -0.353507,0.60403 -0.560689,0.88659 -0.185052,0.25471 -0.382789,0.49673 -0.59789,0.72682 -0.163837,0.18877 -0.336925,0.37006 -0.487269,0.57006 -0.152252,0.2171 -0.352089,0.3927 -0.515575,0.60094 -0.156523,0.18508 -0.314474,0.37038 -0.488657,0.53897 -0.16864,0.14602 -0.361894,0.25966 -0.564401,0.35242 -0.109717,0.0576 -0.18342,0.12193 -0.311118,0.12443 -0.180033,0.0227 -0.360813,0.014 -0.542063,0.015 -0.201779,8e-5 -0.403558,2.5e-4 -0.605335,5.3e-4 -0.230068,2.6e-4 -0.460147,10e-4 -0.690202,-0.002 -0.246393,-0.004 -0.492983,-0.0111 -0.738053,-0.039 -0.281257,-0.0307 -0.563382,-0.0596 -0.842359,-0.10625 -0.259162,-0.0469 -0.520221,-0.0835 -0.781709,-0.11482 -0.271714,-0.0324 -0.544782,-0.0533 -0.814223,-0.10369 -0.318096,-0.0383 -0.635961,-0.0825 -0.950143,-0.14568 -0.402667,-0.0829 -0.806331,-0.16146 -1.203489,-0.26876 -0.359159,-0.0822 -0.720463,-0.16323 -1.067469,-0.28866 -0.34771,-0.11171 -0.707327,-0.19191 -1.041212,-0.34188 -0.245886,-0.1142 -0.465998,-0.27052 -0.700847,-0.40492 -0.243922,-0.14118 -0.485259,-0.28642 -0.729083,-0.42778 -0.232762,-0.12629 -0.46337,-0.25496 -0.690386,-0.39092 -0.202625,-0.10916 -0.400574,-0.22694 -0.610735,-0.32165 -0.175376,-0.0895 -0.354332,-0.17118 -0.512461,-0.29003 -0.216034,-0.13421 -0.434366,-0.26851 -0.623993,-0.43928 -0.12904,-0.11143 -0.234828,-0.24187 -0.333632,-0.38066 -0.127902,-0.18883 -0.246663,-0.38545 -0.34086,-0.59332 -0.08733,-0.20246 -0.161978,-0.40916 -0.227052,-0.61991 -0.08355,-0.26803 -0.14025,-0.54393 -0.224687,-0.81188 -0.08933,-0.30042 -0.145671,-0.60865 -0.204454,-0.91623 -0.0764,-0.36981 -0.138094,-0.74239 -0.204427,-1.11409 -0.05741,-0.29337 -0.118341,-0.58583 -0.182174,-0.87784 -0.0877,-0.70165 -1.079984,-0.57762 -0.992277,0.12403 z" />
    <path
       style="fill:#1a1a1a;stroke-width:0.264583"
       d="m 46.777478,105.78606 c -0.520472,0.26024 -0.520472,0.26024 0,0 z"
       id="path40" />
    <path
       style="fill:#1a1a1a;stroke-width:0.264583"
       id="path41"
       d="m 47.787255,107.62057 c -0.106169,0.17127 -0.215143,0.3714 -0.219877,0.57895 -0.0011,0.0455 0.0088,0.0906 0.01323,0.13597 0.01558,0.0417 0.02048,0.0893 0.04679,0.12521 0.134898,0.18439 0.3762,0.27848 0.601914,0.25666 0.05319,-0.005 0.104386,-0.0229 0.156577,-0.0344 0.220369,-0.0991 0.391245,-0.29794 0.320496,-0.55452 -0.01172,-0.0425 -0.03742,-0.0798 -0.05612,-0.11969 -0.116506,-0.16727 -0.239876,-0.27521 -0.434771,-0.34004 -0.04314,-0.001 -0.08851,-0.0171 -0.129426,-0.003 -0.287041,0.0962 -0.278644,0.30652 -0.184359,0.53255 0.137631,0.32566 0.598191,0.13103 0.460562,-0.19464 v 0 c -0.005,-0.0117 -0.0072,-0.0251 -0.01513,-0.035 -0.0035,-0.004 -0.0038,0.0107 -0.0064,0.0157 -0.01905,0.0363 -0.02405,0.0832 -0.05506,0.11004 -0.104574,0.0906 -0.115793,0.0777 -0.199179,0.0579 -0.02069,-0.0424 0.145063,0.11445 0.130585,0.10664 0.0029,-0.0319 0.05451,-0.13288 0.03102,-0.0561 -0.0408,0.039 -0.171021,-0.007 -0.17744,0.001 -0.01101,0.0141 0.01159,0.0342 0.01283,0.052 2.11e-4,0.003 -0.0061,5.2e-4 -0.0091,7.9e-4 -0.04613,-0.0309 0.07494,-0.27551 0.103352,-0.32362 0.220864,-0.27608 -0.169572,-0.58843 -0.390435,-0.31235 z" />
    <path
       style="fill:#1a1a1a;stroke-width:0.264583"
       id="path41-8"
       d="m 55.730297,109.77917 c -0.106169,0.17127 -0.215143,0.3714 -0.219877,0.57895 -0.0011,0.0455 0.0088,0.0906 0.01323,0.13597 0.01558,0.0417 0.02048,0.0893 0.04679,0.12521 0.134898,0.18439 0.3762,0.27848 0.601914,0.25666 0.05319,-0.005 0.104386,-0.0229 0.156577,-0.0344 0.220369,-0.0991 0.391245,-0.29794 0.320496,-0.55452 -0.01172,-0.0425 -0.03742,-0.0798 -0.05612,-0.11969 -0.116506,-0.16727 -0.239876,-0.27521 -0.434771,-0.34004 -0.04314,-10e-4 -0.08851,-0.0171 -0.129426,-0.003 -0.287041,0.0962 -0.278644,0.30652 -0.184359,0.53255 0.137631,0.32566 0.598191,0.13103 0.460562,-0.19464 v 0 c -0.005,-0.0117 -0.0072,-0.0251 -0.01513,-0.035 -0.0035,-0.004 -0.0038,0.0107 -0.0064,0.0157 -0.01905,0.0363 -0.02405,0.0832 -0.05506,0.11004 -0.104574,0.0906 -0.115793,0.0777 -0.199179,0.0579 -0.02069,-0.0424 0.145063,0.11445 0.130585,0.10664 0.0029,-0.0319 0.05451,-0.13288 0.03102,-0.0561 -0.0408,0.039 -0.171021,-0.007 -0.17744,10e-4 -0.01101,0.0141 0.01159,0.0342 0.01283,0.052 2.11e-4,0.003 -0.0061,5.2e-4 -0.0091,7.9e-4 -0.04613,-0.0309 0.07494,-0.27551 0.103352,-0.32362 0.220864,-0.27608 -0.169572,-0.58843 -0.390435,-0.31235 z" />
    <path
       style="fill:#1a1a1a;stroke-width:0.264583"
       id="path41-1"
       d="m 54.550685,113.82153 c -0.106169,0.17127 -0.215143,0.3714 -0.219877,0.57895 -0.0011,0.0455 0.0088,0.0906 0.01323,0.13597 0.01558,0.0417 0.02048,0.0893 0.04679,0.12521 0.134898,0.18439 0.3762,0.27848 0.601914,0.25666 0.05319,-0.005 0.104386,-0.0229 0.156577,-0.0344 0.220369,-0.0991 0.391245,-0.29794 0.320496,-0.55452 -0.01172,-0.0425 -0.03742,-0.0798 -0.05612,-0.11969 -0.116506,-0.16727 -0.239876,-0.27521 -0.434771,-0.34004 -0.04314,-0.001 -0.08851,-0.0171 -0.129426,-0.003 -0.287041,0.0962 -0.278644,0.30652 -0.184359,0.53255 0.137631,0.32566 0.598191,0.13103 0.460562,-0.19464 v 0 c -0.005,-0.0117 -0.0072,-0.0251 -0.01513,-0.035 -0.0035,-0.004 -0.0038,0.0107 -0.0064,0.0157 -0.01905,0.0363 -0.02405,0.0832 -0.05506,0.11004 -0.104574,0.0906 -0.115793,0.0777 -0.199179,0.0579 -0.02069,-0.0424 0.145063,0.11445 0.130585,0.10664 0.0029,-0.0319 0.05451,-0.13288 0.03102,-0.0561 -0.0408,0.039 -0.171021,-0.007 -0.17744,10e-4 -0.01101,0.0141 0.01159,0.0342 0.01283,0.052 2.11e-4,0.003 -0.0061,5.2e-4 -0.0091,7.9e-4 -0.04613,-0.0309 0.07494,-0.27551 0.103352,-0.32362 0.220864,-0.27608 -0.169572,-0.58843 -0.390435,-0.31235 z" />
    <path
       style="fill:#1a1a1a;stroke-width:0.264583"
       id="path41-2"
       d="m 52.052358,110.37355 c -0.106169,0.17127 -0.215143,0.3714 -0.219877,0.57895 -0.0011,0.0455 0.0088,0.0906 0.01323,0.13597 0.01558,0.0417 0.02048,0.0893 0.04679,0.12521 0.134898,0.18439 0.3762,0.27848 0.601914,0.25666 0.05319,-0.005 0.104386,-0.0229 0.156577,-0.0344 0.220369,-0.0991 0.391245,-0.29794 0.320496,-0.55452 -0.01172,-0.0425 -0.03742,-0.0798 -0.05612,-0.11969 -0.116506,-0.16727 -0.239876,-0.27521 -0.434771,-0.34004 -0.04314,-0.001 -0.08851,-0.0171 -0.129426,-0.003 -0.287041,0.0962 -0.278644,0.30652 -0.184359,0.53255 0.137631,0.32566 0.598191,0.13103 0.460562,-0.19464 v 0 c -0.005,-0.0117 -0.0072,-0.0251 -0.01513,-0.035 -0.0035,-0.004 -0.0038,0.0107 -0.0064,0.0157 -0.01905,0.0363 -0.02405,0.0832 -0.05506,0.11004 -0.104574,0.0906 -0.115793,0.0777 -0.199179,0.0579 -0.02069,-0.0424 0.145063,0.11445 0.130585,0.10664 0.0029,-0.0319 0.05451,-0.13288 0.03102,-0.0561 -0.0408,0.039 -0.171021,-0.007 -0.17744,10e-4 -0.01101,0.0141 0.01159,0.0342 0.01283,0.052 2.11e-4,0.003 -0.0061,5.2e-4 -0.0091,7.9e-4 -0.04613,-0.0309 0.07494,-0.27551 0.103352,-0.32362 0.220864,-0.27608 -0.169572,-0.58843 -0.390435,-0.31235 z" />
    <path
       style="fill:#1a1a1a;stroke-width:0.264583"
       id="path41-23"
       d="m 48.244156,111.8741 c -0.106169,0.17127 -0.215143,0.3714 -0.219877,0.57895 -0.0011,0.0455 0.0088,0.0906 0.01323,0.13597 0.01558,0.0417 0.02048,0.0893 0.04679,0.12521 0.134898,0.18439 0.3762,0.27848 0.601914,0.25666 0.05319,-0.005 0.104386,-0.0229 0.156577,-0.0344 0.220369,-0.0991 0.391245,-0.29794 0.320496,-0.55452 -0.01172,-0.0425 -0.03742,-0.0798 -0.05612,-0.11969 -0.116506,-0.16727 -0.239876,-0.27521 -0.434771,-0.34004 -0.04314,-0.001 -0.08851,-0.0171 -0.129426,-0.003 -0.287041,0.0962 -0.278644,0.30652 -0.184359,0.53255 0.137631,0.32566 0.598191,0.13103 0.460562,-0.19464 v 0 c -0.005,-0.0117 -0.0072,-0.0251 -0.01513,-0.035 -0.0035,-0.004 -0.0038,0.0107 -0.0064,0.0157 -0.01905,0.0363 -0.02405,0.0832 -0.05506,0.11004 -0.104574,0.0906 -0.115793,0.0777 -0.199179,0.0579 -0.02069,-0.0424 0.145063,0.11445 0.130585,0.10664 0.0029,-0.0319 0.05451,-0.13288 0.03102,-0.0561 -0.0408,0.039 -0.171021,-0.007 -0.17744,0.001 -0.01101,0.0141 0.01159,0.0342 0.01283,0.052 2.11e-4,0.003 -0.0061,5.2e-4 -0.0091,7.9e-4 -0.04613,-0.0309 0.07494,-0.27551 0.103352,-0.32362 0.220864,-0.27608 -0.169572,-0.58843 -0.390435,-0.31235 z" />
    <path
       style="fill:#1a1a1a;stroke-width:0.264583"
       id="path41-85"
       d="m 48.027243,104.35769 c -0.106169,0.17127 -0.215143,0.3714 -0.219877,0.57895 -0.0011,0.0455 0.0088,0.0906 0.01323,0.13597 0.01558,0.0417 0.02048,0.0893 0.04679,0.12521 0.134898,0.18439 0.3762,0.27848 0.601914,0.25666 0.05319,-0.005 0.104386,-0.0229 0.156577,-0.0344 0.220369,-0.0991 0.391245,-0.29794 0.320496,-0.55452 -0.01172,-0.0425 -0.03742,-0.0798 -0.05612,-0.11969 -0.116506,-0.16727 -0.239876,-0.27521 -0.434771,-0.34004 -0.04314,-10e-4 -0.08851,-0.0171 -0.129426,-0.003 -0.287041,0.0962 -0.278644,0.30652 -0.184359,0.53255 0.137631,0.32566 0.598191,0.13103 0.460562,-0.19464 v 0 c -0.005,-0.0117 -0.0072,-0.0251 -0.01513,-0.035 -0.0035,-0.004 -0.0038,0.0107 -0.0064,0.0157 -0.01905,0.0363 -0.02405,0.0832 -0.05506,0.11004 -0.104574,0.0906 -0.115793,0.0777 -0.199179,0.0579 -0.02069,-0.0424 0.145063,0.11445 0.130585,0.10664 0.0029,-0.0319 0.05451,-0.13288 0.03102,-0.0561 -0.0408,0.039 -0.171021,-0.007 -0.17744,0.001 -0.01101,0.0141 0.01159,0.0342 0.01283,0.052 2.11e-4,0.003 -0.0061,5.2e-4 -0.0091,7.9e-4 -0.04613,-0.0309 0.07494,-0.27551 0.103352,-0.32362 0.220864,-0.27608 -0.169572,-0.58843 -0.390435,-0.31235 z" />
    <path
       style="fill:#1a1a1a;stroke-width:0.264583"
       id="path41-9"
       d="m 52.225801,106.46101 c -0.106169,0.17127 -0.215143,0.3714 -0.219877,0.57895 -0.0011,0.0455 0.0088,0.0906 0.01323,0.13597 0.01558,0.0417 0.02048,0.0893 0.04679,0.12521 0.134898,0.18439 0.3762,0.27848 0.601914,0.25666 0.05319,-0.005 0.104386,-0.0229 0.156577,-0.0344 0.220369,-0.0991 0.391245,-0.29794 0.320496,-0.55452 -0.01172,-0.0425 -0.03742,-0.0798 -0.05612,-0.11969 -0.116506,-0.16727 -0.239876,-0.27521 -0.434771,-0.34004 -0.04314,-0.001 -0.08851,-0.0171 -0.129426,-0.003 -0.287041,0.0962 -0.278644,0.30652 -0.184359,0.53255 0.137631,0.32566 0.598191,0.13103 0.460562,-0.19464 v 0 c -0.005,-0.0117 -0.0072,-0.0251 -0.01513,-0.035 -0.0035,-0.004 -0.0038,0.0107 -0.0064,0.0157 -0.01905,0.0363 -0.02405,0.0832 -0.05506,0.11004 -0.104574,0.0906 -0.115793,0.0777 -0.199179,0.0579 -0.02069,-0.0424 0.145063,0.11445 0.130585,0.10664 0.0029,-0.0319 0.05451,-0.13288 0.03102,-0.0561 -0.0408,0.039 -0.171021,-0.007 -0.17744,0.001 -0.01101,0.0141 0.01159,0.0342 0.01283,0.052 2.11e-4,0.003 -0.0061,5.2e-4 -0.0091,7.9e-4 -0.04613,-0.0309 0.07494,-0.27551 0.103352,-0.32362 0.220864,-0.27608 -0.169572,-0.58843 -0.390435,-0.31235 z" />
    <path
       style="fill:#1a1a1a;stroke-width:0.264583"
       id="path41-4"
       d="m 44.015316,110.00898 c -0.106169,0.17127 -0.215143,0.3714 -0.219877,0.57895 -0.0011,0.0455 0.0088,0.0906 0.01323,0.13597 0.01558,0.0417 0.02048,0.0893 0.04679,0.12521 0.134898,0.18439 0.3762,0.27848 0.601914,0.25666 0.05319,-0.005 0.104386,-0.0229 0.156577,-0.0344 0.220369,-0.0991 0.391245,-0.29794 0.320496,-0.55452 -0.01172,-0.0425 -0.03742,-0.0798 -0.05612,-0.11969 -0.116506,-0.16727 -0.239876,-0.27521 -0.434771,-0.34004 -0.04314,-10e-4 -0.08851,-0.0171 -0.129426,-0.003 -0.287041,0.0962 -0.278644,0.30652 -0.184359,0.53255 0.137631,0.32566 0.598191,0.13103 0.460562,-0.19464 v 0 c -0.005,-0.0117 -0.0072,-0.0251 -0.01513,-0.035 -0.0035,-0.004 -0.0038,0.0107 -0.0064,0.0157 -0.01905,0.0363 -0.02405,0.0832 -0.05506,0.11004 -0.104574,0.0906 -0.115793,0.0777 -0.199179,0.0579 -0.02069,-0.0424 0.145063,0.11445 0.130585,0.10664 0.0029,-0.0319 0.05451,-0.13288 0.03102,-0.0561 -0.0408,0.039 -0.171021,-0.007 -0.17744,10e-4 -0.01101,0.0141 0.01159,0.0342 0.01283,0.052 2.11e-4,0.003 -0.0061,5.2e-4 -0.0091,7.9e-4 -0.04613,-0.0309 0.07494,-0.27551 0.103352,-0.32362 0.220864,-0.27608 -0.169572,-0.58843 -0.390435,-0.31235 z" />
    <path
       style="fill:#1a1a1a;stroke-width:0.264583"
       id="path41-3"
       d="m 58.07257,112.88911 c -0.106169,0.17127 -0.215143,0.3714 -0.219877,0.57895 -0.0011,0.0455 0.0088,0.0906 0.01323,0.13597 0.01558,0.0417 0.02048,0.0893 0.04679,0.12521 0.134898,0.18439 0.3762,0.27848 0.601914,0.25666 0.05319,-0.005 0.104386,-0.0229 0.156577,-0.0344 0.220369,-0.0991 0.391245,-0.29794 0.320496,-0.55452 -0.01172,-0.0425 -0.03742,-0.0798 -0.05612,-0.11969 -0.116506,-0.16727 -0.239876,-0.27521 -0.434771,-0.34004 -0.04314,-0.001 -0.08851,-0.0171 -0.129426,-0.003 -0.287041,0.0962 -0.278644,0.30652 -0.184359,0.53255 0.137631,0.32566 0.598191,0.13103 0.460562,-0.19464 v 0 c -0.005,-0.0117 -0.0072,-0.0251 -0.01513,-0.035 -0.0035,-0.004 -0.0038,0.0107 -0.0064,0.0157 -0.01905,0.0363 -0.02405,0.0832 -0.05506,0.11004 -0.104574,0.0906 -0.115793,0.0777 -0.199179,0.0579 -0.02069,-0.0424 0.145063,0.11445 0.130585,0.10664 0.0029,-0.0319 0.05451,-0.13288 0.03102,-0.0561 -0.0408,0.039 -0.171021,-0.007 -0.17744,0.001 -0.01101,0.0141 0.01159,0.0342 0.01283,0.052 2.11e-4,0.003 -0.0061,5.2e-4 -0.0091,7.9e-4 -0.04613,-0.0309 0.07494,-0.27551 0.103352,-0.32362 0.220864,-0.27608 -0.169572,-0.58843 -0.390435,-0.31235 z" />
    <path
       style="fill:#1a1a1a;stroke-width:0.264583"
       id="path41-87"
       d="m 50.777404,114.52863 c -0.106169,0.17127 -0.215143,0.3714 -0.219877,0.57895 -0.0011,0.0455 0.0088,0.0906 0.01323,0.13597 0.01558,0.0417 0.02048,0.0893 0.04679,0.12521 0.134898,0.18439 0.3762,0.27848 0.601914,0.25666 0.05319,-0.005 0.104386,-0.0229 0.156577,-0.0344 0.220369,-0.0991 0.391245,-0.29794 0.320496,-0.55452 -0.01172,-0.0425 -0.03742,-0.0798 -0.05612,-0.11969 -0.116506,-0.16727 -0.239876,-0.27521 -0.434771,-0.34004 -0.04314,-10e-4 -0.08851,-0.0171 -0.129426,-0.003 -0.287041,0.0962 -0.278644,0.30652 -0.184359,0.53255 0.137631,0.32566 0.598191,0.13103 0.460562,-0.19464 v 0 c -0.005,-0.0117 -0.0072,-0.0251 -0.01513,-0.035 -0.0035,-0.004 -0.0038,0.0107 -0.0064,0.0157 -0.01905,0.0363 -0.02405,0.0832 -0.05506,0.11004 -0.104574,0.0906 -0.115793,0.0777 -0.199179,0.0579 -0.02069,-0.0424 0.145063,0.11445 0.130585,0.10664 0.0029,-0.0319 0.05451,-0.13288 0.03102,-0.0561 -0.0408,0.039 -0.171021,-0.007 -0.17744,10e-4 -0.01101,0.0141 0.01159,0.0342 0.01283,0.052 2.11e-4,0.003 -0.0061,5.2e-4 -0.0091,7.9e-4 -0.04613,-0.0309 0.07494,-0.27551 0.103352,-0.32362 0.220864,-0.27608 -0.169572,-0.58843 -0.390435,-0.31235 z" />
    <path
       style="fill:#1a1a1a;stroke-width:0.264583"
       id="path42"
       d="m 46.327046,103.56382 c 0.345578,0 0.691153,0 1.03673,0 0.246711,0.0178 0.496628,0.0217 0.741545,0.0585 0.220597,0.0354 0.442397,0.0639 0.664089,0.092 0.210666,0.0215 0.420182,0.0548 0.626491,0.1024 0.209349,0.053 0.416451,0.11332 0.628242,0.15615 0.15053,0.0306 0.304186,0.0541 0.452708,0.0938 0.182697,0.0426 0.364352,0.0896 0.54266,0.14804 0.234871,0.0607 0.462208,0.1457 0.694423,0.21535 0.263916,0.0736 0.520337,0.16984 0.778679,0.2605 0.219228,0.0744 0.433271,0.15995 0.638746,0.26666 0.179242,0.0795 0.350391,0.17441 0.527267,0.25897 0.209339,0.0978 0.412496,0.20773 0.619099,0.31098 0.226946,0.11597 0.440327,0.25522 0.659125,0.38544 0.235915,0.11641 0.464735,0.24521 0.687342,0.38527 0.247531,0.15756 0.490072,0.32162 0.745771,0.46594 0.25478,0.16672 0.527444,0.30292 0.791718,0.45344 0.21023,0.11347 0.428953,0.20814 0.626448,0.34363 0.162507,0.12927 0.320096,0.26272 0.497187,0.37182 0.168989,0.10174 0.341236,0.20021 0.504095,0.31159 0.15568,0.0975 0.285943,0.22627 0.421118,0.34886 0.154869,0.11293 0.280027,0.25467 0.412515,0.39132 0.11957,0.13075 0.255077,0.24638 0.375179,0.37641 0.101227,0.13304 0.168656,0.28788 0.249812,0.4334 0.08598,0.16529 0.166264,0.3338 0.242956,0.50363 0.09355,0.15649 0.15404,0.3279 0.22125,0.49642 0.08934,0.18956 0.175919,0.38005 0.255127,0.5741 0.03516,0.11422 0.07278,0.22687 0.121481,0.33617 0.146846,0.32161 0.601678,0.11394 0.454832,-0.20767 v 0 c -0.04881,-0.10216 -0.0743,-0.21198 -0.113549,-0.31784 -0.07894,-0.19254 -0.163288,-0.38252 -0.253489,-0.57005 -0.07002,-0.17544 -0.132956,-0.35451 -0.230212,-0.51746 -0.08289,-0.18245 -0.168574,-0.36396 -0.261956,-0.54127 -0.1012,-0.18054 -0.183869,-0.37401 -0.321394,-0.5313 -0.123958,-0.13098 -0.25885,-0.25124 -0.381778,-0.38332 -0.140396,-0.14347 -0.273106,-0.2935 -0.435518,-0.41349 -0.153363,-0.13802 -0.301558,-0.28266 -0.477565,-0.39296 -0.171299,-0.11365 -0.347781,-0.22 -0.52466,-0.32469 -0.171744,-0.10009 -0.313622,-0.24102 -0.47425,-0.35712 -0.209497,-0.14153 -0.436121,-0.24898 -0.660307,-0.36473 -0.265094,-0.15076 -0.538179,-0.28777 -0.793848,-0.45464 -0.249084,-0.13967 -0.483669,-0.30126 -0.72498,-0.45357 -0.22611,-0.14186 -0.457398,-0.27481 -0.697611,-0.39155 -0.229306,-0.13648 -0.45307,-0.2823 -0.691364,-0.40306 -0.209227,-0.10451 -0.414925,-0.21588 -0.626941,-0.31481 -0.172257,-0.0823 -0.33887,-0.17502 -0.513582,-0.25218 -0.226502,-0.11632 -0.461135,-0.21284 -0.702498,-0.29413 -0.26575,-0.0932 -0.529678,-0.19187 -0.801098,-0.26778 -0.228552,-0.068 -0.451842,-0.15279 -0.683075,-0.21181 -0.188999,-0.061 -0.380716,-0.11265 -0.574264,-0.15717 -0.157589,-0.0387 -0.317778,-0.069 -0.477124,-0.0993 -0.20729,-0.0413 -0.409379,-0.10263 -0.614478,-0.15319 -0.222674,-0.0512 -0.448654,-0.0877 -0.675958,-0.1112 -0.219033,-0.0277 -0.438176,-0.0558 -0.656087,-0.0909 -0.268928,-0.0371 -0.541494,-0.0483 -0.812319,-0.0636 -0.345577,0 -0.691152,0 -1.03673,0 -0.353555,0 -0.353555,0.5 0,0.5 z" />
  </g>
</svg>
