<?xml version="1.0" encoding="UTF-8" standalone="no"?>
<!-- Created with Inkscape (http://www.inkscape.org/) -->

<svg
   width="69.860092mm"
   height="100.24437mm"
   viewBox="0 0 69.860092 100.24437"
   version="1.1"
   id="svg1"
   xmlns="http://www.w3.org/2000/svg"
   xmlns:svg="http://www.w3.org/2000/svg">
  <defs
     id="defs1" />
  <g
     id="layer1"
     transform="translate(-83.049706,-118.75879)">
    <path
       style="fill:#000000;stroke-width:0.264583"
       id="path1"
       d="m 115.95836,194.21428 c -0.90613,-2.85116 -2.02987,-5.62656 -3.04784,-8.43841 -1.20482,-3.45746 -2.30061,-6.94676 -3.8802,-10.25578 -1.25423,-2.68765 -3.00551,-4.05194 -5.48784,-5.53116 -0.48633,-0.25908 -0.96819,-0.52674 -1.459,-0.77723 -1.97499,-1.00799 -1.28038,-0.57315 -3.288541,-1.64889 -1.850713,-0.9914 -3.582363,-2.09761 -5.302395,-3.2981 -2.009868,-1.50899 -3.794699,-3.30355 -5.242751,-5.36087 -0.776573,-1.10332 -1.023847,-1.62337 -1.667613,-2.78881 -1.145474,-2.22293 -1.931569,-4.58587 -2.347272,-7.04667 0.0209,-0.61608 -0.450054,-2.00484 -0.04192,-2.5553 0.0069,-0.009 0.140843,0.0537 0.288866,0.12009 1.588405,0.67551 2.98286,1.73054 4.435237,2.64701 1.228783,0.77538 2.471119,1.52907 3.7064,2.29406 3.107587,1.83353 5.964801,4.04083 8.861599,6.18047 1.47554,0.95266 2.88338,2.50571 4.7265,2.72389 0.29095,0.0344 0.5859,-0.009 0.87885,-0.0132 2.1886,-0.41808 3.10425,-1.6204 4.1165,-3.49151 1.05984,-2.23724 1.576,-4.65475 1.73424,-7.11201 0.0671,-3.18201 -1.4775,-6.00682 -2.96451,-8.71701 -2.014,-3.55903 -4.20578,-7.01024 -6.25785,-10.54688 -1.21277,-2.04715 -2.25719,-4.20509 -3.65721,-6.13546 -0.76284,-1.04423 -1.839393,-1.23265 -3.050391,-1.31445 -1.74009,-0.11493 -3.441763,0.36716 -5.089181,0.87314 -1.303811,0.33534 -2.520354,0.95289 -3.814815,1.30824 -0.04081,-0.0244 -0.0959,-0.0337 -0.122428,-0.0732 -0.101002,-0.15024 0.06971,-0.0965 0.108204,-0.15099 0.147045,-0.2082 0.16954,-0.48318 0.291991,-0.70673 0.09845,-0.17973 0.224386,-0.34297 0.336579,-0.51446 1.125559,-1.51935 2.853563,-2.15833 4.578567,-2.73934 2.461546,-0.78778 5.033836,-1.08523 7.598434,-1.2925 1.90939,-0.22417 3.04475,-0.0791 4.74499,0.78991 1.60642,1.07215 2.95738,2.48911 4.20062,3.95566 1.26502,1.45475 2.34888,3.04838 3.47295,4.61069 1.19681,1.57778 2.39156,3.15188 3.52816,4.77364 1.2661,1.70362 2.31619,3.55901 3.37334,5.39685 0.12136,0.23203 0.24273,0.46407 0.36409,0.6961 0.32804,0.62641 1.21392,0.16249 0.88588,-0.46392 v 0 c -0.12773,-0.24362 -0.25546,-0.48725 -0.38319,-0.73087 -1.07233,-1.86343 -2.13785,-3.7442 -3.42122,-5.47209 -1.13898,-1.62515 -2.33544,-3.20317 -3.53536,-4.78378 -1.13978,-1.58389 -2.23973,-3.19889 -3.52232,-4.6738 -1.3308,-1.56546 -2.7762,-3.08054 -4.51156,-4.20081 -1.86678,-0.93584 -3.19297,-1.14275 -5.27706,-0.89432 -2.645997,0.2145 -5.29905,0.52608 -7.837783,1.34183 -1.944338,0.65859 -3.85771,1.42033 -5.102074,3.14968 -0.48078,0.77146 -1.428726,2.36795 -0.07141,2.89325 0.177943,0.0689 0.380016,0.0348 0.570024,0.0522 1.300456,-0.36948 2.530737,-0.96455 3.839546,-1.31551 1.530588,-0.47211 3.112494,-0.93329 4.729876,-0.83101 0.917269,0.0575 1.719575,0.11012 2.306659,0.90454 1.384022,1.89934 2.398792,4.03658 3.601152,6.04936 2.04819,3.52983 4.23514,6.97475 6.24627,10.52637 1.39616,2.53992 2.88237,5.18958 2.843,8.17296 -0.14143,2.31459 -0.63154,4.59217 -1.61798,6.703 -0.76205,1.44312 -1.57667,2.62376 -3.27071,2.96386 -0.20305,0.0134 -0.40643,0.058 -0.60915,0.0403 -1.63779,-0.14252 -3.04986,-1.74118 -4.36612,-2.55597 -2.918788,-2.1557 -5.798249,-4.37869 -8.929206,-6.22627 -1.230127,-0.76179 -2.467372,-1.51218 -3.69102,-2.28434 -1.340191,-0.8457 -2.667455,-1.90039 -4.135154,-2.52881 -0.287004,-0.12289 -0.596614,-0.18423 -0.894921,-0.27634 -0.254818,0.0452 -0.533091,0.0196 -0.764453,0.13551 -1.02321,0.51278 -0.473556,2.62377 -0.41543,3.46568 0.438568,2.57109 1.256318,5.04205 2.458175,7.36343 0.679471,1.22605 0.928349,1.75106 1.74907,2.9132 1.510522,2.13888 3.370998,4.00403 5.464313,5.57261 1.758489,1.22505 3.527499,2.35521 5.418521,3.36789 2.019765,1.08162 1.313444,0.64209 3.274515,1.64156 0.47699,0.2431 0.94534,0.50277 1.41801,0.75416 2.26763,1.34361 3.96877,2.63811 5.0964,5.10262 1.56788,3.27821 2.64388,6.74038 3.84224,10.1651 1.00658,2.77978 2.11433,5.52441 3.01796,8.3405 0.1715,0.686 1.14164,0.44346 0.97014,-0.24253 z" />
    <path
       style="fill:#000000;stroke-width:0.264583"
       id="path2"
       d="m 109.01429,121.10647 c 1.69406,-0.5162 3.46949,-0.73368 5.23405,-0.80369 0.27822,0.0426 0.56505,0.0469 0.83467,0.12773 1.55433,0.46577 3.03179,2.76255 3.91005,4.0125 1.93899,2.7766 3.68695,5.67968 5.50947,8.53257 0.63894,1.06007 1.3342,2.084 2.00894,3.12116 0.3856,0.59271 1.22382,0.0474 0.83822,-0.54533 v 0 c -0.67325,-1.03483 -1.3671,-2.05638 -2.00445,-3.1142 -1.83067,-2.86541 -3.58624,-5.78138 -5.53445,-8.56979 -1.14427,-1.62292 -2.54391,-3.8648 -4.58629,-4.42685 -0.32984,-0.0908 -0.67809,-0.0913 -1.01714,-0.13695 -1.84353,0.0779 -3.69757,0.30083 -5.46779,0.84133 -0.6799,0.19425 -0.40518,1.15578 0.27472,0.96152 z" />
    <path
       style="fill:#000000;stroke-width:0.264583"
       id="path3"
       d="m 124.06655,130.86181 c 1.20854,0.53772 2.36399,1.1768 3.43325,1.95533 1.08482,0.889 1.5907,2.24266 2.18057,3.47616 0.11308,0.25282 0.22617,0.50563 0.33925,0.75845 0.28885,0.64542 1.20161,0.23693 0.91277,-0.40849 v 0 c -0.11663,-0.26046 -0.23325,-0.52092 -0.34987,-0.78138 -0.66294,-1.38625 -1.25263,-2.87734 -2.49499,-3.8538 -1.11521,-0.80841 -2.31444,-1.48136 -3.57377,-2.0407 -0.63245,-0.31623 -1.07966,0.5782 -0.44721,0.89443 z" />
    <path
       style="fill:#000000;stroke-width:0.264583"
       id="path4"
       d="m 130.76056,136.3592 c 0.63638,1.06034 1.38332,2.04751 2.03409,3.09881 0.54025,0.9891 1.22892,1.87536 1.90444,2.7741 1.00824,1.31723 2.03227,2.63882 2.83572,4.09384 0.68533,1.07818 0.90288,2.28841 1.01589,3.53654 0.17568,1.70315 -0.23172,3.36265 -0.70567,4.98348 -0.54947,1.87376 -1.22033,3.7021 -1.67174,5.60485 -0.34562,1.62163 -0.45112,3.27655 -0.49964,4.9294 -0.0683,1.15306 -0.009,2.28723 0.20974,3.41988 0.31166,1.50121 0.68008,2.98935 1.06805,4.4725 0.48768,1.95919 0.94031,3.92629 1.4532,5.87913 0.54232,1.94996 0.85432,3.9435 1.19673,5.93366 0.26288,1.31335 0.3237,2.65354 0.50334,3.97718 0.0844,0.78842 0.27365,1.56022 0.43176,2.3359 0.14124,0.69286 1.12109,0.49311 0.97984,-0.19975 v 0 c -0.15384,-0.75453 -0.33928,-1.50503 -0.42088,-2.27202 -0.1851,-1.3342 -0.23927,-2.68715 -0.50856,-4.01102 -0.34789,-2.01839 -0.66538,-4.04022 -1.21504,-6.01799 -0.51288,-1.9525 -0.96495,-3.9194 -1.45294,-5.87817 -0.38263,-1.46257 -0.74624,-2.92997 -1.05388,-4.41029 -0.20815,-1.05986 -0.25473,-2.1203 -0.19179,-3.1998 0.0461,-1.58515 0.14465,-3.17244 0.47317,-4.72824 0.44559,-1.88647 1.11753,-3.69678 1.65863,-5.55519 0.507,-1.74209 0.93122,-3.526 0.74148,-5.35505 -0.12902,-1.38429 -0.38403,-2.73163 -1.13703,-3.92974 -0.83028,-1.49316 -1.87085,-2.85824 -2.91106,-4.21 -0.65794,-0.87507 -1.33035,-1.73533 -1.85387,-2.70015 -0.64596,-1.04025 -1.38053,-2.0211 -2.01574,-3.068 -0.35083,-0.61394 -1.21907,-0.1178 -0.86824,0.49614 z" />
    <path
       style="fill:#000000;stroke-width:0.264583"
       id="path5"
       d="m 114.32528,194.21581 c 0.0318,2.44133 0.38328,4.8675 0.69097,7.28559 0.55556,3.62647 1.22111,7.23936 2.03392,10.81734 0.15666,0.68953 1.13181,0.46798 0.97515,-0.22155 v 0 c -0.80585,-3.54648 -1.46526,-7.12763 -2.01707,-10.72204 -0.30245,-2.37617 -0.64951,-4.76043 -0.68297,-7.15934 0,-0.70711 -1,-0.70711 -1,0 z" />
    <path
       style="fill:#000000;stroke-width:0.264583"
       id="path6"
       d="m 142.08523,193.4019 c 1.08372,3.01293 2.18728,6.02141 3.33229,9.01241 0.85539,2.25994 1.60174,4.55784 2.45302,6.81911 0.2492,0.66174 1.18504,0.30931 0.93583,-0.35243 v 0 c -0.85243,-2.26276 -1.59778,-4.56299 -2.45495,-6.82421 -1.13989,-2.9773 -2.23837,-5.97209 -3.3175,-8.97111 -0.22361,-0.67082 -1.17229,-0.35459 -0.94869,0.31623 z" />
    <path
       style="fill:#000000;stroke-width:0.264583"
       id="path7"
       d="m 141.30515,189.95756 c 0.38646,1.00004 0.7248,2.02224 1.02801,3.051 0.27818,0.79797 0.69745,1.52237 0.9619,2.32697 0.25573,1.10485 0.58144,2.18885 0.88939,3.27949 0.13926,0.38063 0.29108,0.75564 0.42615,1.13773 0.23628,0.66647 1.1788,0.33232 0.94252,-0.33415 v 0 c -0.12845,-0.36135 -0.26752,-0.71799 -0.40635,-1.07549 -0.3123,-1.10448 -0.63885,-2.20299 -0.90206,-3.32091 -0.26306,-0.79452 -0.65868,-1.51725 -0.95249,-2.29684 -0.30749,-1.03947 -0.64785,-2.0733 -1.03838,-3.08403 -0.22361,-0.67081 -1.1723,-0.35459 -0.94869,0.31623 z" />
    <path
       style="fill:#000000;stroke-width:0.264583"
       id="path8"
       d="m 117.75125,213.14344 c 0.26497,0.93729 0.50193,2.03877 1.37072,2.61993 0.26515,0.17737 0.57638,0.27358 0.86457,0.41036 3.9801,0.96075 8.14641,1.22228 12.22242,1.52105 2.48626,0.10555 4.95796,0.40272 7.43858,0.58318 1.98298,0.2501 3.97817,0.33864 5.97416,0.40135 1.86793,0.0781 3.72875,0.34165 5.59976,0.3229 1.94027,-0.31964 1.81716,-1.77072 1.51499,-3.33945 -0.42429,-1.55273 -0.86303,-3.10894 -1.36136,-4.64061 -0.31267,-1.00432 -0.66354,-1.97531 -1.3956,-2.7457 -0.42703,-0.37548 -0.97066,-0.58022 -1.4892,-0.79735 -0.65261,-0.27219 -1.03756,0.65075 -0.38494,0.92294 v 0 c 0.39505,0.16404 0.81053,0.3155 1.15549,0.56978 0.63813,0.64291 0.87811,1.51851 1.16354,2.3604 0.48817,1.49298 0.91114,3.01227 1.33111,4.52478 0.0935,0.4576 0.51282,1.72925 -0.13905,2.03569 -0.12709,0.0597 -0.27119,0.0731 -0.40678,0.10958 -1.85624,0.0256 -3.70302,-0.25526 -5.55659,-0.32247 -1.98233,-0.0622 -3.96363,-0.15089 -5.93304,-0.39921 -2.48045,-0.18011 -4.9519,-0.47799 -7.43799,-0.58314 -3.97662,-0.29131 -7.99178,-0.55813 -11.88875,-1.43726 -0.32042,-0.12928 -0.72661,-0.23033 -0.96474,-0.51823 -0.43233,-0.52271 -0.516,-1.29784 -0.72862,-1.91475 -0.22361,-0.67082 -1.17229,-0.35459 -0.94868,0.31623 z" />
    <path
       style="fill:#d38d5f;stroke-width:1.39098"
       d="m 547.35006,822.01477 c -51.7603,-3.63061 -79.13878,-6.33551 -91.38831,-9.02883 -1.92791,-0.4239 -4.29296,-3.12549 -6.38844,-7.29749 -5.63006,-11.20922 -15.05017,-67.71182 -11.48959,-68.9156 1.5673,-0.52988 -0.85484,-8.40235 -13.12979,-42.67456 -14.68353,-40.99709 -16.60318,-43.48015 -45.55602,-58.92652 -21.93083,-11.70012 -27.23117,-15.42147 -37.30845,-26.19412 -12.19071,-13.03191 -20.36599,-29.99174 -23.50466,-48.76104 -0.47974,-2.86889 -0.33714,-5.21617 0.31689,-5.21617 2.23085,0 45.4943,28.04484 60.38255,39.14202 8.16632,6.0869 16.76099,11.61576 19.09926,12.28636 13.53148,3.88079 24.77511,-9.25099 28.23275,-32.97387 2.34964,-16.12082 -0.36469,-23.49855 -22.65389,-61.57485 -26.24239,-44.82946 -25.75049,-44.11035 -31.46313,-45.99569 -6.09223,-2.01062 -16.49311,-0.92414 -27.54117,2.87695 -10.42151,3.58552 -12.2919,2.919 -6.66295,-2.3744 4.93195,-4.63795 18.04424,-9.29671 32.40067,-11.51188 20.28692,-3.13023 26.26801,-1.28928 39.10788,12.03721 9.39662,9.75273 34.16546,43.31291 41.04186,55.60906 4.80579,8.59356 8.87289,11.46424 8.87289,6.26275 0,-4.89114 -30.11048,-48.84392 -43.97281,-64.18787 -2.65319,-2.93676 -4.24492,-5.69745 -3.53717,-6.13487 2.83282,-1.75078 20.09749,-3.38775 23.21777,-2.20142 4.50691,1.71352 11.84728,11.37568 28.46032,37.46241 12.91822,20.28493 18.08755,26.06209 18.08755,20.2144 0,-1.16396 -1.65645,-4.61936 -3.68101,-7.67866 -2.02454,-3.0593 -3.33074,-5.91263 -2.90264,-6.34072 1.87151,-1.87152 8.4923,4.72171 12.28383,12.23269 2.50548,4.9633 4.89986,8.02043 6.09241,7.77869 1.7605,-0.35687 4.72306,3.52886 23.27098,30.52252 7.40722,10.78004 7.4663,21.70645 0.23794,43.98767 -2.73051,8.41671 -3.84981,15.27323 -4.35056,26.65051 -0.65017,14.77183 -0.42215,16.35974 6.39166,44.51131 3.88624,16.05616 7.74481,34.82649 8.5746,41.71183 1.77343,14.71519 3.37539,19.37616 6.27681,18.26278 1.43245,-0.54967 2.05129,0.14576 2.04469,2.2978 -0.0164,5.36922 22.51498,64.9846 24.56068,64.9846 1.03255,0 1.87736,-0.66288 1.87736,-1.47307 0,-0.81019 0.6176,-1.09138 1.37244,-0.62486 2.00636,1.24 10.14521,28.28629 9.22982,30.67176 -0.84916,2.21291 -2.22633,2.24391 -25.90302,0.58317 z"
       id="path9"
       transform="scale(0.26458333)" />
  </g>
</svg>
