<?xml version="1.0" encoding="UTF-8" standalone="no"?>
<!-- Created with Inkscape (http://www.inkscape.org/) -->

<svg
   width="115.42306mm"
   height="119.20018mm"
   viewBox="0 0 115.42306 119.20018"
   version="1.1"
   id="svg1"
   xmlns="http://www.w3.org/2000/svg"
   xmlns:svg="http://www.w3.org/2000/svg">
  <defs
     id="defs1" />
  <g
     id="layer1"
     transform="translate(-37.486736,-99.802982)">
    <path
       style="fill:#000000;stroke-width:0.264583"
       id="path1"
       d="m 115.95836,194.21428 c -0.90613,-2.85116 -2.02987,-5.62656 -3.04784,-8.43841 -1.20482,-3.45746 -2.30061,-6.94676 -3.8802,-10.25578 -1.25423,-2.68765 -3.00551,-4.05194 -5.48784,-5.53116 -0.48633,-0.25908 -0.96819,-0.52674 -1.459,-0.77723 -1.97499,-1.00799 -1.28038,-0.57315 -3.288541,-1.64889 -1.850713,-0.9914 -3.582363,-2.09761 -5.302395,-3.2981 -2.009868,-1.50899 -3.794699,-3.30355 -5.242751,-5.36087 -0.776573,-1.10332 -1.023847,-1.62337 -1.667613,-2.78881 -1.145474,-2.22293 -1.931569,-4.58587 -2.347272,-7.04667 0.0209,-0.61608 -0.450054,-2.00484 -0.04192,-2.5553 0.0069,-0.009 0.140843,0.0537 0.288866,0.12009 1.588405,0.67551 2.98286,1.73054 4.435237,2.64701 1.228783,0.77538 2.471119,1.52907 3.7064,2.29406 3.107587,1.83353 5.964801,4.04083 8.861599,6.18047 1.47554,0.95266 2.88338,2.50571 4.7265,2.72389 0.29095,0.0344 0.5859,-0.009 0.87885,-0.0132 2.1886,-0.41808 3.10425,-1.6204 4.1165,-3.49151 1.05984,-2.23724 1.576,-4.65475 1.73424,-7.11201 0.0671,-3.18201 -1.4775,-6.00682 -2.96451,-8.71701 -2.014,-3.55903 -4.20578,-7.01024 -6.25785,-10.54688 -1.21277,-2.04715 -2.25719,-4.20509 -3.65721,-6.13546 -0.76284,-1.04423 -1.839393,-1.23265 -3.050391,-1.31445 -1.74009,-0.11493 -3.441763,0.36716 -5.089181,0.87314 -1.303811,0.33534 -2.520354,0.95289 -3.814815,1.30824 -0.04081,-0.0244 -0.0959,-0.0337 -0.122428,-0.0732 -0.101002,-0.15024 0.06971,-0.0965 0.108204,-0.15099 0.147045,-0.2082 0.16954,-0.48318 0.291991,-0.70673 0.09845,-0.17973 0.224386,-0.34297 0.336579,-0.51446 1.125559,-1.51935 2.853563,-2.15833 4.578567,-2.73934 2.461546,-0.78778 5.033836,-1.08523 7.598434,-1.2925 1.90939,-0.22417 3.04475,-0.0791 4.74499,0.78991 1.60642,1.07215 2.95738,2.48911 4.20062,3.95566 1.26502,1.45475 2.34888,3.04838 3.47295,4.61069 1.19681,1.57778 2.39156,3.15188 3.52816,4.77364 1.2661,1.70362 2.31619,3.55901 3.37334,5.39685 0.12136,0.23203 0.24273,0.46407 0.36409,0.6961 0.32804,0.62641 1.21392,0.16249 0.88588,-0.46392 v 0 c -0.12773,-0.24362 -0.25546,-0.48725 -0.38319,-0.73087 -1.07233,-1.86343 -2.13785,-3.7442 -3.42122,-5.47209 -1.13898,-1.62515 -2.33544,-3.20317 -3.53536,-4.78378 -1.13978,-1.58389 -2.23973,-3.19889 -3.52232,-4.6738 -1.3308,-1.56546 -2.7762,-3.08054 -4.51156,-4.20081 -1.86678,-0.93584 -3.19297,-1.14275 -5.27706,-0.89432 -2.645997,0.2145 -5.29905,0.52608 -7.837783,1.34183 -1.944338,0.65859 -3.85771,1.42033 -5.102074,3.14968 -0.48078,0.77146 -1.428726,2.36795 -0.07141,2.89325 0.177943,0.0689 0.380016,0.0348 0.570024,0.0522 1.300456,-0.36948 2.530737,-0.96455 3.839546,-1.31551 1.530588,-0.47211 3.112494,-0.93329 4.729876,-0.83101 0.917269,0.0575 1.719575,0.11012 2.306659,0.90454 1.384022,1.89934 2.398792,4.03658 3.601152,6.04936 2.04819,3.52983 4.23514,6.97475 6.24627,10.52637 1.39616,2.53992 2.88237,5.18958 2.843,8.17296 -0.14143,2.31459 -0.63154,4.59217 -1.61798,6.703 -0.76205,1.44312 -1.57667,2.62376 -3.27071,2.96386 -0.20305,0.0134 -0.40643,0.058 -0.60915,0.0403 -1.63779,-0.14252 -3.04986,-1.74118 -4.36612,-2.55597 -2.918788,-2.1557 -5.798249,-4.37869 -8.929206,-6.22627 -1.230127,-0.76179 -2.467372,-1.51218 -3.69102,-2.28434 -1.340191,-0.8457 -2.667455,-1.90039 -4.135154,-2.52881 -0.287004,-0.12289 -0.596614,-0.18423 -0.894921,-0.27634 -0.254818,0.0452 -0.533091,0.0196 -0.764453,0.13551 -1.02321,0.51278 -0.473556,2.62377 -0.41543,3.46568 0.438568,2.57109 1.256318,5.04205 2.458175,7.36343 0.679471,1.22605 0.928349,1.75106 1.74907,2.9132 1.510522,2.13888 3.370998,4.00403 5.464313,5.57261 1.758489,1.22505 3.527499,2.35521 5.418521,3.36789 2.019765,1.08162 1.313444,0.64209 3.274515,1.64156 0.47699,0.2431 0.94534,0.50277 1.41801,0.75416 2.26763,1.34361 3.96877,2.63811 5.0964,5.10262 1.56788,3.27821 2.64388,6.74038 3.84224,10.1651 1.00658,2.77978 2.11433,5.52441 3.01796,8.3405 0.1715,0.686 1.14164,0.44346 0.97014,-0.24253 z" />
    <path
       style="fill:#000000;stroke-width:0.264583"
       id="path2"
       d="m 109.01429,121.10647 c 1.69406,-0.5162 3.46949,-0.73368 5.23405,-0.80369 0.27822,0.0426 0.56505,0.0469 0.83467,0.12773 1.55433,0.46577 3.03179,2.76255 3.91005,4.0125 1.93899,2.7766 3.68695,5.67968 5.50947,8.53257 0.63894,1.06007 1.3342,2.084 2.00894,3.12116 0.3856,0.59271 1.22382,0.0474 0.83822,-0.54533 v 0 c -0.67325,-1.03483 -1.3671,-2.05638 -2.00445,-3.1142 -1.83067,-2.86541 -3.58624,-5.78138 -5.53445,-8.56979 -1.14427,-1.62292 -2.54391,-3.8648 -4.58629,-4.42685 -0.32984,-0.0908 -0.67809,-0.0913 -1.01714,-0.13695 -1.84353,0.0779 -3.69757,0.30083 -5.46779,0.84133 -0.6799,0.19425 -0.40518,1.15578 0.27472,0.96152 z" />
    <path
       style="fill:#000000;stroke-width:0.264583"
       id="path3"
       d="m 124.06655,130.86181 c 1.20854,0.53772 2.36399,1.1768 3.43325,1.95533 1.08482,0.889 1.5907,2.24266 2.18057,3.47616 0.11308,0.25282 0.22617,0.50563 0.33925,0.75845 0.28885,0.64542 1.20161,0.23693 0.91277,-0.40849 v 0 c -0.11663,-0.26046 -0.23325,-0.52092 -0.34987,-0.78138 -0.66294,-1.38625 -1.25263,-2.87734 -2.49499,-3.8538 -1.11521,-0.80841 -2.31444,-1.48136 -3.57377,-2.0407 -0.63245,-0.31623 -1.07966,0.5782 -0.44721,0.89443 z" />
    <path
       style="fill:#000000;stroke-width:0.264583"
       id="path4"
       d="m 130.76056,136.3592 c 0.63638,1.06034 1.38332,2.04751 2.03409,3.09881 0.54025,0.9891 1.22892,1.87536 1.90444,2.7741 1.00824,1.31723 2.03227,2.63882 2.83572,4.09384 0.68533,1.07818 0.90288,2.28841 1.01589,3.53654 0.17568,1.70315 -0.23172,3.36265 -0.70567,4.98348 -0.54947,1.87376 -1.22033,3.7021 -1.67174,5.60485 -0.34562,1.62163 -0.45112,3.27655 -0.49964,4.9294 -0.0683,1.15306 -0.009,2.28723 0.20974,3.41988 0.31166,1.50121 0.68008,2.98935 1.06805,4.4725 0.48768,1.95919 0.94031,3.92629 1.4532,5.87913 0.54232,1.94996 0.85432,3.9435 1.19673,5.93366 0.26288,1.31335 0.3237,2.65354 0.50334,3.97718 0.0844,0.78842 0.27365,1.56022 0.43176,2.3359 0.14124,0.69286 1.12109,0.49311 0.97984,-0.19975 v 0 c -0.15384,-0.75453 -0.33928,-1.50503 -0.42088,-2.27202 -0.1851,-1.3342 -0.23927,-2.68715 -0.50856,-4.01102 -0.34789,-2.01839 -0.66538,-4.04022 -1.21504,-6.01799 -0.51288,-1.9525 -0.96495,-3.9194 -1.45294,-5.87817 -0.38263,-1.46257 -0.74624,-2.92997 -1.05388,-4.41029 -0.20815,-1.05986 -0.25473,-2.1203 -0.19179,-3.1998 0.0461,-1.58515 0.14465,-3.17244 0.47317,-4.72824 0.44559,-1.88647 1.11753,-3.69678 1.65863,-5.55519 0.507,-1.74209 0.93122,-3.526 0.74148,-5.35505 -0.12902,-1.38429 -0.38403,-2.73163 -1.13703,-3.92974 -0.83028,-1.49316 -1.87085,-2.85824 -2.91106,-4.21 -0.65794,-0.87507 -1.33035,-1.73533 -1.85387,-2.70015 -0.64596,-1.04025 -1.38053,-2.0211 -2.01574,-3.068 -0.35083,-0.61394 -1.21907,-0.1178 -0.86824,0.49614 z" />
    <path
       style="fill:#000000;stroke-width:0.264583"
       id="path5"
       d="m 114.32528,194.21581 c 0.0318,2.44133 0.38328,4.8675 0.69097,7.28559 0.55556,3.62647 1.22111,7.23936 2.03392,10.81734 0.15666,0.68953 1.13181,0.46798 0.97515,-0.22155 v 0 c -0.80585,-3.54648 -1.46526,-7.12763 -2.01707,-10.72204 -0.30245,-2.37617 -0.64951,-4.76043 -0.68297,-7.15934 0,-0.70711 -1,-0.70711 -1,0 z" />
    <path
       style="fill:#000000;stroke-width:0.264583"
       id="path6"
       d="m 142.08523,193.4019 c 1.08372,3.01293 2.18728,6.02141 3.33229,9.01241 0.85539,2.25994 1.60174,4.55784 2.45302,6.81911 0.2492,0.66174 1.18504,0.30931 0.93583,-0.35243 v 0 c -0.85243,-2.26276 -1.59778,-4.56299 -2.45495,-6.82421 -1.13989,-2.9773 -2.23837,-5.97209 -3.3175,-8.97111 -0.22361,-0.67082 -1.17229,-0.35459 -0.94869,0.31623 z" />
    <path
       style="fill:#000000;stroke-width:0.264583"
       id="path7"
       d="m 141.30515,189.95756 c 0.38646,1.00004 0.7248,2.02224 1.02801,3.051 0.27818,0.79797 0.69745,1.52237 0.9619,2.32697 0.25573,1.10485 0.58144,2.18885 0.88939,3.27949 0.13926,0.38063 0.29108,0.75564 0.42615,1.13773 0.23628,0.66647 1.1788,0.33232 0.94252,-0.33415 v 0 c -0.12845,-0.36135 -0.26752,-0.71799 -0.40635,-1.07549 -0.3123,-1.10448 -0.63885,-2.20299 -0.90206,-3.32091 -0.26306,-0.79452 -0.65868,-1.51725 -0.95249,-2.29684 -0.30749,-1.03947 -0.64785,-2.0733 -1.03838,-3.08403 -0.22361,-0.67081 -1.1723,-0.35459 -0.94869,0.31623 z" />
    <path
       style="fill:#000000;stroke-width:0.264583"
       id="path8"
       d="m 117.75125,213.14344 c 0.26497,0.93729 0.50193,2.03877 1.37072,2.61993 0.26515,0.17737 0.57638,0.27358 0.86457,0.41036 3.9801,0.96075 8.14641,1.22228 12.22242,1.52105 2.48626,0.10555 4.95796,0.40272 7.43858,0.58318 1.98298,0.2501 3.97817,0.33864 5.97416,0.40135 1.86793,0.0781 3.72875,0.34165 5.59976,0.3229 1.94027,-0.31964 1.81716,-1.77072 1.51499,-3.33945 -0.42429,-1.55273 -0.86303,-3.10894 -1.36136,-4.64061 -0.31267,-1.00432 -0.66354,-1.97531 -1.3956,-2.7457 -0.42703,-0.37548 -0.97066,-0.58022 -1.4892,-0.79735 -0.65261,-0.27219 -1.03756,0.65075 -0.38494,0.92294 v 0 c 0.39505,0.16404 0.81053,0.3155 1.15549,0.56978 0.63813,0.64291 0.87811,1.51851 1.16354,2.3604 0.48817,1.49298 0.91114,3.01227 1.33111,4.52478 0.0935,0.4576 0.51282,1.72925 -0.13905,2.03569 -0.12709,0.0597 -0.27119,0.0731 -0.40678,0.10958 -1.85624,0.0256 -3.70302,-0.25526 -5.55659,-0.32247 -1.98233,-0.0622 -3.96363,-0.15089 -5.93304,-0.39921 -2.48045,-0.18011 -4.9519,-0.47799 -7.43799,-0.58314 -3.97662,-0.29131 -7.99178,-0.55813 -11.88875,-1.43726 -0.32042,-0.12928 -0.72661,-0.23033 -0.96474,-0.51823 -0.43233,-0.52271 -0.516,-1.29784 -0.72862,-1.91475 -0.22361,-0.67082 -1.17229,-0.35459 -0.94868,0.31623 z" />
    <path
       style="fill:#d38d5f;stroke-width:1.39098"
       d="m 547.35006,822.01477 c -51.7603,-3.63061 -79.13878,-6.33551 -91.38831,-9.02883 -1.92791,-0.4239 -4.29296,-3.12549 -6.38844,-7.29749 -5.63006,-11.20922 -15.05017,-67.71182 -11.48959,-68.9156 1.5673,-0.52988 -0.85484,-8.40235 -13.12979,-42.67456 -14.68353,-40.99709 -16.60318,-43.48015 -45.55602,-58.92652 -21.93083,-11.70012 -27.23117,-15.42147 -37.30845,-26.19412 -12.19071,-13.03191 -20.36599,-29.99174 -23.50466,-48.76104 -0.47974,-2.86889 -0.33714,-5.21617 0.31689,-5.21617 2.23085,0 45.4943,28.04484 60.38255,39.14202 8.16632,6.0869 16.76099,11.61576 19.09926,12.28636 13.53148,3.88079 24.77511,-9.25099 28.23275,-32.97387 2.34964,-16.12082 -0.36469,-23.49855 -22.65389,-61.57485 -26.24239,-44.82946 -25.75049,-44.11035 -31.46313,-45.99569 -6.09223,-2.01062 -16.49311,-0.92414 -27.54117,2.87695 -10.42151,3.58552 -12.2919,2.919 -6.66295,-2.3744 4.93195,-4.63795 18.04424,-9.29671 32.40067,-11.51188 20.28692,-3.13023 26.26801,-1.28928 39.10788,12.03721 9.39662,9.75273 34.16546,43.31291 41.04186,55.60906 4.80579,8.59356 8.87289,11.46424 8.87289,6.26275 0,-4.89114 -30.11048,-48.84392 -43.97281,-64.18787 -2.65319,-2.93676 -4.24492,-5.69745 -3.53717,-6.13487 2.83282,-1.75078 20.09749,-3.38775 23.21777,-2.20142 4.50691,1.71352 11.84728,11.37568 28.46032,37.46241 12.91822,20.28493 18.08755,26.06209 18.08755,20.2144 0,-1.16396 -1.65645,-4.61936 -3.68101,-7.67866 -2.02454,-3.0593 -3.33074,-5.91263 -2.90264,-6.34072 1.87151,-1.87152 8.4923,4.72171 12.28383,12.23269 2.50548,4.9633 4.89986,8.02043 6.09241,7.77869 1.7605,-0.35687 4.72306,3.52886 23.27098,30.52252 7.40722,10.78004 7.4663,21.70645 0.23794,43.98767 -2.73051,8.41671 -3.84981,15.27323 -4.35056,26.65051 -0.65017,14.77183 -0.42215,16.35974 6.39166,44.51131 3.88624,16.05616 7.74481,34.82649 8.5746,41.71183 1.77343,14.71519 3.37539,19.37616 6.27681,18.26278 1.43245,-0.54967 2.05129,0.14576 2.04469,2.2978 -0.0164,5.36922 22.51498,64.9846 24.56068,64.9846 1.03255,0 1.87736,-0.66288 1.87736,-1.47307 0,-0.81019 0.6176,-1.09138 1.37244,-0.62486 2.00636,1.24 10.14521,28.28629 9.22982,30.67176 -0.84916,2.21291 -2.22633,2.24391 -25.90302,0.58317 z"
       id="path9"
       transform="scale(0.26458333)" />
    <path
       style="fill:#000000;stroke-width:0.264583"
       id="path10"
       d="m 138.71008,160.28572 c 1.0769,0.62095 1.96516,1.48319 2.8601,2.33151 0.58286,0.56985 1.04419,1.23536 1.29373,2.0121 0.12333,0.53398 0.24209,1.11358 0.003,1.63087 -0.43904,0.43226 -1.0743,0.59445 -1.65089,0.76551 -0.78089,0.21246 -1.58901,0.26449 -2.39377,0.2925 -0.58073,0.0629 -1.10641,-0.1859 -1.64768,-0.35603 -0.67461,-0.2119 -0.97428,0.74214 -0.29967,0.95404 v 0 c 0.648,0.2034 1.2873,0.47656 1.98248,0.40137 0.88997,-0.0316 1.78295,-0.0946 2.64534,-0.33386 0.86832,-0.26184 1.80351,-0.53552 2.29569,-1.35977 0.27329,-0.76229 0.24003,-1.53239 0.0149,-2.30885 -0.31468,-0.93008 -0.84582,-1.7404 -1.55515,-2.42366 -0.9478,-0.89833 -1.89394,-1.80522 -3.03354,-2.46322 -0.60634,-0.36381 -1.12083,0.49369 -0.51449,0.85749 z" />
    <path
       style="fill:#000000;stroke-width:0.264583"
       id="path11"
       d="m 111.47248,145.89655 c -2.8303,-1.77828 -5.73764,-3.42834 -8.63785,-5.08864 -4.161526,-2.4035 -8.201685,-5.00578 -12.180375,-7.69869 -2.367364,-1.57268 -4.708522,-3.1791 -7.22463,-4.50698 -2.341137,-1.10018 -4.650555,-2.26518 -6.862038,-3.6081 -2.881005,-1.76802 -5.589058,-3.79319 -8.346805,-5.74275 -2.079442,-1.54202 -4.307456,-2.8957 -6.311794,-4.53723 -0.72921,-0.79884 -0.305281,-1.68317 0.0049,-2.5753 0.309721,-1.11286 0.575471,-2.26815 0.520382,-3.43193 -0.03337,-0.70506 -0.13695,-1.03158 -0.289403,-1.71741 -0.721416,-1.96584 -2.258211,-3.39107 -3.845981,-4.67845 -1.817852,-1.34254 -3.936235,-2.00443 -6.128716,-2.409424 -2.251913,-0.328022 -3.894979,0.178444 -5.837581,1.273454 -1.337329,0.83491 -2.59947,1.79417 -3.644495,2.98234 -0.440497,0.50084 -1.190443,1.51648 -1.589593,2.04584 -1.526045,2.10176 -2.507245,4.49107 -3.160858,6.98816 -0.29899,1.50852 -0.545632,3.05442 -0.415134,4.59758 0.09632,1.13897 0.24152,1.54906 0.511225,2.66863 0.69868,2.47251 1.984161,4.69848 3.519242,6.73813 1.521013,1.73707 2.892652,1.85467 5.046895,1.42351 2.153444,-0.57859 4.117983,-1.71078 5.951643,-2.95549 1.067033,-0.72434 1.786454,-1.62473 3.140991,-1.18654 0.177442,0.0776 0.362646,0.13935 0.532333,0.23266 0.778106,0.42788 1.488036,1.02901 2.187943,1.56625 1.161738,0.89174 1.070113,0.81762 2.274941,1.72135 2.555642,1.89278 5.121224,3.77508 7.590057,5.78066 2.305915,1.74337 4.428434,3.70345 6.700943,5.48829 2.07664,1.50933 4.23682,2.90537 6.209437,4.55159 1.95611,1.61046 3.975521,3.16705 6.075471,4.58765 2.116865,1.43557 4.288782,2.7979 6.564585,3.96713 2.141331,1.20878 4.38695,2.19085 6.640845,3.16372 2.2751,0.99162 4.55543,1.98296 6.88687,2.83553 1.30965,0.44861 2.63875,0.83636 3.95985,1.25002 0.6748,0.2113 0.97362,-0.74301 0.29881,-0.95431 v 0 c -1.30623,-0.409 -2.62026,-0.79266 -3.91556,-1.235 -2.31411,-0.84432 -4.5756,-1.8317 -6.83368,-2.81437 -2.233524,-0.96402 -4.458977,-1.93638 -6.580477,-3.13523 -2.241079,-1.14927 -4.376976,-2.49419 -6.461379,-3.90607 -2.073696,-1.39944 -4.064138,-2.93937 -5.995125,-4.52727 -1.982285,-1.64986 -4.143177,-3.06057 -6.232057,-4.56989 -2.268545,-1.78097 -4.385879,-3.73888 -6.688129,-5.47805 -2.479453,-2.0129 -5.053854,-3.90471 -7.620426,-5.80437 -1.252903,-0.93974 -1.057132,-0.78754 -2.26422,-1.7132 -0.76717,-0.58831 -1.545227,-1.23885 -2.405554,-1.69391 -0.211241,-0.11173 -0.440664,-0.18505 -0.660996,-0.27757 -0.229282,-0.0561 -0.453247,-0.14225 -0.687847,-0.16842 -1.27816,-0.14254 -2.315541,0.82227 -3.280484,1.4928 -1.721091,1.17604 -3.572193,2.24191 -5.59144,2.80279 -1.681557,0.36172 -2.854489,0.34072 -4.045945,-1.04652 -1.45756,-1.92702 -2.675665,-4.03494 -3.345735,-6.37168 -0.250381,-1.02392 -0.390285,-1.42223 -0.483421,-2.46082 -0.129889,-1.44846 0.108519,-2.90042 0.383204,-4.31739 0.6153,-2.37203 1.547199,-4.64065 2.991724,-6.63841 0.341677,-0.45341 1.12641,-1.51315 1.511429,-1.9542 0.97758,-1.11985 2.164247,-2.01931 3.418311,-2.80657 1.722739,-0.98867 3.154992,-1.44279 5.162661,-1.15927 2.028391,0.37064 3.992433,0.9703 5.680472,2.20331 1.414319,1.14158 2.805213,2.39741 3.499429,4.12093 0.387874,1.69416 0.31459,2.92873 -0.200146,4.60147 -0.482667,1.39218 -0.827056,2.48246 0.306937,3.67753 2.025626,1.65267 4.265552,3.0281 6.367402,4.57953 2.776802,1.96302 5.503841,4.00181 8.405341,5.78113 2.229575,1.35166 4.55385,2.53132 6.914351,3.63773 2.484726,1.30891 4.792141,2.90068 7.130537,4.45056 3.999471,2.70684 8.06078,5.32252 12.244053,7.7384 2.91657,1.66965 5.83762,3.3328 8.68746,5.11521 0.63246,0.31623 1.07967,-0.5782 0.44721,-0.89443 z" />
    <path
       style="fill:#000000;stroke-width:0.264583"
       id="path12"
       d="m 46.946192,101.39874 c -0.919022,1.0616 -1.963528,1.8889 -2.867628,2.97566 -0.989142,1.32032 -1.806093,2.75324 -2.291882,4.33164 -0.367633,1.35097 -0.323077,2.37584 0.177771,3.67132 0.527863,1.01943 1.436026,1.7175 2.304175,2.43004 0.981892,0.80711 2.063011,1.48712 3.110494,2.20578 0.890548,0.65855 1.854756,1.11597 2.895074,1.47236 0.922014,0.28676 1.872234,0.4822 2.8224,0.65094 0.902684,0.15436 1.817296,0.20527 2.731227,0.2307 0.879388,0.0206 0.946674,-0.15479 1.49828,0.48401 0.71115,0.85728 1.225683,1.85317 1.825747,2.78739 0.702881,1.08405 1.580571,2.03472 2.464784,2.97064 0.81778,0.88699 1.720575,1.68562 2.574965,2.53565 0.97206,1.02382 1.998392,1.98596 3.096657,2.87201 0.958704,0.84423 1.993974,1.59091 2.988397,2.39167 1.310415,0.94723 2.681756,1.81058 4.090969,2.60244 1.348171,0.70822 2.702883,1.37966 4.014846,2.15581 0.934415,0.56089 1.907336,1.05741 2.831935,1.63368 1.911017,1.04512 3.826286,2.08295 5.725174,3.15003 1.444553,0.8941 2.92033,1.73274 4.381203,2.59873 1.096016,0.60073 2.19361,1.20237 3.329223,1.72536 1.060127,0.46348 2.091153,0.97663 3.096152,1.54922 1.598721,0.87966 3.211565,1.73251 4.813265,2.60769 1.36455,0.69621 2.72741,1.421 4.18938,1.89231 0.57346,0.20927 1.16129,0.42794 1.62026,0.84312 0.46558,0.39478 0.74923,0.89912 1.261,1.24954 0.11368,0.0511 0.22735,0.10218 0.34103,0.15327 0.65069,0.27675 1.04209,-0.64347 0.39139,-0.92022 v 0 c -0.0625,-0.0238 -0.12497,-0.0477 -0.18746,-0.0715 -0.48849,-0.28456 -0.66863,-0.86893 -1.1541,-1.16942 -0.57926,-0.48277 -1.25229,-0.80109 -1.96705,-1.03711 -1.40321,-0.44625 -2.70433,-1.15714 -4.01496,-1.81753 -1.59651,-0.87234 -3.204145,-1.72244 -4.797789,-2.59905 -1.030242,-0.58676 -2.087025,-1.11333 -3.173396,-1.58889 -1.104826,-0.50702 -2.170444,-1.09515 -3.237185,-1.6771 -1.467813,-0.86934 -2.949472,-1.71294 -4.401095,-2.61021 -1.886268,-1.05982 -3.787852,-2.0924 -5.687584,-3.12782 -0.932789,-0.57708 -1.908389,-1.08228 -2.850362,-1.64483 -1.318508,-0.77947 -2.679282,-1.45688 -4.034419,-2.1671 -1.361731,-0.76342 -2.6846,-1.59931 -3.953378,-2.50939 -0.994521,-0.80027 -2.029711,-1.54629 -2.987675,-2.39108 -1.071615,-0.86395 -2.07105,-1.8038 -3.019216,-2.80261 -0.847296,-0.84258 -1.741979,-1.63465 -2.553345,-2.51348 -0.841828,-0.89069 -1.679993,-1.79346 -2.350379,-2.82449 -0.62866,-0.97754 -1.165786,-2.02125 -1.920036,-2.9116 -0.731393,-0.80457 -1.171548,-0.84531 -2.217565,-0.81874 -0.864725,-0.0238 -1.730203,-0.0705 -2.584429,-0.21575 -0.899626,-0.15899 -1.799122,-0.34387 -2.672773,-0.61231 -0.954673,-0.32704 -1.837693,-0.7408 -2.653462,-1.35094 -1.023932,-0.70238 -2.081408,-1.36626 -3.041787,-2.15417 -0.735462,-0.60357 -1.51711,-1.18501 -2.00691,-2.02034 -0.411096,-1.04372 -0.463116,-1.91942 -0.152783,-3.01681 0.437247,-1.45499 1.207328,-2.76636 2.106324,-3.98614 0.857316,-1.04719 1.927331,-1.87363 2.803633,-2.90526 0.499999,-0.5 -0.207108,-1.20711 -0.707107,-0.70711 z" />
    <path
       style="fill:#000000;stroke-width:0.264583"
       id="path13"
       d="m 60.908683,113.75561 c -0.37561,0.81681 -0.843481,1.57707 -1.35219,2.31543 -0.486291,0.51465 -0.888405,1.11876 -1.460812,1.54302 -0.322853,0.16967 -0.156112,0.096 -0.500335,0.22067 -0.660532,0.25238 -0.303607,1.18652 0.356925,0.93413 v 0 c 0.51538,-0.20385 0.264891,-0.084 0.75101,-0.36055 0.6444,-0.50372 1.140544,-1.15674 1.676688,-1.76992 0.55072,-0.79934 1.05519,-1.62526 1.45719,-2.51139 0.262612,-0.65654 -0.665864,-1.02793 -0.928476,-0.37139 z" />
    <path
       style="fill:#000000;stroke-width:0.264583"
       id="path14"
       d="m 44.795733,113.48513 c 1.507337,-0.0878 2.912473,0.35228 4.280932,0.93131 1.044829,0.45619 1.913633,1.14874 2.566688,2.07739 0.30157,0.58906 0.635538,1.15988 0.89203,1.77053 0.275868,0.65107 1.196626,0.26093 0.920755,-0.39014 v 0 c -0.288464,-0.67582 -0.648314,-1.31588 -0.998736,-1.96118 -0.773099,-1.07125 -1.77088,-1.89161 -2.99254,-2.41817 -1.491888,-0.62583 -3.028956,-1.09919 -4.669129,-1.00974 -0.707107,0 -0.707107,1 0,1 z" />
    <path
       style="fill:#cccccc;stroke-width:1.39098"
       d="m 201.69811,442.3462 c -2.61929,-6.32353 -11.47703,-13.50581 -19.6495,-15.93277 -8.56055,-2.54222 -15.13118,-2.80436 -15.13118,-0.60368 0,3.39537 -4.12758,-1.99143 -4.97107,-6.48763 -1.83751,-9.79478 14.23886,-33.72641 24.69578,-36.76266 11.99814,-3.48376 31.91862,5.25126 40.62426,17.81351 4.14164,5.97639 4.51514,10.88481 1.89732,24.93402 -1.4605,7.83811 -2.64655,10.28067 -7.41195,15.26421 -5.0515,5.28274 -6.36681,5.93291 -12.00231,5.93291 -5.71581,0 -6.49597,-0.40289 -8.05135,-4.15791 z"
       id="path15"
       transform="scale(0.26458333)" />
    <path
       style="fill:#cccccc;stroke-width:1.39098"
       d="m 234.37988,481.87078 c -15.48125,-12.06959 -21.7509,-15.89297 -26.06163,-15.89297 -2.35766,0 -8.74007,2.84405 -15.41003,6.86682 -14.97787,9.03343 -21.77251,11.02783 -27.77775,8.15348 -5.70407,-2.7302 -13.78071,-16.18183 -17.11763,-28.50939 -2.13382,-7.88299 -2.24469,-10.40911 -0.8212,-18.71026 0.90512,-5.27826 3.52844,-13.7492 5.82961,-18.82431 4.31663,-9.52012 6.47035,-11.28257 4.22647,-3.45864 -1.61958,5.64716 -0.51323,12.594 2.62242,16.46636 4.39238,5.42436 21.06644,16.9923 28.50358,19.7749 4.0066,1.49906 11.7577,3.16632 17.22467,3.70502 l 9.93993,0.97945 4.4911,7.12603 c 2.47011,3.91932 9.48074,12.29004 15.57918,18.6016 6.09844,6.31157 10.50759,11.439 9.7981,11.3943 -0.70948,-0.0447 -5.67155,-3.49728 -11.02682,-7.67239 z"
       id="path16"
       transform="scale(0.26458333)" />
    <path
       style="fill:#cccccc;stroke-width:1.39098"
       d="m 413.17316,579.89641 c -2.64872,-2.21721 -5.62663,-4.03129 -6.61755,-4.03129 -0.99092,0 -9.15179,-3.85353 -18.13526,-8.5634 -8.98348,-4.70988 -20.71517,-10.72629 -26.07044,-13.36982 -5.35527,-2.64353 -14.74437,-7.77685 -20.86468,-11.4074 -6.1203,-3.63053 -20.51693,-11.78244 -31.9925,-18.11535 -34.15006,-18.84604 -38.33658,-21.50593 -52.50804,-33.3608 -14.34926,-12.00361 -24.48672,-22.75028 -32.0627,-33.98951 l -4.60556,-6.83251 5.86534,-6.03499 5.86534,-6.03498 24.81302,17.52915 c 25.90152,18.29813 35.91236,24.54225 53.32809,33.26263 5.73778,2.87302 22.63817,13.1731 37.55642,22.88907 27.0795,17.63636 69.71968,43.16323 72.10002,43.16323 2.23064,0 3.00412,10.18918 1.4524,19.13285 -0.83024,4.78529 -1.91418,8.94665 -2.40877,9.24747 -0.49457,0.30082 -3.06638,-1.26713 -5.71513,-3.48435 z"
       id="path17"
       transform="scale(0.26458333)" />
    <path
       style="fill:#cccccc;stroke-width:1.39098"
       d="m 396.42889,589.9095 c -31.93245,-13.00187 -59.1818,-28.48166 -83.45872,-47.41114 -6.50282,-5.07045 -15.26599,-11.66569 -19.4737,-14.65607 -10.62846,-7.55355 -19.52197,-14.98659 -18.79775,-15.71081 0.60279,-0.60279 22.98981,11.66571 62.0825,34.02236 11.18349,6.39571 20.80071,11.62856 21.3716,11.62856 0.5709,0 8.94711,4.3005 18.6138,9.55668 9.66669,5.25617 20.50344,10.6443 24.08168,11.97362 3.57823,1.32931 7.91244,3.91415 9.63157,5.74408 1.71914,1.82993 3.94207,3.32714 4.93988,3.32714 1.43031,0 1.47893,0.73579 0.22975,3.47745 -0.87145,1.9126 -2.57936,3.46645 -3.79539,3.45301 -1.216,-0.0134 -8.15736,-2.44563 -15.42522,-5.40488 z"
       id="path18"
       transform="scale(0.26458333)" />
    <path
       style="fill:#666666;stroke-width:1.39098"
       d="m 206.40314,445.44451 c -1.61652,-0.2612 -3.63741,-2.00747 -4.49086,-3.88059 -0.85345,-1.87312 -2.19109,-3.40568 -2.97253,-3.40568 -0.78144,0 -1.26431,-0.68419 -1.07305,-1.52042 0.19126,-0.83623 -0.86997,-2.2446 -2.35829,-3.1297 -1.48832,-0.88511 -3.85281,-2.61076 -5.25443,-3.83478 -3.48338,-3.04202 -11.68107,-5.23402 -18.92418,-5.06019 -6.6613,0.15987 -8.52995,-1.52322 -8.56401,-7.71357 -0.0416,-7.56515 10.55993,-24.27572 19.81572,-31.2343 3.89912,-2.93138 5.57889,-3.29515 12.48797,-2.70437 10.42708,0.89159 23.76048,8.07707 29.9213,16.12483 3.80664,4.97255 4.52068,7.08576 4.52068,13.37907 0,21.17736 -9.77886,35.13355 -23.10832,32.9797 z"
       id="path19"
       transform="scale(0.26458333)" />
    <path
       style="fill:#4d4d4d;stroke-width:0.122946"
       d="m 195.7305,445.36672 c -5.06361,-1.19511 -8.95457,-2.72172 -12.26008,-4.81021 -1.88035,-1.18805 -9.3133,-6.28625 -11.09388,-7.6092 -4.49331,-3.33849 -8.245,-6.74282 -9.57033,-8.68424 -0.98776,-1.44692 -1.71297,-3.88779 -1.93154,-6.5011 -0.30075,-3.59574 1.47506,-9.1326 4.76819,-14.86696 0.91073,-1.58585 3.19815,-5.00613 4.14419,-6.19663 0.93111,-1.1717 4.13434,-4.46033 4.24219,-4.35529 0.0468,0.0456 -0.27093,0.51588 -0.70613,1.04504 -1.36761,1.66287 -2.60267,3.36234 -4.05482,5.57953 -3.57427,5.45727 -5.84889,10.27232 -6.99533,14.8081 -0.49508,1.95873 -0.61851,4.44521 -0.29358,5.91418 0.6964,3.14833 3.14443,7.1796 4.35988,7.1796 0.43228,0 0.62181,-0.27651 0.62181,-0.90716 0,-0.53243 0.39037,-1.01428 0.98735,-1.2187 0.31905,-0.10926 1.29646,-0.12921 3.68839,-0.0753 2.86105,0.0645 3.44157,0.11242 4.80411,0.39669 4.98678,1.04042 8.47848,2.23732 11.65802,3.99621 1.58409,0.87631 3.50245,2.1013 3.41992,2.18383 -0.0329,0.0329 -0.52333,-0.22356 -1.08992,-0.56982 -3.77603,-2.30766 -10.55891,-4.64584 -15.53783,-5.35617 -0.95372,-0.13606 -2.32303,-0.21434 -3.87281,-0.22139 -2.20115,-0.01 -2.43233,0.01 -2.82342,0.23933 -0.60158,0.35341 -0.91766,0.95258 -0.91766,1.73949 0,0.69901 0.21638,1.10413 0.83757,1.56811 0.30759,0.22976 0.5774,0.261 2.88164,0.33364 3.52123,0.11102 5.73269,0.48314 9.11989,1.53457 1.91459,0.59431 5.07723,1.84313 6.58874,2.60165 3.13818,1.57483 6.1396,4.08022 8.05748,6.72585 0.2451,0.3381 1.06581,1.81807 1.8238,3.28882 1.10954,2.15284 1.33419,2.67254 1.15253,2.66618 -0.12411,-0.004 -1.02787,-0.19724 -2.00837,-0.42865 z"
       id="path20"
       transform="scale(0.26458333)" />
    <path
       style="fill:#000000;stroke-width:0.264583"
       id="path21"
       d="m 139.06738,159.34561 c -0.1243,-0.0676 -0.24695,-0.13902 -0.3694,-0.21026 -0.13879,-0.0729 -0.26447,-0.16625 -0.39827,-0.24715 -0.0872,-0.05 -0.16646,-0.11132 -0.24692,-0.17128 -0.0139,-0.0106 -0.0278,-0.0213 -0.0417,-0.0319 -0.56214,-0.42895 -1.16878,0.36603 -0.60664,0.79498 v 0 c 0.017,0.0129 0.0339,0.0259 0.0509,0.0388 0.10645,0.0793 0.21319,0.15863 0.32795,0.22573 0.13841,0.0832 0.26797,0.18065 0.41189,0.25521 0.16446,0.0957 0.32787,0.19489 0.50089,0.27439 0.65653,0.26261 1.02792,-0.66587 0.37139,-0.92848 z" />
    <path
       style="fill:#b3b3b3;stroke-width:0.245893"
       d="m 520.09789,631.45807 c -1.37343,-0.44152 -2.53806,-0.68017 -2.88924,-0.59203 l -0.58832,0.14766 0.004,-2.91589 c 0.0106,-8.65043 1.10429,-18.67769 2.57549,-23.61257 l 0.37896,-1.27116 1.90201,1.13505 c 6.01409,3.58897 7.10113,4.39765 11.65199,8.66827 4.54937,4.26922 6.33889,7.05781 6.99618,10.90206 0.49949,2.92133 0.15008,4.17741 -1.46167,5.25456 -2.44712,1.63544 -7.30608,2.76172 -12.57966,2.91591 -3.57281,0.10445 -3.76049,0.0847 -5.98931,-0.63186 z"
       id="path22"
       transform="scale(0.26458333)" />
  </g>
</svg>
