<?xml version="1.0" encoding="UTF-8" standalone="no"?>
<!-- Created with Inkscape (http://www.inkscape.org/) -->

<svg
   width="296.99997mm"
   height="210mm"
   viewBox="0 0 1122.5196 793.70081"
   version="1.1"
   id="svg1"
   xmlns="http://www.w3.org/2000/svg"
   xmlns:svg="http://www.w3.org/2000/svg">
  <defs
     id="defs1" />
  <g
     id="layer1">
    <rect
       style="fill:#999999"
       id="rect1"
       width="253.14508"
       height="48.681763"
       x="392.23596"
       y="407.53592" />
    <path
       style="fill:#666666"
       d="m 395.01776,404.75412 55.63631,-77.89083 c 3.70909,1.85454 7.10419,4.55786 11.12726,5.56363 3.59834,0.89959 7.42237,-0.17642 11.12726,0 6.03823,0.28753 12.05209,0.96021 18.0818,1.39091 21.84607,1.56043 43.48092,1.3909 65.37266,1.3909 6.68966,0 35.92535,0.23825 36.16359,0 0.32784,-0.32784 0,-0.92727 0,-1.3909 3.93426,8.99196 12.43454,14.72484 18.0818,22.25452 4.86619,6.48825 7.74791,14.30451 12.51817,20.86361 4.85524,6.67596 10.3471,12.86887 15.29998,19.47271 3.73601,4.98134 7.05712,11.65928 12.51817,15.29998 0.38577,0.25718 1.06307,-0.32784 1.39091,0 0.36818,0.36819 0,3.6 0,4.17273"
       id="path1" />
    <path
       style="fill:#1a1a1a"
       id="path2"
       d="m 516.77012,365.85321 c -3.56869,-0.27824 -7.17067,-0.26276 -10.72328,0.21826 -0.90929,0.12311 -1.80794,0.31502 -2.71191,0.47254 -3.57657,0.82115 -7.36422,2.05314 -9.87745,4.89995 -0.37532,0.42515 -0.66627,0.91791 -0.99941,1.37687 -0.20438,0.50808 -0.47764,0.99363 -0.61315,1.52425 -0.36801,1.44111 -0.26782,3.31742 0.64893,4.56001 1.04918,1.42209 1.86547,1.53534 3.4519,2.27544 8.39521,2.48704 17.20796,1.4323 25.71135,0.15744 3.49162,-0.6574 7.01267,-1.40891 10.30396,-2.79082 1.04155,-0.43731 2.52315,-1.17006 3.35967,-2.01813 0.34084,-0.34554 0.54802,-0.80122 0.82204,-1.20183 0.0363,-0.4975 0.2294,-1.00845 0.10889,-1.49249 -0.5573,-2.23832 -3.24934,-3.2103 -5.09643,-3.89127 -2.1224,-0.78248 -4.4712,-1.35822 -6.64862,-1.94309 -3.51739,-0.88635 -7.08204,-1.55553 -10.6622,-2.12617 -1.31964,-0.21019 -1.61688,1.65605 -0.29725,1.86624 v 0 c 3.51548,0.5595 7.01559,1.21654 10.4697,2.08513 2.31619,0.62084 4.15566,1.0623 6.40641,1.86014 1.36882,0.48522 3.4734,1.12627 4.11647,2.64076 -0.12181,0.23342 -0.18544,0.50809 -0.36542,0.70027 -0.70304,0.75068 -1.97782,1.37218 -2.8586,1.74428 -3.17255,1.34031 -6.5718,2.06088 -9.93932,2.69818 -8.15102,1.22661 -16.59288,2.26528 -24.66397,-0.0159 -0.9155,-0.37939 -1.83961,-0.59989 -2.51774,-1.37179 -1.01005,-1.14972 -0.7103,-2.89799 -0.19663,-4.16536 0.25648,-0.37005 0.47706,-0.76775 0.76944,-1.11015 2.2192,-2.59887 5.7006,-3.64495 8.89372,-4.40058 0.85586,-0.15098 1.70646,-0.33557 2.56757,-0.45294 3.43551,-0.46825 6.91873,-0.48617 10.37024,-0.21723 1.33078,0.12098 1.50187,-1.76103 0.17109,-1.88201 z" />
    <path
       style="fill:#1a1a1a"
       id="path3"
       d="m 495.68273,368.02445 c -3.54625,-3.87786 -5.97388,-8.56321 -8.07185,-13.3355 -0.53827,-1.22305 -2.26794,-0.46182 -1.72966,0.76123 v 0 c 2.20745,5.01043 4.77061,9.93012 8.53031,13.97258 0.98876,0.89887 2.25995,-0.49944 1.2712,-1.39831 z" />
    <path
       style="fill:#1a1a1a"
       id="path4"
       d="m 493.16563,378.63898 c -4.25114,-0.86132 -8.34831,-2.39087 -12.30022,-4.15382 -3.11007,-1.69713 -5.49898,-3.39138 -6.75298,-6.79508 -0.0432,-0.25912 -0.0865,-0.51824 -0.12969,-0.77736 -0.24542,-1.31353 -2.10304,-0.96644 -1.85761,0.34709 v 0 c 0.074,0.36821 0.14797,0.73642 0.22195,1.10462 0.16613,0.42316 0.29664,0.8621 0.49839,1.26949 1.50765,3.0443 4.33086,5.02538 7.25127,6.57761 4.14148,1.84065 8.43461,3.4531 12.8978,4.30945 1.33078,0.12098 1.50187,-1.76102 0.17109,-1.882 z" />
    <path
       style="fill:#1a1a1a"
       id="path5"
       d="m 528.28969,368.47994 c 2.44631,-3.18609 3.46711,-7.08681 4.37008,-10.92806 0.1106,-0.55846 0.2212,-1.11692 0.3318,-1.67538 0.25914,-1.3109 -1.59475,-1.67738 -1.85389,-0.36648 v 0 c -0.1059,0.53672 -0.2118,1.07344 -0.3177,1.61016 -0.82944,3.54162 -1.7368,7.15077 -3.95249,10.11535 -0.87993,1.00564 0.54226,2.25006 1.4222,1.24441 z" />
    <path
       style="fill:#1a1a1a"
       id="path6"
       d="m 530.20618,378.70927 c 1.34495,1.82322 3.05828,3.45233 5.31015,4.06678 0.55524,0.15151 1.13889,0.1672 1.70833,0.2508 0.63404,-0.0874 1.28769,-0.0828 1.9021,-0.26204 3.85987,-1.1259 6.63532,-4.87569 8.72984,-8.05763 1.25693,-2.25922 0.6974,-1.15738 1.69938,-3.29489 0.56552,-1.2107 -1.14666,-2.01047 -1.71219,-0.79978 v 0 c -0.92096,1.97919 -0.40528,0.95633 -1.5674,3.05825 -1.77249,2.71303 -4.22264,6.12742 -7.44429,7.2274 -0.4389,0.14986 -0.91195,0.16944 -1.36793,0.25416 -0.4103,-0.0416 -0.8311,-0.0236 -1.23089,-0.12475 -1.94175,-0.49147 -3.37128,-1.89068 -4.51529,-3.45215 -0.80176,-1.06902 -2.31357,0.0648 -1.51181,1.13385 z" />
    <path
       style="fill:#000000"
       id="path13"
       d="m 509.95747,420.35601 a 21.906794,15.299983 0 0 1 25.80482,11.97254 21.906794,15.299983 0 0 1 -17.14083,18.02318 21.906794,15.299983 0 0 1 -25.80702,-11.97022 21.906794,15.299983 0 0 1 17.13752,-18.02472 l 4.33613,14.99727 z" />
    <path
       style="fill:#000000"
       id="path14"
       d="m 393.25879,409.23517 c 2.49546,-0.16343 4.98251,-0.44158 7.47407,-0.65731 2.60425,-0.19197 5.21565,-0.23542 7.82369,-0.3525 2.31242,-0.10172 4.62661,-0.1468 6.94098,-0.1688 2.92965,-0.0178 5.85939,-0.014 8.78909,-0.0137 3.67012,7.9e-4 7.34025,10e-4 11.01037,0.002 3.71409,3e-4 7.42819,3.2e-4 11.14228,3.3e-4 3.59917,0.0136 7.19734,0.007 10.79572,-0.0707 4.49125,-0.2023 8.98323,-0.30114 13.47872,-0.29063 5.29997,0.10993 10.59941,0.23203 15.90019,0.29784 5.21514,0.12213 10.43181,0.1692 15.64492,0.36387 5.48462,0.236 10.96002,0.63414 16.43972,0.95837 5.43329,0.2683 10.8639,0.57864 16.30064,0.76969 4.88127,0.22157 9.76592,0.32919 14.6515,0.38791 5.23138,0.1203 10.45982,-0.0521 15.68782,-0.21438 5.50978,-0.1573 11.02184,-0.19351 16.53281,-0.29314 6.15804,-0.19346 12.31618,-0.0375 18.47349,0.0842 7.34408,0.14145 14.68954,0.17984 22.03475,0.20635 5.43301,-0.0237 10.86498,0.0591 16.29675,0.16368 1.08887,0.0276 2.18503,0.0118 3.26759,0.15563 0.35853,0.0476 0.74497,0.10384 1.06635,0.28069 -0.3866,0.004 -0.66026,-0.43952 -0.87811,-0.70247 -0.0309,-0.0373 -0.0821,-0.15369 -0.0977,-0.10777 -0.0436,0.12865 -0.002,0.27166 -0.004,0.40749 -0.003,0.2451 -0.008,0.49018 -0.0122,0.73527 -0.1695,3.02337 0.39477,6.00581 0.96417,8.95852 0.69164,3.35177 1.26983,6.72406 1.66752,10.12326 0.3106,3.06035 0.42642,6.13667 0.31337,9.21007 -0.11856,2.41309 -0.53322,4.79599 -0.9086,7.1785 -0.22388,1.53475 -0.47039,3.06513 -0.62035,4.60938 -0.0904,1.01152 -0.0978,2.02761 -0.10172,3.04235 -0.007,0.0743 -0.007,0.14986 -0.0224,0.22302 -0.002,0.009 -0.0227,-0.008 -0.0204,-0.0166 0.0643,-0.23245 0.0999,-0.47912 0.21591,-0.69053 0.1288,-0.23469 0.31927,-0.43179 0.50558,-0.62403 0.0983,-0.10148 0.33732,-0.1093 0.34202,-0.25055 0.004,-0.11124 -0.22258,0.004 -0.33387,0.006 -4.49327,0.36103 -8.97024,0.88216 -13.464,1.23753 -4.09428,0.23701 -8.17689,0.64978 -12.27125,0.88294 -2.75018,0.15661 -4.28679,0.18668 -7.05132,0.27318 -6.87142,0.10557 -13.74397,0.0115 -20.61553,-0.0371 -3.76033,-0.0507 -7.522,0.014 -11.28119,-0.10987 -0.85199,-0.0281 -4.8383,-0.20495 -5.64531,-0.24028 -6.04909,-0.17244 -12.07873,-0.69493 -18.10946,-1.16668 -6.11512,-0.49644 -12.24078,-0.84977 -18.3656,-1.20115 -3.73481,-0.18704 -7.47145,-0.41626 -11.2128,-0.37724 -2.19535,0.0229 -3.01841,0.084 -5.1947,0.19081 -5.29524,0.43841 -10.60173,0.64572 -15.91235,0.76459 -6.60147,0.1139 -13.2037,0.0739 -19.80467,0.21701 -5.74646,0.18824 -11.49481,0.28016 -17.24209,0.0974 -4.17659,-0.20047 -8.35646,-0.29963 -12.53547,-0.42795 -4.48388,-0.23985 -8.96917,-0.37463 -13.45919,-0.37552 -5.07942,-0.0418 -10.14893,0.30259 -15.22039,0.52834 -5.22324,0.0738 -10.45048,0.033 -15.66961,-0.19401 -3.32612,-0.17699 -6.65249,-0.34329 -9.98241,-0.42607 -2.32686,-0.079 -4.65164,-0.0375 -6.97662,0.0629 -1.00759,-0.0496 -2.02381,0.19429 -3.029,0.15044 -0.0415,-0.002 0.0764,-0.0504 0.11726,-0.0425 0.25746,0.0499 0.50509,0.14143 0.75764,0.21215 0.3528,0.36988 0.7056,0.73976 1.05841,1.10963 0.0479,0.0777 0.10888,0.31734 0.14355,0.23297 0.0891,-0.21676 0.0289,-0.46786 0.0489,-0.70135 0.0296,-0.34478 0.0665,-0.68888 0.1,-1.0333 0.21437,-2.20629 0.10004,-0.96471 0.30839,-3.35888 0.4119,-4.0283 0.34624,-8.06905 0.15519,-12.10592 -0.26937,-4.03437 -0.7599,-8.04911 -1.0396,-12.0825 -0.28767,-3.68205 -0.16237,-7.37186 0.20795,-11.04117 0.25288,-1.79373 0.41917,-3.68274 1.23169,-5.33196 -0.26572,0.67898 0.30566,-0.70132 0.297,-0.50595 -0.003,0.0726 -0.0825,0.12209 -0.10431,0.19141 -0.005,0.0158 0.0343,-0.003 0.0481,-0.0125 0.0948,-0.0637 0.1829,-0.1367 0.27479,-0.20446 0.13838,-0.10206 0.27734,-0.20333 0.41601,-0.305 1.45373,-1.15589 2.53053,-2.68565 3.55394,-4.21523 0.82323,-1.2304 1.53067,-2.37495 2.32199,-3.63179 2.61965,-4.06951 4.91265,-8.33409 7.25322,-12.56656 2.03678,-3.61744 3.99311,-7.27971 6.02631,-10.89892 1.8841,-3.14681 3.63946,-6.37335 5.59768,-9.47496 2.30548,-3.54146 4.97807,-6.81205 7.71085,-10.02684 3.53103,-4.15803 7.17741,-8.21839 10.84131,-12.25954 2.1174,-2.40068 4.41361,-4.64144 6.49113,-7.07657 1.30156,-1.4244 2.42709,-2.99108 3.38776,-4.66135 0.18884,-0.32132 0.34889,-0.61993 0.56872,-0.91636 0.0415,-0.056 0.17597,-0.21513 0.13959,-0.15568 -0.20708,0.33827 -0.53648,0.57883 -0.38725,0.61598 0.41324,0.10291 0.85162,-0.0126 1.27743,-0.0189 7.31917,0.005 14.63449,0.19981 21.94742,0.48594 8.94661,0.39062 17.88759,0.89535 26.83351,1.3012 6.59525,0.34421 13.19587,0.54628 19.79894,0.64668 5.85978,0.0806 11.72025,0.0337 17.5801,0.0924 5.87487,0.15869 11.74902,0.38141 17.61962,0.65862 5.3125,0.24639 10.60809,0.74228 15.91138,1.12433 3.54877,0.27014 7.09704,0.54622 10.65131,0.73365 2.36856,0.12294 4.73878,0.17061 7.10892,0.0828 1.83113,-0.0631 3.65987,-0.15119 5.48777,-0.27695 0.25986,-0.0809 0.72934,0.16551 0.15458,0.0576 -0.0996,-0.0187 -0.19945,-0.13893 -0.28948,-0.0925 -0.0644,0.0332 0.039,0.14021 0.0697,0.20581 0.0981,0.20959 0.21055,0.41211 0.31583,0.61817 1.76749,3.40215 3.66745,6.73101 5.63475,10.02079 2.95749,4.68129 5.74816,9.47104 8.84215,14.06524 0.68379,1.01532 1.39327,2.0131 2.0899,3.01966 3.40131,4.91264 7.30803,9.43925 11.46731,13.71883 2.56657,2.55242 5.25546,4.97621 8.01678,7.31517 2.1018,1.72146 4.10433,3.54919 5.98738,5.50666 1.97477,2.2903 3.57803,4.85923 5.05332,7.48955 1.30352,2.29845 2.22431,4.78208 3.10551,7.26497 0.62583,2.02826 1.38867,4.00407 2.20124,5.96315 0.11623,0.25385 0.23247,0.50769 0.3487,0.76154 1.6782,3.64061 6.82681,1.26728 5.14861,-2.37333 v 0 c -0.0869,-0.18676 -0.17374,-0.37352 -0.26061,-0.56027 -0.77513,-1.86875 -1.50059,-3.75336 -2.09573,-5.68891 -0.991,-2.78709 -2.04075,-5.5678 -3.50657,-8.14671 -1.71748,-3.04526 -3.58553,-6.01962 -5.91228,-8.64404 -2.01924,-2.09192 -4.15578,-4.0572 -6.40633,-5.89945 -2.62323,-2.21975 -5.17603,-4.52178 -7.61673,-6.94187 -3.94531,-4.04989 -7.64447,-8.3409 -10.86969,-12.99281 -0.66981,-0.96674 -1.35204,-1.92498 -2.00942,-2.90022 -3.05253,-4.52849 -5.79992,-9.25383 -8.71849,-13.86785 -1.91897,-3.20587 -3.76913,-6.45164 -5.49205,-9.76779 -0.3815,-0.70331 -0.77032,-1.51893 -1.3226,-2.1122 -1.21681,-1.30709 -2.5917,-1.7426 -4.3251,-1.67513 -1.76909,0.12181 -3.53888,0.20697 -5.31115,0.26756 -2.19982,0.0838 -4.39967,0.033 -6.59811,-0.079 -3.51793,-0.18498 -7.02976,-0.46025 -10.54227,-0.72685 -5.3499,-0.38506 -10.69201,-0.88571 -16.05129,-1.13267 -5.94081,-0.28023 -11.88521,-0.5064 -17.8304,-0.66464 -5.85,-0.058 -11.70059,-0.0125 -17.55051,-0.092 -6.54612,-0.0993 -13.08977,-0.30009 -19.62812,-0.64151 -8.95771,-0.40626 -17.91045,-0.91221 -26.86888,-1.3027 -7.44429,-0.29095 -14.89133,-0.4902 -22.342,-0.48762 -1.67289,0.0683 -2.51221,-0.0462 -4.12364,0.68466 -1.06996,0.48525 -1.639,1.71511 -2.22427,2.64448 -0.7776,1.37338 -1.72106,2.64153 -2.7881,3.80584 -2.02222,2.39981 -4.30996,4.56781 -6.36855,6.93683 -3.70416,4.08639 -7.39124,8.19158 -10.96115,12.39605 -1.19677,1.40869 -2.29885,2.682 -3.44804,4.1286 -1.6759,2.10962 -3.23789,4.31246 -4.7398,6.54803 -2.00268,3.18634 -3.81824,6.48726 -5.74379,9.72045 -2.03815,3.63063 -4.00245,7.30258 -6.04437,10.93133 -2.28872,4.13882 -4.52822,8.31068 -7.08996,12.29012 -0.89036,1.41496 -1.30216,2.08879 -2.20184,3.44882 -0.66282,1.00197 -1.33771,2.02993 -2.22955,2.84704 -0.47675,0.34994 -1.00546,0.69257 -1.42319,1.11352 -0.56347,0.56783 -0.9835,1.20937 -1.31048,1.93595 -0.12683,0.28692 -0.26682,0.56838 -0.38048,0.86077 -0.77722,1.99932 -1.07376,4.1505 -1.33678,6.26496 -0.39596,3.9883 -0.53485,7.99825 -0.2224,11.99991 0.27967,3.99142 0.75321,7.96535 1.03225,11.95692 0.18003,3.78365 0.25077,7.57037 -0.14026,11.34618 -0.13166,1.51592 -0.30734,3.03092 -0.41978,4.54829 -0.0491,0.66284 -0.14687,2.06467 0.10238,2.63708 0.30526,0.70109 0.88023,1.25062 1.32035,1.87592 0.44294,0.18868 0.86557,0.43495 1.32884,0.56603 1.15851,0.32779 2.84388,-0.11615 4.05589,-0.0415 2.19665,-0.0951 4.39278,-0.13586 6.59128,-0.0593 3.29502,0.0814 6.58639,0.24839 9.87766,0.42249 5.38486,0.23207 10.77809,0.27851 16.16707,0.1937 4.98719,-0.22222 9.97246,-0.56254 14.96747,-0.52272 4.43234,1.8e-4 8.85976,0.13749 13.28608,0.37285 4.17733,0.12796 8.35546,0.22774 12.53037,0.4278 5.84798,0.18336 11.69699,0.0978 17.54414,-0.0959 6.60227,-0.14382 13.20587,-0.101 19.80863,-0.21709 5.36145,-0.12049 10.71916,-0.32669 16.06506,-0.77008 2.05081,-0.10205 2.83234,-0.16033 4.89796,-0.18393 3.63864,-0.0416 7.27268,0.18884 10.90499,0.36796 6.08566,0.34914 12.17219,0.69981 18.2482,1.1932 6.09539,0.4768 12.18978,1.0033 18.30368,1.17852 0.92861,0.0406 4.81397,0.21335 5.75614,0.24404 3.79155,0.12352 7.58543,0.0621 11.37811,0.11139 6.94422,0.0492 13.88947,0.14466 20.83352,0.0345 2.88487,-0.0908 4.38482,-0.11932 7.25853,-0.28348 4.11525,-0.23509 8.21881,-0.64871 12.33399,-0.88756 4.57005,-0.36277 9.12362,-0.88768 13.69286,-1.26034 0.95201,-0.14183 1.65936,-0.15346 2.51604,-0.70463 1.25666,-0.80852 1.77299,-2.12425 1.78974,-3.55015 0.003,-0.84042 0.005,-1.68207 0.0757,-2.52017 0.13625,-1.43105 0.37465,-2.84769 0.57736,-4.27027 0.4108,-2.60789 0.85576,-5.2174 0.9741,-7.85956 0.11563,-3.3617 8.2e-4,-6.72643 -0.34857,-10.07323 -0.41771,-3.53713 -1.00985,-7.04826 -1.7316,-10.53631 -0.49761,-2.57269 -1.02287,-5.16916 -0.86186,-7.80517 0.0259,-2.22365 0.073,-3.75966 -1.85452,-5.28353 -0.22649,-0.17906 -0.50884,-0.27298 -0.76326,-0.40947 -0.26585,-0.0961 -0.52678,-0.20712 -0.79755,-0.28836 -1.77282,-0.53193 -3.65819,-0.47933 -5.4864,-0.53406 -5.4613,-0.10511 -10.92283,-0.18825 -16.38538,-0.16469 -7.31468,-0.0264 -14.62961,-0.0645 -21.94315,-0.20528 -6.22882,-0.12314 -12.45849,-0.27896 -18.68803,-0.0844 -5.53544,0.10008 -11.07199,0.13627 -16.60622,0.29495 -5.14672,0.15975 -10.29381,0.33164 -15.44389,0.21206 -4.84196,-0.058 -9.68296,-0.16498 -14.52065,-0.38483 -5.39143,-0.18906 -10.77671,-0.49803 -16.16474,-0.76329 -5.52093,-0.32652 -11.03751,-0.72794 -16.56345,-0.96433 -5.26004,-0.19551 -10.52355,-0.24549 -15.78564,-0.36736 -5.31991,-0.066 -10.63844,-0.19006 -15.95757,-0.29827 -4.54033,-0.0101 -9.07733,0.0863 -13.61335,0.29193 -3.55782,0.0764 -7.11542,0.0826 -10.67403,0.0694 -3.71391,-10e-6 -7.42783,-3e-5 -11.14175,-3.3e-4 -3.67012,-3.6e-4 -7.34024,-0.001 -11.01036,-0.002 -2.94791,-2.9e-4 -5.89586,-0.004 -8.84373,0.014 -2.38114,0.0228 -4.7621,0.0694 -7.14123,0.17424 -2.68645,0.12068 -5.37654,0.164 -8.05877,0.36796 -2.48535,0.21551 -4.96615,0.49375 -7.45547,0.65573 -3.99495,0.33291 -3.52414,5.98262 0.47081,5.64971 z" />
    <path
       style="fill:#000000"
       id="path15"
       d="m 509.54111,376.81821 c 1.25924,0 2.51848,0 3.77772,0 4.0088,0 4.0088,-5.6693 0,-5.6693 v 0 c -1.25924,0 -2.51848,0 -3.77772,0 -4.00879,0 -4.00879,5.6693 0,5.6693 z" />
    <path
       style="fill:#000000"
       id="path16"
       d="m 488.71001,345.60748 a 102.2861,13.277522 0 0 1 120.48656,10.38992 102.2861,13.277522 0 0 1 -80.03311,15.64075 102.2861,13.277522 0 0 1 -120.49684,-10.38791 102.2861,13.277522 0 0 1 80.01765,-15.64208 l 20.24603,13.01483 z" />
    <path
       style="fill:#808080"
       id="path16-8"
       d="M 489.02113,340.47363 A 102.2861,13.277522 0 0 1 609.5077,350.86355 102.2861,13.277522 0 0 1 529.47458,366.5043 102.2861,13.277522 0 0 1 408.97774,356.11639 102.2861,13.277522 0 0 1 488.9954,340.47431 l 20.24602,13.01483 z" />
    <path
       style="fill:#000000"
       id="path17"
       d="m 406.56207,355.28292 c -0.0298,0.22919 -0.0409,0.4598 -0.0678,0.68924 -0.0288,0.22004 -0.0444,0.44133 -0.053,0.66298 -0.0149,0.22375 2.2e-4,0.4436 0.0375,0.66443 0.0363,0.21049 0.12178,0.40759 0.17057,0.61466 0.0551,0.14369 0.0768,0.29925 0.13151,0.44292 0.0218,0.0572 0.0493,0.11206 0.0739,0.16809 0.31361,0.5631 0.89478,0.76771 1.49369,0.48493 0.27222,-0.12853 0.37066,-0.31602 0.52699,-0.53898 0.26951,-0.47846 0.33342,-0.95774 0.32515,-1.49724 -0.01,-0.34766 -0.12608,-0.67051 -0.24634,-0.99137 -0.0875,-0.17607 -0.0962,-0.22702 -0.16846,-0.38918 -0.099,-0.18837 -0.20407,-0.38446 -0.36871,-0.52533 -0.0581,-0.0497 -0.11836,-0.0969 -0.17755,-0.1454 -0.0813,-0.0604 0.0264,0.0187 -0.13377,-0.0913 -0.008,-0.006 0.0194,0.007 0.0268,0.0144 0.0999,0.0941 0.11306,0.14177 0.0977,0.0905 0.0177,0.0181 0.0108,0.0131 -0.006,-0.0247 -0.58193,-1.2029 -2.28308,-0.37992 -1.70115,0.82298 v 0 c 0.0754,0.15287 0.0333,0.0729 0.12799,0.23913 0.13426,0.19773 0.31361,0.38079 0.49363,0.489 -0.0277,-0.026 -0.0542,-0.0533 -0.083,-0.0781 -0.0144,-0.0124 0.0477,0.0581 0.0397,0.0409 -0.13498,-0.29139 -0.006,0.0912 -0.041,-0.062 0.008,0.0179 0.0131,0.0375 0.024,0.0538 0.007,0.01 -0.0146,-0.0446 -0.0105,-0.0336 0.0345,0.0915 0.0634,0.18763 0.11228,0.27317 0.001,0.002 -3e-5,-0.005 -4e-5,-0.008 0.047,0.12439 0.10603,0.24605 0.12576,0.37855 0.009,0.14827 0.004,0.29262 -0.0347,0.43598 0.0784,-0.0488 0.14654,-0.11972 0.23466,-0.1475 0.41778,-0.1317 0.8297,-0.0408 1.03711,0.37158 0.007,0.0208 0.0154,0.0413 0.0217,0.0625 0.002,0.008 0.006,0.0324 0.004,0.0244 -0.0288,-0.10579 -0.0527,-0.21316 -0.0913,-0.3161 -0.0446,-0.17508 -0.10339,-0.34552 -0.14954,-0.51967 -0.002,0.005 -0.007,0.0225 -0.007,0.0165 -0.005,-0.0825 0.005,-0.16587 0.003,-0.24838 0.006,-0.1722 0.0187,-0.34404 0.0416,-0.51492 0.0249,-0.2136 0.039,-0.42776 0.0616,-0.64153 0.18898,-1.32284 -1.68179,-1.59009 -1.87077,-0.26725 z" />
    <path
       style="fill:#000000"
       id="path18"
       d="m 610.33145,354.15897 c -0.0362,0.34195 -0.0452,0.68595 -0.0527,1.02948 -0.007,0.43513 -0.007,0.87034 -0.008,1.30551 -9e-5,0.35618 1.4e-4,0.71235 2.7e-4,1.06853 0.005,0.13868 10e-5,0.27604 -0.0136,0.41392 -0.0101,0.10203 -0.007,0.11994 -0.0113,0.0616 0.17439,-0.71883 0.68573,-0.64171 1.18664,-0.56057 0.045,0.007 0.0761,0.0655 0.12162,0.0628 0.0235,-10e-4 -0.006,-0.0472 -0.0145,-0.0692 -0.0296,-0.0768 -0.0663,-0.15071 -0.0994,-0.22606 -0.14487,-0.41136 -0.36938,-0.85417 -0.35454,-1.30143 0.004,-0.009 0.008,-0.0371 0.011,-0.0276 0.006,0.0212 -3.1e-4,0.044 -2.1e-4,0.066 3e-5,0.008 -0.006,0.0262 6e-4,0.0228 0.0234,-0.0117 0.13612,-0.21308 0.14426,-0.22635 0.0103,-0.0143 0.0195,-0.0295 0.0309,-0.043 0.002,-0.003 -8.4e-4,0.008 -0.004,0.0107 -0.0773,0.0696 -0.13524,0.23179 -0.23563,0.20456 -0.49242,-0.13357 -0.97324,-0.348 -1.38811,-0.64499 -0.0331,-0.0237 -0.005,-0.26105 0.009,-0.37633 -0.1092,0.16846 -0.21814,0.33496 -0.34419,0.4915 -0.49612,0.65931 -0.24292,0.54278 1.21586,1.46661 0.0179,0.0113 0.55128,-0.50589 0.59945,-0.55207 0.0337,-0.0337 0.29314,-0.29447 0.34872,-0.34575 0.0246,-0.0227 0.0949,-0.0923 0.0781,-0.0633 -0.018,0.031 -0.0494,0.0546 -0.0819,0.0699 -0.32557,0.15293 -0.30054,0.0878 -0.71057,0.0334 -0.0639,-0.0387 -0.12761,-0.0778 -0.19183,-0.11603 -0.0593,-0.0353 0.10278,0.093 0.16057,0.13072 0.21197,0.1384 0.39859,0.18282 0.64191,0.22843 0.67164,0.0631 1.3464,0.0833 2.01992,0.11718 1.09369,0.0468 2.18541,0.12864 3.2781,0.19337 1.26519,0.0705 2.53256,0.0824 3.79937,0.0917 1.26589,0.0209 2.53173,0.0426 3.79773,0.0554 0.93993,0.006 1.87996,0.0168 2.81984,0.003 0.88848,-0.0261 1.77575,-0.0779 2.66315,-0.12691 0.43105,-0.0139 0.85972,-0.0623 1.28934,-0.0966 0.59383,-0.0781 1.19334,-0.0961 1.7915,-0.12349 0.84522,-0.0342 1.68824,-0.10328 2.53193,-0.16197 0.46286,-0.0432 1.02519,-0.0976 1.27239,-0.58943 0.28806,-0.57312 0.13239,-0.74633 -0.0587,-1.19609 -0.30456,-0.46681 -0.69792,-0.86285 -1.10372,-1.24091 -0.66294,-0.5895 -1.48755,-0.74412 -2.33324,-0.89018 -1.39112,-0.19451 -2.79653,-0.17619 -4.19627,-0.12537 -1.27439,0.0455 -2.54654,0.13488 -3.81773,0.23336 -0.51883,0.0526 -1.10752,0.0449 -1.5925,0.26635 -0.10127,0.0462 -0.19531,0.10689 -0.29297,0.16034 -0.10818,0.10385 -0.22943,0.19562 -0.32456,0.31155 -0.38601,0.47045 -0.48963,1.15007 -0.57268,1.73224 -0.0662,0.56562 -0.087,1.14495 0.0502,1.70247 0.0264,0.10718 0.0641,0.21125 0.0962,0.31687 0.19223,0.49238 0.50258,0.91626 0.96514,1.18729 0.29024,0.17006 0.44509,0.19662 0.75737,0.28903 0.14815,0.0239 0.29546,0.0538 0.44445,0.0718 0.28135,0.034 0.68091,0.0502 0.96122,0.0589 0.55662,0.0174 1.11374,0.0166 1.67054,0.0185 1.18367,0.0156 2.36624,-0.0126 3.54628,-0.10588 1.0246,-0.10001 2.04638,-0.24034 3.05965,-0.42264 0.47877,-0.10006 0.96994,-0.21183 1.39394,-0.46762 0.0727,-0.0439 0.14069,-0.0953 0.21104,-0.14288 0.38034,-0.32086 0.59244,-0.71506 0.54757,-1.22596 -0.0239,-0.27218 -0.1033,-0.38954 -0.21495,-0.62492 -0.34392,-0.56216 -0.83219,-1.0142 -1.34705,-1.41709 -0.37294,-0.2633 -0.7682,-0.5161 -1.20913,-0.65065 -0.43265,-0.13201 -0.62719,-0.14297 -1.07486,-0.20844 -1.30991,-0.13208 -2.62988,-0.10108 -3.9446,-0.0943 -1.01389,0.007 -2.02778,0.0134 -3.04169,0.018 -0.37187,0.001 -0.74247,-0.0108 -1.11168,0.0377 -0.2438,0.0368 -0.46731,0.14564 -0.70902,0.18923 -0.51764,0.11415 -0.861,0.35425 -1.0922,0.85524 -0.0558,0.12089 -0.0711,0.2566 -0.10671,0.3849 -0.0103,0.13215 -0.0312,0.2639 -0.0309,0.39644 0.002,0.58571 0.20603,1.19577 0.55935,1.66399 0.10225,0.13549 0.22775,0.25177 0.34162,0.37765 0.19032,0.12184 0.36823,0.26566 0.57095,0.3655 0.4018,0.1979 0.9206,0.31131 1.35594,0.38667 0.76328,0.13212 1.53522,0.1591 2.30722,0.1903 1.47056,0.0419 2.93801,-0.0917 4.3997,-0.23637 0.68415,-0.0813 1.38339,-0.15818 2.03775,-0.38826 0.0963,-0.0339 0.18985,-0.0753 0.28478,-0.11294 0.40769,-0.17227 0.76905,-0.42948 1.1457,-0.65738 0.11905,-0.0635 0.23477,-0.13285 0.35275,-0.19828 1.16772,-0.64966 0.24897,-2.30105 -0.91875,-1.6514 v 0 c -0.13931,0.0777 -0.27677,0.15851 -0.41654,0.23543 -0.29145,0.17817 -0.57242,0.37609 -0.88141,0.52368 -0.5602,0.24832 -1.19147,0.28899 -1.7906,0.36859 -1.37485,0.13638 -2.75508,0.26496 -4.13835,0.22866 -0.99334,-0.0387 -1.99812,-0.0738 -2.95469,-0.37203 -0.0362,-0.0283 -0.0769,-0.0517 -0.10857,-0.085 -0.16146,-0.17017 -0.24328,-0.40538 -0.26933,-0.63371 -0.0953,0.0237 0.0297,-0.012 -0.16234,0.15168 -0.0316,0.0269 -0.07,0.045 -0.10726,0.0635 -0.0172,0.009 -0.074,0.0176 -0.0567,0.009 0.0132,-0.006 0.0282,-0.008 0.0422,-0.0118 0.21239,-0.0431 0.42191,-0.0968 0.62451,-0.17465 0.0762,-0.0188 0.14844,-0.0147 0.22749,-0.0149 0.20453,-4.7e-4 0.40905,-0.001 0.61357,-0.002 1.0143,-0.005 2.02859,-0.0113 3.04287,-0.018 1.22358,-0.006 2.45166,-0.0354 3.67154,0.0759 0.10513,0.014 0.51409,0.0621 0.6569,0.0998 0.27007,0.0714 0.50744,0.22746 0.73467,0.3831 0.30901,0.23426 0.59432,0.49933 0.83282,0.80649 0.0258,-0.06 -0.0151,0.0419 -6.4e-4,-0.13351 0.0137,-0.16595 0.0752,-0.35343 0.23389,-0.43385 -0.0329,0.049 -0.13302,0.0865 -0.18182,0.10679 -0.20981,0.0871 -0.43401,0.1291 -0.6548,0.17769 -0.95162,0.17243 -1.91181,0.30245 -2.87401,0.39856 -1.12797,0.0907 -2.25859,0.11388 -3.39005,0.0999 -0.86052,-0.003 -1.72508,0.0101 -2.5818,-0.0817 -0.0341,-0.008 -0.27546,-0.0432 -0.31276,-0.0757 -0.0496,-0.0433 -0.0782,-0.1017 -0.11125,-0.15683 -0.14035,-0.38018 -0.12172,-0.7843 -0.0735,-1.1818 0.0244,-0.18461 0.0332,-0.28245 0.0718,-0.46072 0.013,-0.0601 0.0309,-0.11911 0.0458,-0.17879 0.009,-0.0358 0.0437,-0.11956 0.008,-0.11046 -0.0337,0.009 -0.0623,0.0309 -0.0935,0.0463 -0.0197,0.004 -0.0569,0.0333 -0.0592,0.0132 -0.002,-0.0211 0.0377,-0.0197 0.0577,-0.0266 0.0382,-0.0132 0.077,-0.0248 0.11644,-0.0335 0.18286,-0.0402 0.30243,-0.047 0.4999,-0.0637 0.13651,-0.0116 0.27321,-0.0208 0.40981,-0.0311 1.24561,-0.0965 2.49213,-0.18442 3.74087,-0.22898 1.27057,-0.0469 2.54598,-0.0681 3.8098,0.0998 0.34935,0.0585 0.9286,0.12659 1.2397,0.32064 0.0434,0.027 0.0826,0.0603 0.1239,0.0904 0.26215,0.24333 0.51381,0.49549 0.73841,0.77423 -0.0567,-0.27719 -0.10284,-0.39095 0.12123,-0.74275 0.0935,-0.14682 0.27544,-0.21365 0.42172,-0.30802 0.0178,-0.0115 0.0834,-0.012 0.0634,-0.005 -0.0575,0.0202 -0.27326,0.0363 -0.29894,0.0389 -0.82886,0.0577 -1.65704,0.12576 -2.48741,0.15941 -0.49292,0.0226 -0.98791,0.0385 -1.47961,0.0825 -0.0624,0.006 -0.12418,0.0166 -0.18627,0.0248 -0.0208,0.004 -0.0414,0.01 -0.0625,0.0119 -0.0423,0.005 -0.0848,0.006 -0.12721,0.008 -0.4141,0.0332 -0.82728,0.08 -1.24278,0.0935 -0.86214,0.0476 -1.72415,0.098 -2.5873,0.12425 -0.9241,0.0141 -1.84835,0.002 -2.77249,-0.003 -1.26772,-0.0127 -2.53528,-0.0347 -3.80289,-0.0554 -1.23418,-0.009 -2.46891,-0.0202 -3.70153,-0.0884 -1.09829,-0.065 -2.19561,-0.14738 -3.29491,-0.1943 -0.6098,-0.0306 -1.22015,-0.0538 -1.82913,-0.0978 0.0557,0.0392 0.11149,0.0566 0.16863,0.10027 0.0247,0.0188 0.0865,0.0884 0.0684,0.0632 -0.0833,-0.11562 -0.26627,-0.14823 -0.34303,-0.25513 -0.18091,-0.0345 -0.35857,-0.10423 -0.54273,-0.10346 -0.48828,0.002 -0.87379,0.44706 -1.18954,0.7616 -0.11715,0.11229 -0.24304,0.21609 -0.35169,0.33663 -0.005,0.006 0.0178,-0.006 0.0234,-4.6e-4 0.43614,0.42629 0.88168,0.84388 1.29669,1.29076 0.0167,0.0179 -0.0665,0.0606 -0.042,0.0602 0.0249,-3.8e-4 0.0295,-0.0402 0.0443,-0.0603 0.22625,-0.28608 0.43301,-0.58889 0.59858,-0.91442 0.0566,-0.14544 0.24814,-0.57688 0.12341,-0.68403 -1.03333,-0.88773 -1.35123,-1.00079 -1.88041,-0.20728 -0.0768,0.12596 -0.16331,0.24827 -0.22899,0.38057 -0.12909,0.26001 -0.20676,0.53481 -0.20351,0.82728 0.005,0.0962 0.004,0.19273 0.0141,0.28854 0.0613,0.60814 0.28728,1.18735 0.51398,1.74915 0.15527,0.32667 0.4312,0.94442 0.79186,1.09265 0.2335,0.096 0.49952,0.21302 0.74304,0.14649 0.63797,-0.17429 0.66843,-0.38615 0.82244,-0.79299 0.0617,-0.30421 0.0911,-0.6111 0.0783,-0.92217 -1.3e-4,-0.3555 -3.7e-4,-0.711 -2.8e-4,-1.0665 3e-4,-0.42186 1.6e-4,-0.84375 0.007,-1.26556 0.006,-0.28761 0.0126,-0.57567 0.0417,-0.86207 0.14756,-1.32809 -1.73064,-1.53678 -1.87821,-0.20869 z" />
  </g>
</svg>
